<svg width="16" height="16" viewBox="0 0 16 16" fill="none" xmlns="http://www.w3.org/2000/svg">
<path d="M15.5 8C15.5 3.85786 12.1421 0.5 8 0.5C3.85786 0.5 0.5 3.85786 0.5 8C0.5 12.1421 3.85786 15.5 8 15.5C12.1421 15.5 15.5 12.1421 15.5 8Z" fill="black" fill-opacity="0.5" stroke="white"/>
<path fill-rule="evenodd" clip-rule="evenodd" d="M6.5 10.692V5.32798C6.5 5.10698 6.68 4.92798 6.9 4.92798C6.99 4.92798 7.078 4.95798 7.149 5.01498L10.597 7.74998C10.77 7.88798 10.799 8.13998 10.662 8.31198C10.642 8.33798 10.617 8.36198 10.591 8.38198L7.142 11.01C6.967 11.144 6.716 11.11 6.582 10.935C6.529 10.865 6.5 10.78 6.5 10.692Z" fill="white"/>
</svg>
