<svg width="16" height="17" viewBox="0 0 16 17" fill="none" xmlns="http://www.w3.org/2000/svg">
<path d="M15.5 8.41406C15.5 4.27193 12.1421 0.914062 8 0.914062C3.85786 0.914062 0.5 4.27193 0.5 8.41406C0.5 12.5562 3.85786 15.9141 8 15.9141C12.1421 15.9141 15.5 12.5562 15.5 8.41406Z" fill="black" fill-opacity="0.5" stroke="white"/>
<path d="M7.25 6.03906C7.25 5.55581 6.85825 5.16406 6.375 5.16406C5.89175 5.16406 5.5 5.55581 5.5 6.03906V10.7891C5.5 11.2723 5.89175 11.6641 6.375 11.6641C6.85825 11.6641 7.25 11.2723 7.25 10.7891V6.03906Z" fill="white"/>
<path d="M10.5 6.03906C10.5 5.55581 10.1082 5.16406 9.625 5.16406C9.14175 5.16406 8.75 5.55581 8.75 6.03906V10.7891C8.75 11.2723 9.14175 11.6641 9.625 11.6641C10.1082 11.6641 10.5 11.2723 10.5 10.7891V6.03906Z" fill="white"/>
</svg>
