<svg width="181" height="180" viewBox="0 0 181 180" fill="none" xmlns="http://www.w3.org/2000/svg">
<g clip-path="url(#clip0_1_240)">
<rect x="0.5" width="180" height="180" rx="90" fill="#FEEA9C"/>
<g clip-path="url(#clip1_1_240)">
<path d="M60.1315 193.25C50.1175 194.483 44.4423 188.281 42.8679 180.239C41.3667 172.564 43.8198 164.283 48.8543 158.339C54.1085 152.119 64.3056 146.156 70.5483 144.297H112.252C118.513 146.156 128.71 152.119 133.946 158.339C138.981 164.301 141.434 172.583 139.933 180.239C138.358 188.281 132.683 194.483 122.669 193.25" fill="#FFEF6C"/>
<path d="M59.3653 158.47C55.7222 166.53 54.221 174.628 55.3195 181.989C55.8504 185.504 56.7291 188.964 58.2303 192.056C61.489 198.754 67.1642 202.232 73.407 204.183C79.1554 205.968 85.4165 206.686 91.403 206.502C97.3894 206.686 103.65 205.968 109.399 204.183C115.642 202.232 121.317 198.754 124.576 192.056C126.077 188.982 126.956 185.504 127.486 181.989C128.585 174.628 127.102 166.512 123.441 158.47" fill="#FFEF6C"/>
<path d="M123 194.266C123.659 194.91 124.794 195.039 125.692 195.02C126.039 195.02 126.405 195.057 126.753 195.02C127.284 195.002 127.833 195.02 128.364 194.91C129.261 194.744 130.122 194.468 130.891 194.1C131.458 193.879 131.989 193.53 132.538 193.272C132.795 193.161 133.051 193.014 133.307 192.867C133.655 192.665 134.021 192.517 134.351 192.315C134.863 191.965 135.541 191.634 135.889 191.211C136.621 190.585 137.28 189.867 137.902 189.15L138.452 188.432C139.642 186.831 140.575 184.972 141.106 183.003L141.234 182.524C141.417 181.88 141.527 181.236 141.6 180.408C141.674 179.414 141.692 178.476 141.765 177.574L141.912 176.341C141.948 176.065 141.985 175.807 141.985 175.531C142.113 173.599 141.802 171.667 141.326 169.955C140.85 168.244 140.447 166.532 139.825 164.747L139.642 164.25C139.55 163.974 139.44 163.735 139.312 163.514C139.257 163.404 139.202 163.312 139.147 163.183C138.928 162.686 138.671 162.207 138.36 161.747C138.104 161.342 137.847 160.956 137.555 160.588L136.621 159.355L135.962 158.453C135.687 158.085 135.431 157.68 135.156 157.294L134.754 156.76C134.351 156.208 133.838 155.748 133.399 155.251C132.703 154.404 131.861 153.705 131.037 153.061C130.744 152.822 130.451 152.601 130.158 152.362C129.335 151.736 128.529 151.092 127.705 150.485C127.229 150.117 126.735 149.785 126.241 149.454C125.252 148.847 124.392 148.368 123.476 147.945C122.854 147.65 122.213 147.356 121.591 147.043C121.041 146.749 120.511 146.454 119.778 146.031C117.691 144.853 115.439 143.823 112.986 143.105C112.767 143.05 112.382 142.884 112.071 142.939C111.76 142.939 111.668 142.939 111.467 142.921C111.229 142.902 111.009 142.847 110.771 142.81C110.405 142.737 110.021 142.682 109.636 142.663C109.178 142.626 108.721 142.645 108.245 142.663L106.158 142.7H103.869L103.137 142.737C102.569 142.737 102.002 142.737 101.434 142.737C100.537 142.682 99.4573 142.645 98.3771 142.682L97.2787 142.737L96.0887 142.792C95.3198 142.792 94.5326 142.774 93.6905 142.718C92.3907 142.645 91.036 142.571 89.6629 142.737L89.0405 142.829C88.656 142.884 88.2899 142.939 87.9603 142.939C87.6674 142.939 87.3013 142.902 86.7154 142.847C84.72 142.626 82.7977 142.682 81.1684 142.755L78.6969 142.866L75.7311 142.994L73.5343 143.068L71.5022 143.142L70.6234 143.179C70.4037 143.16 70.184 143.215 69.9827 143.289L69.525 143.418L68.8476 143.602L67.5112 144.043C66.9803 144.264 66.4494 144.504 65.9185 144.761C65.2228 145.111 64.5637 145.442 63.9047 145.718L62.9161 146.086C62.3486 146.307 61.7444 146.528 61.1403 146.859C60.7192 147.117 60.2615 147.411 59.8405 147.724L59.456 148C58.8336 148.442 58.1745 148.884 57.5154 149.27L57.1859 149.454C56.9113 149.601 56.655 149.767 56.3987 149.932C55.8861 150.282 55.3918 150.632 54.8975 151.018C53.6892 151.883 52.4993 152.859 51.4008 153.963C50.101 155.325 48.7097 156.576 47.3549 158.103C46.1284 159.484 44.9933 161.066 44.2061 162.833C43.7301 163.9 43.2175 165.06 42.7232 166.182C42.3937 166.863 42.2106 167.6 41.9909 168.317L41.5699 169.918L41.1488 171.501C40.9657 172.255 40.801 173.01 40.746 173.783C40.6545 174.795 40.7094 175.789 40.8193 176.525C40.8559 176.911 40.8925 177.28 40.9474 177.648L41.0573 178.347C41.2037 179.285 41.3502 180.298 41.5882 181.531C41.6614 182.009 41.7712 182.488 41.8994 182.966C42.1191 183.923 42.4303 184.862 42.8331 185.782C43.602 187.512 44.7736 189.094 46.2382 190.272C46.5311 190.475 46.9156 190.843 47.3183 191.229C47.7577 191.579 48.2154 191.965 48.6181 192.297C49.0209 192.554 49.387 192.793 49.68 192.996C51.6388 194.1 53.1583 194.431 55.0074 194.689L56.4719 194.799C57.0028 194.799 57.7718 194.799 58.4491 194.652C59.1265 194.468 59.7306 194.192 59.9686 193.75C60.0418 193.622 60.0602 193.474 60.0602 193.309C60.0602 192.941 59.8954 192.628 59.6208 192.37C58.9434 191.763 57.7168 191.708 57.131 191.616C56.417 191.56 55.6847 191.432 54.7877 191.303C53.9272 191.174 53.1034 190.99 52.2796 190.732C51.8036 190.567 51.291 190.401 50.7601 190.107C50.2841 189.886 49.8447 189.591 49.387 189.297C49.1857 189.186 49.0209 189.002 48.8561 188.837C48.6914 188.69 48.5449 188.542 48.3802 188.377C47.9774 187.972 47.5746 187.567 47.2085 187.107C46.824 186.647 46.4579 186.15 46.165 185.616C45.5425 184.604 45.1398 183.463 44.8469 182.322C44.7553 181.991 44.6821 181.641 44.6272 181.31V180.979L44.6089 180.519C44.5356 179.727 44.4075 178.973 44.2793 178.31L44.1878 177.684C44.0596 176.746 44.0047 175.789 43.9864 174.832V174.574C43.9132 172.918 44.5723 169.808 45.1764 168.52C45.5425 167.692 45.8721 166.9 46.2016 166.146C46.3114 165.87 46.4213 165.612 46.5128 165.354L46.7508 164.765C46.9156 164.361 47.062 163.974 47.2634 163.698C47.6479 163.072 48.0323 162.373 48.3802 161.692L48.8195 160.864C48.9294 160.643 49.0392 160.404 49.1857 160.183C49.6433 159.447 50.3024 158.821 51.0347 158.177C51.7487 157.57 52.481 156.962 53.2133 156.245L54.0554 155.38C54.2385 155.196 54.4032 154.993 54.6046 154.828C55.044 154.441 55.5383 154 56.1607 153.595L56.9845 153.098C57.369 152.877 57.7534 152.656 58.1196 152.417C59.3279 151.626 60.5544 150.816 61.836 150.117C63.5934 149.178 65.296 148.35 66.962 147.614C67.7858 147.246 68.6096 146.914 69.4151 146.602C69.8179 146.436 70.2207 146.307 70.6234 146.178C70.8248 146.105 70.715 146.141 70.7516 146.123H71.3923L72.0148 146.105C72.6738 146.105 73.3329 146.086 73.9919 146.031C74.3215 146.013 74.5961 145.939 74.8341 145.884L75.1087 145.829C75.4382 145.773 75.786 145.737 76.1522 145.737C76.9577 145.737 77.7998 145.81 78.6969 145.902C79.5207 145.994 80.3812 146.068 81.2782 146.086C82.0471 146.086 82.7794 146.031 83.53 145.976H83.8412C84.8481 145.865 85.855 145.829 86.8619 145.792L88.7476 145.7C89.1503 145.681 89.6263 145.737 90.1389 145.792C90.3952 145.81 90.6332 145.847 90.8712 145.865C91.6767 145.921 92.6287 145.976 93.6173 145.921C94.4411 145.865 94.972 145.847 95.4297 145.847C96.1803 145.847 96.821 145.81 98.2856 145.608C99.3108 145.461 100.061 145.35 100.885 145.571C101.636 145.773 102.533 145.865 103.65 145.865C104.309 145.865 104.968 145.829 105.627 145.792C106.615 145.737 107.531 145.7 108.409 145.773C109.471 145.847 110.478 145.921 111.448 145.994C112.199 146.049 111.632 145.994 112.309 146.197C112.712 146.344 113.114 146.509 113.499 146.675C115.055 147.338 116.483 148 117.856 148.644C118.314 148.847 118.753 149.031 119.211 149.178C119.668 149.325 120.089 149.491 120.456 149.73C120.84 149.969 121.188 150.227 121.554 150.503C122.177 150.981 122.817 151.497 123.586 151.92C123.989 152.141 124.41 152.325 124.831 152.509C125.087 152.619 125.344 152.73 125.582 152.859C126.314 153.263 126.991 153.852 127.687 154.515C128.236 155.012 128.767 155.564 129.39 156.079C129.774 156.41 130.177 156.742 130.598 157.036C130.891 157.257 131.147 157.496 131.422 157.735C131.733 158.011 131.953 158.251 132.117 158.49C132.374 158.876 132.648 159.134 132.959 159.521C133.948 160.662 135.101 162.318 135.944 164.158L136.255 164.857C136.896 166.403 137.518 168.078 138.031 170.158L138.122 170.507C138.507 172.182 138.726 173.967 138.818 175.715C138.836 175.991 138.873 176.194 138.928 176.47C138.946 176.617 138.928 176.819 138.928 176.967C138.928 177.188 138.873 177.408 138.836 177.648C138.781 177.979 138.726 178.31 138.69 178.641C138.616 179.101 138.598 179.58 138.561 180.04L138.525 180.427C138.47 180.923 138.36 181.475 138.14 182.046C137.738 183.371 137.152 184.604 136.42 185.727C136.218 186.021 136.035 186.334 135.779 186.592C135.175 187.346 134.497 188.045 133.802 188.763C133.582 189.021 133.326 189.26 133.069 189.481C132.978 189.573 132.868 189.683 132.758 189.794C132.593 189.996 132.447 190.07 132.355 190.162C131.934 190.548 131.312 190.861 130.671 191.1L130.323 191.248L129.335 191.505C128.785 191.652 128.236 191.671 127.669 191.818C126.973 191.892 126.296 192.076 125.582 192.131L125.344 192.168C124.721 192.278 123.842 192.297 123.293 192.646C122.854 192.941 122.598 193.272 122.616 193.622C122.616 193.842 122.726 194.082 122.945 194.284L123 194.266Z" fill="#231F20"/>
<path d="M122.688 159.151C122.358 159.869 122.651 160.586 122.853 161.194L123.054 161.893C123.146 162.243 123.237 162.592 123.347 162.942C123.548 163.512 123.805 164.064 124.061 164.58C124.244 164.948 124.409 165.334 124.537 165.721C124.592 165.905 124.647 166.089 124.702 166.273C124.775 166.531 124.793 166.788 124.848 167.064C124.903 167.487 124.958 167.966 125.068 168.316C125.214 168.941 125.324 169.567 125.416 170.193L125.507 170.782C125.654 172.088 125.8 173.45 125.947 174.812L125.983 175.143C126.02 175.585 126.075 176.027 126.166 176.597C126.276 177.278 126.386 177.922 126.331 178.548C126.313 178.842 126.258 179.118 126.203 179.394L126.093 179.946C125.855 181.235 125.727 182.56 125.58 183.811C125.452 185.044 125.05 186.24 124.555 187.436L124.409 187.768C124.336 187.952 124.281 188.117 124.226 188.301C124.207 188.375 124.189 188.467 124.152 188.541C124.024 188.89 123.896 189.24 123.786 189.59L123.512 190.51C123.402 190.841 123.292 191.191 123.146 191.504C123.036 191.743 122.926 191.964 122.798 192.185C122.651 192.461 122.432 192.718 122.249 192.957L121.974 193.307C121.699 193.675 121.461 194.062 121.15 194.411C120.619 194.927 120.198 195.534 119.74 196.086C119.594 196.288 119.393 196.472 119.228 196.656C118.752 197.172 118.203 197.632 117.635 198.074C117.306 198.331 116.976 198.57 116.628 198.81C116.006 199.325 115.457 199.73 114.889 200.171C114.505 200.484 114.102 200.779 113.662 201.036C113.278 201.276 112.857 201.423 112.289 201.644C110.66 202.251 108.994 202.803 107.237 203.355C106.944 203.447 106.669 203.539 106.413 203.558C106.23 203.576 106.065 203.576 105.882 203.576C105.589 203.576 105.314 203.576 105.021 203.613C104.692 203.668 104.344 203.742 104.015 203.815L102.495 204.128C101.928 204.22 101.378 204.331 100.811 204.404L100.262 204.478C99.8405 204.533 99.4194 204.588 98.9984 204.607C98.321 204.607 97.5155 204.643 96.71 204.735L95.8861 204.846L94.9891 204.938C94.4032 204.975 93.8174 204.938 93.195 204.901C92.243 204.827 91.1263 204.717 90.0827 204.919L89.6068 205.011C89.3138 205.067 89.0392 205.122 88.8012 205.122C88.5816 205.122 88.3069 205.085 87.8676 204.993C86.3847 204.735 84.9384 204.68 83.7118 204.625L81.8628 204.515C81.1305 204.459 80.3799 204.386 79.6476 204.294C79.0984 204.239 78.5492 204.128 78 204.055L76.4988 203.778C76.096 203.705 75.6933 203.631 75.2905 203.484L74.8145 203.318C74.5033 203.19 74.1738 203.079 73.8626 202.969C73.4781 202.84 73.057 202.729 72.6543 202.619C72.1234 202.453 71.5925 202.306 71.1348 202.049C70.9151 201.92 70.6954 201.791 70.4757 201.644C70.1096 201.386 69.7251 201.128 69.2858 200.908C68.9745 200.76 68.6084 200.613 68.2606 200.484L67.9493 200.355C67.4367 200.153 66.9607 199.859 66.5031 199.527L66.3017 199.362C66.1369 199.215 65.9722 199.086 65.7891 198.957C65.4229 198.718 65.0934 198.423 64.7456 198.166C63.9401 197.485 63.1528 196.767 62.3473 196.012C61.3587 195.111 60.6264 193.97 60.0223 192.7C59.4731 191.54 58.9788 190.307 58.4113 189.074C58.0634 188.32 57.8071 187.455 57.6424 186.608C57.5508 186.093 57.4227 185.559 57.2945 185.044C57.203 184.658 57.1298 184.29 57.0748 183.885C57.0199 183.498 57.0016 183.112 56.9833 182.725C56.9467 182.173 56.9284 181.639 56.8918 181.106C56.8002 180.406 56.6904 179.744 56.5806 179.247C56.5256 178.989 56.5073 178.732 56.4707 178.474L56.4158 177.996C56.3609 177.333 56.3426 176.615 56.4524 175.75C56.489 175.419 56.5256 175.088 56.5806 174.757L56.9101 172.751C57.0932 171.499 57.2396 170.211 57.2762 168.941C57.2945 168.463 57.5691 167.543 57.8071 166.899C57.917 166.604 58.0085 166.31 58.0817 166.089C58.5394 164.635 58.8506 163.678 59.2351 162.445C59.3266 162.114 59.4365 161.801 59.5646 161.488C59.8026 160.789 60.3152 159.501 59.7111 158.764C59.6196 158.654 59.5097 158.562 59.3633 158.488C59.052 158.323 58.7042 158.268 58.3747 158.341C57.5508 158.525 57.0199 159.464 56.7819 159.942C56.4707 160.494 56.2144 161.12 55.9581 161.893C55.7018 162.647 55.537 163.402 55.3723 164.175C55.2807 164.635 55.1892 165.095 55.0611 165.647L54.8048 167.046C54.7681 167.248 54.7132 167.451 54.6583 167.653C54.6034 167.837 54.5668 168.021 54.5118 168.224C54.402 168.72 54.3288 169.236 54.2555 169.733L54.0542 171.297C53.9077 172.328 53.7429 173.34 53.5965 174.333C53.5416 174.628 53.5233 174.922 53.45 175.217L53.3768 175.493L53.2669 175.879C53.1022 176.56 53.1754 177.241 53.212 177.848L53.2669 178.401C53.3219 179.229 53.4317 180.057 53.5599 180.867L53.5965 181.087C53.8162 182.523 54.2738 185.099 54.402 186.314C54.4752 187.087 54.6217 187.823 54.8414 188.522C54.9146 188.762 54.9878 189.001 55.0794 189.222L55.2991 189.737C55.4638 190.087 55.6103 190.399 55.7018 190.712C55.8849 191.338 56.2144 191.964 56.5622 192.534C56.7087 192.773 56.8735 192.994 57.0382 193.215L57.441 193.749C57.8804 194.356 58.1916 195.092 58.631 195.828C59.0154 196.546 59.4731 197.264 60.0772 197.889C60.3335 198.129 60.5898 198.368 60.8461 198.589L61.3587 198.994C61.7432 199.325 62.1643 199.675 62.6036 200.116L63.1895 200.687C63.4641 200.944 63.7204 201.22 64.0133 201.441C64.9836 202.214 66.082 202.803 67.1255 203.429C70.0364 205.14 72.9472 206.079 75.7116 206.686L76.1876 206.797C76.7002 206.907 77.2128 207.017 77.7437 207.073C78.0183 207.109 78.238 207.073 78.4211 207.073H78.659C78.9154 207.054 79.2083 207.073 79.4829 207.109C80.1053 207.201 80.7644 207.385 81.4417 207.57C82.0825 207.754 82.7416 207.901 83.4555 207.993C84.0597 208.048 84.6455 208.048 85.2496 208.03H85.5059L87.8859 207.974L89.3688 207.901C89.68 207.882 90.0827 207.938 90.4672 207.974C90.6503 207.993 90.8516 208.011 91.0347 208.03C91.6572 208.066 92.3345 208.177 93.1584 208.103C93.8174 208.048 94.2202 208.03 94.5863 208.011C95.1722 207.974 95.6848 207.956 96.8198 207.68C97.6253 207.478 98.1928 207.33 98.8519 207.496C99.456 207.643 100.188 207.662 101.067 207.551C101.58 207.478 102.092 207.367 102.605 207.257C103.355 207.091 104.069 206.907 104.765 206.833C108.134 206.521 110.843 205.821 113.15 204.754C113.534 204.588 113.864 204.349 114.193 204.128C114.523 203.907 114.834 203.668 115.145 203.521C115.493 203.374 115.841 203.245 116.189 203.098C116.811 202.858 117.452 202.582 118.056 202.104C118.367 201.846 118.624 201.552 118.88 201.276L119.338 200.742C119.832 200.245 120.436 199.803 121.077 199.307C121.571 198.902 122.084 198.497 122.523 197.963C122.816 197.632 123.054 197.245 123.292 196.877L123.786 196.086C123.969 195.773 124.134 195.552 124.317 195.368C124.592 195.074 124.738 194.779 124.958 194.411C125.617 193.27 126.386 191.706 127.045 190.105L127.301 189.498C127.851 188.154 128.272 186.682 128.638 184.897L128.693 184.602C128.967 183.167 129.187 181.658 129.224 180.13C129.224 179.891 129.187 179.707 129.15 179.468C129.15 179.339 129.15 179.173 129.15 179.045L129.224 178.474C129.26 178.198 129.315 177.904 129.297 177.609C129.297 177.204 129.242 176.799 129.187 176.413L129.132 176.082C129.059 175.658 129.04 175.198 129.022 174.683C128.949 173.505 128.876 172.346 128.766 171.187L128.674 170.248C128.583 169.401 128.491 168.518 128.198 167.672C128.107 167.377 128.015 167.083 127.887 166.807C127.832 166.696 127.777 166.567 127.722 166.457C127.613 166.254 127.576 166.107 127.539 166.015C127.32 165.555 127.155 164.985 127.027 164.414L126.935 164.101L126.715 163.236C126.606 162.758 126.477 162.279 126.294 161.819C126.093 161.249 125.818 160.697 125.507 160.181L125.416 159.997C125.159 159.519 124.775 158.893 124.244 158.672C123.823 158.488 123.438 158.507 123.127 158.691C122.926 158.801 122.779 158.985 122.67 159.224L122.688 159.151Z" fill="#231F20"/>
<path d="M129.036 151.109C135.682 147.63 143.316 142.257 148.918 136C154.52 129.761 159.92 118.075 161.495 109.757C164.68 92.8443 161.477 72.7297 152.268 59.369C141.632 43.9472 123.16 28.4885 91.4149 28.5621C59.6702 28.4885 41.1982 43.9288 30.5617 59.3506C21.3349 72.7113 18.1312 92.8443 21.3166 109.757C22.891 118.093 28.2917 129.761 33.8937 136C39.4957 142.238 46.965 148.017 53.7753 151.109C61.1714 154.44 72.1557 156.482 80.2109 157.623C87.4239 158.636 94.7468 158.746 101.978 157.899C110.381 156.924 121.622 154.973 129.018 151.109H129.036Z" fill="#FFEF6C"/>
<path d="M72.5119 102.58C72.4387 102.451 72.3838 102.341 72.3105 102.23C72.1641 101.972 72.0909 101.678 72.0359 101.328C72.0176 101.181 71.9993 101.034 71.9993 100.868C71.9993 100.647 71.9627 100.427 71.8895 100.243C71.6698 99.6352 71.1389 98.9911 70.608 98.347C70.5714 98.2918 70.5164 98.2366 70.4981 98.1814C69.8208 97.3164 68.704 96.838 67.807 96.6355L67.2028 96.4699C67.0381 96.4331 66.855 96.4147 66.6902 96.3779C66.855 95.4577 67.3859 94.1695 68.9603 92.7893C69.4363 92.3844 69.1068 91.6115 68.5026 91.7035C67.7154 91.8139 66.7818 92.0163 65.7932 92.366C65.7932 92.366 65.7199 92.4028 65.6833 92.4028C65.189 92.5684 64.6947 92.7893 64.2004 93.0285C63.7061 93.2309 63.1752 93.4702 62.6809 93.6726C61.2713 94.2799 61.253 95.1817 60.3376 95.7706C59.4223 96.3595 59.6236 98.0342 58.8364 99.1936C58.0492 100.353 58.5435 101.825 58.5435 101.825C58.3788 102.12 58.2689 102.451 58.2323 102.874C58.1774 103.445 58.2689 104.015 58.4154 104.53C58.5069 104.843 58.5984 105.138 58.7266 105.469C58.8364 105.763 58.9646 106.04 59.1293 106.279C59.2026 106.389 59.2209 106.518 59.2575 106.647C59.2941 106.757 59.349 106.868 59.404 106.978C59.5504 107.254 59.7701 107.493 59.9898 107.714C60.2278 107.935 60.5024 108.119 60.7587 108.303C61.2713 108.653 61.7656 109.002 62.3331 109.297C62.4979 109.371 62.6809 109.463 62.8274 109.591L62.9739 109.739C62.9739 109.739 63.1203 109.886 63.1935 109.941C63.6146 110.254 63.7977 110.199 64.0723 110.162H64.292C64.6581 110.125 64.713 110.07 65.3355 110.07H65.482C65.9579 110.033 66.617 109.996 67.2577 109.867C67.8985 109.739 68.5209 109.518 68.9237 109.463C69.3814 109.407 69.7658 109.26 70.0588 109.039C70.1686 108.966 70.2601 108.874 70.3334 108.782L70.4981 108.542C70.608 108.377 70.6995 108.211 70.846 108.137C71.1389 107.99 71.3586 107.604 71.5416 107.162C71.6149 106.978 71.6515 106.794 71.6698 106.61C71.6881 106.444 71.7064 106.297 71.7247 106.15C71.8162 105.671 72.1092 105.285 72.3838 104.788C72.6401 104.328 72.8231 103.758 72.7133 103.169C72.6584 102.948 72.5851 102.745 72.457 102.561L72.5119 102.58Z" fill="#231F20"/>
<path d="M124.337 102.58C124.264 102.451 124.209 102.341 124.136 102.23C123.989 101.972 123.916 101.678 123.861 101.328C123.843 101.181 123.825 101.034 123.825 100.868C123.825 100.647 123.788 100.427 123.715 100.243C123.495 99.6352 122.964 98.9911 122.433 98.347C122.397 98.2918 122.342 98.2366 122.323 98.1814C121.646 97.3164 120.529 96.838 119.632 96.6355L119.028 96.4699C118.863 96.4331 118.68 96.4147 118.516 96.3779C118.68 95.4577 119.211 94.1695 120.786 92.7893C121.262 92.3844 120.932 91.6115 120.328 91.7035C119.541 91.8139 118.607 92.0163 117.618 92.366C117.618 92.366 117.545 92.4028 117.509 92.4028C117.014 92.5684 116.52 92.7893 116.026 93.0285C115.531 93.2309 115.001 93.4702 114.506 93.6726C113.097 94.2799 113.078 95.1817 112.163 95.7706C111.248 96.3595 111.449 98.0342 110.662 99.1936C109.875 100.353 110.369 101.825 110.369 101.825C110.204 102.12 110.094 102.451 110.058 102.874C110.003 103.445 110.094 104.015 110.241 104.53C110.332 104.843 110.424 105.138 110.552 105.469C110.662 105.763 110.79 106.04 110.955 106.279C111.028 106.389 111.065 106.518 111.083 106.647C111.119 106.757 111.174 106.868 111.211 106.978C111.357 107.254 111.577 107.493 111.797 107.714C112.035 107.935 112.309 108.119 112.566 108.303C113.078 108.653 113.573 109.002 114.14 109.297C114.305 109.371 114.488 109.463 114.634 109.591L114.781 109.739C114.781 109.739 114.927 109.886 115.001 109.941C115.422 110.254 115.605 110.199 115.879 110.162H116.099C116.465 110.125 116.52 110.07 117.143 110.07H117.289C117.765 110.033 118.424 109.996 119.065 109.867C119.706 109.739 120.328 109.518 120.731 109.463C121.188 109.407 121.573 109.26 121.866 109.039C121.976 108.966 122.067 108.874 122.14 108.782L122.305 108.542C122.415 108.377 122.507 108.211 122.653 108.137C122.946 107.99 123.166 107.604 123.349 107.162C123.422 106.978 123.458 106.794 123.477 106.61C123.495 106.444 123.513 106.297 123.532 106.15C123.623 105.671 123.916 105.285 124.172 104.788C124.429 104.328 124.612 103.758 124.502 103.169C124.447 102.948 124.374 102.745 124.246 102.561L124.337 102.58Z" fill="#231F20"/>
<path d="M83.2776 115.278C82.7833 115.959 82.8199 116.088 82.8565 116.18C82.8565 116.217 82.8565 116.272 82.8565 116.327C82.8565 116.401 82.8565 116.493 82.8931 116.53C82.948 116.604 83.0762 116.585 83.2043 116.548C83.2959 116.548 83.3874 116.511 83.4606 116.548C83.479 116.548 83.4973 116.585 83.5156 116.622C83.5156 116.659 83.5156 116.714 83.5156 116.769C83.5156 116.861 83.479 117.008 83.5705 116.99C83.6254 117.064 83.6803 117.137 83.7169 117.229L83.7536 117.321C83.8451 117.505 83.9366 117.708 84.138 117.781H84.1929C84.1929 117.781 84.3211 117.855 84.4859 117.8C84.6689 117.745 84.8337 117.708 84.8886 117.8C84.9069 117.837 84.8886 117.91 84.8886 117.984C84.8886 118.021 84.8886 118.076 84.8886 118.113C84.9069 118.389 85.1266 118.425 85.3829 118.444C85.6209 118.444 85.6392 118.701 85.6758 118.959V119.033C85.6758 119.033 85.7124 119.088 85.749 119.088H85.7857C85.8223 119.143 85.8772 119.162 85.9321 119.18C85.987 119.18 86.0603 119.18 86.1335 119.18C86.2067 119.18 86.2983 119.18 86.3532 119.18C86.3898 119.18 86.4447 119.198 86.4447 119.254C86.463 119.309 86.463 119.382 86.463 119.456V119.566C86.463 119.677 86.5729 119.658 86.5729 119.769C86.5729 119.953 86.6827 119.99 86.8109 120.026C86.8475 120.026 86.9024 120.045 86.939 120.063C87.0489 120.119 87.1221 120.211 87.1953 120.284C87.2319 120.339 87.2869 120.376 87.3235 120.431C87.4699 120.45 87.5981 120.468 87.7995 120.431C87.9276 120.395 88.0558 120.376 88.1473 120.376C88.2205 120.376 88.2571 120.468 88.2937 120.56C88.4219 120.836 88.6233 121.02 88.8979 121.112C88.9528 121.112 88.9894 121.149 88.9894 121.204C88.9894 121.241 88.9711 121.315 88.9528 121.37C88.9162 121.48 88.8979 121.572 88.9162 121.628C88.9162 121.683 89.0077 121.738 89.0993 121.793L89.4654 122.014C89.5936 122.088 89.7217 122.18 89.8499 122.272L89.978 122.364C90.0696 122.419 90.1611 122.493 90.2343 122.603C90.3442 122.787 90.5089 122.989 90.692 123.063C90.7652 123.081 90.8201 123.1 90.8934 123.1C90.9666 123.1 91.0398 123.118 91.0948 123.155C91.2229 123.229 91.3327 123.376 91.4609 123.56C91.644 123.836 91.882 124.149 92.12 124.002C92.1566 123.983 92.1932 123.946 92.2115 123.91C92.2664 123.854 92.3213 123.781 92.3763 123.818C92.4312 123.873 92.4678 123.818 92.5593 123.891C92.8889 124.038 93.1818 123.67 93.4015 123.339L93.731 122.842L94.0971 122.272L94.3534 121.885L94.5731 121.536C94.628 121.444 94.683 121.352 94.7745 121.315L94.9027 121.278C94.9027 121.278 95.0674 121.223 95.1406 121.167C95.2322 121.094 95.2688 121.02 95.2871 120.965C95.3237 120.873 95.342 120.799 95.4519 120.799C95.5068 120.799 95.58 120.818 95.6532 120.855C95.7814 120.891 95.9096 120.928 95.9645 120.891C96.0011 120.855 96.0011 120.763 96.0011 120.671V120.597C96.0011 120.468 96.0377 120.413 96.1475 120.395H96.2025C96.2025 120.395 96.294 120.395 96.3123 120.376L96.4588 120.229C96.5686 120.119 96.6968 120.008 96.6968 119.769C96.6968 119.474 96.9348 119.438 97.1911 119.401C97.429 119.364 97.667 119.327 97.7037 119.07C97.722 118.922 97.8318 118.83 98.0149 118.83C98.1247 118.83 98.1796 118.775 98.2346 118.72C98.2712 118.683 98.3078 118.628 98.381 118.628C98.4543 118.628 98.5275 118.628 98.619 118.628C98.7472 118.628 98.8753 118.665 98.9302 118.628C99.0218 118.573 99.0218 118.425 99.0035 118.297C99.0035 118.223 99.0035 118.186 99.0218 118.149V118.057C99.0584 117.929 99.1499 117.873 99.3147 117.855H99.5161C99.6442 117.855 99.7907 117.837 99.8822 117.8C100.065 117.708 100.12 117.487 100.029 117.119C99.9921 116.99 100.175 116.953 100.285 116.953C100.34 116.953 100.395 116.953 100.431 116.935C100.651 116.843 100.724 116.696 100.798 116.511L100.871 116.364C100.926 116.272 101.036 116.07 100.23 115.113C100.102 114.966 99.9737 114.818 99.809 114.634C99.4611 114.248 99.1133 113.898 98.8204 113.622C98.0881 112.941 97.8684 112.923 97.7586 112.904C97.6304 112.904 97.5389 112.923 97.484 113.033C97.429 113.125 97.429 113.291 97.4107 113.438C97.4107 113.53 97.4107 113.622 97.3741 113.714C97.3741 113.788 97.3375 113.88 97.3375 113.972C97.3375 114.009 97.3009 114.027 97.2643 114.027C97.2277 114.027 97.2094 114.045 97.1911 114.064C97.1544 114.119 97.1178 114.193 97.0995 114.266C97.0629 114.34 97.0446 114.414 96.9897 114.469C96.8981 114.579 96.7151 114.598 96.5503 114.616C96.4954 114.616 96.4588 114.616 96.3672 114.616L96.2757 114.579C96.2757 114.579 96.1842 114.542 96.1475 114.524C95.9462 114.45 95.9279 114.561 95.9095 114.653C95.9095 114.69 95.9095 114.708 95.8912 114.745C95.8363 114.855 95.7997 114.984 95.7631 115.094V115.131C95.6899 115.352 95.3786 115.555 95.0857 115.481C94.9027 115.444 94.7745 115.444 94.7013 115.518C94.683 115.536 94.6647 115.573 94.6464 115.61C94.6464 115.647 94.6464 115.665 94.6464 115.702C94.6464 115.775 94.6463 115.831 94.5731 115.831C94.4633 115.831 94.445 115.959 94.445 116.088C94.445 116.143 94.4633 116.217 94.4816 116.291C94.4816 116.346 94.5182 116.419 94.5182 116.456C94.5182 116.604 94.3717 116.585 94.1887 116.567C94.0239 116.567 93.8591 116.53 93.8225 116.659C93.8225 116.714 93.8225 116.788 93.8225 116.861C93.8225 116.916 93.8225 116.953 93.8225 117.008C93.8225 117.1 93.7676 117.156 93.6761 117.174C93.6395 117.174 93.5845 117.174 93.5113 117.174C93.4381 117.174 93.3465 117.156 93.3099 117.174C93.1452 117.248 93.0719 117.395 92.8889 117.45C92.6509 117.524 92.4312 117.616 92.2664 117.745C92.1566 117.837 92.1566 117.837 92.1749 117.818C92.1749 117.818 92.1932 117.818 92.2115 117.855C92.2115 117.855 92.2481 117.929 92.2664 117.947C92.2847 118.002 92.3213 118.076 92.358 118.149C92.358 118.186 92.3763 118.223 92.3946 118.241C92.4312 118.315 92.4312 118.37 92.4312 118.389C92.4312 118.425 92.3579 118.315 92.3213 118.186C92.2847 118.094 92.2481 118.002 92.2298 117.929C92.2298 117.929 92.2298 118.021 92.2481 118.131V118.186C92.2481 118.333 92.2481 118.425 92.2481 118.517C92.2481 118.591 92.2298 118.628 92.2115 118.683C92.2115 118.72 92.1932 118.609 92.1749 118.499C92.1749 118.444 92.1749 118.407 92.1749 118.352C92.1749 118.223 92.1749 118.131 92.1383 118.241C92.12 118.333 92.1016 118.333 92.0833 118.352C92.065 118.352 92.065 118.389 91.9369 118.665C91.8453 118.867 91.7538 118.996 91.8454 118.665C91.9369 118.37 91.9735 118.223 91.9552 118.205C91.9552 118.205 91.9186 118.223 91.8637 118.26C91.8087 118.315 91.7355 118.352 91.7904 118.26C91.8637 117.634 91.644 117.211 91.3144 117.119C91.2595 117.119 91.1497 117.137 91.0398 117.192C90.93 117.229 90.8385 117.284 90.8018 117.229C90.7835 117.174 90.8018 117.082 90.8018 117.008C90.8201 116.843 90.8568 116.677 90.7103 116.696C90.6371 116.696 90.5272 116.769 90.3991 116.824C90.3259 116.861 90.2526 116.898 90.1977 116.916C90.0329 116.972 90.0329 116.824 90.0329 116.659C90.0329 116.53 90.0329 116.401 89.9597 116.364C89.9048 116.327 89.8133 116.364 89.7217 116.364C89.6668 116.364 89.5936 116.364 89.5569 116.364C89.502 116.364 89.4837 116.327 89.4837 116.254C89.4837 116.162 89.4654 116.125 89.4105 116.107C89.264 116.015 89.081 115.867 88.9894 115.628L88.9528 115.536C88.8796 115.315 88.7697 115.15 88.55 115.002H88.5134C88.3487 114.855 88.1839 114.726 87.9459 114.69C87.9093 114.69 87.8361 114.726 87.7628 114.763C87.7262 114.763 87.7079 114.763 87.6896 114.763C87.6896 114.745 87.6896 114.708 87.6896 114.671C87.6896 114.616 87.6896 114.561 87.653 114.524C87.6164 114.487 87.5248 114.506 87.4333 114.524H87.3601C87.2685 114.561 87.2136 114.524 87.177 114.45C87.0855 114.322 86.9939 114.156 86.939 113.99C86.939 113.935 86.9207 113.88 86.9024 113.825C86.8841 113.677 86.8475 113.512 86.701 113.512C86.6461 113.512 86.5912 113.512 86.518 113.512C86.4813 113.512 86.4447 113.53 86.4081 113.549C86.3349 113.585 86.3166 113.567 86.28 113.585C86.1335 113.641 86.0969 113.567 86.0603 113.475V113.42C86.0603 113.42 86.0237 113.328 86.0053 113.273C86.0053 113.181 85.987 113.089 85.9321 113.052C85.8589 112.996 85.7491 112.996 85.6026 113.033H85.5477C85.4195 113.07 85.2548 113.089 84.8337 113.493C84.4858 113.806 84.138 114.193 83.7902 114.579C83.5705 114.837 83.3874 115.076 83.2226 115.297L83.2776 115.278Z" fill="#FAA634"/>
<path d="M69.4201 100.959C69.4201 101.75 68.7794 102.376 68.0105 102.376C67.2416 102.376 66.6008 101.732 66.6008 100.959C66.6008 100.186 67.2416 99.5418 68.0105 99.5418C68.7794 99.5418 69.4201 100.186 69.4201 100.959Z" fill="white"/>
<path d="M121.616 100.959C121.616 101.75 120.976 102.376 120.207 102.376C119.438 102.376 118.797 101.732 118.797 100.959C118.797 100.186 119.438 99.5418 120.207 99.5418C120.976 99.5418 121.616 100.186 121.616 100.959Z" fill="white"/>
<path d="M57.8146 151.603C56.8077 150.554 54.9953 149.91 53.604 149.193C53.0548 148.935 52.5422 148.604 52.0113 148.309C51.2423 147.831 50.4734 147.352 49.7045 146.874C48.4047 146.064 47.1415 145.273 45.915 144.518C45.0545 143.966 44.1941 143.377 43.3519 142.733C42.9675 142.439 42.6013 142.126 42.2169 141.813C41.7043 141.371 41.2283 140.911 40.734 140.469C39.9651 139.733 39.123 138.85 38.4456 138.243C37.2923 137.102 36.1755 135.924 35.1137 134.728L34.1983 133.605C32.1845 130.992 30.4271 127.992 28.7611 124.919L28.3583 124.146C27.8457 123.134 27.3148 122.103 26.6558 120.796C25.8503 119.251 25.1729 117.742 24.642 116.232C24.404 115.533 24.2209 114.834 24.0378 114.116L23.7083 112.736C22.9394 109.497 22.4268 106.129 21.9874 102.982C21.6213 99.8353 21.6579 96.6699 21.8959 93.3206L21.9874 92.382C22.0424 91.8851 22.0607 91.4066 22.079 90.9282C22.079 90.7073 22.0973 90.5049 22.1156 90.2841L22.3902 87.3948C22.4451 86.5482 22.5733 85.7201 22.6465 84.8919C22.738 83.9718 22.8479 83.0516 23.0309 82.1499C23.1408 81.4874 23.2689 80.8432 23.4154 80.1807C23.6534 79.371 23.8731 78.5613 24.1111 77.7699C24.2209 77.3835 24.3308 77.0154 24.4772 76.6473C24.88 75.5063 25.1363 74.2917 25.6123 73.2059C26.3262 71.384 27.0402 69.5621 27.7725 67.8138C28.0654 67.1881 28.34 66.5808 28.6146 65.9735C29.4568 64.2988 30.3721 62.6609 31.4156 61.1335C31.9832 60.2133 32.6788 59.3484 33.3013 58.4466C34.5279 56.6799 35.608 55.2445 36.743 53.7722C37.5486 52.76 38.2992 51.7111 39.2145 50.7725C40.0017 49.9444 40.7889 49.0794 41.9789 48.0856C45.2925 45.1043 48.8624 42.3255 52.7985 39.8962C53.4392 39.4546 54.0617 39.0865 54.6475 38.8289C55.0503 38.6448 55.453 38.4792 55.8558 38.2952C56.4965 38.0007 57.1556 37.7247 57.8329 37.4302C58.6202 37.099 59.4257 36.7309 60.2129 36.3444C61.3845 35.7555 62.6111 35.3139 63.8377 34.8354L65.8515 34.0625L67.9202 33.4367L69.2566 33.0319C70.2635 32.6822 71.3071 32.4614 72.3689 32.2589C73.211 32.0933 74.1264 31.9093 75.0783 31.7068C76.0486 31.5412 77.0555 31.394 78.0807 31.2284L80.1311 30.8419C80.8817 30.7315 81.6323 30.6579 82.3829 30.5659C83.8475 30.4554 85.3304 30.253 86.9231 30.2898C89.3946 30.2714 91.9576 30.253 94.5572 30.2346L95.7655 30.1794C96.4978 30.1426 97.1934 30.0874 97.8159 30.1794C98.3834 30.2346 99.0608 30.3266 100.141 30.4922C102.027 30.7315 103.839 31.0627 105.578 31.3572C107.336 31.5964 108.965 31.9645 110.484 32.2773C112.022 32.5534 113.523 32.9583 115.025 33.3815C116.837 33.8232 118.595 34.4857 120.352 35.1114C121.688 35.5347 122.933 36.1788 124.215 36.7125C125.405 37.191 126.522 37.8167 127.675 38.4056C128.627 38.8657 129.524 39.3626 130.403 39.9699L131.465 40.6692C132.179 41.1293 132.893 41.6261 133.57 42.1414C134.43 42.7487 135.309 43.3744 136.188 44.0001C137.323 44.9019 138.421 45.7116 139.373 46.6318L140.728 48.0304C141.497 48.8586 142.302 49.7235 143.181 50.6621C143.84 51.3062 144.554 52.0055 145.213 52.7048L145.836 53.3489C146.861 54.3611 147.74 55.5205 148.618 56.6615L149.039 57.232C149.369 57.7105 149.68 58.1706 150.01 58.6491C150.705 59.5692 151.364 60.5078 151.95 61.4647C153.452 63.7467 154.733 66.268 155.978 68.826C157.497 71.9177 158.486 75.2855 159.273 78.8741C159.987 82.1499 160.518 85.5913 160.939 89.0694C161.214 91.1858 161.342 93.4862 161.287 95.713C161.287 97.0748 161.195 98.4366 161.195 99.7985C161.141 100.792 161.067 101.786 160.976 102.78C160.884 103.755 160.701 104.731 160.536 105.687C160.317 107.031 159.987 108.374 159.767 109.718C159.438 111.448 159.017 113.104 158.706 114.392C158.523 115.055 158.34 115.68 158.138 116.306L157.754 117.484C157.204 119.085 156.527 120.778 155.52 122.784C155.136 123.557 154.733 124.311 154.312 125.048C153.47 126.538 152.573 128.01 151.657 129.464C149.9 132.206 148.069 134.728 145.927 137.138C145.14 138.059 143.346 139.641 141.973 140.709C141.332 141.206 140.746 141.666 140.252 142.034C137.213 144.352 135.089 145.825 132.362 147.591C131.648 148.052 130.915 148.493 130.183 148.916C128.572 149.947 125.441 151.235 124.801 152.487C124.709 152.671 124.673 152.836 124.691 153.002C124.746 153.37 125.075 153.591 125.661 153.646C127.034 153.738 129.689 152.818 130.805 152.211C132.215 151.511 133.661 150.702 135.364 149.597C136.993 148.53 138.549 147.389 140.051 146.174C140.948 145.457 141.845 144.721 142.888 143.819C143.785 143.046 144.646 142.255 145.488 141.445C145.854 141.077 146.257 140.745 146.641 140.396C146.989 140.065 147.337 139.733 147.703 139.402C148.6 138.5 149.461 137.58 150.266 136.586C151.126 135.556 151.914 134.488 152.664 133.403C154.129 131.286 155.484 129.133 156.692 126.962C157.058 126.317 157.406 125.673 157.772 125.048L158.138 124.44C158.303 124.164 158.449 123.888 158.614 123.612C159.456 122.14 160.024 120.576 160.518 119.214L160.957 117.926C161.598 116.012 162.184 114.061 162.605 112.055C162.642 111.871 162.678 111.687 162.715 111.503C162.898 110.62 163.081 109.571 163.246 108.43C163.447 107.289 163.612 106.056 163.74 104.841C164.033 102.412 164.216 100.019 164.308 98.5471C164.491 96.6515 164.472 94.8296 164.418 93.0629C164.363 92.4556 164.326 91.8483 164.289 91.2594C164.253 90.8177 164.198 90.3577 164.161 89.8976C164.033 88.9958 163.905 88.1309 163.85 87.3948C163.74 85.8489 163.392 84.1742 163.063 82.6283C162.898 82.0026 162.733 81.3585 162.568 80.7328C162.422 80.2175 162.294 79.7022 162.129 79.187C161.873 78.322 161.653 77.4387 161.452 76.5001C161.214 75.5799 160.976 74.623 160.719 73.6476C160.189 71.7889 159.621 69.8566 158.724 67.9426C158.394 67.1697 158.01 66.4336 157.607 65.7159L156.857 64.3172C156.271 63.2682 155.612 62.1088 154.843 60.7654L153.854 59.0723C153.415 58.281 152.884 57.5633 152.39 56.8271C150.705 54.3979 148.765 52.1527 146.824 49.9076C141.424 43.8713 135.492 39.1969 129.231 35.8844L128.151 35.3139C127.016 34.6698 125.808 34.1361 124.618 33.6576C124.014 33.3999 123.483 33.2343 123.043 33.1055C122.878 33.0503 122.695 32.9951 122.512 32.9399C121.89 32.7374 121.231 32.535 120.553 32.2957C119.071 31.7437 117.533 31.0627 115.867 30.529C114.329 29.9585 112.718 29.4065 110.997 29.0384C109.514 28.7071 108.105 28.3943 106.622 28.2655L105.999 28.1918L103.052 27.8238L100.104 27.6029C98.8777 27.5477 97.6511 27.3821 96.4245 27.4005C95.619 27.4005 94.6854 27.3269 93.6968 27.2349C93.2025 27.1981 92.7265 27.1613 92.2505 27.1245C90.6761 27.014 88.8088 27.0693 86.8499 27.1797C85.2205 27.2533 84.2136 27.4189 83.3166 27.4925C81.852 27.6766 80.5705 27.6766 77.7878 28.3759C75.8106 28.836 74.401 29.1488 72.7899 29.3328C71.3254 29.4801 69.5313 29.7193 67.4259 30.4002C66.181 30.7867 64.9178 31.1548 63.7279 31.67C61.9338 32.4062 60.2312 33.0503 58.6568 33.7496C50.8213 36.8597 45.1277 40.89 40.6242 45.1043C39.8919 45.8221 39.1962 46.4846 38.5738 47.2391C37.9513 47.9752 37.3655 48.6745 36.743 49.2818C36.084 49.9076 35.4798 50.5701 34.8391 51.2142C33.6857 52.3368 32.5873 53.5882 31.5255 55.042C30.958 55.7966 30.5369 56.6063 30.0609 57.3792C29.7863 57.8577 29.4934 58.3362 29.2188 58.8147C28.7977 59.5508 28.34 60.3053 27.8274 61.0599C27.3514 61.8328 26.8571 62.6425 26.3629 63.4707C25.594 64.7957 24.8617 66.1575 24.2209 67.685C23.8365 68.6788 23.4154 69.6725 23.1408 70.6847C22.9211 71.4024 22.7014 72.1017 22.4817 72.8195C22.2254 73.6476 22.0424 74.2917 21.8227 74.8438C21.4931 75.7272 21.2551 76.5001 21.0355 77.5123C20.2299 80.5856 19.4793 84.6895 19.0034 88.8854C18.9301 89.4191 18.8569 89.9344 18.8203 90.4681C18.4541 93.9647 18.3809 97.7189 18.7104 102.209L18.7654 102.964C19.1315 106.571 19.6258 110.325 20.7608 113.914C20.9439 114.466 21.1087 114.871 21.3467 115.404C21.4565 115.68 21.603 116.085 21.6945 116.398L22.1156 117.76C22.317 118.422 22.5366 119.103 22.8113 119.747C23.1591 120.649 23.5985 121.551 24.0378 122.416L24.404 123.134C24.88 124.091 25.3743 125.103 25.9418 126.244C27.2416 128.82 28.6696 131.341 30.2989 133.752C30.72 134.415 31.2143 135.041 31.6719 135.685C32.9901 137.415 34.4363 138.997 36.084 140.506C36.6515 141.022 37.219 141.518 37.8049 141.997C38.0429 142.181 38.2992 142.383 38.5738 142.586C39.0131 142.917 39.2877 143.138 39.5074 143.304C40.496 144.021 41.6494 144.997 42.7844 145.898L43.4252 146.395L45.201 147.757C46.1896 148.475 47.1782 149.174 48.2583 149.818C49.5581 150.61 50.9311 151.29 52.3225 151.879L52.7802 152.063C54.0434 152.56 55.8192 153.094 56.9176 153.112C57.8146 153.112 58.2723 152.91 58.2906 152.542C58.2906 152.303 58.1442 152.008 57.7963 151.677L57.8146 151.603Z" fill="#231F20"/>
</g>
</g>
<defs>
<clipPath id="clip0_1_240">
<rect x="0.5" width="180" height="180" rx="90" fill="white"/>
</clipPath>
<clipPath id="clip1_1_240">
<rect width="146" height="192" fill="white" transform="translate(18.5 27)"/>
</clipPath>
</defs>
</svg>
