<svg width="96" height="60" viewBox="0 0 96 60" fill="none" xmlns="http://www.w3.org/2000/svg">
<g clip-path="url(#clip0_1_68)">
<path d="M13.6324 33.8446C13.6324 37.4806 11.9104 38.5426 9.28837 38.5426H5.48438V21.5566C6.18637 21.7006 6.75037 21.7666 7.49437 21.7666H7.83637C8.53837 21.7666 9.04237 21.5566 9.62437 21.5566C11.6044 21.5566 13.2904 22.7866 13.2904 26.0926C13.2904 28.5766 12.4804 29.5426 11.6284 29.9146C12.8824 30.2266 13.6324 31.8586 13.6324 33.8446ZM8.25637 29.4106C9.79837 29.4106 11.0524 29.1166 11.0524 26.0686C11.0524 22.7266 9.81037 22.9126 8.23237 22.9126H7.70437V29.4106H8.25637ZM7.71037 37.3966H9.26437C10.5724 37.3966 11.4064 37.0846 11.4064 33.8686C11.4064 31.1926 10.3444 30.5446 9.26437 30.5446H7.71037V37.3966Z" fill="#AE8CC1"/>
<path d="M14.4102 29.9982C14.4102 22.9542 16.3902 21.1602 18.8682 21.1602C21.3462 21.1602 23.3142 22.9542 23.3142 29.9982C23.3142 37.0422 21.6042 38.8122 18.8682 38.8122C16.1322 38.8122 14.4102 37.0362 14.4102 29.9982ZM21.1062 30.0402C21.1062 24.9222 20.7342 22.3122 18.8682 22.3122C17.0022 22.3122 16.6362 24.9222 16.6362 30.0402C16.6362 35.1582 17.0082 37.6662 18.8682 37.6662C20.7282 37.6662 21.1062 35.1582 21.1062 30.0402Z" fill="#AE8CC1"/>
<path d="M24.5703 21.5566C25.1883 21.8266 26.1483 21.8506 26.7723 21.5566V29.9986L31.6863 21.6406C31.9803 21.7846 32.4603 21.7426 32.7303 21.6406L28.7883 28.3666L33.2943 38.5606H30.9063L27.3963 30.7246L26.7783 31.7926V38.5426H24.5763V21.5566H24.5703Z" fill="#AE8CC1"/>
<path d="M40.3941 29.207V31.715H33.7461V29.207H40.3941Z" fill="#AE8CC1"/>
<path d="M43.351 33.6943C43.351 37.0183 44.671 37.6843 45.445 37.6843C46.219 37.6843 47.539 37.2643 47.539 34.1503V33.6883C47.539 30.6823 46.183 30.2203 45.445 30.2203C42.025 30.2203 41.551 27.6523 41.551 25.8523V25.4563C41.551 23.0563 42.943 21.1543 45.445 21.1543C47.947 21.1543 49.345 23.3263 49.345 25.9363H47.119C47.119 22.3843 45.985 22.3003 45.445 22.3003C44.905 22.3003 43.759 22.6783 43.759 25.4563V25.8943C43.759 28.3363 44.485 29.0683 45.445 29.0683C48.055 29.0683 49.765 30.7183 49.765 33.7303V34.1503C49.765 36.7423 48.421 38.8303 45.445 38.8303C42.469 38.8303 41.125 36.4903 41.125 33.6883C41.863 33.9163 42.613 33.9163 43.351 33.6883V33.6943Z" fill="#AE8CC1"/>
<path d="M51.1094 21.5391C51.7274 21.8091 52.6994 21.8331 53.3234 21.5391V38.5431H51.1094V21.5391Z" fill="#AE8CC1"/>
<path d="M54.793 21.5566C55.411 21.8266 56.395 21.8506 57.019 21.5566V37.3906H61.537V38.5426H54.799V21.5566H54.793Z" fill="#AE8CC1"/>
<path d="M62.668 21.5566C63.286 21.8266 64.27 21.8506 64.894 21.5566V37.3906H69.412V38.5426H62.674V21.5566H62.668Z" fill="#AE8CC1"/>
<path d="M74.0822 38.6815C72.2402 38.6815 69.1562 37.5895 69.1562 30.2695C69.1562 24.5815 70.8602 21.5575 74.0882 21.5215H74.1303C77.5923 21.5215 78.8223 25.5175 78.8223 29.2555V30.5515H71.8922C71.8262 30.5515 71.7602 30.5755 71.7122 30.6235C71.6642 30.6715 71.6402 30.7375 71.6402 30.8035C71.6702 35.2375 72.0722 37.6375 74.0822 37.6375C75.6902 37.6375 76.0862 35.7415 76.2182 33.7915C76.6142 33.8815 77.0282 33.9235 77.4422 33.9235C77.8562 33.9235 78.2703 33.8815 78.6903 33.7975C78.2343 37.8175 75.9482 38.6755 74.0762 38.6755L74.0822 38.6815ZM74.0822 22.5595C72.4622 22.5595 71.7122 24.6235 71.6582 29.2495C71.6582 29.3155 71.6823 29.3815 71.7303 29.4295C71.7783 29.4775 71.8442 29.5075 71.9102 29.5075H76.0682C76.1342 29.5075 76.2003 29.4775 76.2483 29.4295C76.2963 29.3815 76.3202 29.3155 76.3202 29.2495C76.2602 25.8655 76.0382 22.5595 74.0822 22.5595Z" fill="#AE8CC1"/>
<path d="M85.7815 38.6815C83.9395 38.6815 80.8555 37.5895 80.8555 30.2695C80.8555 24.5815 82.5595 21.5575 85.7875 21.5215H85.8295C89.2915 21.5215 90.5215 25.5175 90.5215 29.2555V30.5515H83.5915C83.5255 30.5515 83.4595 30.5755 83.4115 30.6235C83.3635 30.6715 83.3395 30.7375 83.3395 30.8035C83.3695 35.2375 83.7715 37.6375 85.7815 37.6375C87.3895 37.6375 87.7855 35.7415 87.9175 33.7915C88.3135 33.8815 88.7275 33.9235 89.1415 33.9235C89.5555 33.9235 89.9695 33.8815 90.3895 33.7975C89.9335 37.8175 87.6475 38.6755 85.7755 38.6755L85.7815 38.6815ZM85.7815 22.5595C84.1615 22.5595 83.4115 24.6235 83.3575 29.2495C83.3575 29.3155 83.3815 29.3815 83.4295 29.4295C83.4775 29.4775 83.5435 29.5075 83.6095 29.5075H87.7675C87.8335 29.5075 87.8995 29.4775 87.9475 29.4295C87.9955 29.3815 88.0195 29.3155 88.0195 29.2495C87.9595 25.8655 87.7375 22.5595 85.7815 22.5595Z" fill="#AE8CC1"/>
</g>
<defs>
<clipPath id="clip0_1_68">
<rect width="85.038" height="17.676" fill="white" transform="translate(5.48438 21.1621)"/>
</clipPath>
</defs>
</svg>
