<svg width="96" height="60" viewBox="0 0 96 60" fill="none" xmlns="http://www.w3.org/2000/svg">
<g clip-path="url(#clip0_1_173)">
<path d="M39.832 42.8731C39.9418 43.6492 40.0672 44.4252 40.1966 45.2013C40.2985 45.8206 40.3847 46.4478 40.518 47.0632C40.5258 47.1063 40.5376 47.1533 40.5493 47.1964C40.6356 47.5257 40.7375 47.9333 41.0785 48.0784C41.3881 48.2077 41.6782 48.3762 41.9918 48.4978C42.1917 48.5762 42.5366 48.7329 42.7522 48.6271C42.9325 48.537 42.8345 47.949 42.709 47.2043C42.4935 45.9186 42.3445 44.6251 42.2073 43.3317C42.0623 41.9598 41.9369 40.584 41.8075 39.2121C41.7135 38.2204 41.4156 34.9201 41.2823 34.4105C41.1216 33.7756 40.9217 33.6149 40.5846 33.5247C40.2553 33.4346 39.7184 33.411 39.0324 33.4581C38.4327 33.5012 38.1035 33.8853 37.8604 35.9745C37.7546 36.8878 37.5743 38.0166 37.441 38.8045C37.4175 38.9534 37.296 39.0592 37.1471 39.0671C36.9942 39.0828 36.8649 38.9887 36.8217 38.8437C36.3945 37.46 35.3127 34.0029 35.2892 33.9441C35.1245 33.4659 34.9913 33.2503 34.5954 33.168C34.1877 33.0818 33.6782 33.0112 33.1373 32.9368C32.8433 32.8976 32.5415 32.8544 32.2436 32.8074C32.0986 32.7839 32.0358 32.8348 31.9967 32.8701C31.8908 32.9799 31.7458 33.3248 31.9496 34.4145C32.369 36.6447 33.5763 41.752 34.6189 43.2964C34.8619 43.6492 35.1049 43.8961 35.395 44.1861C35.6811 44.4723 35.9712 44.7623 36.2926 45.0093C36.3671 45.0681 36.5787 45.2092 36.6532 45.1425C36.7081 45.0916 36.7277 45.0406 36.5121 44.5468C36.3945 44.2763 36.1476 43.6413 35.9712 43.1866C35.6184 42.2538 35.3048 40.9642 35.4381 40.7016C35.4577 40.6663 35.5087 40.6193 35.5479 40.6075C35.8261 40.5213 35.9908 40.9211 36.6532 42.8143C36.9393 43.6374 37.2686 44.5664 37.5939 45.3228C37.8918 46.0088 38.3543 46.3616 39.052 46.7378C39.1461 46.7888 39.3421 46.8907 39.3852 46.8593C39.4009 46.8476 39.5224 46.7339 39.3852 45.8834C39.197 44.7467 38.8012 40.8192 39.0873 40.5291C39.1147 40.5017 39.1696 40.4782 39.2166 40.4782C39.2245 40.4782 39.2284 40.4782 39.2362 40.4782C39.4793 40.5134 39.5655 40.9642 39.8399 42.877L39.832 42.8731Z" fill="#7CCCBF"/>
<path d="M46.7567 47.941C46.6665 46.5808 46.5215 44.3074 46.4666 41.842C46.3882 38.2085 46.5842 35.3001 46.643 34.7161C46.6744 34.4064 46.6156 34.1712 46.4745 34.0144C46.2863 33.8106 45.9884 33.7871 45.8238 33.7871C45.4946 33.7871 45.1183 33.7871 44.7694 33.8263C44.4206 33.8655 44.06 33.9361 43.7464 34.1007C43.1428 34.4182 42.8762 34.8768 42.8919 36.7386C42.9076 39.0512 43.523 47.059 43.7973 48.4779C43.8797 48.9052 44.0835 49.4187 44.9301 49.5676C45.2751 49.6303 46.3294 49.8185 46.6979 49.4971C46.7959 49.4108 46.839 49.2932 46.8351 49.1325C46.8272 48.8895 46.7998 48.4779 46.7645 47.941H46.7567Z" fill="#7CCCBF"/>
<path d="M51.9245 45.6746C52.05 46.4664 52.1597 47.1523 52.2303 47.4581C52.4498 48.4262 52.7163 48.9946 53.022 49.1474C53.2729 49.269 53.8412 49.1592 54.4096 48.8731C54.9113 48.6222 55.7697 48.0617 56.0833 47.5286C56.244 47.2543 56.1852 46.7251 56.0872 45.8432C55.9735 44.8319 55.805 43.2993 55.8363 41.022C55.8638 39.1092 56.197 36.2087 56.4909 34.6173C56.5223 34.4409 56.4909 34.292 56.389 34.1626C55.9814 33.6452 54.5977 33.5747 54.0803 33.5512C53.5943 33.5237 53.2847 33.5864 53.124 33.7432C53.022 33.8451 52.975 33.998 52.9828 34.2097C53.0064 34.7467 53.1827 36.2871 53.3513 37.7805C53.7315 41.1161 53.7315 41.265 53.657 41.3552C53.6335 41.3865 53.5943 41.4061 53.559 41.4101C53.3591 41.4375 53.3199 41.4414 52.5791 38.2273C52.3283 37.1376 52.0696 36.0127 51.9167 35.5345C51.3954 33.9 51.1916 33.657 50.5135 33.657C50.0745 33.657 49.6355 33.6884 49.2004 33.7236C48.9221 33.7472 48.4831 33.7236 48.2362 33.8843C48.0715 33.9902 47.8442 34.2528 47.754 35.2601C47.656 36.338 47.5463 38.0823 47.5502 42.0568C47.5502 44.2165 47.8442 47.6933 48.001 48.7555C48.0754 49.2494 48.2322 49.5825 48.4831 49.7707C48.7143 49.9471 49.0475 50.0176 49.4944 49.9862C50.3332 49.9275 51.3209 49.6609 51.3523 49.0965C51.3719 48.7163 51.266 47.948 51.121 46.8858C50.9877 45.9059 50.8192 44.6908 50.6663 43.1935C50.6467 43.0132 50.4939 41.4453 50.6859 41.218C50.7094 41.1866 50.7682 41.1592 50.8153 41.1553C51.1132 41.1553 51.3092 41.802 51.9245 45.6707V45.6746Z" fill="#7CCCBF"/>
<path d="M57.8069 35.3438C56.9838 36.6647 56.8113 37.8994 56.631 39.5692C56.4977 40.8039 56.482 42.9715 56.8152 44.1787C57.3169 45.9974 58.5359 46.1268 59.1239 46.0562C60.0999 45.9425 62.095 44.849 62.9259 41.776C63.165 40.894 63.1572 39.6946 62.8828 39.24C62.8005 39.1028 62.6085 38.9852 62.4713 38.9813C62.0715 38.9695 61.7932 39.1184 61.3816 39.5614C61.0132 39.9494 60.7349 40.361 60.6604 40.6785C60.5859 41.0156 60.6917 41.2938 60.8054 41.3487C60.8485 41.3683 60.9465 41.4389 60.8799 41.6427C60.7937 41.9092 60.4801 42.2973 60.0215 42.2071C59.9157 42.1875 59.8098 42.1052 59.7275 41.9759C59.5864 41.7603 59.3904 41.2233 59.6609 40.0552C60.1234 38.0405 60.8799 37.0841 61.3894 37.0489C61.5227 37.041 61.6442 37.0802 61.7422 37.1704C61.9735 37.382 62.0323 37.8054 62.0401 38.1229C62.044 38.2718 62.0715 38.2992 62.0754 38.3032C62.0754 38.3032 62.0989 38.3188 62.1851 38.3032C62.6633 38.2169 63.8196 37.237 63.9372 36.4492C64.0195 35.8926 63.8314 34.6853 63.165 33.87C62.581 33.1527 61.4835 32.9489 60.5977 33.1488C59.7354 33.3409 58.7868 33.7995 57.8186 35.3517L57.8069 35.3438Z" fill="#7CCCBF"/>
<path d="M65.9926 29.9037C65.1068 22.2408 58.3846 17.4471 48.413 17.3217C48.366 15.6598 48.2131 13.9939 47.9544 12.3281C47.9348 12.2144 47.8211 12.1399 47.7114 12.1713L45.8064 12.6769C45.6967 12.7043 45.634 12.8219 45.6771 12.9317C46.2102 14.3623 46.6609 15.8322 47.0215 17.3334C37.3674 17.6274 30.8883 22.3898 30.0181 29.9037C29.9005 30.9307 30.4845 31.648 31.6291 31.8675C34.2435 32.3731 39.6016 32.6161 48.0054 32.6161C56.4091 32.6161 61.7672 32.3731 64.3816 31.8675C65.5262 31.648 66.1102 30.9307 65.9926 29.9037ZM34.5453 30.3623C33.389 30.3114 32.7227 29.8332 32.4836 29.3981C32.217 28.9199 32.8794 26.768 33.4752 25.5216C34.0945 24.2242 35.0274 22.6916 35.5762 22.2369C36.2307 21.696 37.1166 21.5079 37.7476 21.5C38.2533 21.4922 38.7001 21.5627 39.0098 22.0253C39.4801 22.7347 39.3704 24.0988 38.8373 25.7646C37.8378 28.8925 36.3797 30.4486 34.5453 30.3623ZM46.3042 30.6524C45.4498 30.6524 44.7168 30.6054 44.1798 30.527C43.9407 30.4917 43.6781 30.4368 43.5762 30.186C43.4429 29.8528 43.5409 29.4138 43.5997 29.0767C43.6271 28.9278 43.6506 28.7788 43.6546 28.6299C43.6624 28.328 43.5056 28.089 43.192 28.0811C42.122 28.0929 41.5379 28.4456 41.4596 29.1277C41.4321 29.3785 41.44 29.598 41.4517 29.8332C41.4596 30.0253 41.5066 30.2996 41.4439 30.4799C41.389 30.6367 41.1225 30.6367 40.9892 30.6602C40.4052 30.7582 39.8015 30.7739 39.2175 30.7504C38.9471 30.7386 38.657 30.527 38.6609 29.9625C38.6648 29.3119 39.2254 27.113 40.4522 24.2516C41.436 21.9625 42.0553 20.8925 42.5963 20.5593C43.0196 20.3006 44.0191 19.9988 44.8265 19.9988C44.9794 19.9988 45.1205 20.0106 45.2538 20.0341C45.4498 20.0694 46.1357 20.5005 46.8216 24.6357C47.3939 28.089 47.4488 29.6137 47.4449 30.1076C47.4449 30.378 47.3155 30.6642 46.3042 30.6524ZM55.9622 30.3937C55.68 30.6406 55.2058 30.6642 54.8491 30.6759C54.6139 30.6838 54.3082 30.7073 54.0887 30.6054C53.7241 30.4329 53.6536 29.9194 53.5713 29.5706C53.5321 29.402 53.4929 29.2296 53.438 29.061C53.2773 28.5358 52.8971 27.6343 52.4973 27.6068C52.3954 27.599 52.2503 27.5872 52.1484 27.6891C52.0426 27.795 52.0387 27.9674 52.0661 28.2653C52.1367 28.8337 52.3052 29.3707 52.415 29.9312C52.4385 30.0527 52.4973 30.2134 52.4698 30.3388C52.4346 30.4995 52.1171 30.5897 51.9838 30.6328C51.7055 30.723 51.2548 30.8013 50.8981 30.8445C50.3572 30.9072 49.9142 30.8993 49.6477 30.8366C49.4831 30.7974 49.2988 30.5779 49.1421 30.1585C48.7893 29.2139 48.3542 27.7401 48.0171 24.7886C47.731 22.2722 47.8525 20.5632 48.3464 20.2183C48.6913 19.9753 49.4204 19.893 50.169 19.893C51.3057 19.893 52.513 20.1281 53.5007 20.7475C54.4806 21.3628 55.0137 22.0605 55.3351 23.1502C55.8172 24.8043 54.8843 26.1174 54.8373 26.1526C54.806 26.1762 54.7824 26.2154 54.7746 26.2546C54.7707 26.2938 54.7785 26.3369 54.806 26.3682C54.8138 26.3761 55.4919 27.2854 55.8329 28.281C56.2366 29.4687 56.0877 30.284 55.9622 30.3937ZM63.5703 29.9469C63.488 30.1742 63.241 30.1938 62.6766 30.2173C62.2415 30.2369 61.9593 30.2487 61.7359 30.2095C61.6497 30.1938 61.4733 30.1938 61.4537 29.5235C61.4458 29.2923 61.4419 29.1394 61.4066 28.9199C61.3635 28.6416 61.1048 28.2771 60.7011 28.328C60.462 28.3555 60.2386 28.379 60.1014 28.5593C59.8897 28.8337 60.0112 29.2962 60.0857 29.598C60.1288 29.7783 60.2307 29.9939 60.1641 30.182C60.1249 30.2879 60.0191 30.3545 59.9093 30.3898C59.3331 30.5779 58.7138 30.6563 58.1063 30.6877C57.9965 30.6994 57.7574 30.6485 57.6555 30.2134C57.5928 29.9429 57.1538 27.1365 57.0754 26.6857C56.8089 25.1767 56.5071 23.3383 56.4208 22.6524C56.3464 22.0684 56.5384 21.6921 57.095 21.6059C57.1695 21.5941 57.2479 21.5902 57.3224 21.5902C57.8829 21.5902 58.4042 21.892 58.6433 22.0292C59.7721 22.6838 60.7325 23.5618 61.7868 25.0473C63.3939 27.3089 63.6565 29.7234 63.5703 29.9586V29.9469Z" fill="#7CCCBF"/>
<path d="M36.2887 24.3023C35.9752 24.2239 35.8615 24.3611 35.642 24.7687C35.0932 25.7839 34.5171 27.1401 34.4622 27.3557C34.4308 27.4811 34.3995 27.6614 34.4896 27.7869C34.619 27.9593 34.9051 27.9084 35.0736 27.8378C35.74 27.5595 36.226 26.7638 36.422 26.3444C36.7317 25.6781 36.8296 25.0314 36.6572 24.6394C36.5905 24.4865 36.4338 24.3376 36.2887 24.3023Z" fill="#7CCCBF"/>
<path d="M43.2905 23.5143C42.7692 23.5574 42.1264 25.482 42.099 25.6662C42.0754 25.7995 42.0637 25.9171 42.1421 26.0033C42.2048 26.0738 42.3028 26.0895 42.3969 26.0895C42.4125 26.0895 42.4282 26.0895 42.4439 26.0895C42.8202 26.0738 43.6943 25.9954 43.7413 25.6427C43.8079 25.1606 43.7021 23.8436 43.4591 23.5849C43.3964 23.5182 43.3258 23.5143 43.2945 23.5143H43.2905Z" fill="#7CCCBF"/>
<path d="M51.4436 22.4292C51.1457 22.4096 50.9694 22.5311 50.8753 22.6369C50.6754 22.8604 50.6205 23.2484 50.7146 23.7815C50.8322 24.4439 51.1026 24.585 51.5299 24.6007C51.5416 24.6007 51.5495 24.6007 51.5612 24.6007C51.8395 24.6007 52.1374 24.4556 52.3216 24.2283C52.4588 24.0637 52.5647 23.7815 52.498 23.3581C52.4118 22.7976 52.0042 22.4645 51.4397 22.4292H51.4436Z" fill="#7CCCBF"/>
<path d="M59.4464 24.574C59.3954 24.5583 59.3249 24.5818 59.2896 24.6171C59.0975 24.813 59.4738 26.2908 59.4777 26.3064C59.5326 26.4946 59.5914 26.6278 59.8422 26.667C59.901 26.6749 59.9638 26.6788 60.0226 26.6788C60.2538 26.6788 60.5282 26.6788 60.6301 26.5691C60.6928 26.5024 60.6105 26.3064 60.587 26.2241C60.442 25.7342 59.7051 24.6445 59.4503 24.574H59.4464Z" fill="#7CCCBF"/>
<path d="M55.5034 12.8461C55.4955 12.7677 55.3936 12.7677 55.3544 12.8147C55.0252 13.1871 54.5862 13.3831 54.1119 13.4733C54.837 12.7128 54.986 11.4625 54.6959 10.4943C54.6763 10.4238 54.594 10.4081 54.547 10.463C54.01 11.094 53.3123 11.5722 52.497 11.7172C52.7988 11.2391 52.9595 10.6119 52.8929 10.0592C52.8851 9.99652 52.8028 9.97693 52.7557 10.0122C52.4774 10.2435 52.0776 10.3179 51.7405 10.4198C51.2976 10.5531 50.8547 10.7021 50.4588 10.9451C49.4828 11.5448 48.985 12.7011 49.0556 13.826C49.0987 14.4884 49.3182 15.1234 49.6514 15.6918C49.6592 15.7035 49.6631 15.7114 49.671 15.7153C49.671 15.7153 49.671 15.7192 49.6788 15.7231C50.6822 16.5737 52.1638 16.9147 53.4181 16.4443C54.1668 16.1621 54.8096 15.5075 55.1624 14.802C55.4681 14.1905 55.5622 13.5164 55.5034 12.8383V12.8461Z" fill="#7CCCBF"/>
</g>
<defs>
<clipPath id="clip0_1_173">
<rect width="36.0059" height="40" fill="white" transform="translate(29.9971 10)"/>
</clipPath>
</defs>
</svg>
