<svg width="180" height="180" viewBox="0 0 180 180" fill="none" xmlns="http://www.w3.org/2000/svg">
<g clip-path="url(#clip0_1_171)">
<rect width="180" height="180" rx="90" fill="#BEE2E0"/>
<g clip-path="url(#clip1_1_171)">
<path d="M88.8957 166.721C90.2531 167.671 94.4926 169.235 98.7879 166.219C104.496 162.216 103.269 150.599 99.8106 140.677C93.9534 123.921 93.9348 109.047 103.065 97.9511C113.533 85.2359 129.692 82.946 142.912 85.1986C155.054 87.2651 166.583 93.1294 174.374 104.318C181.96 115.209 184.861 128.073 179.673 141.403C175.081 153.206 163.645 160.373 152.916 159.293C151.763 170.836 145.478 179.66 137.966 184.333C132.146 187.944 123.425 190.532 115.151 189.359C107.007 188.205 99.9594 185.617 94.1765 179.492C89.3606 174.391 88.4866 167.894 88.8957 166.721Z" fill="#E7B797"/>
<path d="M153.344 160.297C153.771 160.614 154.348 160.8 154.943 160.912C155.556 160.986 156.189 160.967 156.746 160.967C157.193 160.967 157.62 160.912 158.067 160.893C158.717 160.856 159.387 160.819 160.019 160.67C161.098 160.465 162.12 160.092 163.069 159.702C163.757 159.441 164.407 159.069 165.077 158.789C165.393 158.659 165.709 158.51 166.025 158.361C166.453 158.175 166.899 157.989 167.327 157.803C168.015 157.486 168.777 157.095 169.316 156.741C170.265 156.09 171.25 155.494 172.124 154.749L172.961 154.079C174.783 152.534 176.494 150.728 177.87 148.662C178 148.494 178.093 148.308 178.204 148.14C178.613 147.433 179.097 146.781 179.469 145.813C179.711 145.255 179.952 144.696 180.175 144.157C180.38 143.617 180.584 143.077 180.808 142.574C181.031 142.109 181.254 141.643 181.44 141.178L181.83 140.266C182.741 138.087 183.206 135.742 183.448 133.545C183.69 131.367 183.931 129.207 184.024 126.862C184.024 126.638 184.024 126.415 184.024 126.191C184.024 125.838 183.987 125.521 183.969 125.186C183.969 125.037 183.95 124.888 183.931 124.739C183.931 124.069 183.801 123.399 183.69 122.747C183.578 122.17 183.485 121.593 183.318 121.034L182.834 119.173C182.704 118.726 182.574 118.298 182.462 117.832C182.332 117.274 182.221 116.697 182.072 116.138L181.867 115.338C181.682 114.519 181.291 113.737 181.049 112.955C180.659 111.652 180.027 110.442 179.394 109.269C179.171 108.859 178.93 108.45 178.706 108.04C178.056 106.923 177.423 105.787 176.717 104.689C176.289 104.056 175.917 103.404 175.452 102.809C174.541 101.636 173.742 100.705 172.831 99.8114C172.236 99.1598 171.529 98.6013 170.915 97.9683C170.358 97.4098 169.8 96.8513 169.056 96.1067C166.88 93.9844 164.389 92.0854 161.637 90.5216C161.191 90.261 160.763 90.0004 160.372 89.777C160.112 89.6094 159.87 89.4233 159.629 89.2557C159.238 88.9578 158.829 88.6786 158.383 88.4366C157.862 88.1573 157.304 87.8967 156.765 87.6547C155.928 87.3196 155.11 86.9472 154.255 86.6307C153.325 86.2956 152.395 85.9419 151.447 85.6627L150.536 85.3834C149.829 85.1786 149.141 84.9738 148.416 84.7504C147.301 84.3967 145.962 84.0244 144.567 83.801L143.154 83.5962L141.611 83.4287C140.607 83.2983 139.602 83.1494 138.543 83.0005C136.869 82.7957 135.121 82.6281 133.336 82.8329L132.518 82.926C132.016 83.0005 131.551 83.0936 131.123 83.1122C130.733 83.1122 130.268 83.1122 129.524 83.1122C126.921 83.1308 124.448 83.5776 122.384 84.1919C121.343 84.434 120.339 84.8435 119.316 85.1786C118.107 85.6254 116.917 86.1281 115.765 86.668C114.909 87.1148 114.035 87.4871 113.217 87.9898C112.473 88.4552 111.692 88.8834 110.967 89.3674C110.372 89.7956 109.814 90.2052 109.182 90.5775C108.94 90.7264 108.68 90.8754 108.457 91.0615L107.044 92.1227C106.467 92.5509 105.928 93.0908 105.426 93.612C104.719 94.3195 104.05 94.971 103.436 95.6226L102.451 96.5349C101.856 97.0375 101.335 97.6705 100.777 98.3779C100.387 98.8806 100.015 99.4763 99.7176 100.072L99.4201 100.612L97.9883 103.237L97.7466 103.646C97.5235 103.982 97.3933 104.354 97.226 104.708C96.947 105.452 96.5751 106.16 96.352 106.923C95.7384 108.729 95.2178 110.628 95.0318 112.582C94.7343 114.928 94.5484 117.274 94.3996 119.769C94.3624 122.04 94.3996 124.423 94.8831 126.75C95.1248 128.165 95.4223 129.691 95.6454 131.162C95.7756 132.074 96.0173 132.949 96.2405 133.843C96.3892 134.494 96.5751 135.146 96.7425 135.798L97.1702 137.734C97.3747 138.646 97.6164 139.54 97.8954 140.433C98.2672 141.606 98.6949 142.593 99.011 143.412C99.1784 143.821 99.3085 144.231 99.4387 144.641L99.6804 145.404C100.015 146.446 100.275 147.601 100.499 149.015C100.573 149.555 100.647 150.114 100.703 150.654C100.815 151.752 100.87 152.851 100.926 153.93C101.001 155.978 101.038 158.007 100.852 159.944C100.833 160.316 100.647 160.818 100.499 161.377C100.257 161.88 100.052 162.457 99.7548 162.848C99.5131 163.239 99.2713 163.574 99.0482 163.797C98.3974 164.579 97.6908 165.026 96.9284 165.473C96.1847 165.882 95.4223 166.18 94.5298 166.366C94.0649 166.441 93.6001 166.497 93.1166 166.497C92.0381 166.552 90.2159 166.013 89.2862 166.366C89.1374 166.422 89.0072 166.515 88.8957 166.646C88.654 166.906 88.5796 167.297 88.7841 167.725C89.249 168.842 91.2386 169.568 92.2241 169.661C93.3955 169.848 94.7157 169.848 96.2033 169.419C97.6536 168.991 98.918 168.265 100.015 167.316C100.35 166.999 100.703 166.72 101.001 166.366C101.28 165.994 101.596 165.622 101.893 165.193C102.339 164.43 102.748 163.648 102.99 162.848C103.12 162.494 103.251 162.159 103.362 161.805C103.455 161.489 103.548 161.172 103.66 160.819C103.808 159.962 103.976 159.087 103.994 158.231C104.087 157.337 104.05 156.462 104.069 155.587C104.013 153.893 103.976 152.199 103.79 150.579C103.753 150.095 103.697 149.611 103.66 149.146V148.68L103.622 148.047C103.529 146.93 103.251 145.888 102.953 144.976L102.693 144.119C102.302 142.853 101.875 141.606 101.41 140.377L101.28 140.042C100.499 138.013 99.3085 134.066 99.104 132.242C98.8994 131.088 98.7693 129.971 98.5462 128.909C98.4718 128.537 98.3974 128.183 98.323 127.811L98.1557 126.992C98.0441 126.433 97.9325 125.931 97.8954 125.465C97.8396 124.516 97.6908 123.492 97.5235 122.524L97.3561 121.332L97.226 120.346C97.1144 119.247 97.226 118.074 97.3933 116.846C97.5792 115.673 97.7466 114.481 97.9325 113.234C98.0069 112.731 98.0069 112.229 98.0999 111.745L98.2486 110.795C98.3416 110.069 98.5647 109.306 98.918 108.431C99.0482 108.059 99.197 107.686 99.3643 107.333C99.606 106.849 99.8663 106.364 100.071 105.88C100.815 104.261 101.651 102.697 102.674 101.226C105.575 97.3168 108.959 94.3008 112.492 91.9365C112.696 91.7876 112.901 91.6573 113.124 91.5456C113.794 91.136 114.482 90.745 115.151 90.3355C115.504 90.1493 115.783 89.9445 116.006 89.777C116.099 89.7025 116.192 89.6467 116.285 89.5722C116.62 89.3674 116.992 89.144 117.401 88.9578C118.312 88.6041 119.279 88.269 120.339 88.0456C121.324 87.8222 122.328 87.5988 123.37 87.3754C124.262 87.152 125.136 86.9286 126.01 86.7052L126.382 86.6121C127.553 86.2956 128.781 86.1839 129.989 85.9792L132.276 85.7744C132.778 85.7185 133.355 85.793 133.987 85.8488C134.285 85.8675 134.601 85.9047 134.88 85.9233C135.846 86.0164 137.018 86.1095 138.227 86.1467C139.231 86.1839 139.881 86.2212 140.439 86.2956C141.35 86.426 142.131 86.4632 143.935 86.6307C145.218 86.7052 146.129 86.8541 147.059 87.2823C147.896 87.7291 148.937 88.0828 150.238 88.5296C151.001 88.7717 151.782 89.0137 152.544 89.2743C153.697 89.628 154.738 90.0562 155.687 90.5403C160.242 93.0721 163.515 95.604 166.397 98.0056C166.88 98.3965 167.327 98.7689 167.81 99.1226C168.294 99.4763 168.721 99.83 169.075 100.221C169.446 100.649 169.781 101.077 170.097 101.524C170.636 102.362 171.25 103.144 171.938 104C172.31 104.447 172.719 104.838 173.11 105.229C173.333 105.49 173.574 105.732 173.798 106.011C174.486 106.811 174.988 107.817 175.508 108.878C175.899 109.734 176.289 110.591 176.754 111.484C177.033 112.08 177.349 112.638 177.665 113.215C177.87 113.625 178.056 114.035 178.242 114.463C178.446 114.947 178.613 115.338 178.688 115.691C178.818 116.25 178.967 116.715 179.171 117.33C179.729 119.173 180.361 121.667 180.529 124.237C180.547 124.553 180.547 124.888 180.566 125.205C180.659 127.346 180.584 129.598 180.25 132.298L180.194 132.763C179.896 134.941 179.376 137.175 178.688 139.316C178.576 139.651 178.539 139.912 178.483 140.284C178.446 140.47 178.372 140.712 178.279 140.899L177.888 141.662C177.702 142.034 177.498 142.425 177.33 142.816C177.052 143.337 176.81 143.877 176.587 144.436L176.401 144.883C176.103 145.46 175.731 146.037 175.304 146.688C174.244 148.085 173.128 149.444 171.808 150.598C171.455 150.914 171.12 151.249 170.748 151.51C169.744 152.292 168.684 153.018 167.606 153.819L166.49 154.601C166.341 154.712 166.192 154.843 166.025 154.954C165.746 155.14 165.56 155.252 165.411 155.345C164.798 155.792 163.961 156.146 163.106 156.425L162.641 156.592C162.213 156.741 161.767 156.835 161.339 156.946C160.633 157.151 159.908 157.244 159.182 157.412C158.29 157.616 157.397 157.747 156.523 157.914L156.226 157.952C155.817 158.007 155.352 158.063 154.887 158.156C154.422 158.212 153.995 158.324 153.641 158.51C153.102 158.808 152.804 159.162 152.842 159.515C152.86 159.739 153.009 159.962 153.288 160.186L153.344 160.297Z" fill="#231F20"/>
<path d="M87.8761 166.755C87.2067 167.239 87.1881 167.965 87.2067 168.468V169.063C87.2067 169.361 87.2067 169.659 87.2625 169.938C87.3369 170.422 87.5414 170.851 87.7088 171.26C87.8575 171.558 87.9877 171.837 88.0993 172.135C88.155 172.265 88.1922 172.414 88.2294 172.563L88.3596 173.159C88.434 173.476 88.4897 173.866 88.6385 174.108L89.2149 175.486L89.4009 175.914C89.8285 176.864 90.3678 177.813 91.0372 178.651L91.2231 178.856C91.4648 179.116 91.688 179.396 92.0413 179.694C92.4875 180.01 92.878 180.345 93.2127 180.699C93.3615 180.866 93.4916 181.034 93.6218 181.22L93.8821 181.574C94.5143 182.374 95.3325 183.007 96.1506 183.51C96.9502 184.013 97.6196 184.664 98.4005 185.316L98.6237 185.502C98.7352 185.595 98.8654 185.669 98.9956 185.744C99.0513 185.781 99.1071 185.8 99.1629 185.837C99.4046 185.986 99.6649 186.135 99.9253 186.247C100.148 186.358 100.39 186.451 100.632 186.526C100.892 186.619 101.152 186.712 101.413 186.824C101.599 186.898 101.766 186.991 101.952 187.084C102.175 187.196 102.38 187.345 102.584 187.494L102.882 187.699C103.179 187.903 103.551 187.978 103.849 188.183C104.351 188.518 104.909 188.667 105.466 188.834L106.043 189.002L107.642 189.505L108.572 189.784C109.185 189.895 109.724 189.951 110.264 189.989C110.654 189.989 111.026 189.989 111.398 190.044C111.733 190.082 112.049 190.175 112.495 190.286C113.741 190.622 115.024 190.808 116.418 190.882C116.642 190.882 116.865 190.882 117.051 190.938C117.181 190.975 117.311 191.013 117.423 191.068C117.627 191.143 117.832 191.217 118.055 191.255C118.315 191.31 118.575 191.292 118.836 191.273L120.007 191.236L121.29 191.161C121.42 191.161 121.569 191.161 121.699 191.124C122.015 191.087 122.331 191.05 122.648 191.05C123.15 191.05 123.763 191.012 124.358 190.901C124.563 190.864 124.767 190.808 124.953 190.752C125.176 190.696 125.381 190.622 125.604 190.584C126.032 190.491 126.459 190.454 126.924 190.398C127.649 190.324 128.412 190.212 129.1 189.84L129.416 189.653C129.602 189.542 129.788 189.43 129.955 189.374C130.122 189.337 130.327 189.3 130.643 189.263C131.777 189.132 132.763 188.704 133.581 188.294L134.808 187.643L136.24 186.805L137.281 186.154L138.23 185.521C138.49 185.353 138.732 185.167 138.992 185.018L139.327 184.85C139.55 184.739 139.773 184.608 139.996 184.478C140.256 184.31 140.498 184.087 140.74 183.882C141.056 183.603 141.372 183.342 141.688 183.138C141.856 183.026 142.023 182.951 142.209 182.858C142.506 182.709 142.841 182.542 143.12 182.3C143.306 182.114 143.51 181.872 143.678 181.648L143.845 181.443C144.105 181.108 144.403 180.811 144.719 180.513L144.886 180.382C145.017 180.271 145.147 180.159 145.258 180.047C145.5 179.805 145.705 179.545 145.928 179.284C146.448 178.67 146.988 178.018 147.378 177.273C147.88 176.38 148.494 175.579 149.145 174.723C149.721 173.941 150.316 173.085 150.669 172.116C150.911 171.539 151.171 170.925 151.506 170.367C151.711 170.031 151.878 169.659 152.008 169.287C152.101 169.007 152.213 168.747 152.343 168.468L152.752 167.686C152.938 167.313 153.124 166.96 153.254 166.569C153.44 166.066 153.477 165.545 153.514 165.154C153.514 164.949 153.551 164.763 153.589 164.558L153.644 164.186C153.719 163.702 153.812 163.162 153.998 162.529L154.221 161.803C154.37 161.319 154.481 160.816 154.574 160.313C154.76 159.383 154.741 158.34 154.518 157.391C154.444 157.018 154.518 156.311 154.518 155.79C154.518 155.548 154.537 155.324 154.518 155.138C154.481 153.984 154.314 153.202 154.072 152.252L153.867 151.508C153.719 150.968 153.365 149.944 152.436 149.944C152.306 149.944 152.157 149.963 151.989 150.018C151.636 150.111 151.339 150.298 151.116 150.502C150.576 151.024 150.632 151.694 150.669 152.01C150.688 152.401 150.781 152.811 150.892 153.295L151.283 154.691C151.357 154.97 151.432 155.25 151.487 155.603L151.636 156.497C151.655 156.627 151.636 156.758 151.636 156.888C151.636 157.018 151.636 157.13 151.636 157.26V158.228C151.673 158.563 151.655 158.899 151.636 159.234C151.562 159.904 151.413 160.537 151.264 161.17C151.208 161.356 151.153 161.542 151.06 161.71L150.967 161.877L150.837 162.101C150.613 162.492 150.613 162.92 150.558 163.292L150.502 163.646L150.242 165.191L150.204 165.321C150.037 166.215 149.442 167.816 148.996 168.449C148.717 168.859 148.457 169.25 148.289 169.659C148.233 169.808 148.178 169.938 148.122 170.087L148.01 170.422C147.936 170.646 147.862 170.851 147.75 171.018C147.508 171.335 147.397 171.763 147.248 172.154C147.192 172.321 147.136 172.47 147.099 172.638C147.062 172.768 147.025 172.917 146.969 173.047C146.82 173.494 146.467 173.866 146.095 174.239C145.742 174.611 145.407 174.983 145.11 175.43C144.998 175.616 144.905 175.803 144.812 176.007L144.626 176.38C144.477 176.64 144.254 176.92 143.975 177.199C143.864 177.311 143.715 177.422 143.585 177.534C143.417 177.683 143.213 177.813 143.046 177.981C142.506 178.502 142.004 179.079 141.409 179.563C139.792 180.866 138.267 181.928 136.779 182.933L136.519 183.1L135.682 183.659C135.552 183.752 135.459 183.882 135.385 183.994C135.348 184.031 135.329 184.087 135.292 184.124C135.162 184.255 135.031 184.366 134.864 184.459C134.492 184.646 134.083 184.776 133.618 184.869C133.191 184.962 132.763 185.055 132.335 185.223C131.963 185.353 131.647 185.558 131.313 185.744L131.164 185.818C130.699 186.06 130.234 186.284 129.751 186.47L128.858 186.842C128.672 186.935 128.412 186.935 128.133 186.954C128.003 186.954 127.873 186.954 127.742 186.973C127.333 187.029 126.85 187.066 126.348 187.252C125.939 187.401 125.678 187.475 125.455 187.513C125.083 187.587 124.767 187.68 124.042 187.997C123.54 188.22 123.168 188.369 122.722 188.201C122.313 188.034 121.848 187.978 121.272 188.015C120.937 188.015 120.602 188.071 120.267 188.127C119.765 188.22 119.301 188.239 118.854 188.164C116.697 187.755 115.042 187.364 113.406 187.177C113.146 187.14 112.886 187.177 112.625 187.177C112.365 187.196 112.123 187.215 111.9 187.159C111.677 187.103 111.454 186.991 111.231 186.898C110.84 186.712 110.45 186.507 109.985 186.47C109.743 186.47 109.501 186.47 109.241 186.47C109.092 186.47 108.944 186.489 108.795 186.489C108.349 186.489 107.921 186.247 107.456 186.023C107.103 185.856 106.749 185.651 106.34 185.502C106.08 185.409 105.801 185.372 105.541 185.316C105.355 185.279 105.169 185.223 104.983 185.167C104.778 185.092 104.611 185.018 104.481 184.925C104.276 184.776 104.09 184.683 103.849 184.571C103.105 184.255 102.138 183.752 101.264 183.119L100.929 182.877C100.204 182.337 99.4418 181.76 98.5307 181.071L98.3819 180.959C97.6568 180.401 96.913 179.768 96.1878 179.172C96.0762 179.079 95.9647 179.042 95.8159 178.967C95.7415 178.93 95.6672 178.856 95.6114 178.781C95.537 178.688 95.4626 178.595 95.3882 178.483C95.2767 178.334 95.1837 178.186 95.0721 178.055C94.9048 177.869 94.7003 177.72 94.4957 177.571L94.3284 177.441C94.1238 177.255 93.9379 177.031 93.7519 176.771C93.3429 176.156 92.971 175.523 92.6735 174.872C92.5805 174.704 92.5247 174.499 92.4503 174.332C92.2458 173.829 92.097 173.308 91.7995 172.843C91.7066 172.675 91.6136 172.507 91.502 172.34C91.4648 172.284 91.409 172.21 91.3347 172.135C91.2417 172.023 91.2045 171.93 91.1673 171.874C90.9814 171.614 90.8698 171.242 90.7954 170.869L90.7583 170.664C90.7211 170.478 90.6839 170.292 90.6653 170.106C90.6281 169.789 90.5909 169.492 90.5351 169.194C90.4607 168.821 90.3678 168.468 90.2376 168.114L90.2004 168.002C90.0889 167.667 90.0145 167.313 89.624 167.053C89.3265 166.885 89.0104 166.643 88.6571 166.55C88.434 166.494 88.2108 166.531 87.9691 166.699L87.8761 166.755Z" fill="#231F20"/>
<path d="M33.4394 33.8862C39.3896 27.9475 48.0174 26.9421 53.9676 32.8995C59.9178 38.8569 62.019 50.604 56.0688 56.5614C50.1186 62.5188 38.3855 60.3965 32.4353 54.4577C26.4851 48.5003 27.4892 39.8622 33.4394 33.9048V33.8862Z" fill="#E7B797"/>
<path d="M52.1278 52.9888C50.4729 54.6457 45.3409 53.324 41.529 49.9357C37.6242 46.4544 39.2233 43.4012 40.8968 41.7443C42.5517 40.0874 45.6012 38.4678 49.0783 42.3773C52.4625 46.1937 53.7827 51.3133 52.1278 52.9888Z" fill="#EC9995"/>
<path d="M32.5908 33.3465C31.9214 33.2161 31.4752 33.6257 31.1405 33.9422L30.75 34.3331C30.5455 34.5193 30.3409 34.7241 30.1736 34.9289C29.8761 35.2826 29.7087 35.7294 29.5228 36.1204L29.1323 36.9767C29.0765 37.107 29.0021 37.2374 28.9092 37.3677C28.7976 37.5352 28.686 37.7028 28.5559 37.8703C28.3513 38.131 28.1468 38.4474 28.0724 38.7081C27.8679 39.1549 27.6633 39.6017 27.496 40.0671L27.3286 40.4953C26.9753 41.4634 26.6964 42.5431 26.6592 43.6229V43.9022C26.6406 44.2559 26.6592 44.6282 26.7336 45.075C26.8266 45.6149 26.9939 46.1176 27.0125 46.6016C27.0125 46.825 26.9939 47.0484 27.0125 47.2904V47.7372C27.0869 48.7984 27.4774 49.8223 27.9794 50.6787C28.4443 51.535 28.8162 52.4286 29.281 53.3409L29.4298 53.6015C29.5042 53.7318 29.5971 53.8435 29.6901 53.9552C29.7273 54.0111 29.7831 54.0483 29.8203 54.1041C29.9876 54.3648 30.1922 54.5696 30.4153 54.7743L31.0103 55.277C31.2148 55.4632 31.4566 55.6307 31.6797 55.7983C31.8471 55.9286 31.9958 56.0403 32.126 56.1892C32.3119 56.3754 32.4607 56.5615 32.628 56.7663L32.8697 57.027C33.1301 57.2876 33.4462 57.4738 33.7065 57.7344C34.1156 58.1626 34.6548 58.4232 35.1569 58.7025C35.3428 58.7956 35.5101 58.8886 35.6961 58.9817L37.2022 59.745L38.0948 60.136C38.6898 60.3408 39.2104 60.4525 39.7683 60.5083L40.9025 60.6572C41.2372 60.7131 41.5533 60.8062 41.981 60.9551C43.2268 61.3274 44.547 61.4764 45.9044 61.4764C46.1275 61.4764 46.3507 61.4391 46.5366 61.4764C46.6668 61.495 46.7969 61.5322 46.9271 61.5695C47.1316 61.6253 47.3547 61.6998 47.5779 61.7184C47.8382 61.7184 48.0985 61.6812 48.3588 61.6439C48.7493 61.5881 49.1398 61.5508 49.5303 61.4764L50.8133 61.1785C50.9435 61.1413 51.0922 61.1227 51.2224 61.0668C51.5385 60.9551 51.836 60.8434 52.1707 60.7689C52.6913 60.6759 53.2863 60.4525 53.8442 60.136C54.0301 60.0243 54.2161 59.9312 54.402 59.8009L54.9598 59.3727C55.3317 59.0934 55.7594 58.9259 56.1499 58.6094C56.7821 58.1626 57.4701 57.6786 57.842 56.9339L58.0093 56.5988C58.1209 56.394 58.2139 56.1892 58.3068 56.0217C58.3998 55.8727 58.5486 55.7238 58.7903 55.4818C59.2179 55.0536 59.5341 54.5696 59.7572 54.0669C60.0175 53.5829 60.1849 53.0802 60.2778 52.6148C60.3894 52.1494 60.5381 51.684 60.5753 51.2185C60.6311 50.66 60.7427 50.1015 60.7613 49.543L60.8171 48.3143C60.8171 47.942 60.7985 47.5697 60.7799 47.1973C60.7613 46.8808 60.7427 46.583 60.7613 46.2851V45.9128C60.7613 45.6707 60.7799 45.4101 60.7613 45.1681C60.7613 44.8702 60.7055 44.5537 60.6125 44.2559C60.5196 43.8463 60.4266 43.4554 60.408 43.083V42.5059C60.408 42.1708 60.408 41.8171 60.315 41.4447C60.2406 41.1841 60.1291 40.9049 59.9989 40.6628L59.8687 40.4394C59.6642 40.0671 59.5526 39.6575 59.4225 39.2666L59.3667 39.0618C59.3295 38.8943 59.2737 38.7453 59.2179 38.5778L58.8089 37.6655C58.437 36.9581 58.1023 36.1948 57.5259 35.5619C56.8937 34.78 56.373 33.9236 55.7594 33.0486C55.2016 32.2481 54.495 31.4476 53.6396 30.8518C53.0818 30.5353 52.5612 30.0885 52.0219 29.6976C51.6872 29.4556 51.3339 29.2508 50.9806 29.046C50.7017 28.9157 50.4228 28.804 50.1625 28.6737C49.9022 28.5433 49.6419 28.3572 49.3815 28.2269C49.0096 28.0407 48.6192 27.8545 48.2101 27.7056C47.6709 27.5753 47.113 27.5567 46.7225 27.538C46.518 27.538 46.3135 27.538 46.1089 27.538H45.7184C45.1978 27.538 44.6586 27.538 43.9706 27.4822C43.7103 27.4636 43.4499 27.445 43.1896 27.445C42.669 27.445 42.1297 27.4263 41.6091 27.538C40.6236 27.687 39.6753 28.0779 38.8757 28.6364C38.5782 28.8598 37.8902 29.046 37.4068 29.2508C37.1836 29.3439 36.9791 29.4369 36.8117 29.5114C35.7891 30.0141 35.1569 30.4795 34.4503 31.1125L33.8924 31.6151C33.4648 31.9688 32.7582 32.7321 33.1487 33.5512C33.2044 33.6816 33.2974 33.7933 33.409 33.9236C33.6507 34.2028 33.9482 34.389 34.2271 34.5007C34.9337 34.78 35.473 34.4448 35.7519 34.2773C36.0866 34.1097 36.4027 33.8863 36.756 33.5699C37.1093 33.272 37.4626 32.9927 37.7973 32.6576C38.0018 32.4715 38.2249 32.3225 38.5038 32.1178C38.7456 31.9502 38.9687 31.7827 39.2104 31.6337C39.322 31.5593 39.4336 31.522 39.5451 31.4848C39.6567 31.4476 39.7497 31.4103 39.8612 31.3545C40.1215 31.2242 40.4191 31.1124 40.698 31.0007C40.9955 30.889 41.2744 30.7401 41.5719 30.6843C42.1669 30.5353 42.7619 30.4795 43.357 30.4981C43.5243 30.4981 43.7103 30.4981 43.8776 30.5353L44.045 30.5912L44.2681 30.6843C44.6586 30.8146 45.0305 30.7401 45.3466 30.7401H45.6627C46.1275 30.7215 46.5738 30.7773 47.0386 30.8146H47.1688C47.9684 30.9077 49.4001 31.4848 49.8836 32.0061C50.1997 32.3225 50.553 32.5273 50.8505 32.788C50.9621 32.8624 51.0736 32.9369 51.1852 33.0114L51.4641 33.1603C51.65 33.2534 51.8174 33.3651 51.929 33.4954C52.1521 33.7746 52.4868 33.9794 52.8029 34.1842C52.9331 34.2773 53.0632 34.3518 53.1934 34.4448C53.3049 34.5193 53.4165 34.5752 53.5281 34.6496C53.8814 34.8917 54.1045 35.3198 54.309 35.7666C54.5322 36.1762 54.7181 36.623 55.0156 37.0326C55.1458 37.1815 55.2759 37.3304 55.4247 37.4794C55.5177 37.5725 55.592 37.6655 55.6664 37.7772C55.8338 38.0193 56.0011 38.2985 56.1313 38.6522C56.1871 38.8012 56.2428 38.9501 56.2614 39.1177C56.2986 39.3411 56.3544 39.5458 56.4288 39.7506C56.6891 40.4208 56.9308 41.091 57.0982 41.7798C57.4887 43.6974 57.6746 45.4473 57.749 47.1229V47.4021C57.7676 47.7186 57.7862 48.0165 57.7676 48.3143C57.7676 48.4633 57.8234 48.6122 57.8792 48.7239C57.8792 48.7611 57.9163 48.817 57.9349 48.8542C57.9721 49.0218 57.9907 49.1893 57.9721 49.3569C57.9163 49.7292 57.749 50.1015 57.5816 50.4925C57.4515 50.8648 57.1912 51.1813 57.0796 51.5536C56.9866 51.8887 56.9122 52.2052 56.8193 52.5403L56.7821 52.6706C56.6891 53.1175 56.5032 53.5456 56.2614 53.9366C56.1127 54.1786 56.0197 54.4579 55.8524 54.6813C55.7408 54.8302 55.5735 54.9605 55.3689 55.1094L55.1086 55.3142C54.8297 55.5562 54.4578 55.7424 54.1789 56.0961C53.9557 56.394 53.7326 56.5057 53.5653 56.636C53.2678 56.8036 53.1004 57.0456 52.5612 57.4924C52.1893 57.8089 51.929 58.1067 51.4641 58.0137C51.055 57.9206 50.646 57.995 50.1439 58.1254C49.8464 58.1812 49.5489 58.2929 49.2514 58.386C48.8237 58.5535 48.3774 58.5908 47.9684 58.5908C45.923 58.4046 44.3611 58.0695 42.8921 57.902C42.6504 57.8647 42.4087 57.8647 42.1669 57.902C41.9252 57.902 41.6835 57.9392 41.4975 57.8647C41.293 57.8089 41.107 57.6599 40.9025 57.5482C40.5678 57.3248 40.2145 57.1387 39.7868 57.0456C39.5637 56.9897 39.3406 56.9897 39.0989 56.9897C38.9501 56.9897 38.8013 56.9897 38.6712 56.9711C38.2435 56.9153 37.8902 56.6174 37.5183 56.3381C37.2208 56.1147 36.9233 55.8727 36.5886 55.6679C36.3655 55.5376 36.1238 55.4445 35.882 55.3515C35.7147 55.2956 35.5473 55.2025 35.3986 55.1094C35.2126 54.9977 35.1011 54.886 35.0081 54.7743C34.8593 54.5882 34.692 54.4951 34.5061 54.3275C34.2271 54.0855 33.8924 53.7877 33.5577 53.4712C33.2416 53.1361 32.9255 52.7451 32.628 52.3542L32.4421 52.0377C32.0144 51.3302 31.5681 50.6042 31.1405 49.6734L31.0661 49.5244C30.7128 48.7797 30.4525 47.9606 30.2108 47.1415C30.1736 47.0112 30.0992 46.9181 30.0062 46.8064C29.969 46.7505 29.969 46.6388 29.9504 46.5644C29.9504 46.4527 29.9504 46.341 29.9504 46.2293C29.9504 46.0617 29.969 45.8942 29.9504 45.7452C29.9132 45.5218 29.8947 45.2984 29.8389 45.0564L29.8017 44.8702C29.7645 44.6096 29.7273 44.349 29.8017 44.0511C29.8761 43.3623 30.0434 42.6921 30.2665 42.0405C30.3223 41.8543 30.3967 41.7054 30.4897 41.5192C30.6942 41.0724 30.9173 40.607 31.0847 40.1043C31.1405 39.9368 31.1777 39.7506 31.2149 39.5645C31.2149 39.49 31.2334 39.4155 31.252 39.3224C31.252 39.1921 31.3078 39.099 31.3264 39.0432C31.3822 38.7267 31.5681 38.4288 31.7727 38.131L31.9028 37.9634L32.2561 37.5352C32.4421 37.3118 32.628 37.0884 32.8326 36.8464C33.0557 36.5485 33.2416 36.2321 33.409 35.897L33.4648 35.7853C33.6321 35.506 33.8738 35.0964 33.7623 34.631C33.6693 34.2401 33.4834 33.905 33.223 33.6816C33.0557 33.5326 32.8512 33.4395 32.628 33.3837L32.5908 33.3465Z" fill="#231F20"/>
<path d="M144.174 33.8879C138.224 27.9306 129.596 26.9439 123.646 32.8826C117.696 38.8214 115.595 50.5872 121.545 56.5445C127.495 62.5019 139.228 60.3796 145.179 54.4408C151.129 48.4835 150.125 39.8453 144.174 33.8879Z" fill="#E7B797"/>
<path d="M125.482 52.9863C127.137 54.6432 132.269 53.3214 136.081 49.9332C139.986 46.4518 138.386 43.3987 136.713 41.7418C135.058 40.0849 132.009 38.4653 128.531 42.3748C125.147 46.1912 123.827 51.3108 125.482 52.9863Z" fill="#EC9995"/>
<path d="M143.596 34.743C143.41 35.3946 143.708 35.7856 143.949 36.102C144.042 36.2324 144.098 36.3627 144.173 36.5116C144.284 36.7164 144.377 36.9212 144.526 37.1073C144.768 37.4052 144.991 37.7031 145.27 37.9451C145.456 38.1313 145.66 38.3174 145.772 38.5408C145.827 38.6525 145.883 38.7456 145.939 38.8573C146.013 39.0063 146.051 39.1738 146.106 39.3227C146.199 39.5648 146.218 39.8999 146.348 40.0674C146.497 40.4397 146.646 40.8121 146.72 41.1844L146.813 41.5381C146.999 42.3387 147.092 43.1578 147.241 43.9769L147.278 44.1817C147.315 44.4423 147.334 44.7216 147.427 45.0753C147.575 45.4849 147.594 45.8945 147.557 46.2854C147.519 46.453 147.501 46.6391 147.408 46.8067L147.278 47.1232C147.017 47.8864 146.85 48.6684 146.646 49.413C146.46 50.1577 145.976 50.772 145.437 51.3678L145.27 51.5353C145.27 51.5353 145.121 51.7215 145.065 51.8146C145.046 51.8518 145.009 51.9077 144.972 51.9449L144.544 52.5034L144.21 53.0247C144.098 53.2295 143.968 53.4156 143.801 53.5832C143.689 53.7135 143.577 53.8252 143.447 53.9183C143.28 54.0486 143.113 54.1603 142.927 54.2534L142.648 54.3837C142.369 54.514 142.164 54.756 141.885 54.8677C141.439 55.0725 141.03 55.3518 140.658 55.631C140.528 55.7427 140.379 55.8358 140.231 55.9103C139.821 56.1337 139.394 56.3571 138.966 56.5432L138.204 56.8411C137.72 57.1017 137.33 57.3251 136.902 57.5485C136.605 57.7161 136.326 57.9209 136.01 58.014C135.731 58.107 135.433 58.1629 135.043 58.2187C133.908 58.3863 132.774 58.5166 131.603 58.6469C131.417 58.6469 131.231 58.6656 131.063 58.6469C130.952 58.6283 130.84 58.5725 130.729 58.5352C130.561 58.4608 130.376 58.4049 130.19 58.3677C129.985 58.3304 129.762 58.3118 129.539 58.2932C129.223 58.256 128.888 58.256 128.572 58.2187L127.531 58.0326C127.419 58.014 127.307 57.9953 127.196 57.9581C126.954 57.8836 126.694 57.8092 126.471 57.6975C126.08 57.5485 125.671 57.2879 125.225 57.1017L124.76 56.9342C124.593 56.8597 124.444 56.7853 124.277 56.6922C123.979 56.506 123.682 56.3198 123.44 56.022C123.049 55.5938 122.659 55.1656 122.157 54.7933L121.896 54.6443C121.729 54.5512 121.58 54.4582 121.506 54.3278C121.432 54.2161 121.376 54.0486 121.283 53.788C121.116 53.3598 120.948 52.9502 120.799 52.5593C120.613 52.1869 120.428 51.8332 120.297 51.4795C120.167 51.1258 119.963 50.7907 119.87 50.4183C119.74 49.9715 119.572 49.5433 119.479 49.0779L119.293 48.0354C119.237 47.7189 119.237 47.3838 119.2 47.0673C119.182 46.8067 119.145 46.5274 119.182 46.2668L119.237 45.9503C119.275 45.7269 119.312 45.5221 119.349 45.2987C119.349 45.0381 119.386 44.7588 119.405 44.4796C119.442 44.1072 119.461 43.7535 119.572 43.437C119.609 43.2695 119.702 43.1206 119.795 42.9716C119.944 42.711 120.093 42.4317 120.167 42.1153C120.204 41.8919 120.242 41.6312 120.279 41.3892L120.316 41.1658C120.372 40.7935 120.465 40.4397 120.632 40.1046L120.725 39.9557C120.799 39.8254 120.874 39.6951 120.93 39.5648L121.264 38.7456C121.599 38.1313 121.878 37.4611 122.175 36.7909C122.491 35.9531 123.105 35.2829 123.775 34.6313C124.388 34.0356 125.058 33.5143 125.653 32.8627C126.043 32.509 126.489 32.1367 126.991 31.9505C127.307 31.8202 127.586 31.6526 127.865 31.4851C128.088 31.392 128.312 31.2803 128.535 31.2058C128.758 31.1314 128.981 31.0569 129.241 31.0569C129.576 31.0197 129.911 30.9824 130.227 30.908C130.654 30.8335 131.026 30.6846 131.342 30.5543C131.491 30.4798 131.659 30.4798 131.807 30.4425L132.105 30.3867C132.514 30.275 132.96 30.2936 133.499 30.3867C133.704 30.4053 133.908 30.4425 134.113 30.517C134.522 30.6473 134.931 30.7032 135.322 30.8335C136.084 31.0197 136.865 31.1686 137.683 31.2245C137.981 31.2803 138.52 31.5409 138.873 31.8016C139.04 31.9133 139.189 32.025 139.319 32.0994C140.119 32.6021 140.677 32.9186 141.365 33.3654L141.904 33.7191C142.294 33.9983 142.945 34.5755 143.763 34.1287C143.894 34.0728 144.005 33.9797 144.135 33.868C144.414 33.626 144.6 33.3468 144.693 33.0489C144.916 32.3228 144.433 31.7085 144.191 31.4106C143.875 31.0755 143.522 30.759 143.038 30.4239C142.573 30.1074 142.053 29.884 141.551 29.642C141.235 29.5117 140.937 29.3814 140.565 29.2325C140.249 29.1021 139.952 28.9718 139.617 28.8787C139.468 28.8415 139.338 28.767 139.208 28.6926C139.078 28.6367 138.966 28.5809 138.836 28.525C138.501 28.3761 138.148 28.3016 137.795 28.2085C137.423 28.1341 137.069 28.0038 136.698 27.9479C135.991 27.7804 135.284 27.5756 134.559 27.4453C134.355 27.408 134.132 27.3522 133.927 27.2777L133.722 27.2032L133.444 27.1102C132.942 26.9798 132.458 26.9985 132.03 27.0915L131.64 27.166C131.045 27.2219 130.468 27.408 129.892 27.557L129.743 27.5942C129.241 27.7431 128.553 27.9851 127.865 28.1899C127.196 28.4692 126.526 28.674 126.117 28.8415C125.597 29.0277 125.058 29.2325 124.648 29.5489C124.5 29.6606 124.351 29.7723 124.221 29.884L123.923 30.1633C123.719 30.3495 123.551 30.5356 123.384 30.666C123.012 30.9266 122.677 31.2989 122.399 31.6713C122.287 31.8388 122.194 32.0064 122.101 32.1739C122.027 32.3042 121.952 32.4532 121.878 32.5835C121.58 33.0117 121.208 33.384 120.781 33.7936C120.372 34.1845 119.981 34.6127 119.721 35.1526C119.609 35.3574 119.535 35.5808 119.442 35.8042C119.386 35.9345 119.349 36.0834 119.293 36.2324C119.182 36.5488 119.014 36.8839 118.791 37.2563L118.494 37.7217C118.364 37.9265 118.215 38.1499 118.122 38.3733C117.731 39.118 117.545 39.9371 117.229 40.719C116.448 42.8785 116.132 45.0009 116.207 47.0487V47.4024C116.225 47.7747 116.244 48.1657 116.337 48.5194C116.374 48.7056 116.467 48.8545 116.541 48.9848C116.578 49.0407 116.597 49.0779 116.616 49.1338C116.69 49.3199 116.746 49.5061 116.764 49.7109C116.857 50.1577 116.895 50.6417 116.895 51.163C116.895 51.647 117.006 52.1497 117.155 52.6523C117.285 53.0805 117.508 53.4715 117.75 53.8438L117.862 53.9927C118.159 54.4954 118.494 54.998 118.866 55.4635C119.107 55.7427 119.293 56.0592 119.554 56.3198C119.721 56.4874 119.87 56.7294 120.018 56.99C120.093 57.1204 120.167 57.2507 120.242 57.3624C120.502 57.7719 120.93 58.1629 121.413 58.498C121.822 58.7959 122.101 58.9076 122.324 59.0565C122.715 59.2613 123.012 59.5405 123.867 59.6895C124.481 59.8012 124.872 59.9129 125.243 60.248C125.578 60.5645 126.043 60.8437 126.675 61.0113C127.047 61.0857 127.419 61.1416 127.791 61.1788C128.349 61.2719 128.869 61.216 129.353 61.365C131.714 61.9421 133.722 61.8118 135.433 61.4022C135.712 61.3091 135.972 61.1788 136.214 61.0485C136.456 60.9182 136.698 60.7879 136.939 60.7506C137.2 60.6948 137.441 60.6575 137.702 60.6389C138.148 60.5831 138.65 60.5458 139.096 60.2852C139.338 60.1549 139.543 59.9687 139.728 59.7826C139.859 59.6709 139.97 59.5592 140.1 59.4661C140.491 59.2054 140.956 59.0007 141.495 58.8517C141.904 58.7214 142.313 58.5539 142.704 58.2932C142.964 58.1257 143.187 57.9209 143.41 57.7347C143.577 57.6044 143.708 57.4368 143.875 57.3065C144.061 57.139 144.21 57.0273 144.377 56.9714C144.619 56.8597 144.805 56.7294 145.028 56.5246C145.363 56.2268 145.753 55.8544 146.162 55.4821C146.553 55.0725 146.98 54.6443 147.408 54.1975L147.705 53.8438C148.393 53.0805 149.026 52.1683 149.546 50.9396L149.639 50.7348C150.067 49.7481 150.364 48.6684 150.457 47.5886C150.476 47.421 150.457 47.2907 150.42 47.1045C150.42 47.0115 150.42 46.8998 150.42 46.7881C150.42 46.6577 150.476 46.5088 150.495 46.3785C150.532 46.1737 150.588 45.9689 150.606 45.7641C150.643 45.4849 150.569 45.187 150.513 44.9078L150.457 44.6844C150.383 44.3865 150.402 44.0514 150.364 43.6977C150.309 42.8599 150.216 42.0408 150.067 41.2217C150.048 40.9982 149.993 40.7748 149.937 40.5514C149.825 39.9557 149.695 39.3227 149.36 38.7642C149.249 38.5781 149.137 38.3919 149.007 38.2057C148.951 38.1313 148.895 38.0568 148.821 37.9823C148.71 37.8706 148.654 37.7776 148.598 37.7217C148.338 37.4611 148.17 37.0701 147.984 36.6978L147.873 36.493L147.575 35.9345C147.427 35.618 147.278 35.3015 147.036 35.0409C146.776 34.7058 146.478 34.3893 146.144 34.1287L146.032 34.0356C145.734 33.8122 145.307 33.4957 144.823 33.5515C144.433 33.6074 144.117 33.7936 143.875 34.0728C143.726 34.2404 143.615 34.4452 143.559 34.6686L143.596 34.743Z" fill="#231F20"/>
<path d="M110.199 140.972C122.378 144.751 132.828 151.471 136.696 157.54C140.452 163.442 140.08 170.349 134.26 174.407C128.589 178.354 120.166 175.375 111.947 169.958C105.736 165.862 101.98 161.264 101.98 161.264" fill="#E7B797"/>
<path d="M101.33 162.046C101.107 162.679 101.423 163.107 101.665 163.423L101.944 163.814C102.074 164.019 102.204 164.205 102.371 164.391C102.632 164.689 102.966 164.913 103.282 165.099C103.505 165.248 103.729 165.397 103.933 165.564C104.026 165.639 104.119 165.732 104.193 165.825C104.305 165.955 104.417 166.085 104.528 166.216C104.696 166.439 104.863 166.718 105.067 166.83L105.96 167.686L106.239 167.947C106.852 168.543 107.522 169.157 108.284 169.641L108.47 169.772C108.712 169.939 108.972 170.088 109.325 170.237C109.753 170.404 110.144 170.553 110.478 170.795C110.627 170.907 110.757 171.037 110.887 171.186C110.98 171.279 111.055 171.354 111.148 171.447C111.799 172.024 112.561 172.434 113.323 172.732C114.048 173.048 114.699 173.551 115.387 174.053L115.592 174.202C115.703 174.277 115.796 174.333 115.926 174.37C115.982 174.388 116.019 174.407 116.075 174.444C116.298 174.556 116.522 174.668 116.745 174.761L117.358 174.966C117.581 175.021 117.823 175.096 118.046 175.17C118.214 175.226 118.362 175.282 118.511 175.375C118.697 175.468 118.883 175.599 119.05 175.729L119.311 175.896C119.59 176.064 119.906 176.138 120.166 176.306C120.594 176.604 121.114 176.697 121.598 176.827L122.118 176.958C122.602 177.069 123.085 177.218 123.55 177.349C123.829 177.423 124.127 177.479 124.406 177.553C124.963 177.628 125.465 177.646 125.967 177.591L127.009 177.516C127.325 177.516 127.622 177.535 128.05 177.591C129.24 177.665 130.523 177.553 131.732 177.107C131.936 177.032 132.122 176.958 132.308 176.939L132.68 176.902C132.885 176.902 133.108 176.864 133.312 176.809C133.554 176.734 133.796 176.641 134 176.492L134.949 175.878C135.302 175.654 135.581 175.375 135.897 175.133L136.194 174.891C136.417 174.705 136.622 174.482 136.864 174.295C137.254 174.016 137.663 173.607 138.017 173.141C138.128 172.992 138.24 172.825 138.333 172.638L138.649 172.08C138.872 171.726 139.114 171.391 139.355 171C139.746 170.423 140.099 169.753 140.155 168.99V168.636C140.155 168.431 140.155 168.226 140.192 168.059C140.229 167.91 140.285 167.724 140.397 167.426C140.806 166.42 140.769 165.359 140.657 164.503C140.601 164.075 140.49 163.647 140.415 163.237C140.304 162.734 140.118 162.25 139.988 161.766L139.579 160.705C139.467 160.389 139.3 160.091 139.151 159.774C139.021 159.532 138.909 159.272 138.798 159.011L138.686 158.695C138.612 158.471 138.537 158.266 138.426 158.062C138.295 157.82 138.128 157.578 137.961 157.354C137.756 157.038 137.533 156.758 137.366 156.442C137.291 156.293 137.236 156.125 137.161 155.958C137.05 155.66 136.938 155.362 136.715 155.102C136.548 154.915 136.362 154.729 136.157 154.58L135.971 154.431C135.674 154.189 135.413 153.929 135.19 153.631L135.079 153.482C135.004 153.352 134.911 153.24 134.8 153.128L134.149 152.532C133.647 152.03 133.089 151.564 132.457 151.192C131.695 150.727 131.062 150.149 130.374 149.498C129.742 148.939 129.091 148.344 128.273 147.953C127.79 147.729 127.325 147.376 126.879 147.022C126.618 146.798 126.321 146.631 126.023 146.445C125.8 146.314 125.596 146.184 125.391 146.035C125.186 145.886 125.001 145.737 124.815 145.57C124.554 145.346 124.275 145.123 123.978 144.937C123.587 144.695 123.16 144.564 122.844 144.471C122.676 144.434 122.527 144.36 122.36 144.304L122.063 144.192C121.672 144.043 121.263 143.838 120.78 143.541L120.24 143.187C119.868 142.945 119.515 142.703 119.125 142.517C118.381 142.163 117.6 141.884 116.763 141.809C116.447 141.772 115.926 141.493 115.536 141.288C115.35 141.195 115.183 141.102 115.053 141.046C114.179 140.674 113.546 140.487 112.765 140.264L112.133 140.115C111.687 139.985 110.832 139.761 110.33 140.506C110.255 140.618 110.181 140.748 110.125 140.916C109.995 141.251 109.958 141.604 109.976 141.902C110.051 142.647 110.609 142.945 110.869 143.094C111.185 143.28 111.557 143.392 111.984 143.541C112.412 143.671 112.858 143.745 113.305 143.838C113.565 143.894 113.844 143.931 114.141 144.006L114.941 144.211C115.053 144.229 115.164 144.285 115.276 144.341C115.369 144.378 115.48 144.434 115.592 144.471L116.429 144.751C116.707 144.844 117.005 144.955 117.284 145.067C117.823 145.29 118.344 145.588 118.827 145.905C118.976 145.998 119.125 146.091 119.236 146.203L119.348 146.333L119.515 146.501C119.813 146.78 120.166 146.91 120.482 147.022L120.78 147.134L122.063 147.655L122.174 147.711C122.918 148.027 124.22 148.79 124.703 149.312C125.019 149.628 125.354 149.889 125.67 150.094C125.781 150.168 125.912 150.243 126.023 150.298L126.302 150.429C126.488 150.522 126.674 150.596 126.804 150.708C127.065 150.95 127.418 151.118 127.752 151.266C127.883 151.322 128.031 151.378 128.18 151.434C128.292 151.471 128.422 151.508 128.533 151.564C128.924 151.732 129.203 152.067 129.519 152.421C129.816 152.756 130.114 153.091 130.504 153.37C130.653 153.482 130.821 153.556 131.007 153.649L131.323 153.817C131.564 153.947 131.787 154.152 132.011 154.413C132.104 154.524 132.197 154.655 132.271 154.766C132.382 154.934 132.513 155.102 132.643 155.25C133.052 155.753 133.573 156.181 133.907 156.721C134.911 158.155 135.655 159.495 136.287 160.835L136.399 161.059L136.734 161.804C136.789 161.934 136.901 162.008 136.975 162.083C137.012 162.12 137.05 162.139 137.068 162.176C137.161 162.288 137.236 162.418 137.273 162.567C137.347 162.902 137.366 163.256 137.329 163.628C137.273 163.982 137.254 164.335 137.254 164.689C137.254 164.987 137.347 165.285 137.384 165.583V165.713C137.459 166.123 137.477 166.532 137.422 166.923C137.422 167.184 137.403 167.426 137.347 167.686C137.329 167.854 137.217 168.022 137.105 168.208C137.05 168.301 136.994 168.375 136.938 168.45C136.752 168.71 136.603 169.064 136.455 169.418C136.343 169.734 136.269 169.939 136.176 170.088C136.008 170.33 135.915 170.572 135.692 171.168C135.525 171.577 135.413 171.912 135.004 171.987C134.632 172.043 134.335 172.266 133.944 172.527C133.721 172.694 133.535 172.881 133.331 173.085C133.033 173.327 132.736 173.569 132.401 173.681C130.728 174.091 129.426 174.146 128.18 174.277C127.976 174.295 127.771 174.351 127.567 174.426C127.362 174.482 127.176 174.556 126.99 174.537C126.804 174.519 126.618 174.426 126.432 174.351C126.098 174.202 125.782 174.091 125.391 174.072C125.186 174.072 124.982 174.109 124.759 174.165C124.629 174.202 124.498 174.221 124.368 174.24C123.978 174.24 123.606 174.053 123.234 173.867C122.937 173.718 122.62 173.532 122.267 173.439C122.044 173.365 121.802 173.346 121.561 173.309C121.393 173.271 121.226 173.253 121.059 173.197C120.873 173.141 120.724 173.085 120.631 172.992C120.464 172.862 120.296 172.806 120.073 172.713C119.422 172.434 118.548 172.061 117.73 171.54L117.414 171.354C116.745 170.907 116.019 170.479 115.127 169.976L114.978 169.883C114.253 169.474 113.528 169.027 112.765 168.636C112.635 168.58 112.542 168.561 112.394 168.543C112.319 168.543 112.245 168.468 112.189 168.431C112.096 168.357 112.022 168.282 111.947 168.208C111.836 168.096 111.706 167.984 111.575 167.891C111.389 167.761 111.185 167.668 110.962 167.593L110.794 167.519C110.571 167.426 110.348 167.277 110.125 167.072C109.604 166.663 109.102 166.216 108.638 165.75L108.266 165.359C107.931 165.006 107.615 164.633 107.187 164.335L106.741 164.056C106.741 164.056 106.611 164 106.536 163.963C106.406 163.907 106.35 163.851 106.295 163.833C106.016 163.721 105.793 163.46 105.569 163.2L105.439 163.051C105.328 162.921 105.216 162.79 105.123 162.641C104.956 162.418 104.788 162.194 104.584 161.99C104.342 161.748 104.063 161.524 103.766 161.338L103.673 161.264C103.412 161.077 103.078 160.835 102.613 160.91C102.241 160.984 101.906 161.133 101.646 161.375C101.479 161.543 101.349 161.729 101.274 161.934L101.33 162.046Z" fill="#231F20"/>
<path d="M67.4174 140.969C55.2381 144.749 44.788 151.469 40.9204 157.538C37.1644 163.44 37.5362 170.347 43.3563 174.405C49.0276 178.352 57.4508 175.373 65.6695 169.956C71.88 165.86 75.6361 161.262 75.6361 161.262" fill="#E7B797"/>
<path d="M74.7773 160.759C74.1265 160.61 73.8104 160.926 73.5315 161.168C73.4199 161.261 73.3083 161.354 73.1782 161.429C72.9922 161.559 72.8249 161.689 72.6575 161.838C72.3972 162.099 72.1927 162.397 72.0067 162.695C71.8766 162.9 71.7278 163.123 71.5605 163.291C71.4861 163.365 71.3931 163.458 71.3002 163.533C71.17 163.626 71.0398 163.719 70.8911 163.793C70.6679 163.923 70.4076 164.054 70.2589 164.24C69.9614 164.482 69.6639 164.743 69.3478 164.966L69.0502 165.171C68.3994 165.636 67.7114 166.12 67.0978 166.66L66.9491 166.79C66.7445 166.977 66.5214 167.144 66.2983 167.423C66.038 167.759 65.759 168.075 65.4429 168.261C65.2942 168.354 65.1268 168.41 64.9595 168.485L64.6434 168.615C63.881 168.95 63.2488 169.471 62.6538 169.937C62.0588 170.421 61.3522 170.7 60.5898 170.961L60.3853 171.035C60.2737 171.072 60.1807 171.128 60.0878 171.203C60.0506 171.221 60.0134 171.258 59.9576 171.277C59.7531 171.37 59.5485 171.482 59.3626 171.612L58.8791 171.966C58.6932 172.096 58.5258 172.227 58.3213 172.338C58.1911 172.413 58.0424 172.487 57.8936 172.543C57.7077 172.618 57.5217 172.655 57.3172 172.692L57.0383 172.748C56.7594 172.804 56.499 172.953 56.2201 173.008C55.7553 173.102 55.3462 173.25 54.9371 173.437L54.5095 173.623C54.1004 173.753 53.6727 173.865 53.2636 173.958L52.5385 174.107C52.0736 174.256 51.7017 174.405 51.2926 174.535C51.0137 174.628 50.7348 174.777 50.4373 174.814C50.177 174.852 49.9166 174.833 49.582 174.814C48.5964 174.703 47.6295 174.628 46.6626 174.405C46.4953 174.367 46.3465 174.33 46.235 174.274C46.142 174.237 46.0862 174.163 46.0118 174.07C45.9003 173.939 45.7887 173.828 45.6585 173.753C45.5098 173.66 45.3424 173.604 45.1751 173.53L44.4685 173.139C44.2082 173.008 43.9479 172.785 43.7061 172.618L43.4644 172.431C43.2785 172.282 43.1111 172.133 42.9624 171.947C42.7206 171.668 42.4789 171.314 42.1628 171.016C42.0512 170.923 41.9397 170.812 41.8467 170.719C41.7351 170.607 41.6236 170.477 41.5306 170.365C41.3261 170.123 41.2331 169.825 41.1029 169.509C40.917 169.024 40.8054 168.503 40.4893 168.056L40.3406 167.833C40.2476 167.703 40.1546 167.572 40.0988 167.442C40.0988 167.312 40.0988 167.163 40.0988 166.921C40.1732 166.102 40.1174 165.357 40.0802 164.668C40.043 164.333 40.0802 163.998 40.0802 163.644C40.0802 163.235 40.1546 162.825 40.1918 162.397L40.3963 161.485C40.4521 161.205 40.5637 160.926 40.6381 160.647C40.7124 160.424 40.7682 160.182 40.8984 159.977L41.0657 159.735C41.1773 159.567 41.2889 159.4 41.3632 159.232C41.4934 159.027 41.605 158.804 41.6979 158.58C41.8281 158.283 41.9769 157.985 42.2 157.78C42.3116 157.668 42.4231 157.575 42.5533 157.482C42.7578 157.315 42.981 157.147 43.1855 156.942C43.3157 156.775 43.4272 156.57 43.5388 156.365L43.6318 156.179C43.7991 155.881 44.0408 155.639 44.2826 155.416L44.4127 155.323C44.5243 155.248 44.6173 155.155 44.7102 155.062L45.2867 154.503C45.7515 154.057 46.2536 153.61 46.6812 153.089C47.2019 152.437 47.9271 152.009 48.6708 151.562C49.3774 151.171 50.084 150.743 50.7348 150.203C51.1253 149.868 51.5715 149.57 52.0736 149.365C52.3711 149.235 52.65 149.067 52.9289 148.9C53.1335 148.769 53.338 148.639 53.5425 148.546C53.7657 148.453 53.9888 148.378 54.2119 148.304C54.528 148.211 54.8442 148.099 55.1417 147.95C55.5135 147.746 55.8668 147.504 56.1086 147.28C56.2387 147.168 56.3689 147.094 56.4991 147.001L56.7594 146.833C57.0941 146.591 57.4846 146.405 58.0052 146.238L58.6002 146.051L59.7903 145.66C60.534 145.4 61.2034 144.972 61.8356 144.488C62.0774 144.301 62.6352 144.152 63.0443 144.041C63.2302 143.985 63.4162 143.948 63.5463 143.892C64.4388 143.631 64.9967 143.371 65.7219 143.054L66.2983 142.812C66.7259 142.645 67.5069 142.347 67.4883 141.434C67.4883 141.304 67.4697 141.155 67.4139 140.988C67.321 140.634 67.1722 140.317 66.9677 140.094C66.4842 139.536 65.8148 139.629 65.5173 139.666C65.1454 139.722 64.7363 139.815 64.2901 140.02C63.8624 140.206 63.4347 140.429 63.0257 140.653C62.7839 140.783 62.5236 140.913 62.2447 141.081L61.5009 141.49C61.3894 141.565 61.2778 141.583 61.1476 141.621C61.0361 141.658 60.9245 141.695 60.8129 141.732C60.534 141.863 60.2551 141.974 59.9948 142.123C59.7159 142.272 59.437 142.421 59.158 142.551C58.6002 142.812 58.0052 142.98 57.4474 143.184C57.28 143.24 57.1127 143.296 56.9267 143.333H56.7408L56.4991 143.371C56.0714 143.426 55.7367 143.631 55.4392 143.836L55.1603 144.022L53.9144 144.804L53.8029 144.879C53.0963 145.363 51.7017 146.089 51.0137 146.331C50.5675 146.48 50.1584 146.647 49.8051 146.889C49.6749 146.964 49.5634 147.057 49.4518 147.15L49.1915 147.373C49.0241 147.522 48.8754 147.671 48.708 147.746C48.3547 147.894 48.0572 148.192 47.7783 148.472C47.6667 148.583 47.5552 148.714 47.4622 148.844C47.3878 148.956 47.2948 149.049 47.2019 149.16C46.8858 149.477 46.4767 149.7 46.0304 149.924C45.6028 150.147 45.1565 150.37 44.8032 150.761C44.6544 150.91 44.5429 151.078 44.4127 151.245L44.171 151.562C43.9851 151.785 43.7433 152.027 43.4458 152.251C43.3157 152.344 43.1855 152.437 43.0367 152.53C42.8508 152.66 42.6463 152.772 42.4975 152.921C41.9583 153.442 41.4562 153.982 40.9542 154.541C39.5038 156.03 38.4439 157.724 37.8117 159.455L37.7002 159.753C37.57 160.07 37.477 160.405 37.4212 160.74C37.3841 160.908 37.4212 161.075 37.4212 161.205C37.4212 161.261 37.4212 161.317 37.4398 161.354C37.4398 161.522 37.4212 161.708 37.3841 161.894C37.3283 162.304 37.1237 162.713 36.975 163.16C36.8448 163.588 36.6589 164.017 36.6589 164.501C36.6589 164.91 36.6589 165.301 36.7518 165.711L36.789 165.878C36.9006 166.418 36.975 166.939 37.1237 167.461C37.1981 167.777 37.2911 168.112 37.4212 168.41C37.4956 168.615 37.5142 168.876 37.5328 169.155C37.5328 169.285 37.57 169.415 37.5886 169.546C37.7002 169.955 37.8117 170.477 38.1464 170.923C38.4067 171.296 38.5369 171.538 38.6857 171.724C38.9274 172.04 39.1133 172.357 39.7455 172.804C40.2104 173.12 40.5079 173.344 40.6753 173.772C40.824 174.163 41.0843 174.61 41.5492 174.963C41.8281 175.168 42.107 175.354 42.4045 175.54C42.888 175.782 43.3342 175.987 43.6875 176.285C45.5842 177.644 47.5552 178.054 49.1915 177.998C49.4704 177.998 49.7121 177.905 49.9724 177.812C50.2142 177.737 50.4559 177.644 50.679 177.663C50.9207 177.663 51.1439 177.663 51.3856 177.7C51.7947 177.737 52.2595 177.812 52.6872 177.625C52.9103 177.532 53.1335 177.402 53.338 177.272C53.4682 177.197 53.5797 177.104 53.7099 177.048C54.1004 176.844 54.5466 176.788 55.0301 176.75C55.4206 176.713 55.7925 176.639 56.1829 176.508C56.4247 176.415 56.6664 176.285 56.8895 176.155C57.0569 176.062 57.2056 175.95 57.373 175.875C57.5589 175.782 57.7263 175.727 57.875 175.708C58.1168 175.671 58.3027 175.596 58.5258 175.484C59.2324 175.149 60.1621 174.721 61.0919 174.312L61.4452 174.163C62.2261 173.828 63.0629 173.437 63.974 172.841L64.1227 172.748C64.8665 172.282 65.6289 171.78 66.3169 171.221C66.4284 171.128 66.4842 171.035 66.5586 170.905C66.5958 170.849 66.6888 170.793 66.7631 170.737C66.8561 170.681 66.9677 170.626 67.0792 170.588C67.228 170.514 67.3953 170.439 67.5255 170.346C67.7114 170.216 67.8788 170.03 68.0461 169.844L68.1763 169.695C68.3437 169.509 68.5854 169.341 68.8271 169.155L70.5564 167.963L71.0398 167.647C71.4675 167.368 71.9138 167.088 72.2857 166.66C72.4158 166.53 72.5274 166.381 72.6389 166.213C72.6761 166.158 72.7133 166.083 72.7691 166.009C72.8249 165.878 72.8993 165.822 72.9365 165.767C73.0852 165.487 73.3641 165.264 73.643 165.04L73.7918 164.91L74.2195 164.575C74.4612 164.389 74.6843 164.221 74.9075 163.998C75.1678 163.737 75.3909 163.439 75.5769 163.104L75.6326 162.993C75.8 162.713 76.0417 162.304 75.893 161.838C75.7814 161.466 75.5583 161.168 75.2608 160.963C75.0748 160.833 74.8703 160.74 74.6657 160.684L74.7773 160.759Z" fill="#231F20"/>
<path d="M113.979 136.017H63.644V184.179H113.979V136.017Z" fill="#E7B797"/>
<path d="M147.244 96.3272C147.653 80.354 142.521 64.8276 131.142 53.6948C120.264 43.046 104.961 36.977 88.8024 36.977C72.6439 36.977 57.3407 43.0647 46.463 53.6948C35.0833 64.8276 29.9512 80.3726 30.3603 96.3272C23.9267 101.838 17.1583 116.657 29.6723 132.183C34.4883 138.159 41.0707 141.361 48.2295 144.191C61.7662 149.552 78.9474 149.981 88.8024 149.981C98.6574 149.981 115.839 149.534 129.375 144.191C136.534 141.361 143.098 138.159 147.932 132.183C160.446 116.675 153.678 101.856 147.244 96.3272Z" fill="#E7B797"/>
<path d="M147.368 97.4258C148.093 98.6359 149.358 100.237 150.194 101.689C150.529 102.248 150.845 102.806 151.105 103.383C151.533 104.24 151.868 105.133 152.202 106.045C152.5 106.79 152.686 107.572 152.946 108.317C153.151 109.08 153.3 109.825 153.486 110.569C153.616 111.649 153.857 112.729 153.82 113.827C153.82 114.33 153.82 114.851 153.82 115.372C153.727 116.08 153.634 116.769 153.541 117.457C153.355 118.556 152.983 119.785 152.779 120.715L151.942 123.136L150.845 125.444C150.641 125.928 150.306 126.375 150.046 126.822C148.205 129.912 145.918 132.872 143.091 135.218L142.385 135.795C141.436 136.54 140.451 137.284 139.168 138.141C137.625 139.183 136.081 140.077 134.519 140.803C133.794 141.138 133.069 141.436 132.325 141.734L130.875 142.292C127.416 143.633 123.976 144.824 120.648 145.699C117.338 146.593 113.954 147.114 110.328 147.505L109.305 147.598C108.766 147.672 108.264 147.728 107.743 147.784C107.502 147.803 107.297 147.84 107.037 147.859L103.894 148.175L101.161 148.436C100.157 148.529 99.1528 148.603 98.1487 148.678C97.4235 148.734 96.6984 148.752 95.9732 148.771C95.062 148.789 94.1509 148.771 93.2398 148.771H91.9382C90.618 148.734 89.2606 148.771 87.959 148.715C85.8207 148.641 83.6637 148.641 81.5811 148.585C80.8374 148.566 80.0936 148.547 79.3498 148.529C77.2858 148.454 75.2405 148.305 73.1765 148.138L69.6064 147.784C67.2821 147.561 65.3483 147.337 63.3401 147.058C61.9455 146.891 60.5695 146.649 59.1749 146.406C57.9663 146.127 56.7391 145.867 55.1214 145.383C50.4914 144.079 45.8986 142.236 41.4173 140.04C40.6736 139.667 39.967 139.295 39.3906 138.923C38.9815 138.662 38.591 138.401 38.2191 138.141C37.6055 137.694 36.9919 137.228 36.3597 136.763C35.6345 136.205 34.8907 135.646 34.1655 135.032C33.1057 134.138 32.1202 133.151 31.209 132.109C30.2049 130.955 29.331 129.67 28.4199 128.423L27.6575 127.138C27.3786 126.654 27.0439 126.17 26.8022 125.667L26.0956 124.104C25.3518 122.447 24.7382 120.399 24.2919 118.277C24.106 117.569 24.0874 116.843 23.9572 116.117C23.8085 115.335 23.8457 114.535 23.8085 113.753C23.8085 112.208 24.013 110.644 24.3849 109.024C24.9985 106.511 26.0398 104.016 27.36 101.633C27.5645 101.261 27.7505 100.889 27.9922 100.553C28.4199 99.9205 28.8104 99.2875 29.238 98.8221C29.4426 98.5987 29.6657 98.3566 29.926 98.0774C30.2979 97.7423 30.7628 97.3327 31.302 96.8487C31.3392 96.8115 31.395 96.7742 31.4322 96.737V96.5694V96.2157V95.5828L31.4694 94.8195C31.4694 94.3168 31.488 93.8142 31.5065 93.3115C31.5623 92.3248 31.5995 91.3381 31.6553 90.3887C31.8041 88.4712 31.9714 86.6653 32.1945 85.0084C32.4363 83.3329 32.6966 81.676 33.0871 80.0191C33.5147 78.0458 34.054 76.091 34.6862 74.1735C35.1696 72.74 35.6903 71.3251 36.3039 69.9475C36.8431 68.6629 37.4567 67.4342 38.0889 66.2055C38.6096 65.1816 39.2046 64.2508 39.781 63.2641L40.562 62.1471C41.0826 61.3838 41.6219 60.6205 42.1983 59.913C42.8677 59.0008 43.5929 58.0886 44.3552 57.2136C45.3407 56.0035 46.382 54.961 47.4233 53.9743C47.9625 53.5089 48.4832 53.0621 49.0224 52.5967C49.9893 51.852 50.9748 51.0515 52.0905 50.2323C52.8715 49.6366 53.7268 48.9478 54.5635 48.352L55.3259 47.7935C56.5903 46.9186 57.9105 46.0622 59.3051 45.3734L59.9745 45.0383C60.5137 44.759 61.0716 44.4798 61.6294 44.2191C62.7451 43.6606 63.8607 43.1394 65.0136 42.6739C67.7655 41.5383 70.6663 40.533 73.6228 39.7325C77.2115 38.7272 80.9489 38.2059 84.9095 38.0197C88.5168 37.8708 92.2543 38.0197 96.0104 38.3548C98.2975 38.541 100.733 39.0064 103.058 39.5836C104.452 39.9745 105.903 40.3096 107.279 40.775C108.301 41.0915 109.324 41.4266 110.309 41.8176C111.314 42.1899 112.262 42.6181 113.21 43.0649C114.549 43.6792 115.851 44.3867 117.171 45.0569C118.9 45.9691 120.499 46.8999 121.726 47.6074C122.34 47.9983 122.935 48.3893 123.549 48.7802C123.939 49.0222 124.292 49.2829 124.646 49.5435C126.115 50.6047 127.677 51.8148 129.406 53.5089C130.075 54.1419 130.726 54.8121 131.34 55.4823C131.972 56.1525 132.585 56.8413 133.162 57.5673C133.757 58.2748 134.352 58.9822 134.891 59.7455C136.992 62.538 138.889 65.5167 140.544 68.5326C140.841 69.1097 141.25 69.9847 141.66 70.9528C142.031 71.9395 142.44 72.9634 142.738 73.857C142.998 74.6948 143.24 75.458 143.445 76.091C144.616 80.0564 145.155 82.793 145.676 86.2558C145.825 87.168 145.918 88.0802 145.992 89.011C146.252 91.0403 146.289 94.8009 146.885 95.9551C146.977 96.1226 147.089 96.2343 147.201 96.2716C147.461 96.346 147.703 96.104 147.907 95.5641C148.428 94.2237 148.446 91.3381 148.391 89.9419C148.316 88.2664 148.149 86.4792 147.814 84.3196L147.219 81.2479L146.438 78.2319C146.048 77.0405 145.75 75.849 145.23 74.4527C144.821 73.2613 144.356 72.0884 143.854 70.9156C143.631 70.3943 143.445 69.873 143.203 69.3704C142.998 68.9049 142.775 68.4395 142.571 67.9369C141.994 66.7082 141.325 65.5167 140.655 64.3438C139.93 63.1337 139.205 61.9423 138.387 60.788C136.862 58.5168 135.17 56.3573 133.366 54.3839C132.827 53.8068 132.288 53.211 131.767 52.6525L131.247 52.1126C131.005 51.8706 130.782 51.61 130.54 51.368C129.257 50.0834 127.881 48.9664 126.598 48.0542L125.427 47.1978C123.642 45.9691 121.801 44.8149 119.904 43.7909L119.383 43.5117C117.747 42.6181 115.311 41.4452 112.894 40.4399C110.477 39.4346 108.041 38.6341 106.535 38.1314C104.601 37.5171 102.704 37.0331 100.863 36.6793C100.213 36.5676 99.5805 36.4746 98.9483 36.3815C98.4648 36.307 98 36.2325 97.4979 36.1953C96.531 36.1022 95.6013 36.0091 94.8203 35.9161C93.1654 35.7485 91.3432 35.674 89.6511 35.7113C88.9445 35.7113 88.2565 35.7485 87.5685 35.8044C86.9921 35.8416 86.4343 35.8788 85.8578 35.9161C83.9426 36.0836 81.9158 36.1953 79.7775 36.4187C78.7548 36.5676 77.7135 36.7166 76.6536 36.8469C75.5938 37.0517 74.5339 37.2565 73.4368 37.5543C72.5815 37.815 71.7447 38.057 70.8894 38.3176L69.3089 38.8761C68.1002 39.2671 66.78 39.7883 65.2181 40.3282L63.2843 41.0915C62.3732 41.408 61.5178 41.8362 60.6439 42.2458C57.799 43.6234 55.047 45.2803 52.4438 47.0861C45.285 52.0568 39.9112 58.2748 36.3039 64.9954L35.6903 66.1683C35.0209 67.397 34.4816 68.7188 33.9238 69.9847C33.6821 70.6549 33.4961 71.232 33.366 71.6788C33.3102 71.865 33.2544 72.0512 33.18 72.256C32.9383 72.9075 32.771 73.6336 32.5106 74.3783C32.2317 75.1788 31.9528 76.0165 31.7111 76.8915C31.4508 77.7479 31.1533 78.6229 30.9301 79.5351C30.4467 81.2292 30.0748 83.0164 29.7773 84.8967C29.5355 86.5164 29.424 88.0802 29.3496 89.6626L29.3124 90.3328L29.2566 93.5349L29.2938 95.136C29.2938 95.8434 29.3682 95.8248 29.2566 95.8992L28.6244 96.5136C28.3641 96.7556 28.1596 97.0162 27.9364 97.2769C27.4902 97.7981 27.0439 98.3194 26.672 98.8965C26.1328 99.604 25.5749 100.479 24.9613 101.41C24.6824 101.875 24.4407 102.359 24.1804 102.806C23.3622 104.351 22.5999 106.306 22.1722 108.447C21.8189 110.216 21.7445 111.37 21.6701 112.356C21.6144 113.976 21.5586 115.41 22.1908 118.519C22.5069 119.598 22.6928 120.529 22.9903 121.386C23.2878 122.223 23.5482 123.024 23.7527 123.88C24.013 124.644 24.3477 125.463 24.7382 126.375C25.1101 127.287 25.7237 128.199 26.3187 129.26C27.0439 130.489 27.9922 131.569 28.829 132.723C30.1863 134.361 31.6367 135.739 33.0313 136.986C36.4898 140.021 40.1529 142.013 43.5557 143.595C46.9585 145.159 50.2311 146.406 53.4293 147.3C54.4892 147.561 55.4933 147.821 56.516 148.008C57.52 148.194 58.4684 148.38 59.3795 148.566C60.3278 148.771 61.2575 148.994 62.1872 149.199C63.8607 149.571 65.59 149.888 67.4866 150.093C68.4907 150.186 69.439 150.242 70.4059 150.279C70.9824 150.297 71.5774 150.316 72.1724 150.353C73.9575 150.428 75.8727 150.632 77.8995 150.8C79.4986 150.93 81.1349 151.042 82.8642 151.079C83.9984 151.079 85.1141 151.079 86.2297 151.061C87.0107 151.061 87.7917 151.023 88.5912 151.005C89.5023 151.005 90.2275 151.005 90.8411 151.005C91.8452 151.042 92.682 151.023 93.779 151.005C97.126 150.93 101.551 150.744 105.996 150.372L107.688 150.223C111.406 149.869 115.33 149.348 120.016 148.268L120.797 148.082C124.553 147.188 128.42 145.904 131.99 144.321C132.567 144.079 132.957 143.856 133.497 143.577C133.794 143.446 134.203 143.242 134.519 143.093C134.984 142.888 135.449 142.683 135.895 142.478C136.583 142.18 137.253 141.845 137.922 141.492C138.852 140.989 139.763 140.431 140.618 139.835L141.325 139.332C142.255 138.662 143.259 137.954 144.318 137.08C145.527 136.074 146.68 134.994 147.74 133.84C148.818 132.686 149.674 131.383 150.641 130.154C151.143 129.484 151.552 128.739 151.998 128.032C153.207 126.114 154.192 123.917 154.88 121.572C155.14 120.79 155.233 119.933 155.419 119.133C155.475 118.798 155.549 118.463 155.587 118.09C155.624 117.476 155.661 117.085 155.68 116.787C155.81 115.447 155.828 113.79 155.735 112.189L155.661 111.295C155.624 110.476 155.457 109.676 155.326 108.875C155.233 108.205 155.066 107.553 154.88 106.92C154.694 106.269 154.527 105.617 154.248 104.984C153.932 104.202 153.634 103.439 153.225 102.713C152.853 101.968 152.426 101.261 151.961 100.591L151.663 100.144C151.254 99.5295 150.696 98.8593 150.139 98.2449C149.525 97.6678 148.986 97.0907 148.446 96.8301C147.61 96.3647 147.163 96.2902 147.07 96.5508C147.015 96.7184 147.108 97.0162 147.349 97.4444L147.368 97.4258Z" fill="white"/>
<mask id="mask0_1_171" style="mask-type:luminance" maskUnits="userSpaceOnUse" x="22" y="93" width="133" height="57">
<path d="M142.929 93.2997C144.045 93.9513 145.719 95.0125 147.262 96.3343C153.696 101.845 160.464 116.664 147.95 132.19C143.134 138.166 136.552 141.368 129.393 144.198C115.856 149.56 98.6748 149.988 88.8198 149.988C78.9648 149.988 61.7836 149.541 48.2469 144.198C41.0881 141.368 34.5243 138.166 29.6898 132.19C17.1758 116.682 23.9441 101.863 30.3778 96.3343C31.9025 95.0125 33.5946 93.9513 34.7103 93.2997" fill="white"/>
</mask>
<g mask="url(#mask0_1_171)">
<path d="M21.8404 145.146C30.4496 153.766 39.9885 152.072 46.9056 145.146C53.8227 138.221 55.5148 128.652 46.9056 120.051C38.2964 111.431 28.7575 113.125 21.8404 120.051C14.9233 126.976 13.2312 136.545 21.8404 145.146Z" fill="#EC9995"/>
<path d="M155.777 145.146C147.168 153.766 137.629 152.072 130.712 145.146C123.794 138.221 122.102 128.652 130.712 120.051C139.321 111.45 148.86 113.126 155.777 120.051C162.694 126.976 164.386 136.545 155.777 145.146Z" fill="#EC9995"/>
</g>
<mask id="mask1_1_171" style="mask-type:luminance" maskUnits="userSpaceOnUse" x="22" y="36" width="133" height="114">
<path d="M147.25 96.3333C147.659 80.3601 142.527 64.8338 131.147 53.7009C120.27 43.0522 104.966 36.9831 88.808 36.9831C72.6495 36.9831 57.3463 43.0708 46.4686 53.7009C35.0889 64.8338 29.9569 80.3787 30.3659 96.3333C23.9323 101.844 17.1639 116.663 29.6779 132.189C34.4939 138.165 41.0763 141.367 48.2351 144.197C61.7718 149.559 78.953 149.987 88.808 149.987C98.663 149.987 115.844 149.54 129.381 144.197C136.54 141.367 143.103 138.165 147.938 132.189C160.452 116.681 153.684 101.862 147.25 96.3333Z" fill="white"/>
</mask>
<g mask="url(#mask1_1_171)">
<path d="M66.7129 37.338C64.3142 38.5668 63.8307 40.9311 65.9505 45.8831C68.1446 51.0027 72.8862 57.0532 75.3406 55.9734C77.1629 55.1915 76.4563 46.8512 74.4667 41.6571C72.5515 36.6678 70.4875 35.4205 66.7129 37.338Z" fill="#53352E"/>
<path d="M110.919 37.338C113.318 38.5668 113.801 40.9311 111.681 45.8831C109.487 51.0027 104.746 57.0532 102.291 55.9734C100.469 55.1915 101.176 46.8512 103.165 41.6571C105.08 36.6678 107.144 35.4205 110.919 37.338Z" fill="#53352E"/>
<path d="M88.8191 58.7642C93.9697 58.7642 96.1825 39.9426 95.7176 35.6422C95.3457 32.2725 94.1371 31.5837 88.8191 31.5837C83.5011 31.5837 82.2925 32.2725 81.9206 35.6422C81.4557 39.9426 83.6685 58.7642 88.8191 58.7642Z" fill="#53352E"/>
</g>
<path d="M52.1693 92.0267C56.2787 91.5241 60.295 91.3938 63.7908 91.3938C70.0385 91.3938 75.0776 92.0267 75.0776 92.0267" stroke="#231F20" stroke-width="4.72926" stroke-linecap="round" stroke-linejoin="round"/>
<path d="M64.2779 90.0741C61.8421 90.0741 59.7781 89.5901 58.867 91.3959C57.6955 93.7044 56.7844 96.4224 56.7844 100.593C56.7844 108.244 58.9228 112.247 64.2779 112.247C69.6331 112.247 71.7715 108.244 71.7715 100.593C71.7715 96.4224 70.8789 93.7044 69.6889 91.3959C68.7778 89.5901 66.7138 90.0741 64.2779 90.0741Z" fill="#231F20"/>
<path d="M62.4207 69.0537C62.7926 68.4208 63.2946 67.8995 64.3731 68.0484C65.7863 68.2532 67.8503 69.2771 70.5278 70.8223C73.2054 72.3675 75.1206 73.6521 75.9946 74.7691C76.664 75.6441 76.478 76.3329 76.1061 76.9659C75.7343 77.5988 75.2322 78.1201 74.1537 77.9712C72.7406 77.7664 70.6766 76.7425 67.999 75.1973C65.3214 73.6521 63.4062 72.3675 62.5323 71.2505C61.8629 70.3755 62.0488 69.6867 62.4207 69.0537Z" fill="#231F20"/>
<path d="M31.3632 95.9175C31.9396 95.2287 31.9768 94.242 32.014 93.4229C32.0326 93.1064 32.0884 92.7899 32.1256 92.492C32.1813 92.0266 32.2371 91.5612 32.2743 91.0958C32.2929 90.3139 32.3301 89.5506 32.3115 88.8059C32.3115 88.2846 32.2743 87.7448 32.3487 87.2049L32.4603 86.4602L32.6648 85.4549C32.7764 84.915 32.9623 84.3193 33.0181 83.8539C33.1854 83.0347 33.3156 82.2342 33.5387 81.4337L33.7433 80.689C34.1709 79.0321 34.7102 77.338 35.1936 75.6252L35.3238 75.1971C35.5097 74.6386 35.6399 74.0801 35.8258 73.354C36.049 72.4976 36.2535 71.6599 36.5696 70.9338C36.737 70.5987 36.9229 70.2822 37.1088 69.9471L37.4621 69.3142C38.3175 67.8062 39.0427 66.2424 39.7864 64.8275C40.493 63.394 41.4971 62.1281 42.5942 60.8249L42.9103 60.4712C43.0776 60.285 43.2078 60.0803 43.3566 59.8941C43.4123 59.801 43.4681 59.7265 43.5425 59.6335L44.4536 58.4792L45.1974 57.4553C45.4577 57.0643 45.7552 56.692 46.0713 56.3569C46.2945 56.0963 46.5176 55.8543 46.7593 55.6122C47.0754 55.3144 47.3729 55.0351 47.7076 54.7745L48.1911 54.4022C48.6745 54.0298 49.1022 53.5644 49.5857 53.1921C50.4038 52.6149 51.1476 51.9634 51.8542 51.2932L52.6537 50.6416C53.3975 50.0458 54.1785 49.4687 54.978 48.9661L56.3726 48.0352C57.2651 47.4209 58.0089 46.8996 58.7713 46.3225C59.3105 45.9501 59.8497 45.5592 60.4262 45.2241C60.9282 44.9076 61.4675 44.6842 62.1926 44.3677C64.2566 43.4183 66.4136 42.5991 68.6077 41.7241C68.9796 41.5752 69.3329 41.4635 69.649 41.389C69.8721 41.3332 70.0952 41.3146 70.3184 41.296C70.6903 41.2587 71.0435 41.2029 71.4154 41.1098C71.8431 40.9981 72.2708 40.905 72.6984 40.7561C73.3492 40.5885 73.9815 40.3837 74.6323 40.2162L76.7892 39.7321C77.0123 39.6763 77.2541 39.6204 77.4958 39.5832C78.035 39.4901 78.5743 39.397 79.1135 39.3412C79.9688 39.2295 81.0101 39.1736 82.0514 39.0061L83.0927 38.8385L84.2455 38.6896C84.9893 38.6338 85.7517 38.5779 86.5512 38.6338C87.8157 38.671 89.0987 38.7082 90.4375 38.5965L91.0511 38.5221C91.423 38.4662 91.7763 38.4104 92.0924 38.4476C92.3713 38.4848 92.7246 38.5221 93.2824 38.6338C94.2307 38.8013 95.179 38.9316 96.0716 39.0619C96.9641 39.155 97.8194 39.2667 98.6004 39.3598C99.3813 39.4715 100.181 39.5274 100.962 39.6763C101.91 39.8438 102.858 39.9555 103.788 40.1789L105.871 40.6444L107.767 41.1656C108.288 41.3146 108.809 41.4263 109.311 41.6497L109.906 41.9103L111.114 42.413C111.616 42.5991 112.137 42.8039 112.639 43.0087C113.327 43.2693 113.997 43.4927 114.573 43.8465C114.87 44.014 115.149 44.2002 115.41 44.3863C115.893 44.7214 116.414 45.0193 116.972 45.3544C117.381 45.5778 117.846 45.7826 118.31 45.9688L118.719 46.1363C119.389 46.4342 120.021 46.8251 120.635 47.2347L120.932 47.4395L121.639 47.9421L123.089 48.9102C124.223 49.7107 125.413 50.5485 126.603 51.3862C128.072 52.3729 129.318 53.6389 130.583 55.0165C131.141 55.6495 131.717 56.3011 132.293 56.9526C132.851 57.6229 133.428 58.2931 134.041 58.926C134.729 59.7452 135.473 60.6574 136.031 61.6255C136.366 62.2212 136.756 62.7983 137.146 63.3568C137.425 63.7664 137.667 64.2132 137.909 64.66C138.151 65.1068 138.355 65.5536 138.56 66.0004C138.839 66.652 139.08 67.2849 139.396 67.9179C139.824 68.7184 140.233 69.5003 140.568 70.0775C140.754 70.3753 140.903 70.6732 141.051 70.9711C141.144 71.1572 141.237 71.362 141.312 71.5482C141.665 72.3301 142.037 73.1865 142.334 74.2848L142.669 75.5508C142.911 76.3885 143.078 77.2635 143.283 78.1013C143.692 79.7023 144.157 81.3034 144.677 82.8672C144.863 83.4629 145.049 84.673 145.086 85.5666C145.123 85.9762 145.142 86.3671 145.179 86.665C145.347 88.6011 145.514 89.9043 145.644 91.5612L145.737 92.8644C145.811 93.8324 145.811 95.601 146.685 96.1595C146.816 96.2526 146.964 96.2898 147.132 96.3085C147.504 96.3457 147.838 96.2526 148.117 95.992C148.805 95.359 148.935 93.9814 148.991 93.3112C149.028 92.5106 149.01 91.6543 148.935 90.6117C148.861 89.6064 148.675 88.6384 148.526 87.6517C148.433 87.0559 148.303 86.4788 148.173 85.79C148.061 85.1943 147.95 84.5985 147.82 84.0214C147.745 83.7608 147.727 83.5001 147.689 83.2395C147.652 82.9975 147.615 82.7555 147.578 82.4948C147.448 81.8619 147.318 81.2289 147.15 80.5959L146.648 78.6412C146.332 77.3752 145.997 76.1093 145.7 74.862C145.588 74.4896 145.495 74.1359 145.421 73.7636L145.365 73.3912L145.291 72.8886C145.123 72.0322 144.752 71.2503 144.435 70.5801L144.157 69.9471C143.71 68.9977 143.227 68.0855 142.762 67.1546L142.613 66.9126C141.739 65.3488 140.103 62.3887 139.378 61.0297C138.913 60.1733 138.467 59.317 137.89 58.6282C137.686 58.3861 137.5 58.1255 137.314 57.9021L136.849 57.3622C136.551 57.0085 136.235 56.692 135.994 56.3755C135.51 55.7239 134.897 55.091 134.302 54.5325L133.521 53.8995L132.87 53.3782C132.182 52.7639 131.512 52.0378 130.824 51.2745C130.174 50.5112 129.411 49.8038 128.556 49.1522C128.203 48.8916 127.868 48.6496 127.496 48.4262L126.808 47.998C126.287 47.6815 125.748 47.2533 125.116 46.7693L124.335 46.1363C123.982 45.8384 123.628 45.5406 123.256 45.2799C121.992 44.4422 120.672 43.6603 119.352 42.9156C115.763 40.7933 112.23 39.2853 108.734 38.2428L108.139 38.0566C107.488 37.8705 106.856 37.6657 106.187 37.554C105.852 37.4795 105.555 37.4795 105.332 37.4795H105.034C104.699 37.4423 104.346 37.3678 103.993 37.2934C103.193 37.1258 102.375 36.8652 101.501 36.5859C100.702 36.3067 99.8462 36.1205 98.9537 35.9529C98.1913 35.804 97.4289 35.7854 96.6666 35.7482H96.3505C95.3278 35.6737 94.3051 35.6365 93.2824 35.6178C92.6502 35.6178 92.018 35.562 91.3858 35.5992C90.9767 35.5992 90.4932 35.5434 89.9726 35.4875C89.7123 35.4503 89.4706 35.4317 89.2288 35.3944C88.4107 35.3014 87.4438 35.3014 86.4397 35.3944C85.6029 35.4689 85.0823 35.5248 84.6174 35.562C83.8737 35.6551 83.2043 35.6551 81.7539 36.046C80.7312 36.3253 80.006 36.4928 79.1693 36.3997C78.3883 36.3253 77.4772 36.3625 76.3429 36.5673C75.6921 36.7162 75.0413 36.8838 74.3905 37.0513C73.4236 37.2934 72.5497 37.6285 71.6758 37.7588C67.4176 38.5407 64.0893 39.7508 61.2443 41.2029C60.7795 41.4449 60.3518 41.7241 59.9427 42.0034C59.5336 42.264 59.1618 42.5805 58.7527 42.7667C58.3436 42.9715 57.8973 43.1576 57.4697 43.3252C56.6887 43.623 55.9263 44.014 55.164 44.5539C54.7735 44.8331 54.4202 45.1496 54.0855 45.4847C53.881 45.6895 53.6764 45.8943 53.4533 46.0805C52.8025 46.639 51.9843 47.1044 51.1476 47.6443C50.4968 48.0725 49.7902 48.4634 49.1766 49.0405C48.7675 49.3942 48.377 49.7852 47.9865 50.1761C47.7076 50.4368 47.4473 50.716 47.187 50.9953C46.8709 51.3118 46.6106 51.5352 46.3688 51.7213C45.9784 52.0192 45.6808 52.2798 45.2904 52.6708C44.7325 53.2665 44.0631 53.9367 43.3751 54.6814C42.7058 55.4447 41.9806 56.2452 41.2554 57.0457L40.7347 57.6787C39.5633 59.0563 38.4105 60.6201 37.2204 62.6121L37.0159 62.9472C36.049 64.5483 35.1564 66.2796 34.4499 68.0296C34.3383 68.3089 34.3011 68.5323 34.2267 68.8301C34.1895 68.9791 34.0966 69.1839 34.0222 69.3328L33.6875 69.9844C33.5387 70.3009 33.3714 70.636 33.2412 70.9711C33.0553 71.4365 32.9251 71.9391 32.795 72.4046L32.6834 72.8141C32.5532 73.354 32.3673 73.8939 32.1628 74.5082C31.6421 75.9045 31.2516 77.3194 30.8054 78.7342L30.4707 79.8885C30.1546 80.9124 29.8756 82.0108 29.7455 83.1464C29.7083 83.5374 29.6525 83.9283 29.6339 84.3193C29.6339 84.4682 29.6339 84.6544 29.6339 84.8219C29.6339 85.1012 29.6339 85.2873 29.6339 85.4363C29.6525 86.0692 29.5038 86.8325 29.4108 87.5772L29.355 87.9868L29.1877 89.1224C29.0947 89.7367 29.0017 90.3511 28.9831 91.0027C28.9459 91.7846 28.9831 92.5665 29.0203 93.3298V93.5904C29.1133 94.2792 29.2062 95.2101 29.6153 95.75C29.95 96.1781 30.3033 96.3643 30.6566 96.2898C30.8797 96.2526 31.1029 96.1223 31.2888 95.8803L31.3632 95.9175Z" fill="#231F20"/>
<path d="M33.7914 92.6776C32.7873 92.5845 31.7088 93.2547 30.8721 93.8318L29.8866 94.502C29.3845 94.8371 28.9197 95.2281 28.4734 95.6377C27.6925 96.3265 27.1346 97.1642 26.5768 97.9275L25.4797 99.6403C25.3124 99.9009 25.145 100.18 24.9777 100.441C24.7546 100.813 24.4756 101.148 24.2525 101.521C23.8992 102.116 23.4529 102.786 23.2484 103.345C22.8765 104.332 22.3931 105.281 22.0956 106.286L21.798 107.217C21.1844 109.321 20.7568 111.611 20.8497 113.919V114.496C20.8497 115.241 20.9427 116.004 21.1658 116.935C21.3704 118.052 21.6865 119.076 21.9096 120.081C22.0212 120.547 22.0398 121.031 22.1699 121.478L22.3931 122.371C22.672 123.432 23.0067 124.494 23.5087 125.443C23.9736 126.411 24.4384 127.361 25.0335 128.18C26.0933 129.892 27.1904 131.531 28.3619 133.318L28.7337 133.802C28.9383 134.063 29.1242 134.286 29.3474 134.509C29.4403 134.603 29.5333 134.696 29.6449 134.807C30.0539 135.273 30.5002 135.72 30.9651 136.11C31.3741 136.483 31.8018 136.799 32.2295 137.134C32.6943 137.507 33.1778 137.823 33.6612 138.177C33.9959 138.419 34.3492 138.661 34.6839 138.922L35.9298 139.908L36.5248 140.355C37.1384 140.821 37.845 141.156 38.4586 141.584C39.4813 142.273 40.6155 142.813 41.694 143.278C42.0845 143.445 42.475 143.613 42.8655 143.781L46.0823 145.177C46.7145 145.437 47.3281 145.698 47.9603 145.94C49.2433 146.35 50.3032 146.703 51.4374 146.927C52.2184 147.094 52.9994 147.281 53.7803 147.448C54.4683 147.597 55.1563 147.82 56.0674 148.1C58.7078 148.844 61.4598 149.384 64.2676 149.757C64.7324 149.812 65.1787 149.868 65.5692 149.943C65.8295 149.999 66.0898 150.092 66.3501 150.166C66.7778 150.296 67.2055 150.427 67.6517 150.501C68.1724 150.594 68.7116 150.65 69.2508 150.706L71.6681 150.911L74.3271 151.116L75.1824 151.171C75.8332 151.209 76.484 151.227 77.1534 151.302C78.1947 151.413 79.4406 151.525 80.705 151.525H81.9694L83.3454 151.488C84.2379 151.488 85.149 151.544 86.1159 151.6C87.6221 151.693 89.184 151.767 90.7645 151.6L91.4897 151.507C91.936 151.451 92.3636 151.376 92.7355 151.376C93.0702 151.376 93.4979 151.395 94.1673 151.451C96.473 151.618 98.7043 151.488 100.601 151.302L103.446 151.004C104.58 150.874 105.714 150.725 106.849 150.576L109.396 150.222C110.177 150.11 110.939 149.98 111.72 149.85C112.353 149.738 112.966 149.626 113.617 149.552L114.379 149.459L115.941 149.254C116.573 149.142 117.224 148.993 117.856 148.844C118.73 148.658 119.53 148.435 120.33 148.286C120.72 148.211 121.129 148.174 121.52 148.137C122.208 148.044 122.933 147.932 123.695 147.727C124.253 147.578 124.829 147.374 125.387 147.132L125.889 146.927C126.707 146.61 127.563 146.312 128.399 146.033L128.809 145.903C129.143 145.81 129.478 145.698 129.813 145.568L131.765 144.767C133.327 144.116 134.926 143.408 136.451 142.515C138.292 141.435 140.207 140.467 142.141 139.238C143.907 138.121 145.692 136.799 147.143 135.124C148.035 134.118 148.965 133.001 149.82 131.922C150.359 131.252 150.899 130.6 151.345 129.874L152.33 128.273C152.665 127.752 153.056 127.249 153.335 126.69C153.762 125.927 154.19 125.164 154.58 124.363C154.989 123.265 155.268 122.185 155.473 121.366C155.547 120.938 155.622 120.51 155.696 120.1L155.845 119.318C156.086 118.257 156.124 117.084 156.365 115.669L156.458 114.012C156.57 112.895 156.458 111.797 156.384 110.661C156.105 108.558 155.51 106.473 154.525 104.667C154.208 103.959 153.576 102.563 153.111 101.539C152.87 101.074 152.628 100.664 152.442 100.31C151.14 98.2068 150.062 96.9036 148.426 95.526C148.017 95.1536 147.57 94.8371 147.124 94.502C146.176 93.776 144.279 92.6031 143.275 93.0499C143.126 93.1058 143.015 93.2175 142.903 93.3478C142.68 93.6457 142.643 93.9994 142.736 94.3903C142.996 95.3398 144.167 96.252 144.688 96.7174C145.339 97.2759 146.008 97.8531 146.771 98.5605C147.496 99.2493 148.24 99.994 148.89 100.795C149.318 101.26 149.671 101.763 150.099 102.396C150.49 102.917 150.769 103.475 151.103 104.034C151.252 104.276 151.382 104.536 151.475 104.797C151.568 105.039 151.661 105.281 151.754 105.542C152.033 106.175 152.293 106.808 152.498 107.478C152.74 108.148 152.963 108.837 153.074 109.544C153.223 110.233 153.353 110.922 153.372 111.611C153.39 112.3 153.483 112.988 153.409 113.677C153.39 114.087 153.372 114.478 153.297 114.869L153.223 115.241C153.204 115.409 153.149 115.576 153.093 115.744C152.832 116.637 152.851 117.512 152.702 118.294L152.572 119.02C152.405 120.1 152.107 121.161 151.773 122.204L151.68 122.483C151.419 123.395 150.787 124.643 150.192 125.853C149.467 126.988 148.816 128.143 148.24 128.738C147.533 129.52 146.901 130.302 146.324 131.065C146.12 131.326 145.915 131.568 145.711 131.829L145.246 132.406C144.93 132.797 144.632 133.15 144.316 133.411C143.684 133.97 143.033 134.621 142.401 135.217L141.639 135.98L140.988 136.595C140.225 137.227 139.277 137.749 138.273 138.251C137.306 138.735 136.283 139.182 135.261 139.759L134.052 140.467L133.271 140.914C132.676 141.249 131.988 141.547 131.17 141.863L130.11 142.217C129.627 142.366 129.125 142.515 128.641 142.701C127.079 143.259 125.499 143.855 123.881 144.283C119.437 145.437 115.309 146.164 111.311 146.834L110.623 146.945C109.88 147.057 109.154 147.169 108.411 147.281C108.039 147.355 107.723 147.448 107.481 147.541C107.388 147.578 107.276 147.597 107.165 147.634C106.811 147.727 106.402 147.802 105.993 147.839C105.082 147.951 104.115 147.951 103.093 147.932C102.144 147.932 101.177 147.895 100.155 147.932C99.2807 147.988 98.444 148.062 97.6072 148.174L97.2539 148.211C96.1197 148.323 94.9668 148.416 93.8326 148.472L91.6942 148.602C91.2294 148.621 90.6901 148.602 90.0951 148.528C89.8162 148.509 89.5187 148.472 89.2584 148.453C88.3473 148.398 87.2502 148.342 86.1159 148.398C85.1676 148.453 84.5726 148.453 84.052 148.453C83.1966 148.453 82.4714 148.453 80.7979 148.602C79.6079 148.714 78.7526 148.77 77.8414 148.509C77.0047 148.249 75.982 148.1 74.699 148.007C73.9552 147.951 73.1928 147.932 72.4491 147.895C71.3334 147.839 70.2735 147.802 69.3066 147.597C64.5465 146.666 60.7718 145.866 57.3505 145.14C56.7926 145.028 56.2348 144.953 55.6956 144.879C55.1563 144.805 54.6357 144.73 54.1708 144.6C53.6688 144.451 53.2039 144.227 52.7391 144.023C51.9023 143.669 51.047 143.278 50.0801 142.98C49.578 142.831 49.0574 142.738 48.5553 142.626C48.2392 142.552 47.9231 142.496 47.6256 142.403C46.6959 142.142 45.7662 141.658 44.7993 141.137C44.0369 140.727 43.2745 140.299 42.4378 139.908C41.8985 139.648 41.3407 139.424 40.8015 139.182C40.4296 139.015 40.0391 138.847 39.6672 138.642C39.2396 138.419 38.9049 138.214 38.6445 138.009C38.2355 137.674 37.845 137.451 37.3615 137.134C35.8926 136.166 34.0331 134.751 32.4898 133.02L31.9134 132.35C31.2998 131.624 30.7047 130.823 30.0911 129.93C29.4589 129.055 28.7709 128.143 28.1759 127.063L27.9528 126.709C27.3949 125.871 26.9673 124.959 26.5396 124.028C26.0562 123.135 25.7401 122.167 25.3682 121.217C25.2566 120.919 25.1264 120.714 24.9591 120.435C24.9033 120.286 24.8475 120.044 24.8103 119.877L24.6802 119.113C24.6244 118.741 24.5686 118.35 24.4756 117.978C24.4013 117.456 24.3083 116.917 24.1781 116.395L24.0852 115.967C23.9364 115.39 23.9736 114.757 23.9736 114.068C23.9364 113.268 24.0294 112.486 24.1409 111.685C24.1967 110.885 24.4013 110.121 24.5872 109.358C24.6802 108.949 24.7731 108.52 24.9405 108.129C25.1264 107.59 25.331 107.05 25.5169 106.491C25.7586 105.951 25.9818 105.393 26.1677 104.816C26.2979 104.425 26.4838 104.052 26.6326 103.661C26.6884 103.513 26.7441 103.326 26.7999 103.159C26.8929 102.861 26.9859 102.693 27.0417 102.544C27.3206 101.93 27.7296 101.185 28.2689 100.59L28.5478 100.236C28.7895 99.9195 29.0684 99.603 29.3474 99.3238C29.8122 98.8397 30.2771 98.3743 30.7791 97.9275C31.337 97.3504 31.9878 96.8105 32.5828 96.2334L32.7873 96.0472C33.3451 95.5446 34.1633 94.9116 34.4608 94.26C34.7025 93.7388 34.7211 93.3106 34.4794 93.0313C34.3306 92.8451 34.0889 92.7334 33.7542 92.7148L33.7914 92.6776Z" fill="#231F20"/>
<path d="M125.455 92.0267C121.346 91.5241 117.33 91.3938 113.834 91.3938C107.586 91.3938 102.547 92.0267 102.547 92.0267" stroke="#231F20" stroke-width="4.72926" stroke-linecap="round" stroke-linejoin="round"/>
<path d="M113.344 90.0741C115.78 90.0741 117.844 89.5901 118.755 91.3959C119.927 93.7044 120.838 96.4224 120.838 100.593C120.838 108.244 118.7 112.247 113.344 112.247C107.989 112.247 105.851 108.244 105.851 100.593C105.851 96.4224 106.743 93.7044 107.933 91.3959C108.845 89.5901 110.908 90.0741 113.344 90.0741Z" fill="#231F20"/>
<path d="M115.201 69.0537C114.829 68.4208 114.327 67.8995 113.248 68.0484C111.835 68.2532 109.771 69.2771 107.094 70.8223C104.416 72.3675 102.501 73.6521 101.627 74.7691C100.958 75.6441 101.144 76.3329 101.515 76.9659C101.887 77.5988 102.389 78.1201 103.468 77.9712C104.881 77.7664 106.945 76.7425 109.623 75.1973C112.3 73.6521 114.215 72.3675 115.089 71.2505C115.759 70.3755 115.573 69.6867 115.201 69.0537Z" fill="#231F20"/>
<path d="M95.0469 117.944C93.4478 118.781 90.919 119.303 88.8178 119.303C86.7166 119.303 84.1878 118.781 82.5887 117.944" stroke="#231F20" stroke-width="2.83756" stroke-linecap="round" stroke-linejoin="round"/>
<path d="M117.406 161.613C119.916 172.671 119.47 185.908 118.671 194.509C117.871 203.11 115.956 211.227 102.958 211.227C89.961 211.227 89.4217 205.847 88.9755 201.509C88.5478 197.171 88.9755 188.887 88.9755 188.887H88.585C88.585 188.887 89.0127 197.19 88.585 201.509C88.1573 205.847 87.5995 211.227 74.602 211.227C61.6046 211.227 59.708 203.11 58.8898 194.509C58.0903 185.908 57.644 172.653 60.1542 161.613" fill="#E7B797"/>
<path d="M87.6165 189.13C87.0401 189.484 87.0215 189.987 87.0029 190.378C87.0029 190.527 86.9657 190.694 86.9471 190.843C86.9099 191.085 86.8727 191.309 86.8727 191.551C86.8727 191.942 86.9657 192.314 87.0401 192.686C87.0958 192.947 87.1516 193.207 87.1702 193.468C87.1702 193.598 87.1702 193.71 87.1702 193.84C87.1702 194.008 87.133 194.176 87.1144 194.343C87.0773 194.604 86.9843 194.92 87.0401 195.144C87.0401 195.553 87.0215 195.963 86.9843 196.372V196.745C86.8913 197.582 86.8169 198.457 86.8541 199.332V199.556C86.8541 199.835 86.8541 200.114 86.9471 200.487C87.0215 200.915 87.0958 201.306 87.0401 201.715C87.0029 201.901 86.9471 202.088 86.8913 202.255L86.7797 202.59C86.538 203.372 86.5008 204.117 86.3707 204.768C86.2777 205.439 85.85 205.96 85.3852 206.388L85.2364 206.5C85.2364 206.5 85.1063 206.63 85.0691 206.705C85.0505 206.742 85.0319 206.779 84.9947 206.798C84.8459 206.909 84.7158 207.04 84.6042 207.189C84.5112 207.319 84.3811 207.449 84.2695 207.561C84.1393 207.691 84.0092 207.84 83.8604 207.971C83.7303 208.045 83.6187 208.119 83.47 208.175C83.3026 208.25 83.1167 208.287 82.9493 208.324C82.8749 208.343 82.782 208.362 82.689 208.362C82.4101 208.399 82.1683 208.548 81.908 208.585C81.4618 208.641 81.0341 208.752 80.625 208.901C80.4763 208.957 80.3275 209.013 80.1787 209.032C79.7511 209.125 79.3048 209.181 78.8586 209.236C78.5982 209.274 78.3379 209.274 78.0776 209.311C77.5755 209.404 77.1479 209.516 76.7016 209.646C76.3855 209.721 76.0694 209.814 75.7533 209.851C75.4744 209.888 75.1769 209.869 74.805 209.851C73.7265 209.721 72.6294 209.739 71.5324 209.627C71.3464 209.627 71.1791 209.609 71.0303 209.553C70.9374 209.516 70.8258 209.46 70.7328 209.404C70.5655 209.33 70.4353 209.218 70.268 209.162C70.082 209.088 69.8775 209.05 69.6729 209.013C69.3754 208.957 69.0779 208.901 68.7804 208.827L67.8507 208.51L67.5532 208.417C67.33 208.343 67.1255 208.213 66.921 208.082C66.6049 207.859 66.2144 207.635 65.8611 207.393L65.452 207.189C65.3033 207.114 65.1359 207.058 65.0243 206.928C64.7826 206.723 64.5781 206.463 64.355 206.202C64.0574 205.737 63.7413 205.308 63.3137 204.899L63.0905 204.713C62.9604 204.601 62.8302 204.508 62.7372 204.378C62.6629 204.266 62.6257 204.117 62.5699 203.856C62.3654 203 62.0493 202.237 61.7331 201.566L61.3241 200.524C61.1567 200.096 61.0452 199.667 60.8964 199.239C60.7848 198.923 60.7291 198.569 60.6361 198.253L60.4129 197.322C60.3572 197.061 60.3014 196.819 60.2828 196.54V196.223L60.2642 195.572C60.2456 195.311 60.1898 195.032 60.1526 194.771C60.0782 194.418 60.0225 194.064 60.0411 193.729C60.0411 193.561 60.0782 193.394 60.1154 193.226C60.1712 192.928 60.227 192.63 60.2084 192.314C60.1898 192.09 60.134 191.83 60.0597 191.588L60.0039 191.364C59.9109 191.011 59.8737 190.638 59.8923 190.285V190.098C59.9295 189.95 59.9295 189.819 59.9295 189.67L59.8737 188.795C59.8365 188.106 59.7993 187.38 59.6506 186.673C59.4646 185.817 59.5204 184.923 59.5948 184.011C59.6506 183.173 59.7435 182.298 59.632 181.404C59.5576 180.865 59.5762 180.287 59.6692 179.729C59.725 179.394 59.725 179.04 59.725 178.705C59.725 178.463 59.725 178.202 59.7621 177.96C59.7993 177.718 59.8551 177.476 59.9109 177.234C59.9853 176.899 60.0597 176.545 60.0968 176.21C60.134 175.764 60.0783 175.317 60.0225 174.982C59.9853 174.814 59.9853 174.647 59.9853 174.479V174.163C59.9481 173.734 59.9853 173.288 60.0782 172.729L60.2084 172.096C60.3014 171.668 60.4129 171.24 60.4687 170.812C60.5803 170.011 60.5989 169.173 60.4687 168.354C60.4129 168.038 60.5803 167.46 60.6919 167.032C60.7476 166.828 60.7848 166.66 60.822 166.511C61.008 165.58 61.1009 164.947 61.1753 164.128L61.2497 163.495C61.3241 163.03 61.4542 162.173 60.6547 161.727C60.5431 161.652 60.3944 161.596 60.2456 161.559C59.8923 161.466 59.5576 161.447 59.2601 161.503C58.5349 161.652 58.2746 162.304 58.1444 162.602C57.9957 162.974 57.8841 163.383 57.8283 163.886C57.7725 164.37 57.754 164.854 57.754 165.357C57.754 165.655 57.754 165.934 57.754 166.288V167.181C57.754 167.312 57.7168 167.442 57.6796 167.572C57.661 167.684 57.6238 167.814 57.6238 167.926L57.568 168.875C57.568 169.21 57.5494 169.527 57.5122 169.843C57.4564 170.476 57.3449 171.091 57.2147 171.705C57.1775 171.891 57.1403 172.059 57.066 172.245L56.9916 172.413L56.88 172.636C56.7127 173.046 56.7313 173.455 56.7499 173.809V174.144C56.7499 174.647 56.7871 175.149 56.8056 175.652V175.782C56.8428 176.639 56.7685 178.277 56.5825 179.003C56.4709 179.468 56.4152 179.915 56.4152 180.362C56.4152 180.511 56.4152 180.66 56.4152 180.809L56.4524 181.144C56.4895 181.367 56.5267 181.591 56.4895 181.758C56.4338 182.149 56.4895 182.559 56.5825 182.95C56.6197 183.117 56.6569 183.266 56.7127 183.434C56.7499 183.564 56.787 183.694 56.8242 183.825C56.9172 184.271 56.8428 184.737 56.7685 185.239C56.6941 185.724 56.6383 186.208 56.6941 186.729C56.7313 186.934 56.7685 187.138 56.8242 187.343L56.9172 187.734C56.973 188.032 57.0102 188.348 56.9916 188.739C56.9916 188.907 56.9544 189.056 56.9358 189.223C56.8986 189.447 56.88 189.67 56.88 189.894L56.973 192.09C56.973 194.101 57.0846 195.926 57.4193 197.694L57.475 197.992C57.5494 198.327 57.6052 198.644 57.6982 198.96C57.754 199.128 57.8469 199.258 57.9213 199.351C57.9585 199.388 57.9771 199.425 58.0143 199.481C58.1072 199.63 58.163 199.798 58.2188 199.984C58.3304 200.375 58.3304 200.822 58.349 201.287C58.3862 201.715 58.4234 202.181 58.5535 202.628C58.6837 203.018 58.8882 203.354 59.0742 203.707L59.1485 203.856C59.3903 204.322 59.7064 204.787 59.9667 205.252C60.1154 205.55 60.3386 205.811 60.5431 206.09C60.6733 206.258 60.7662 206.518 60.8778 206.779C60.915 206.909 60.9894 207.04 61.0638 207.151C61.2869 207.524 61.5658 207.989 61.9935 208.362C62.3654 208.641 62.5885 208.827 62.7744 208.994C63.0719 209.274 63.3694 209.479 64.1504 209.776C64.6896 210 65.0615 210.074 65.359 210.465C65.6194 210.8 66.0099 211.191 66.5677 211.377C66.9024 211.508 67.2371 211.601 67.5904 211.675C68.0924 211.824 68.5945 211.843 69.0035 212.029C71.1047 212.923 72.9269 213.09 74.5075 213.034C74.7678 213.034 75.0095 212.941 75.2512 212.867C75.493 212.792 75.7161 212.718 75.9392 212.718C76.1624 212.718 76.4041 212.774 76.6272 212.83C77.0363 212.923 77.4826 212.96 77.9288 212.848C78.1706 212.792 78.3937 212.681 78.6168 212.569C78.747 212.494 78.8771 212.439 79.0259 212.383C79.435 212.215 79.9184 212.215 80.4205 212.215C80.811 212.215 81.2386 212.197 81.6663 212.066C81.9452 211.992 82.2055 211.88 82.4659 211.75C82.6518 211.675 82.8191 211.564 83.0051 211.489C83.2096 211.396 83.3956 211.34 83.5629 211.322C83.8232 211.284 84.0278 211.228 84.2881 211.08C85.0691 210.689 86.1289 210.149 87.0773 209.311C87.2074 209.218 87.3376 209.125 87.4491 209.013C88.2115 208.287 88.8995 207.319 89.3458 206.072L89.4201 205.867C89.7548 204.862 89.9222 203.838 89.9594 202.888C89.9594 202.739 89.9222 202.628 89.885 202.46C89.8664 202.386 89.885 202.274 89.885 202.199C89.885 202.088 89.9408 201.976 89.9594 201.846C90.0152 201.678 90.0524 201.492 90.0709 201.324C90.0895 201.082 90.0709 200.822 90.0152 200.561L89.978 200.356C89.9408 200.077 89.9594 199.798 89.978 199.481L90.1639 197.322L90.2383 196.745C90.3127 196.223 90.3685 195.683 90.2941 195.144C90.2755 194.957 90.2383 194.771 90.1825 194.585C90.1825 194.511 90.1267 194.436 90.1081 194.343C90.0524 194.213 90.0524 194.12 90.0338 194.045C89.9222 193.747 89.9408 193.375 89.978 193.003V192.798L90.0338 192.239C90.0709 191.942 90.0895 191.644 90.0895 191.327C90.0895 190.955 90.0152 190.583 89.9222 190.21L89.885 190.08C89.8106 189.745 89.6991 189.298 89.2714 189.056C88.9367 188.87 88.5648 188.777 88.2115 188.833C87.9884 188.87 87.7652 188.926 87.5793 189.056L87.6165 189.13Z" fill="#231F20"/>
<path d="M87.9941 189.036C87.3991 189.352 87.3247 189.855 87.2689 190.264C87.2503 190.432 87.2131 190.581 87.1759 190.73C87.1201 190.972 87.083 191.195 87.0644 191.437C87.0458 191.828 87.1016 192.219 87.1573 192.591C87.1945 192.852 87.2503 193.131 87.2503 193.392C87.2503 193.522 87.2503 193.653 87.2503 193.764C87.2503 193.932 87.1945 194.118 87.1759 194.286C87.1201 194.565 87.0272 194.881 87.083 195.105L87.0272 196.371V196.762C86.9528 197.637 86.897 198.549 87.0086 199.48V199.703C87.0644 200.001 87.1016 200.317 87.2131 200.69C87.3619 201.155 87.492 201.583 87.5292 201.993C87.5292 202.179 87.5292 202.384 87.5106 202.57V202.961C87.492 203.892 87.7338 204.878 88.1614 205.753C88.5519 206.61 88.8866 207.541 89.4444 208.471L89.6118 208.732C89.7048 208.862 89.7977 208.974 89.9093 209.086C89.9651 209.142 90.0023 209.179 90.0581 209.235C90.2812 209.458 90.5043 209.644 90.7646 209.831C90.9692 209.998 91.2109 210.11 91.4526 210.221L92.215 210.594C92.401 210.668 92.5683 210.743 92.7542 210.854C92.9774 210.985 93.1633 211.115 93.3679 211.264C93.4608 211.338 93.5724 211.376 93.6654 211.45C93.9815 211.618 94.3348 211.692 94.6323 211.86C95.1343 212.139 95.6921 212.213 96.2128 212.307C96.3987 212.344 96.5847 212.381 96.7706 212.4C97.2913 212.455 97.7933 212.549 98.2954 212.642C98.5929 212.697 98.8904 212.716 99.1879 212.753C99.7643 212.753 100.248 212.753 100.75 212.66C101.085 212.586 101.438 212.53 101.773 212.511C102.07 212.493 102.386 212.511 102.795 212.567C103.985 212.604 105.194 212.642 106.44 212.362C106.644 212.325 106.83 212.288 107.016 212.288C107.146 212.288 107.258 212.325 107.388 212.344C107.593 212.4 107.797 212.4 108.002 212.381C108.243 212.362 108.485 212.288 108.727 212.213C109.08 212.102 109.433 212.027 109.787 211.916L110.94 211.469L111.311 211.32C111.59 211.208 111.851 211.041 112.148 210.929C112.613 210.743 113.171 210.538 113.636 210.128L114.101 209.719C114.268 209.57 114.435 209.44 114.584 209.272C114.882 208.974 115.235 208.695 115.607 208.416C116.127 207.932 116.704 207.392 116.964 206.666L117.076 206.331C117.131 206.126 117.187 205.921 117.28 205.772C117.373 205.642 117.485 205.493 117.689 205.232C118.377 204.376 118.693 203.389 118.898 202.551L119.14 201.285C119.233 200.783 119.27 200.28 119.344 199.796C119.4 199.424 119.419 199.051 119.474 198.698L119.567 197.692C119.567 197.413 119.586 197.152 119.66 196.873L119.735 196.557C119.79 196.333 119.846 196.11 119.865 195.905C119.902 195.626 119.902 195.347 119.921 195.067C119.921 194.695 119.921 194.341 120.014 194.006C120.051 193.839 120.107 193.671 120.181 193.522C120.292 193.243 120.404 192.945 120.423 192.61C120.423 192.368 120.423 192.107 120.385 191.865V191.642C120.33 191.27 120.33 190.897 120.385 190.525L120.423 190.357C120.46 190.208 120.478 190.06 120.497 189.929L120.534 189.054C120.571 188.347 120.609 187.621 120.516 186.876C120.404 185.982 120.516 185.107 120.627 184.158C120.739 183.302 120.832 182.408 120.72 181.514C120.664 180.975 120.646 180.379 120.72 179.802C120.757 179.448 120.757 179.094 120.757 178.759C120.757 178.499 120.739 178.238 120.757 177.996C120.757 177.735 120.813 177.493 120.85 177.233C120.906 176.879 120.962 176.525 120.962 176.171C120.962 175.706 120.85 175.259 120.776 174.924C120.739 174.757 120.702 174.589 120.683 174.403L120.627 174.086C120.553 173.658 120.516 173.193 120.553 172.597L120.59 171.927C120.609 171.48 120.627 171.033 120.609 170.586C120.571 169.73 120.367 168.892 120.051 168.11C119.939 167.812 119.902 167.18 119.902 166.733C119.902 166.528 119.902 166.323 119.883 166.174C119.809 165.188 119.623 164.536 119.419 163.698L119.251 163.047C119.121 162.581 118.898 161.688 117.987 161.613C117.857 161.613 117.708 161.613 117.541 161.65C117.187 161.706 116.853 161.855 116.611 162.023C115.997 162.469 116.016 163.121 116.016 163.438C116.016 163.81 116.09 164.201 116.183 164.666C116.295 165.113 116.443 165.56 116.592 166.007C116.685 166.267 116.76 166.547 116.853 166.863L117.076 167.682C117.113 167.794 117.113 167.924 117.131 168.055C117.131 168.166 117.15 168.278 117.169 168.408C117.206 168.706 117.262 169.004 117.336 169.302C117.392 169.618 117.466 169.916 117.503 170.233C117.578 170.847 117.559 171.461 117.541 172.057C117.541 172.243 117.541 172.411 117.485 172.597L117.429 172.765L117.355 173.007C117.243 173.416 117.317 173.807 117.392 174.161L117.448 174.477L117.652 175.929V176.06C117.801 176.897 117.801 178.48 117.652 179.187C117.541 179.653 117.503 180.081 117.503 180.509C117.503 180.658 117.503 180.807 117.522 180.937L117.559 181.272C117.596 181.496 117.615 181.701 117.596 181.887C117.541 182.259 117.596 182.669 117.671 183.041C117.708 183.19 117.745 183.357 117.782 183.506C117.819 183.637 117.857 183.767 117.875 183.897C117.95 184.326 117.857 184.791 117.764 185.275C117.671 185.74 117.559 186.224 117.596 186.727C117.596 186.932 117.652 187.137 117.689 187.323L117.745 187.714C117.782 188.012 117.764 188.328 117.708 188.7C117.689 188.849 117.652 189.017 117.615 189.166C117.559 189.371 117.503 189.594 117.485 189.799C117.392 190.506 117.392 191.232 117.28 191.94C116.964 193.876 116.778 195.645 116.629 197.283L116.592 197.562C116.555 197.86 116.518 198.158 116.499 198.474C116.499 198.623 116.536 198.772 116.574 198.884C116.574 198.921 116.611 198.977 116.611 199.033C116.629 199.182 116.611 199.349 116.611 199.517C116.536 199.871 116.388 200.243 116.202 200.615C116.016 200.95 115.83 201.285 115.718 201.676C115.607 201.993 115.551 202.309 115.495 202.644V202.775C115.402 203.222 115.216 203.613 115.086 204.022C115.012 204.283 114.863 204.525 114.751 204.767C114.677 204.934 114.528 205.083 114.361 205.232C114.287 205.307 114.194 205.381 114.119 205.437C113.859 205.66 113.58 205.94 113.357 206.293C113.152 206.573 113.003 206.721 112.873 206.87C112.669 207.112 112.464 207.261 112.074 207.801C111.813 208.192 111.572 208.453 111.144 208.416C110.754 208.378 110.419 208.509 109.935 208.658C109.675 208.751 109.415 208.881 109.154 209.011C108.783 209.235 108.374 209.328 107.983 209.365C106.086 209.458 104.543 209.365 103.13 209.495C102.888 209.514 102.665 209.57 102.442 209.644C102.219 209.719 101.996 209.775 101.791 209.756C101.587 209.737 101.363 209.682 101.159 209.626C100.787 209.533 100.415 209.384 100.006 209.421C99.7829 209.421 99.5784 209.514 99.3552 209.57C99.2251 209.607 99.0949 209.663 98.9462 209.682C98.5557 209.737 98.1466 209.588 97.7375 209.44C97.4028 209.328 97.0867 209.198 96.7334 209.104C96.5103 209.049 96.2686 209.049 96.0268 209.03C95.8595 209.03 95.7107 208.993 95.5434 208.956C95.3574 208.918 95.2273 208.844 95.1157 208.769C94.9484 208.639 94.781 208.602 94.5765 208.509C93.9815 208.229 93.1819 207.839 92.6799 207.224C92.6055 207.15 92.5311 207.075 92.4753 207.001C92.1034 206.442 91.7316 205.884 91.4154 205.083L91.3597 204.934C91.0993 204.264 90.932 203.482 90.7461 202.644C90.7089 202.514 90.6531 202.421 90.5787 202.291C90.5415 202.216 90.5415 202.123 90.5229 202.049C90.5229 201.937 90.5229 201.825 90.5229 201.714C90.5229 201.546 90.5415 201.378 90.5229 201.211C90.5229 200.988 90.4299 200.764 90.3556 200.541L90.2998 200.355C90.2254 200.113 90.2068 199.833 90.2068 199.535C90.2068 198.847 90.2254 198.158 90.2812 197.45L90.337 196.892C90.4114 196.389 90.4671 195.868 90.4114 195.328C90.3928 195.142 90.3556 194.956 90.3184 194.77C90.3184 194.695 90.2812 194.621 90.244 194.528C90.1882 194.397 90.2068 194.304 90.1696 194.23C90.0767 193.932 90.1138 193.559 90.151 193.206V193.001C90.1882 192.815 90.2254 192.647 90.244 192.461C90.2998 192.163 90.337 191.884 90.3556 191.567C90.3556 191.195 90.337 190.823 90.2626 190.469V190.339C90.1882 190.004 90.1138 189.557 89.7234 189.278C89.4073 189.054 89.054 188.943 88.7007 188.943C88.4775 188.943 88.2544 188.998 88.0499 189.11L87.9941 189.036Z" fill="#231F20"/>
<path d="M117.996 95.2292C117.996 95.918 117.439 96.4765 116.751 96.4765C116.063 96.4765 115.505 95.918 115.505 95.2292C115.505 94.5404 116.063 93.9819 116.751 93.9819C117.439 93.9819 117.996 94.5404 117.996 95.2292Z" fill="white"/>
<path d="M69.1418 95.2292C69.1418 95.918 68.584 96.4765 67.896 96.4765C67.208 96.4765 66.6501 95.918 66.6501 95.2292C66.6501 94.5404 67.208 93.9819 67.896 93.9819C68.584 93.9819 69.1418 94.5404 69.1418 95.2292Z" fill="white"/>
</g>
</g>
<defs>
<clipPath id="clip0_1_171">
<rect width="180" height="180" rx="90" fill="white"/>
</clipPath>
<clipPath id="clip1_1_171">
<rect width="168" height="186" fill="white" transform="translate(16 27.0918)"/>
</clipPath>
</defs>
</svg>
