<svg width="180" height="180" viewBox="0 0 180 180" fill="none" xmlns="http://www.w3.org/2000/svg">
<g clip-path="url(#clip0_1_11)">
<rect width="180" height="180" rx="90" fill="#F8D6D7"/>
<g clip-path="url(#clip1_1_11)">
<path d="M76.7085 169.865C74.9025 171.867 71.5185 175.521 67.924 178.227C62.5236 182.267 57.2108 181.371 54.7736 178.648C52.0909 175.68 50.2323 171.551 53.178 166.72C55.4749 162.961 58.0349 160.888 62.8567 157.304C67.5032 153.844 72.0094 152.175 76.6209 150.682C82.1265 148.907 85.9314 149.03 89.333 149.048C92.7345 149.03 96.5394 148.907 102.045 150.682C106.656 152.175 111.163 153.844 115.809 157.304C120.631 160.888 123.191 162.961 125.488 166.72C128.434 171.551 126.575 175.68 123.892 178.648C121.455 181.354 116.125 182.267 110.742 178.227C107.147 175.539 103.763 171.867 101.957 169.865" fill="white"/>
<path d="M89.5093 149.98C89.8073 150.524 90.2632 150.559 90.6139 150.595C90.7542 150.595 90.8944 150.63 91.0347 150.665C91.2451 150.7 91.438 150.735 91.6484 150.753C91.9815 150.753 92.3147 150.7 92.6478 150.647C92.8758 150.612 93.1037 150.559 93.3316 150.559C93.4368 150.559 93.5421 150.559 93.6473 150.577C93.7875 150.595 93.9453 150.63 94.0856 150.665C94.3135 150.735 94.5766 150.823 94.7694 150.805C95.1201 150.858 95.4708 150.893 95.8039 150.964L96.1195 151.034C96.8384 151.192 97.5573 151.368 98.3113 151.473H98.5042C98.7496 151.526 98.9951 151.578 99.3283 151.561C99.714 151.543 100.1 151.561 100.433 151.649C100.591 151.701 100.731 151.772 100.871 151.859L101.152 152.018C101.818 152.351 102.59 152.527 103.291 152.65C103.992 152.79 104.624 153.124 105.272 153.476L105.465 153.581C105.57 153.634 105.658 153.669 105.763 153.686C105.816 153.686 105.851 153.704 105.903 153.739C106.096 153.827 106.307 153.897 106.5 153.95L107.043 154.073C107.236 154.108 107.446 154.161 107.639 154.213C107.78 154.266 107.92 154.301 108.043 154.372C108.2 154.459 108.358 154.565 108.499 154.688L108.709 154.846C108.919 155.004 109.2 155.074 109.393 155.25C109.743 155.513 110.129 155.689 110.515 155.847C110.655 155.9 110.795 155.97 110.918 156.023C111.286 156.216 111.637 156.409 111.988 156.638L112.584 157.024C113.005 157.217 113.355 157.393 113.759 157.551C114.039 157.657 114.302 157.744 114.548 157.902C114.776 158.025 114.951 158.184 115.232 158.43C115.985 159.097 116.81 159.712 117.669 160.292C117.809 160.379 117.949 160.485 118.037 160.59C118.107 160.661 118.16 160.766 118.212 160.854C118.3 160.994 118.388 161.152 118.493 161.275C118.616 161.416 118.791 161.539 118.931 161.644L119.615 162.171C119.86 162.365 120.106 162.575 120.334 162.786L120.562 162.979C120.737 163.137 120.895 163.296 121.053 163.471C121.281 163.77 121.544 164.104 121.859 164.402L122.193 164.701C122.315 164.806 122.438 164.912 122.543 165.035C122.754 165.281 122.929 165.544 123.087 165.843C123.35 166.3 123.595 166.774 124.016 167.16L124.226 167.336C124.367 167.441 124.454 167.529 124.525 167.635C124.577 167.74 124.612 167.881 124.665 168.091C124.805 168.864 125.103 169.479 125.296 170.041C125.401 170.322 125.489 170.603 125.541 170.902C125.629 171.253 125.682 171.605 125.699 171.974C125.699 172.237 125.717 172.518 125.699 172.782C125.699 173.028 125.647 173.291 125.594 173.537C125.577 173.748 125.524 173.941 125.419 174.134L125.296 174.363C125.208 174.521 125.121 174.661 125.033 174.82C124.945 175.013 124.858 175.224 124.77 175.417C124.665 175.698 124.525 175.944 124.349 176.155C124.262 176.26 124.139 176.348 124.034 176.418C123.841 176.576 123.63 176.717 123.472 176.928C123.367 177.086 123.262 177.261 123.157 177.455L123.069 177.63C122.911 177.911 122.736 178.069 122.526 178.228L122.403 178.28C122.298 178.333 122.228 178.386 122.14 178.438C121.982 178.561 121.789 178.667 121.614 178.79C121.14 179.018 120.667 179.264 120.176 179.492C119.562 179.826 118.844 179.809 118.125 179.721C117.458 179.651 116.81 179.457 116.091 179.422C115.67 179.369 115.214 179.246 114.811 179.001C114.565 178.842 114.302 178.772 114.057 178.649C113.881 178.561 113.689 178.474 113.513 178.368C113.338 178.263 113.198 178.105 113.04 177.982C112.829 177.771 112.619 177.613 112.391 177.419C112.093 177.191 111.76 177.068 111.497 176.945C111.357 176.875 111.234 176.805 111.111 176.734L110.883 176.594C110.568 176.401 110.252 176.155 109.919 175.786L109.533 175.364C109.288 175.066 109.042 174.784 108.762 174.503C108.253 173.994 107.657 173.555 107.008 173.221C106.763 173.098 106.429 172.676 106.184 172.36C106.079 172.22 105.974 172.079 105.886 171.974C105.325 171.324 104.904 170.937 104.36 170.445L103.94 170.059C103.642 169.76 103.081 169.216 102.309 169.585C102.186 169.637 102.081 169.725 101.958 169.813C101.695 170.041 101.485 170.287 101.38 170.551C101.082 171.183 101.397 171.71 101.555 171.956C101.748 172.255 101.976 172.536 102.309 172.852C102.625 173.151 102.975 173.414 103.326 173.678C103.536 173.836 103.747 173.994 103.992 174.187L104.624 174.661C104.711 174.732 104.799 174.82 104.869 174.907L105.097 175.136C105.307 175.329 105.518 175.505 105.746 175.68L106.412 176.243C106.833 176.629 107.219 177.051 107.604 177.455C107.709 177.578 107.832 177.701 107.92 177.841L108.008 177.999L108.113 178.21C108.323 178.561 108.639 178.755 108.919 178.93L109.182 179.088C109.551 179.352 109.954 179.598 110.392 179.826L110.497 179.896C111.199 180.336 112.566 181.091 113.18 181.53C113.583 181.794 113.969 182.022 114.39 182.145C114.53 182.18 114.688 182.233 114.828 182.25L115.161 182.303C115.389 182.338 115.617 182.338 115.793 182.409C116.161 182.549 116.599 182.549 117.002 182.514C117.178 182.514 117.336 182.479 117.493 182.444C117.634 182.409 117.756 182.373 117.897 182.356C118.335 182.303 118.808 182.356 119.334 182.391C119.825 182.391 120.351 182.426 120.877 182.215C121.088 182.127 121.281 182.057 121.456 181.934L121.807 181.723C122.087 181.583 122.385 181.425 122.754 181.267L123.227 181.073C123.437 180.986 123.683 180.898 123.876 180.757C124.542 180.336 125.103 179.651 125.577 179.176C126.927 177.771 127.926 176.137 128.347 174.328L128.417 174.011C128.505 173.678 128.522 173.326 128.557 172.993C128.557 172.817 128.522 172.676 128.47 172.553C128.452 172.501 128.435 172.448 128.417 172.413C128.382 172.237 128.364 172.062 128.364 171.886C128.329 171.482 128.435 171.043 128.452 170.586C128.487 170.147 128.505 169.708 128.382 169.251C128.312 168.864 128.119 168.531 127.944 168.197L127.874 168.056C127.61 167.617 127.383 167.178 127.12 166.774L126.611 166.018C126.488 165.878 126.418 165.667 126.348 165.439C126.313 165.333 126.278 165.21 126.225 165.123C126.068 164.789 125.875 164.385 125.541 164.051C125.278 163.77 125.103 163.594 124.98 163.436C124.752 163.173 124.56 162.944 123.963 162.593C123.543 162.329 123.245 162.171 123.139 161.767C123.034 161.398 122.806 161.029 122.438 160.696C122.21 160.485 121.982 160.309 121.737 160.151C121.368 159.888 121.035 159.677 120.772 159.378C119.527 157.92 118.388 156.919 117.265 156.181C117.073 156.058 116.88 155.988 116.652 155.917C116.441 155.847 116.231 155.777 116.073 155.654C115.915 155.513 115.775 155.355 115.635 155.215C115.389 154.934 115.126 154.635 114.741 154.477C114.548 154.389 114.32 154.354 114.109 154.301C113.987 154.284 113.846 154.266 113.724 154.213C113.355 154.108 113.04 153.827 112.689 153.546C112.426 153.317 112.146 153.107 111.812 152.949C111.602 152.843 111.357 152.773 111.129 152.703C110.971 152.65 110.795 152.615 110.638 152.545C110.462 152.474 110.322 152.404 110.217 152.316C110.041 152.176 109.884 152.105 109.673 152.018C109.025 151.736 108.148 151.368 107.306 150.964L106.991 150.805C106.289 150.454 105.518 150.138 104.553 149.839L104.396 149.787C103.624 149.541 102.853 149.295 102.028 149.137C101.906 149.101 101.801 149.137 101.643 149.137C101.573 149.137 101.485 149.101 101.415 149.084C101.31 149.049 101.222 148.996 101.117 148.961C100.976 148.891 100.819 148.82 100.678 148.785C100.468 148.715 100.24 148.715 100.012 148.715H99.8192C99.5737 148.715 99.3283 148.645 99.0477 148.574L97.1365 148.1L96.628 147.96C96.1721 147.837 95.6812 147.714 95.1727 147.731C94.9974 147.731 94.822 147.749 94.6467 147.784C94.5766 147.784 94.5064 147.819 94.4188 147.837C94.296 147.872 94.2083 147.872 94.1382 147.889C93.8577 147.977 93.5245 147.924 93.1914 147.889H92.9985L92.49 147.801C92.2095 147.749 91.9465 147.714 91.6659 147.714C91.3328 147.714 90.9996 147.766 90.6665 147.837H90.5613C90.2632 147.924 89.8599 148.012 89.632 148.399C89.4567 148.715 89.369 149.049 89.3865 149.382C89.3865 149.593 89.4566 149.804 89.5619 149.98H89.5093Z" fill="#231F20"/>
<path d="M89.1609 148.116C88.8629 147.554 88.4245 147.519 88.0563 147.483C87.916 147.483 87.7758 147.448 87.6355 147.413C87.4251 147.378 87.2147 147.343 86.9867 147.325C86.6185 147.325 86.2678 147.396 85.9347 147.466C85.6892 147.519 85.4437 147.589 85.1983 147.606C85.0931 147.606 84.9703 147.606 84.8476 147.606C84.6898 147.606 84.532 147.589 84.3742 147.571C84.1112 147.554 83.8131 147.483 83.6027 147.554L82.4454 147.624H82.0772C81.2707 147.712 80.429 147.8 79.6225 148.028L79.4296 148.081C79.1666 148.151 78.9036 148.239 78.588 148.414C78.2022 148.608 77.8691 148.819 77.5009 148.906C77.3255 148.941 77.1502 148.959 76.9749 148.977L76.6417 149.012C75.8351 149.135 75.1338 149.451 74.45 149.785C73.7837 150.118 73.0648 150.259 72.2933 150.417L72.0829 150.47C71.9601 150.487 71.8725 150.54 71.7673 150.593C71.7147 150.61 71.6796 150.646 71.627 150.663C71.4166 150.733 71.2062 150.839 71.0133 150.944C70.838 151.032 70.6626 151.155 70.5048 151.26L69.9437 151.612C69.8035 151.682 69.6632 151.752 69.5229 151.805C69.3301 151.875 69.1372 151.91 68.9443 151.963L68.6638 152.033C68.3832 152.104 68.1378 152.279 67.8572 152.35C67.4013 152.472 66.998 152.718 66.6123 152.964L66.209 153.228L65.0342 153.895C64.8063 154.018 64.5784 154.159 64.368 154.299C63.9647 154.616 63.6315 154.897 63.3335 155.231C63.123 155.459 62.9126 155.687 62.6847 155.898C62.4918 156.074 62.2464 156.214 61.9483 156.408C61.0891 156.952 60.2475 157.567 59.4585 158.287C59.3182 158.41 59.1954 158.516 59.0727 158.586C58.985 158.639 58.8798 158.656 58.7746 158.691C58.5993 158.744 58.4415 158.797 58.2837 158.884C58.1083 158.99 57.9505 159.13 57.8103 159.271L57.1264 159.903L56.3725 160.606L56.127 160.834C55.9517 161.01 55.7588 161.203 55.5659 161.361C55.2503 161.625 54.8646 161.941 54.549 162.345C54.4437 162.486 54.3385 162.609 54.2509 162.767C54.1457 162.925 54.0405 163.083 53.9353 163.224C53.7249 163.522 53.4618 163.768 53.1988 164.049C52.7956 164.488 52.3747 164.963 52.1643 165.595L52.0767 165.876C52.0241 166.052 51.989 166.245 51.9189 166.368C51.8487 166.491 51.7435 166.632 51.5506 166.842C50.9194 167.615 50.6213 168.546 50.4986 169.372C50.4285 169.776 50.3934 170.198 50.3934 170.619C50.3759 171.111 50.3934 171.621 50.4635 172.112C50.5161 172.481 50.5512 172.833 50.6564 173.184C50.7266 173.518 50.8142 173.834 50.937 174.133C51.0246 174.396 51.1298 174.625 51.2 174.888L51.2701 175.204C51.3227 175.415 51.3928 175.626 51.4805 175.819C51.5857 176.065 51.726 176.293 51.8838 176.522C52.0767 176.838 52.2871 177.101 52.4098 177.4L52.5852 177.857C52.6904 178.138 52.7956 178.419 52.9884 178.665C53.1287 178.841 53.3216 179.016 53.5144 179.157L53.6898 179.297C53.9528 179.508 54.2684 179.807 54.5139 180.088L54.6366 180.228C54.7418 180.351 54.8646 180.439 54.9698 180.545C55.2152 180.738 55.4958 180.878 55.7588 181.037C56.4075 181.388 57.1089 181.704 57.8629 181.774C58.7571 181.88 59.6163 182.055 60.5456 182.161C61.4047 182.249 62.299 182.196 63.1406 181.915C63.6491 181.722 64.1926 181.581 64.7362 181.441C65.0693 181.353 65.4025 181.247 65.7005 181.089C65.9285 180.984 66.1389 180.861 66.3844 180.773L67.0857 180.51C67.4013 180.387 67.752 180.281 68.0325 180.088C68.4008 179.842 68.7339 179.543 68.9443 179.297C69.0495 179.174 69.1723 179.069 69.2775 178.964L69.4879 178.753C69.7684 178.472 70.1016 178.208 70.5399 177.91L71.0484 177.576C71.3815 177.347 71.7322 177.137 72.0478 176.873C72.644 176.399 73.1349 175.802 73.5207 175.134C73.6609 174.888 74.0993 174.537 74.4324 174.291C74.5727 174.168 74.713 174.062 74.8182 173.975C75.4845 173.377 75.8527 172.921 76.3261 172.341L76.6943 171.884C76.9749 171.55 77.4833 170.935 77.0275 170.198C76.9573 170.092 76.8697 169.987 76.7644 169.864C76.519 169.618 76.256 169.442 75.9754 169.354C75.3091 169.126 74.8357 169.477 74.6078 169.635C74.3272 169.846 74.0818 170.092 73.8012 170.426C73.5382 170.742 73.2927 171.094 73.0648 171.445C72.9245 171.656 72.7667 171.849 72.5914 172.095L72.1355 172.71C72.0654 172.798 71.9777 172.868 71.89 172.938L71.6621 173.149L71.1185 173.746C70.9256 173.957 70.7503 174.168 70.5399 174.361C70.1542 174.73 69.6983 175.046 69.2599 175.345C69.1372 175.433 68.9969 175.52 68.8566 175.573L68.6988 175.626L68.4884 175.696C68.1378 175.837 67.8923 176.065 67.6819 176.293C67.6117 176.364 67.5591 176.434 67.4715 176.487C67.1559 176.768 66.8578 177.049 66.5597 177.312L66.472 177.383C65.9635 177.874 64.7888 178.437 64.2101 178.507C63.8419 178.542 63.5088 178.63 63.1932 178.718C63.088 178.753 62.9828 178.788 62.8776 178.823L62.6496 178.928C62.4918 179.016 62.3516 179.051 62.2113 179.069C61.9307 179.069 61.6327 179.192 61.3521 179.28C61.2294 179.315 61.1242 179.385 61.0014 179.438C60.9138 179.473 60.8086 179.508 60.7034 179.543C60.3702 179.649 60.0195 179.543 59.6513 179.42C59.3182 179.28 58.985 179.174 58.6168 179.104C58.4766 179.087 58.3187 179.104 58.1609 179.087L57.8804 179.051C57.6525 179.034 57.4421 178.928 57.2141 178.77C57.1089 178.718 57.0388 178.63 56.9511 178.542C56.8459 178.419 56.7232 178.314 56.618 178.208C56.2322 177.874 55.9166 177.611 55.5484 177.084C54.6542 175.766 54.0229 174.554 53.6197 173.395L53.5495 173.184C53.4618 172.973 53.4443 172.745 53.3566 172.534C53.304 172.429 53.2339 172.341 53.1813 172.253C53.1638 172.218 53.1287 172.2 53.1112 172.165C53.0586 172.06 53.006 171.937 52.9884 171.796C52.9884 171.515 53.041 171.199 53.1813 170.9C53.2865 170.619 53.4268 170.338 53.4969 170.04C53.5495 169.776 53.6021 169.513 53.6197 169.249V169.126C53.7073 168.757 53.8125 168.388 53.9528 168.037L54.2333 167.369C54.3035 167.211 54.4437 167.071 54.6016 166.93L54.8295 166.719C55.0574 166.491 55.3204 166.192 55.5133 165.841C55.6536 165.542 55.7939 165.367 55.8991 165.226C56.0744 164.98 56.2322 164.769 56.4777 164.207C56.653 163.803 56.7933 163.505 57.179 163.417C57.5297 163.329 57.8629 163.136 58.196 162.837C58.3889 162.644 58.5818 162.451 58.7571 162.24C59.0376 161.941 59.3006 161.642 59.6163 161.467C61.2118 160.606 62.4568 159.833 63.4737 158.955C63.6315 158.814 63.7718 158.621 63.8945 158.463C64.0173 158.287 64.14 158.129 64.2803 158.024C64.4381 157.918 64.631 157.866 64.8063 157.795C65.1394 157.69 65.4726 157.567 65.7531 157.303C65.8934 157.163 66.0161 157.005 66.1213 156.829C66.1915 156.724 66.2616 156.618 66.3493 156.53C66.5948 156.267 66.963 156.126 67.3487 156.003C67.6468 155.898 67.9624 155.793 68.2605 155.635C68.4534 155.529 68.6287 155.371 68.804 155.248C68.9268 155.143 69.0495 155.055 69.1898 154.967C69.3476 154.862 69.4703 154.809 69.6106 154.791C69.821 154.756 69.9613 154.686 70.1542 154.581C70.7503 154.299 71.5569 153.931 72.416 153.667L72.7492 153.579C73.4681 153.386 74.222 153.14 75.1163 152.806L75.2741 152.754C75.993 152.49 76.782 152.209 77.4833 151.91C77.5885 151.858 77.6762 151.787 77.7639 151.7C77.8165 151.664 77.9042 151.629 77.9743 151.612C78.0795 151.594 78.1672 151.577 78.2724 151.577C78.4126 151.577 78.5704 151.541 78.7107 151.506C78.9036 151.454 79.0965 151.366 79.2893 151.26L79.4471 151.173C79.6575 151.067 79.8855 151.014 80.1485 150.979C80.7447 150.874 81.3408 150.804 81.9545 150.768C82.1123 150.768 82.2876 150.768 82.4454 150.768C82.8838 150.768 83.3397 150.768 83.7956 150.681C83.9534 150.646 84.1112 150.61 84.269 150.558C84.3391 150.54 84.3917 150.505 84.4618 150.47C84.5671 150.417 84.6547 150.417 84.7073 150.382C84.9528 150.277 85.2859 150.277 85.584 150.294H85.7594C85.9172 150.294 86.075 150.329 86.2328 150.347C86.4958 150.382 86.7413 150.417 87.0218 150.417C87.3374 150.417 87.6706 150.364 87.9862 150.294H88.0914C88.3894 150.206 88.7752 150.118 89.0207 149.75C89.2135 149.451 89.3012 149.1 89.2661 148.766C89.2661 148.555 89.196 148.344 89.1083 148.169L89.1609 148.116Z" fill="#231F20"/>
<path d="M110.938 164.751C111.779 169.389 112.375 177.54 112.445 185.323C112.498 191.664 112.147 194.791 111.271 198.99C110.376 203.188 104.836 204.312 100.522 204.242C95.2447 204.172 91.7905 202.538 91.1418 198.076C90.6333 194.58 90.7736 188.853 90.8086 187.483C90.8086 187.308 90.6859 187.167 90.5105 187.167H88.8974C88.7221 187.167 88.5993 187.308 88.5993 187.483C88.6519 188.871 88.7922 194.58 88.2662 198.076C87.5999 202.556 84.1457 204.172 78.868 204.242C74.5547 204.295 69.0139 203.188 68.1197 198.99C67.2255 194.809 66.8923 191.664 66.9449 185.323C67.0151 177.54 67.6112 169.389 68.4529 164.751" fill="white"/>
<path d="M110.024 165.016C109.515 165.28 109.515 165.526 109.515 165.736C109.515 165.824 109.515 165.895 109.48 165.982C109.463 166.105 109.445 166.228 109.445 166.351C109.463 166.545 109.568 166.738 109.656 166.896C109.726 167.019 109.796 167.142 109.814 167.282C109.814 167.335 109.831 167.405 109.831 167.476C109.831 167.563 109.814 167.651 109.796 167.739C109.778 167.88 109.708 168.055 109.761 168.161C109.778 168.372 109.778 168.582 109.778 168.793V168.986C109.778 169.426 109.778 169.882 109.866 170.339V170.444C109.919 170.585 109.954 170.743 110.059 170.919C110.182 171.13 110.305 171.34 110.305 171.551C110.305 171.657 110.269 171.744 110.252 171.85L110.199 172.043C110.112 172.5 110.234 172.939 110.357 173.343C110.497 173.747 110.41 174.169 110.322 174.608V174.731C110.322 174.731 110.305 174.854 110.322 174.924C110.322 174.959 110.322 174.977 110.322 175.012C110.322 175.135 110.34 175.258 110.375 175.381C110.41 175.486 110.445 175.592 110.497 175.697C110.55 175.82 110.585 175.925 110.62 176.048C110.638 176.136 110.655 176.224 110.655 176.312C110.655 176.417 110.62 176.54 110.585 176.646L110.55 176.804C110.515 176.962 110.55 177.12 110.515 177.278C110.427 177.542 110.48 177.787 110.532 178.051L110.585 178.315C110.62 178.56 110.62 178.806 110.62 179.052V179.491C110.69 179.773 110.76 180.001 110.866 180.247C110.936 180.405 111.023 180.581 111.058 180.756C111.094 180.914 111.058 181.055 111.058 181.266C110.988 181.845 111.006 182.443 111.094 183.058C111.094 183.163 111.129 183.251 111.094 183.339C111.076 183.391 111.041 183.462 111.006 183.514C110.936 183.602 110.883 183.708 110.866 183.795C110.848 183.901 110.866 184.024 110.866 184.147L110.901 184.656L110.936 185.218V185.394C110.936 185.535 110.953 185.675 110.936 185.816C110.883 186.044 110.848 186.308 110.883 186.571C110.883 186.659 110.918 186.747 110.936 186.835C110.953 186.94 110.988 187.028 110.988 187.133C110.988 187.326 110.971 187.52 110.918 187.73C110.848 188.047 110.778 188.38 110.918 188.732L111.006 188.89C111.058 188.978 111.111 189.083 111.111 189.153C111.111 189.224 111.076 189.311 111.006 189.452C110.778 189.926 110.813 190.401 110.848 190.805L110.918 191.42L110.988 192.157L111.023 192.702V193.194C111.058 193.334 111.058 193.457 111.023 193.598L110.971 193.756C110.936 193.861 110.901 193.967 110.883 194.072C110.866 194.213 110.883 194.353 110.883 194.494C110.883 194.687 110.883 194.863 110.813 195.021C110.778 195.109 110.725 195.179 110.673 195.249C110.585 195.39 110.48 195.513 110.445 195.688C110.445 195.811 110.445 195.934 110.48 196.075V196.198C110.532 196.391 110.515 196.584 110.445 196.76L110.41 196.848C110.41 196.848 110.357 196.988 110.322 197.059L110.252 197.498C110.182 197.849 110.112 198.2 110.147 198.587C110.182 199.026 110.041 199.325 109.778 199.623C109.568 199.904 109.323 200.115 109.165 200.431C109.077 200.642 108.902 200.8 108.674 200.888C108.534 200.941 108.446 201.046 108.306 201.117C108.218 201.169 108.13 201.24 108.025 201.275C107.937 201.327 107.815 201.327 107.692 201.345C107.534 201.345 107.376 201.38 107.236 201.433C107.043 201.503 106.903 201.644 106.798 201.767C106.745 201.819 106.675 201.872 106.605 201.907L106.482 201.977C106.307 202.083 106.114 202.171 105.833 202.171H105.518C105.307 202.171 105.097 202.171 104.887 202.188C104.501 202.241 104.133 202.381 103.782 202.662C103.642 202.768 103.344 202.733 103.133 202.715C103.028 202.715 102.94 202.715 102.87 202.698C102.397 202.68 102.081 202.75 101.678 202.821L101.362 202.873C101.134 202.908 100.696 202.944 100.556 203.769C100.538 203.892 100.521 204.033 100.521 204.191C100.521 204.542 100.521 204.858 100.591 205.122C100.749 205.772 101.117 205.877 101.292 205.93C101.502 205.983 101.73 206 102.011 205.965C102.274 205.93 102.537 205.842 102.782 205.754C102.94 205.702 103.098 205.649 103.273 205.596L103.729 205.438C103.729 205.438 103.87 205.42 103.94 205.42C104.01 205.42 104.062 205.42 104.133 205.42C104.308 205.385 104.466 205.333 104.641 205.28L105.15 205.139C105.483 205.052 105.833 205.052 106.184 205.016C106.289 205.016 106.394 204.999 106.5 205.016L106.605 205.052L106.763 205.087C107.026 205.139 107.236 205.016 107.429 204.911L107.604 204.823C107.867 204.7 108.113 204.525 108.376 204.366L108.446 204.331C108.884 204.068 109.726 203.576 110.199 203.435C110.497 203.33 110.76 203.172 110.971 202.979C111.041 202.908 111.111 202.838 111.164 202.75L111.286 202.557C111.357 202.416 111.427 202.294 111.532 202.223C111.742 202.065 111.847 201.767 111.935 201.521C111.97 201.415 111.988 201.31 112.005 201.187C112.005 201.099 112.005 200.994 112.04 200.906C112.093 200.607 112.321 200.379 112.479 200.08C112.637 199.817 112.829 199.465 112.847 199.202C112.847 199.096 112.847 198.973 112.812 198.868L112.777 198.657C112.777 198.499 112.777 198.323 112.864 198.148C112.9 198.06 112.935 197.99 112.987 197.919C113.057 197.814 113.11 197.709 113.145 197.603C113.25 197.234 113.285 196.848 113.39 196.461C113.706 195.442 113.864 194.476 113.881 193.545V193.387C113.881 193.211 113.881 193.036 113.881 192.878C113.881 192.79 113.811 192.719 113.759 192.649C113.741 192.632 113.724 192.597 113.706 192.579C113.671 192.491 113.636 192.403 113.636 192.298C113.636 192.087 113.724 191.876 113.829 191.648C113.934 191.437 114.022 191.226 114.039 190.998C114.039 190.805 114.004 190.611 113.952 190.418V190.33C113.864 190.067 113.829 189.803 113.811 189.557L113.741 189.083C113.724 188.978 113.776 188.855 113.829 188.732C113.846 188.661 113.881 188.609 113.899 188.539C113.969 188.328 114.022 188.099 113.952 187.836C113.899 187.625 113.881 187.484 113.881 187.379C113.881 187.186 113.864 187.028 113.653 186.659C113.513 186.395 113.408 186.202 113.618 186.009C113.811 185.816 113.899 185.587 113.899 185.306C113.899 185.131 113.864 184.972 113.829 184.797C113.776 184.551 113.724 184.322 113.794 184.094C114.127 183.005 114.215 182.144 114.109 181.354C114.092 181.231 114.022 181.108 113.952 180.985C113.881 180.862 113.811 180.756 113.811 180.633C113.811 180.51 113.864 180.405 113.916 180.282C114.004 180.071 114.092 179.86 114.004 179.632C113.969 179.509 113.881 179.404 113.794 179.281C113.741 179.21 113.689 179.14 113.653 179.07C113.548 178.859 113.601 178.631 113.671 178.385C113.724 178.192 113.776 177.981 113.759 177.787C113.759 177.647 113.689 177.524 113.636 177.383C113.601 177.296 113.566 177.19 113.548 177.102C113.531 176.997 113.531 176.909 113.548 176.839C113.601 176.716 113.583 176.61 113.566 176.488C113.531 176.083 113.478 175.556 113.513 175.012V174.801C113.566 174.344 113.566 173.87 113.513 173.308V173.22C113.443 172.763 113.39 172.289 113.268 171.815C113.25 171.744 113.198 171.692 113.127 171.621C113.092 171.586 113.092 171.534 113.092 171.481C113.092 171.428 113.092 171.358 113.11 171.305C113.127 171.217 113.145 171.13 113.145 171.024C113.145 170.901 113.075 170.778 113.005 170.655L112.952 170.55C112.882 170.427 112.882 170.269 112.864 170.111C112.864 169.742 112.847 169.373 112.864 168.986L112.9 168.688C112.935 168.407 112.952 168.126 112.864 167.845C112.829 167.757 112.794 167.651 112.742 167.563C112.724 167.528 112.689 167.493 112.654 167.458C112.601 167.388 112.584 167.353 112.566 167.318C112.444 167.177 112.444 166.984 112.461 166.791V166.685C112.461 166.58 112.461 166.492 112.479 166.386C112.479 166.228 112.514 166.07 112.479 165.895C112.444 165.701 112.374 165.508 112.268 165.332L112.233 165.28C112.146 165.122 112.005 164.893 111.62 164.823C111.304 164.77 110.953 164.788 110.62 164.858C110.41 164.911 110.217 164.981 110.041 165.069L110.024 165.016Z" fill="#231F20"/>
<path d="M78.7652 203.309C78.5899 202.747 78.3619 202.712 78.169 202.677C78.0989 202.677 78.0112 202.624 77.9411 202.607C77.8359 202.554 77.7132 202.519 77.608 202.501C77.4151 202.501 77.2397 202.536 77.0469 202.589C76.9241 202.624 76.7839 202.677 76.6611 202.677C76.6085 202.677 76.5384 202.677 76.4858 202.659C76.3981 202.642 76.328 202.607 76.2578 202.554C76.1351 202.501 75.9948 202.396 75.8896 202.431C75.6968 202.413 75.5039 202.343 75.311 202.29L75.1357 202.238C74.7499 202.097 74.3642 201.974 73.9609 201.922H73.8557C73.733 201.886 73.5927 201.869 73.3998 201.922C73.1719 201.957 72.9615 201.992 72.7861 201.922C72.716 201.886 72.6459 201.816 72.5933 201.746L72.4705 201.623C72.1724 201.359 71.8218 201.254 71.4886 201.166C71.1555 201.078 70.9451 200.78 70.7873 200.481C70.7873 200.446 70.7522 200.428 70.7347 200.393C70.7171 200.34 70.6821 200.323 70.647 200.288C70.647 200.288 70.6119 200.27 70.5944 200.253C70.5418 200.182 70.4716 200.13 70.4015 200.077L70.1911 199.936C70.1911 199.936 70.0333 199.831 69.9632 199.778C69.9106 199.743 69.8755 199.691 69.858 199.62C69.8404 199.55 69.8404 199.462 69.858 199.374V199.251C69.858 199.146 69.7878 199.041 69.8054 198.918C69.8229 198.812 69.8054 198.742 69.7878 198.654C69.7528 198.549 69.7177 198.408 69.6651 198.303L69.5774 198.057C69.5073 197.828 69.4722 197.582 69.4371 197.337L69.367 196.915C69.2618 196.651 69.1741 196.441 69.0339 196.212C68.9287 196.054 68.841 195.914 68.7884 195.755C68.7358 195.615 68.7358 195.457 68.7358 195.264C68.7358 194.684 68.6657 194.104 68.5254 193.524C68.5078 193.419 68.4903 193.331 68.5078 193.243C68.5078 193.191 68.5604 193.12 68.5955 193.068C68.6481 192.98 68.7007 192.874 68.7183 192.787C68.7358 192.681 68.7183 192.558 68.7007 192.453L68.6306 191.943L68.5604 191.381V191.206C68.5254 191.065 68.5078 190.925 68.5429 190.784C68.578 190.556 68.613 190.292 68.5604 190.029C68.5604 189.941 68.5254 189.853 68.4903 189.765C68.4552 189.66 68.4377 189.572 68.4202 189.466C68.4026 189.273 68.4202 189.08 68.4728 188.869C68.5254 188.553 68.5955 188.219 68.4377 187.885L68.35 187.727C68.2974 187.64 68.2448 187.534 68.2273 187.464C68.2273 187.394 68.2624 187.306 68.315 187.165C68.5254 186.673 68.4728 186.199 68.4026 185.795L68.2974 185.18L68.1922 184.442L68.1221 183.898L68.0695 183.388C68.052 183.248 68.0344 183.107 68.0695 182.967L68.1046 182.809C68.1221 182.703 68.1572 182.58 68.1572 182.475C68.1572 182.334 68.1572 182.194 68.1396 182.053C68.1221 181.86 68.087 181.684 68.1396 181.509C68.1747 181.421 68.2098 181.333 68.2624 181.263C68.35 181.122 68.4202 180.964 68.4377 180.806C68.4377 180.683 68.4026 180.56 68.3676 180.419L68.3325 180.296C68.2799 180.103 68.2799 179.91 68.3325 179.734L68.3676 179.646C68.3676 179.646 68.4026 179.506 68.4202 179.418V178.961C68.4377 178.61 68.4552 178.224 68.3676 177.855C68.2448 177.398 68.3676 176.941 68.4728 176.467C68.578 176.028 68.6832 175.588 68.6131 175.132C68.578 174.851 68.613 174.552 68.7007 174.271C68.7533 174.095 68.7709 173.92 68.7884 173.744C68.7884 173.621 68.7884 173.48 68.841 173.357C68.8761 173.235 68.9287 173.112 68.9813 172.989C69.0514 172.813 69.1391 172.637 69.1566 172.462C69.1917 172.233 69.1391 172.005 69.0865 171.812C69.0514 171.724 69.0514 171.636 69.0514 171.548V171.39C68.9988 171.162 69.0339 170.933 69.1215 170.652L69.2267 170.318C69.2969 170.108 69.3845 169.879 69.4371 169.668C69.5248 169.247 69.4722 168.825 69.3144 168.386C69.2618 168.228 69.3495 167.912 69.4371 167.701C69.4722 167.595 69.5073 167.508 69.5248 167.437C69.6476 166.946 69.6476 166.612 69.6476 166.19V165.856C69.6651 165.61 69.7002 165.171 68.9287 164.89C68.8059 164.855 68.6832 164.82 68.5254 164.785C68.1922 164.714 67.8766 164.679 67.5961 164.697C66.9298 164.75 66.7545 165.066 66.6843 165.224C66.5791 165.417 66.544 165.628 66.5265 165.891C66.5265 166.155 66.5265 166.401 66.5791 166.664C66.5966 166.823 66.6142 166.981 66.6317 167.156L66.6668 167.613C66.6668 167.613 66.6668 167.754 66.6317 167.806L66.5966 167.982C66.5966 168.14 66.5966 168.316 66.5966 168.474C66.5966 168.65 66.5966 168.808 66.5966 168.983C66.5791 169.317 66.4739 169.633 66.3862 169.932C66.3512 170.02 66.3336 170.125 66.2635 170.195L66.1934 170.283L66.1057 170.389C65.9654 170.599 65.983 170.81 66.0005 171.003V171.179L66.0706 171.952V172.022C66.1057 172.479 66.018 173.305 65.8252 173.674C65.7024 173.902 65.6323 174.13 65.6323 174.359C65.6323 174.429 65.6323 174.517 65.6323 174.587L65.6673 174.763C65.6849 174.886 65.72 174.991 65.6673 175.079C65.5972 175.272 65.6498 175.501 65.7024 175.694C65.72 175.782 65.755 175.87 65.8076 175.957C65.8427 176.028 65.8778 176.098 65.8953 176.168C65.9654 176.397 65.8602 176.643 65.7726 176.888C65.6849 177.134 65.5797 177.38 65.6147 177.644C65.6147 177.749 65.6673 177.855 65.7024 177.96L65.7726 178.171C65.8076 178.329 65.8076 178.487 65.7726 178.68C65.7726 178.768 65.72 178.838 65.6849 178.926C65.6323 179.032 65.5972 179.155 65.5797 179.26C65.5271 179.629 65.5621 180.015 65.492 180.384C65.3167 181.421 65.2465 182.352 65.3167 183.265V183.423C65.3167 183.582 65.3342 183.757 65.3693 183.915C65.3868 184.003 65.4569 184.073 65.5095 184.126C65.5271 184.144 65.5621 184.179 65.5621 184.196C65.6147 184.284 65.6323 184.372 65.6498 184.46C65.6498 184.671 65.5797 184.881 65.492 185.092C65.4043 185.303 65.3167 185.514 65.3167 185.742C65.3167 185.935 65.3693 186.129 65.4219 186.304V186.392C65.5271 186.656 65.5621 186.902 65.5972 187.165L65.6849 187.64C65.7024 187.745 65.6674 187.868 65.6147 187.991C65.5972 188.061 65.5621 188.114 65.5446 188.184C65.492 188.395 65.4394 188.641 65.5095 188.887C65.5621 189.098 65.5797 189.238 65.5972 189.344C65.6147 189.537 65.6323 189.695 65.8427 190.064C66.0005 190.327 66.1057 190.503 65.9128 190.731C65.7375 190.925 65.6498 191.17 65.6673 191.452C65.6673 191.627 65.72 191.785 65.7726 191.961C65.8427 192.207 65.8953 192.435 65.8602 192.664C65.6147 193.788 65.5972 194.701 65.8076 195.492C65.8427 195.615 65.9304 195.738 66.018 195.861C66.1057 195.966 66.1934 196.089 66.1934 196.195C66.1934 196.318 66.1758 196.441 66.1408 196.564C66.0882 196.792 66.0356 197.02 66.1408 197.231C66.1934 197.354 66.2986 197.442 66.4038 197.547C66.4739 197.6 66.5265 197.67 66.5791 197.741C66.7194 197.934 66.6843 198.18 66.6668 198.443C66.6492 198.654 66.6317 198.847 66.6668 199.058C66.7019 199.181 66.772 199.322 66.8772 199.48C66.9473 199.585 66.9999 199.69 67.0525 199.796C67.1051 199.919 67.1402 200.024 67.1227 200.13C67.1227 200.288 67.1928 200.411 67.2629 200.551C67.4733 201.026 67.8416 201.605 68.2448 202.15L68.3851 202.361C68.7183 202.817 69.1566 203.239 69.7352 203.608L69.8404 203.678C70.3138 203.959 70.8223 204.223 71.3483 204.346C71.436 204.363 71.5062 204.346 71.6114 204.328C71.664 204.328 71.7166 204.346 71.7516 204.363L71.927 204.469C71.927 204.469 72.1023 204.574 72.19 204.609C72.3127 204.662 72.4705 204.662 72.6108 204.644H72.7335C72.8913 204.644 73.0316 204.68 73.2069 204.732L74.3291 205.119L74.6272 205.242C74.8902 205.347 75.1883 205.47 75.4864 205.435C75.5916 205.435 75.6968 205.4 75.802 205.382C75.837 205.382 75.8896 205.347 75.9422 205.33C76.0299 205.294 76.065 205.294 76.1 205.277C76.2754 205.207 76.4683 205.242 76.6611 205.277H76.7663C76.8715 205.312 76.9592 205.347 77.0644 205.382C77.2222 205.435 77.38 205.47 77.5554 205.488C77.7658 205.488 77.9586 205.452 78.169 205.382H78.2392C78.4145 205.294 78.66 205.207 78.8003 204.82C78.9055 204.521 78.9581 204.17 78.9405 203.836C78.9405 203.626 78.8879 203.415 78.8353 203.239L78.7652 203.309Z" fill="#231F20"/>
<path d="M123.185 77.0923C130.83 66.4291 135.932 52.5335 136.02 42.7136C136.108 32.876 131.058 24.4965 120.941 22.1777C110.824 19.8588 101.145 24.3033 96.4461 35.353C92.1853 45.4013 92.3431 63.8467 93.7984 71.8749" fill="white"/>
<path d="M104.793 54.0462C105.091 48.618 105.88 43.2951 107.301 39.975C109.001 35.9697 112.806 32.4211 117.768 33.5806C121.556 34.4589 124.274 38.2885 124.221 43.2776C124.186 46.7734 122.994 51.253 120.784 56.7866C118.926 61.4419 114.051 74.301 108.528 73.001C104.478 72.0348 104.478 59.9838 104.793 54.0462Z" fill="#F7B9C7"/>
<path d="M56.3593 77.0923C48.7145 66.4291 43.6121 52.5335 43.5244 42.7136C43.4368 32.876 48.4865 24.4965 58.6036 22.1777C68.7207 19.8588 78.3994 24.3033 83.0985 35.353C87.3593 45.4013 87.2015 63.8467 85.7461 71.8749" fill="white"/>
<path d="M74.7542 54.0462C74.4561 48.618 73.6671 43.2951 72.2468 39.975C70.546 35.9697 66.7411 32.4211 61.779 33.5806C57.9917 34.4589 55.274 38.2885 55.3266 43.2776C55.3616 46.7734 56.5539 51.253 58.7632 56.7866C60.6218 61.4419 65.4962 74.301 71.0194 73.001C75.0698 72.0348 75.0698 59.9838 74.7542 54.0462Z" fill="#F7B9C7"/>
<path d="M94.7011 71.5601C95.2096 71.2263 95.192 70.875 95.1745 70.5763C95.1745 70.4709 95.1745 70.348 95.1745 70.2426C95.1745 70.0669 95.2096 69.9088 95.1745 69.7331C95.157 69.452 95.0517 69.1885 94.9465 68.925C94.8764 68.7494 94.8063 68.5561 94.7712 68.3629C94.7712 68.2751 94.7537 68.1872 94.7537 68.0994C94.7537 67.9764 94.7712 67.8534 94.7887 67.7305C94.8238 67.5372 94.8764 67.2913 94.8238 67.1332C94.8063 66.8346 94.7887 66.5359 94.7887 66.2373V65.9562C94.8063 65.3238 94.8238 64.6738 94.7186 64.0414V63.8833C94.666 63.6725 94.6485 63.4617 94.5433 63.1982C94.4205 62.882 94.3153 62.5833 94.3153 62.2847C94.3153 62.1441 94.3504 62.0036 94.3855 61.8806L94.4381 61.6171C94.5433 60.9847 94.4731 60.3523 94.3504 59.7726C94.2452 59.1929 94.3504 58.5956 94.4731 57.9808L94.5082 57.8051C94.5082 57.7173 94.5082 57.6294 94.5082 57.5416C94.5082 57.5064 94.5082 57.4713 94.5082 57.4186C94.5082 57.2429 94.5082 57.0673 94.4907 56.874L94.4205 56.3997C94.3855 56.224 94.3504 56.0484 94.3329 55.8903C94.3329 55.7673 94.3329 55.6443 94.3329 55.5214C94.3504 55.3633 94.403 55.2052 94.4381 55.0646L94.4907 54.8538C94.5433 54.6254 94.4907 54.3971 94.5783 54.1863C94.7011 53.8349 94.6835 53.466 94.666 53.1147V52.7282C94.666 52.3769 94.666 52.0255 94.7186 51.6742L94.7887 51.0593C94.7712 50.6553 94.7537 50.3215 94.666 49.9702C94.6134 49.7242 94.5608 49.4783 94.5608 49.2324C94.5608 49.0216 94.6134 48.8108 94.666 48.5297C94.8413 47.7216 94.929 46.8784 94.9991 46.0352C94.9991 45.8946 95.0167 45.7541 95.0693 45.6487C95.1043 45.5784 95.157 45.4906 95.2096 45.4203C95.2972 45.2973 95.3674 45.1744 95.42 45.0514C95.4726 44.8933 95.4901 44.7352 95.4901 44.5771L95.5953 43.8568L95.718 43.0663L95.7531 42.8204C95.7882 42.6271 95.8057 42.4339 95.8758 42.2407C95.981 41.942 96.1213 41.5907 96.1739 41.2218L96.209 40.8353C96.209 40.6948 96.2265 40.5542 96.2441 40.4137C96.2967 40.1502 96.3843 39.8867 96.5246 39.6407C96.7175 39.2367 96.9279 38.8151 96.9103 38.3232V38.0948C96.8753 37.9543 96.8577 37.8138 96.9103 37.7084C96.9454 37.6205 97.0155 37.5151 97.1558 37.3395C97.6117 36.7773 97.752 36.1449 97.9273 35.6179L98.1903 34.8098C98.2955 34.4936 98.3832 34.1598 98.5235 33.8436L98.8391 33.1585L99.1196 32.5261C99.1898 32.3504 99.2599 32.1747 99.3826 32.0342L99.5404 31.8585C99.6456 31.7356 99.7508 31.6302 99.8385 31.5072C99.9437 31.3491 100.049 31.191 100.137 31.0153C100.259 30.7869 100.365 30.5586 100.557 30.4005C100.645 30.3302 100.75 30.2599 100.873 30.2072C101.066 30.1018 101.259 29.9789 101.399 29.8208C101.487 29.6978 101.574 29.5221 101.662 29.364L101.732 29.2235C101.855 28.9951 102.03 28.8019 102.241 28.6438L102.346 28.5735C102.346 28.5735 102.504 28.4505 102.591 28.3803L103.012 27.9411C103.38 27.6249 103.749 27.2911 104.064 26.8871C104.432 26.3776 105.029 26.1141 105.59 25.8155C106.133 25.5695 106.694 25.3587 107.185 24.9547C107.483 24.7263 107.869 24.5858 108.255 24.4804C108.483 24.4277 108.693 24.3047 108.921 24.2344C109.079 24.1817 109.254 24.1115 109.412 24.0763C109.587 24.0412 109.763 24.0236 109.938 24.0061C110.184 24.0061 110.411 23.9534 110.657 23.9182C110.955 23.848 111.236 23.7074 111.446 23.602C111.551 23.5318 111.656 23.4966 111.779 23.4615L111.99 23.3737C112.27 23.2682 112.586 23.2331 112.989 23.2331H113.445C113.743 23.2331 114.059 23.3034 114.357 23.3034C114.918 23.3034 115.479 23.1628 116.04 22.9872C116.25 22.9169 116.671 22.9872 116.987 23.0399C117.127 23.075 117.25 23.0926 117.372 23.1277C118.039 23.2682 118.495 23.2331 119.073 23.2682L119.529 23.3034C119.862 23.3385 120.476 23.4088 120.844 22.6534C120.897 22.5304 120.949 22.4075 120.984 22.2494C121.072 21.9156 121.107 21.5994 121.072 21.3183C120.984 20.6508 120.493 20.44 120.248 20.3346C119.967 20.2116 119.652 20.1237 119.266 20.1062C118.88 20.1062 118.512 20.1062 118.126 20.1413C117.898 20.1413 117.671 20.1764 117.408 20.194C117.18 20.194 116.952 20.2467 116.724 20.2818C116.618 20.2818 116.531 20.2818 116.426 20.2818C116.338 20.2818 116.25 20.2818 116.145 20.2643C115.9 20.2643 115.654 20.2818 115.426 20.2994L114.672 20.3873C114.181 20.44 113.69 20.3873 113.217 20.3873C113.077 20.3873 112.936 20.3873 112.779 20.3697L112.638 20.3346L112.445 20.2818C112.095 20.2116 111.797 20.2994 111.516 20.3873L111.271 20.4751L110.148 20.8791L110.043 20.9143C109.412 21.1251 108.202 21.5642 107.606 21.5994C107.238 21.6521 106.887 21.7575 106.572 21.898C106.466 21.9507 106.361 22.0034 106.256 22.0561L106.028 22.1967C105.87 22.2845 105.747 22.425 105.607 22.4602C105.327 22.5656 105.064 22.7764 104.836 22.9872C104.748 23.075 104.66 23.1804 104.573 23.2682L104.362 23.5142C104.117 23.7777 103.784 23.9182 103.415 24.0763C103.065 24.2344 102.679 24.375 102.416 24.6912C102.311 24.8141 102.206 24.9547 102.118 25.0777L101.943 25.3236C101.802 25.4993 101.609 25.6749 101.364 25.8506L101.048 26.0614C100.908 26.1492 100.75 26.2546 100.628 26.3601C100.207 26.7465 99.8034 27.1681 99.4177 27.5897C98.2955 28.6789 97.4364 29.8559 96.7876 31.0505L96.6824 31.2613C96.5597 31.4896 96.4545 31.7004 96.3668 31.9464C96.3142 32.0693 96.3317 32.1923 96.3317 32.2801C96.3317 32.3153 96.3317 32.368 96.3317 32.4031C96.3317 32.5261 96.2791 32.6666 96.2265 32.7896C96.1038 33.0707 95.9109 33.3166 95.683 33.5801C95.4726 33.8261 95.2622 34.0896 95.1219 34.3882C94.9816 34.6517 94.9465 34.9328 94.8939 35.2138V35.3368C94.8063 35.7233 94.7186 36.0922 94.6134 36.4435C94.5608 36.6719 94.4907 36.9003 94.4556 37.1287C94.4381 37.2868 94.3329 37.4273 94.2277 37.603C94.175 37.6908 94.1224 37.7611 94.0874 37.8489C93.9471 38.1124 93.7893 38.4462 93.7542 38.8151C93.7016 39.1313 93.6841 39.307 93.649 39.4826C93.5964 39.7461 93.5614 39.9921 93.614 40.5542C93.6666 40.9583 93.7016 41.2393 93.4211 41.4853C93.1756 41.7137 93.0353 42.0123 92.9477 42.4163C92.8951 42.6623 92.8951 42.9082 92.8775 43.1366C92.8775 43.5055 92.8249 43.8393 92.7197 44.1379C92.1411 45.6135 91.843 46.8432 91.808 47.9851C91.808 48.1783 91.843 48.354 91.8956 48.5472C91.9482 48.7229 91.9833 48.8986 91.9482 49.0567C91.9132 49.2148 91.8606 49.3729 91.7904 49.5486C91.6677 49.8296 91.5625 50.1283 91.5976 50.4621C91.6151 50.6377 91.6852 50.8134 91.7554 50.9891C91.7904 51.0945 91.843 51.1999 91.8606 51.3053C91.9307 51.6215 91.843 51.9377 91.7378 52.289C91.6677 52.5701 91.58 52.8336 91.58 53.1498C91.58 53.3431 91.6151 53.5363 91.6502 53.7295C91.6677 53.8701 91.7028 54.0106 91.7028 54.1336C91.7028 54.2917 91.7028 54.4146 91.6677 54.52C91.6151 54.6957 91.5976 54.8363 91.6151 55.0295C91.6151 55.6092 91.5976 56.3646 91.5099 57.1375L91.4748 57.4362C91.3872 58.0862 91.3521 58.7537 91.3696 59.5794V59.7199C91.4047 60.3874 91.4222 61.0726 91.5274 61.7401C91.5274 61.8455 91.5976 61.9158 91.6502 62.0212C91.6852 62.0739 91.6852 62.1617 91.6852 62.2144C91.6852 62.3023 91.6852 62.3901 91.6502 62.4779C91.6326 62.6009 91.6151 62.7414 91.6151 62.8644C91.6151 63.0401 91.6677 63.2157 91.7378 63.3914L91.7904 63.5319C91.843 63.7252 91.8606 63.936 91.8606 64.1644C91.8606 64.6914 91.8606 65.2184 91.843 65.763L91.808 66.2021C91.7729 66.5886 91.7378 66.9927 91.843 67.3967C91.8781 67.5372 91.9132 67.6778 91.9658 67.8007C91.9833 67.8534 92.0184 67.9061 92.0534 67.9764C92.106 68.0818 92.1236 68.1345 92.1411 68.1872C92.2639 68.398 92.2463 68.6791 92.2639 68.9602V69.1183C92.2639 69.2588 92.2639 69.3993 92.2639 69.5399C92.2639 69.7683 92.2463 69.9966 92.2639 70.225C92.2989 70.5061 92.3866 70.7871 92.5093 71.0331L92.5444 71.1209C92.6496 71.3493 92.7899 71.6831 93.1931 71.806C93.5263 71.9114 93.8594 71.9114 94.1926 71.8412C94.403 71.7885 94.5959 71.7006 94.7712 71.5952L94.7011 71.5601Z" fill="#231F20"/>
<path d="M120.881 23.1321C120.968 23.7294 121.266 23.8524 121.529 23.9578C121.635 23.9929 121.722 24.0456 121.81 24.0983C121.95 24.1686 122.09 24.2564 122.231 24.3091C122.476 24.3969 122.722 24.4321 122.967 24.4496C123.142 24.4496 123.335 24.4848 123.493 24.5199C123.563 24.5375 123.651 24.5726 123.721 24.6077C123.826 24.6604 123.914 24.7131 124.002 24.801C124.142 24.9239 124.3 25.082 124.44 25.1172C124.685 25.2401 124.913 25.3807 125.141 25.5037C125.211 25.5564 125.282 25.5915 125.352 25.6442C125.79 25.9955 126.281 26.3117 126.772 26.5752L126.895 26.6455C127.053 26.7509 127.21 26.8388 127.473 26.909C127.771 26.9969 128.069 27.0671 128.245 27.2779C128.332 27.3658 128.403 27.4712 128.473 27.5766L128.613 27.7874C128.964 28.2441 129.385 28.5955 129.823 28.9117C130.279 29.2103 130.489 29.7197 130.735 30.2292L130.805 30.3697C130.805 30.3697 130.892 30.5103 130.945 30.563C130.98 30.5805 130.998 30.6157 131.015 30.6508C131.085 30.7913 131.191 30.9143 131.296 31.0373L131.594 31.3359C131.717 31.4413 131.822 31.5467 131.927 31.6697C131.997 31.7575 132.05 31.8629 132.102 31.9508C132.155 32.0913 132.19 32.2318 132.207 32.3724L132.26 32.5656C132.313 32.7589 132.453 32.9345 132.488 33.1278C132.541 33.4615 132.681 33.7602 132.856 34.0412L133.014 34.3399C133.172 34.621 133.242 34.9372 133.33 35.2358L133.487 35.7628C133.663 36.079 133.768 36.3777 133.943 36.6587C134.066 36.852 134.189 37.0452 134.259 37.256C134.329 37.4493 134.364 37.6425 134.364 37.906C134.417 38.6789 134.539 39.4343 134.662 40.2249C134.68 40.3478 134.715 40.4884 134.697 40.5938C134.697 40.664 134.645 40.7519 134.627 40.8221C134.575 40.9451 134.522 41.0681 134.504 41.2086C134.487 41.3491 134.504 41.5072 134.504 41.6653L134.557 42.3329C134.575 42.5788 134.592 42.8248 134.575 43.0883V43.3342C134.575 43.5275 134.575 43.7031 134.539 43.8964C134.487 44.195 134.434 44.5288 134.417 44.8977V45.2666C134.452 45.4071 134.452 45.5301 134.452 45.6706C134.452 45.9341 134.382 46.1801 134.312 46.4436C134.189 46.8652 134.049 47.2868 134.136 47.7611L134.189 47.9895C134.224 48.13 134.259 48.253 134.241 48.3584C134.224 48.4638 134.171 48.5692 134.066 48.7449C133.733 49.3597 133.663 49.9921 133.61 50.5543L133.523 51.3799L133.417 52.3813C133.4 52.6272 133.347 52.8731 133.295 53.1191L133.172 53.7866C133.137 53.9799 133.119 54.1555 133.049 54.3312L132.961 54.542L132.786 54.9636C132.716 55.1393 132.681 55.3325 132.646 55.5258C132.593 55.7717 132.558 56.0176 132.435 56.2284C132.383 56.3338 132.295 56.4217 132.225 56.5271C132.085 56.7028 131.962 56.8784 131.874 57.0892C131.822 57.2473 131.804 57.423 131.787 57.5987V57.7568C131.752 58.0203 131.664 58.2662 131.559 58.4946L131.489 58.6C131.436 58.6878 131.383 58.7757 131.348 58.8811L131.138 59.4608C130.963 59.9175 130.77 60.3918 130.7 60.9013C130.612 61.5337 130.279 62.0607 129.946 62.6228C129.63 63.1323 129.314 63.6769 129.139 64.2742C129.034 64.6431 128.858 65.012 128.631 65.3282C128.49 65.5214 128.385 65.7498 128.28 65.9606C128.21 66.1187 128.122 66.2768 128.034 66.4349C127.929 66.5754 127.824 66.716 127.701 66.8565C127.543 67.0497 127.368 67.2254 127.245 67.4538C127.088 67.7349 127.017 68.0335 126.947 68.2794C126.912 68.4024 126.877 68.5078 126.825 68.6308L126.737 68.8416C126.632 69.1227 126.474 69.4037 126.228 69.7375L125.948 70.1064C125.737 70.3348 125.545 70.5807 125.369 70.8267C125.036 71.301 124.826 71.8456 124.72 72.4428C124.668 72.6712 124.387 72.9874 124.177 73.2334C124.089 73.3388 124.002 73.4442 123.931 73.532C123.528 74.0766 123.318 74.4806 123.02 74.9901L122.792 75.3941C122.616 75.6752 122.301 76.2198 122.862 76.8522C122.95 76.94 123.055 77.0454 123.177 77.1332C123.458 77.344 123.739 77.5021 124.002 77.5724C124.65 77.7657 125.019 77.4319 125.194 77.2738C125.404 77.0805 125.597 76.8522 125.773 76.536C125.948 76.2373 126.088 75.9211 126.211 75.5873C126.299 75.3941 126.369 75.2009 126.456 74.9725L126.702 74.3928C126.702 74.3928 126.789 74.2347 126.86 74.1644L127.017 73.9536C127.14 73.7604 127.228 73.5496 127.316 73.3563C127.421 73.1455 127.508 72.9347 127.631 72.7239C127.859 72.3374 128.14 71.9685 128.42 71.6347C128.508 71.5293 128.578 71.4239 128.683 71.3361L128.806 71.2658L128.964 71.1604C129.209 70.9672 129.314 70.6861 129.402 70.4402L129.49 70.2118C129.63 69.878 129.77 69.5443 129.893 69.2105L129.928 69.1227C130.138 68.5429 130.7 67.5241 131.068 67.12C131.296 66.8565 131.489 66.593 131.611 66.3119C131.664 66.2065 131.699 66.1187 131.734 66.0133L131.804 65.7849C131.839 65.6268 131.874 65.4687 131.962 65.3633C132.12 65.1349 132.207 64.8363 132.243 64.5552C132.26 64.4323 132.278 64.3093 132.278 64.1863C132.278 64.0809 132.278 63.9931 132.295 63.8877C132.348 63.5715 132.558 63.2904 132.769 62.9918C132.979 62.7107 133.189 62.412 133.277 62.0431C133.312 61.9026 133.33 61.7445 133.347 61.604L133.382 61.3229C133.417 61.1121 133.487 60.8837 133.628 60.6553C133.68 60.5499 133.75 60.4621 133.821 60.3567C133.926 60.2162 134.013 60.0932 134.066 59.9351C134.276 59.4608 134.417 58.9338 134.627 58.4595C135.223 57.1419 135.662 55.8947 135.925 54.6474L135.977 54.4366C136.03 54.2082 136.082 53.9799 136.1 53.7515C136.1 53.6285 136.082 53.5231 136.047 53.4353C136.047 53.4001 136.03 53.365 136.012 53.3299C135.995 53.2069 135.995 53.0839 136.012 52.9434C136.065 52.6623 136.205 52.3988 136.363 52.1002C136.503 51.8367 136.661 51.5556 136.731 51.257C136.801 50.9935 136.784 50.73 136.784 50.4489V50.3435C136.784 49.9746 136.801 49.6232 136.836 49.2719C136.854 49.0435 136.872 48.8327 136.872 48.6043C136.872 48.4638 136.942 48.3057 137.029 48.13C137.064 48.0422 137.099 47.9544 137.135 47.8841C137.24 47.603 137.345 47.2868 137.327 46.9179C137.31 46.6193 137.327 46.426 137.327 46.2679C137.327 46.0044 137.345 45.776 137.205 45.2315C137.099 44.8626 137.029 44.5815 137.24 44.3004C137.433 44.0369 137.538 43.7207 137.555 43.3167C137.555 43.0707 137.555 42.8423 137.503 42.5964C137.45 42.2451 137.398 41.9113 137.45 41.5951C137.748 40.0492 137.696 38.7492 137.415 37.6425C137.362 37.4668 137.275 37.2912 137.17 37.133C137.064 36.9749 136.959 36.8168 136.942 36.6587C136.907 36.5006 136.942 36.325 136.942 36.1493C136.942 35.8331 136.977 35.5169 136.819 35.2007C136.731 35.0426 136.608 34.902 136.468 34.7615C136.381 34.6737 136.31 34.6034 136.24 34.5156C136.047 34.2521 136.03 33.9007 135.977 33.5494C135.925 33.2683 135.872 32.9872 135.749 32.7061C135.662 32.5305 135.556 32.3548 135.434 32.1967L135.188 31.8629C135.101 31.7224 135.048 31.617 135.03 31.494C134.995 31.3184 134.925 31.1778 134.838 31.0197C134.575 30.4927 134.136 29.8427 133.768 29.14L133.628 28.8765C133.277 28.3144 132.909 27.6995 132.313 27.1023L132.207 26.9969C131.734 26.505 131.243 25.9955 130.664 25.6091C130.577 25.5388 130.489 25.5212 130.366 25.5037C130.314 25.4861 130.244 25.4334 130.209 25.3807C130.138 25.3104 130.086 25.2401 130.033 25.1699C129.946 25.0645 129.875 24.9591 129.753 24.8888C129.612 24.7834 129.42 24.7131 129.244 24.6429L129.104 24.5902C128.911 24.5199 128.753 24.3969 128.56 24.2388C128.14 23.9051 127.684 23.624 127.263 23.2902L126.912 23.0091C126.597 22.7632 126.263 22.5524 125.86 22.4119C125.72 22.3767 125.58 22.3416 125.439 22.3065C125.387 22.3065 125.317 22.3065 125.247 22.3065C125.141 22.3065 125.071 22.2713 125.019 22.2713C124.773 22.2713 124.528 22.1659 124.282 22.0429L124.142 21.9727C124.019 21.92 123.896 21.8497 123.774 21.7794C123.581 21.674 123.388 21.5335 123.16 21.4808C122.897 21.4105 122.599 21.3754 122.318 21.3754H122.231C121.985 21.3754 121.635 21.3754 121.354 21.6916C121.144 21.9551 121.003 22.2713 120.933 22.6051C120.898 22.8159 120.898 23.0267 120.933 23.2199L120.881 23.1321Z" fill="#231F20"/>
<path d="M86.7007 71.896C87.2793 71.7379 87.3845 71.369 87.4547 71.0703C87.4897 70.9474 87.5248 70.842 87.5774 70.719C87.6475 70.5433 87.7001 70.3677 87.7352 70.192C87.7878 69.8933 87.7352 69.5947 87.7177 69.3136C87.7001 69.1028 87.6651 68.9096 87.6826 68.6988C87.6826 68.6109 87.7001 68.5055 87.7177 68.4177C87.7352 68.2947 87.7878 68.1718 87.8229 68.0488C87.893 67.8556 87.9807 67.6272 87.9631 67.4515C87.9982 67.1353 88.0508 66.8367 88.1034 66.5205L88.1385 66.2394C88.2262 65.5894 88.3314 64.9219 88.3138 64.2543V64.0786C88.3138 63.8503 88.2963 63.6395 88.2086 63.3584C88.121 63.0246 88.0333 62.7084 88.0508 62.3922C88.0508 62.2517 88.1034 62.1111 88.1385 61.9706L88.2086 61.7071C88.3489 61.0571 88.2788 60.4071 88.1911 59.7923C88.1034 59.195 88.1911 58.5802 88.2963 57.9477L88.3314 57.7721C88.3314 57.6667 88.3314 57.5788 88.3314 57.491C88.3314 57.4559 88.3314 57.4032 88.3314 57.368C88.3314 57.1748 88.3314 56.9991 88.2963 56.8059L88.1911 56.3316C88.1385 56.1559 88.1034 55.9802 88.0683 55.8046C88.0508 55.6816 88.0333 55.5586 88.0508 55.4181C88.0508 55.26 88.0859 55.1019 88.121 54.9438L88.156 54.7154C88.1911 54.487 88.156 54.2411 88.1911 54.0127C88.2612 53.6262 88.1911 53.2573 88.1385 52.8884L88.0859 52.502C88.0508 52.1506 88.0508 51.7817 88.0157 51.4128L87.9807 50.7804C87.893 50.3763 87.8053 50.0426 87.6826 49.6912C87.5949 49.4453 87.5073 49.2169 87.4371 48.971C87.3845 48.7602 87.3845 48.5318 87.3845 48.2332C87.367 47.3724 87.2793 46.5116 87.0689 45.6508C87.0338 45.5103 86.9988 45.3697 87.0163 45.2468C87.0163 45.1589 87.0514 45.0711 87.0689 44.9833C87.104 44.8427 87.1566 44.6846 87.1566 44.5441C87.1566 44.3684 87.1215 44.2103 87.0865 44.0346L86.9111 43.2968L86.7182 42.4712L86.6656 42.2077C86.613 41.9969 86.578 41.8036 86.5604 41.5928C86.5429 41.259 86.4903 40.8726 86.35 40.4861L86.1922 40.0996C86.1396 39.9591 86.0695 39.8185 86.0344 39.678C85.9467 39.3969 85.9292 39.1159 85.8766 38.7996C85.8065 38.3253 85.7188 37.8159 85.4207 37.3767L85.2805 37.1835C85.1928 37.0605 85.1051 36.9551 85.0525 36.8321C85.0174 36.7267 84.9999 36.5862 84.9824 36.3754C84.9122 35.6024 84.6317 34.9349 84.2986 34.4079L83.8076 33.6174L83.2114 32.6687L82.738 31.9836L82.2997 31.3688C82.1769 31.2107 82.0717 31.035 81.9665 30.8418L81.8613 30.6134C81.7912 30.4553 81.7035 30.3148 81.6159 30.1742C81.5107 29.9986 81.3704 29.8404 81.2301 29.6648C81.0372 29.454 80.8794 29.2256 80.7567 29.0148C80.6866 28.8918 80.6515 28.7689 80.5989 28.6459C80.5112 28.4175 80.4236 28.1891 80.2657 27.9959C80.143 27.8554 79.9852 27.7324 79.8274 27.6094L79.6871 27.504C79.4417 27.3284 79.2312 27.1351 79.0734 26.9068L79.0033 26.7838C78.9332 26.6784 78.863 26.5905 78.7929 26.5027L78.3019 26.0284C77.8987 25.6595 77.4603 25.2906 76.9518 25.0271C76.3381 24.6933 75.8121 24.2717 75.2686 23.7622C74.7601 23.3231 74.1815 22.9366 73.5327 22.6555C73.1294 22.515 72.7086 22.3393 72.3404 22.0758C72.1125 21.9177 71.867 21.7947 71.604 21.7069C71.4111 21.6366 71.2182 21.5839 71.0429 21.4961C70.8676 21.4083 70.6922 21.3029 70.5169 21.1975C70.2714 21.0569 70.0259 20.8813 69.7629 20.811C69.4122 20.7056 69.044 20.688 68.781 20.688C68.6407 20.688 68.5005 20.6704 68.3777 20.6529L68.1323 20.6177C67.7816 20.6177 67.4309 20.5475 66.9926 20.4245L66.4841 20.2664C66.1509 20.1434 65.8003 20.0907 65.4671 20.038C64.8183 19.9502 64.1345 19.9853 63.5033 20.2488C63.2578 20.3367 62.7844 20.284 62.4337 20.2488C62.2759 20.2313 62.1181 20.2313 61.9954 20.2313C61.2239 20.2664 60.7154 20.3367 60.0842 20.4948L59.5932 20.6353C59.225 20.7231 58.5587 20.8988 58.5412 21.742C58.5412 21.865 58.5412 22.0055 58.5763 22.1636C58.6464 22.4974 58.7516 22.8136 58.8919 23.042C59.2426 23.6393 59.716 23.6568 59.9264 23.6744C60.1894 23.692 60.4699 23.6568 60.8031 23.569C61.1187 23.5163 61.4343 23.4109 61.7499 23.3055C61.9428 23.2528 62.1357 23.1825 62.3636 23.1123L62.9598 22.9893C62.9598 22.9893 63.1351 22.9893 63.2228 22.9893C63.3104 22.9893 63.3806 22.9893 63.4682 22.9893C63.6786 22.9893 63.8891 22.9542 64.117 22.919C64.3449 22.9015 64.5553 22.9015 64.7833 22.919C65.2216 22.9366 65.6424 23.0069 66.0457 23.1298C66.1685 23.165 66.2912 23.2001 66.3964 23.2704L66.5016 23.3582L66.6419 23.4636C66.9049 23.6393 67.1679 23.6217 67.4134 23.6217C67.4835 23.6217 67.5712 23.6217 67.6413 23.6217L68.6407 23.7447H68.7284C69.307 23.7974 70.324 24.2366 70.7273 24.5528C70.9728 24.7811 71.2182 24.9568 71.4812 25.0622C71.5689 25.0973 71.6566 25.1325 71.7618 25.1676L71.9897 25.2203C72.1475 25.2554 72.2703 25.3081 72.3755 25.3784C72.5683 25.5541 72.8314 25.6419 73.0944 25.7122C73.1996 25.7473 73.3223 25.7649 73.4275 25.7825C73.5152 25.7825 73.6204 25.8 73.7081 25.8352C73.9886 25.9406 74.2165 26.2041 74.4445 26.45C74.6549 26.7135 74.9004 26.9419 75.1809 27.1351C75.3036 27.2054 75.4264 27.2581 75.5667 27.3284L75.8121 27.4513C75.9875 27.5392 76.1628 27.6797 76.3381 27.8729C76.4083 27.9432 76.4609 28.0486 76.531 28.154C76.6012 28.2945 76.6888 28.4351 76.7765 28.5405C77.0746 28.927 77.4954 29.2256 77.7584 29.6648C78.5299 30.7891 79.2137 31.808 79.88 32.7917L79.9852 32.9674C80.1079 33.1606 80.2307 33.3363 80.371 33.512C80.4411 33.5998 80.5463 33.6525 80.634 33.6876C80.669 33.6876 80.7041 33.7228 80.7392 33.7403C80.8444 33.8106 80.932 33.8984 80.9846 34.0038C81.1074 34.2498 81.16 34.5484 81.2126 34.8471C81.2652 35.1281 81.3002 35.4268 81.423 35.7078C81.5282 35.9362 81.6685 36.147 81.8087 36.3578L81.8613 36.4457C82.0542 36.7267 82.212 37.0429 82.3698 37.3416C82.475 37.5348 82.5802 37.7105 82.6679 37.9213C82.738 38.0443 82.738 38.2199 82.738 38.4132C82.738 38.501 82.738 38.5888 82.738 38.6767C82.7556 38.9578 82.8082 39.2915 82.966 39.5902C83.1062 39.8361 83.1588 40.0293 83.1939 40.1699C83.264 40.4158 83.3342 40.6266 83.6498 41.0834C83.8777 41.3996 84.0355 41.6279 83.8953 41.9442C83.7725 42.2428 83.7375 42.5766 83.8076 42.9455C83.8427 43.1738 83.9303 43.4022 84.0005 43.613C84.1057 43.9468 84.2284 44.2454 84.1933 44.5616C84.0881 46.09 84.1407 47.2845 84.3512 48.3561C84.3862 48.5318 84.4739 48.6899 84.5616 48.8656C84.6492 49.0237 84.7369 49.1818 84.7369 49.3399C84.7369 49.498 84.7018 49.6737 84.6668 49.8318C84.5966 50.1304 84.5265 50.429 84.6317 50.7277C84.6843 50.8858 84.772 51.0439 84.8772 51.202C84.9298 51.2898 84.9999 51.3952 85.035 51.4831C85.1577 51.7641 85.1051 52.0979 85.035 52.4493C84.9824 52.7303 84.9473 52.9938 84.9824 53.2925C84.9999 53.4857 85.0525 53.6614 85.1051 53.8546C85.1402 53.9776 85.1753 54.1181 85.2103 54.2411C85.2454 54.3992 85.2279 54.5222 85.2103 54.6276C85.1577 54.8032 85.1753 54.9438 85.1753 55.1194C85.2103 55.6816 85.2454 56.4194 85.1753 57.1748L85.1402 57.4559C85.07 58.0883 85.0525 58.7383 85.07 59.5463V59.6869C85.07 60.3369 85.07 61.0044 85.1577 61.6544C85.1577 61.7598 85.2103 61.8301 85.2805 61.9355C85.298 61.9882 85.2805 62.0584 85.2805 62.1287C85.2805 62.2165 85.2454 62.3044 85.2279 62.3746C85.1928 62.4976 85.1752 62.6206 85.1577 62.7435C85.1577 62.9192 85.1928 63.0949 85.2454 63.2706L85.2805 63.4111C85.3331 63.6043 85.3155 63.7976 85.2805 64.0259C85.2278 64.5354 85.1577 65.0448 85.07 65.5543L84.9824 65.9583C84.8947 66.3272 84.7895 66.6961 84.8246 67.1002C84.8246 67.2407 84.8596 67.3813 84.8772 67.5042C84.8772 67.5569 84.9122 67.6272 84.9298 67.6799C84.9648 67.7853 84.9648 67.838 84.9824 67.8907C85.07 68.1191 84.9999 68.3826 84.9473 68.6285L84.9122 68.769C84.8772 68.892 84.8421 69.0326 84.807 69.1555C84.7369 69.3663 84.6843 69.5771 84.6492 69.7879C84.6317 70.0514 84.6142 70.3149 84.6492 70.596V70.6839C84.6843 70.9298 84.7194 71.2636 85.07 71.5095C85.3506 71.7027 85.6662 71.8433 86.0169 71.8784C86.2273 71.9136 86.4377 71.8784 86.6306 71.8433L86.7007 71.896Z" fill="#231F20"/>
<path d="M58.2672 21.3036C57.8989 20.8293 57.5132 20.8995 57.2151 20.9522C57.0924 20.9698 56.9696 20.9698 56.8469 20.9874C56.6716 20.9874 56.4787 21.0049 56.3034 21.0576C56.0228 21.1455 55.7598 21.3211 55.5143 21.4792C55.339 21.6022 55.1636 21.7076 54.9883 21.7955C54.9006 21.8306 54.813 21.8657 54.7253 21.8833L54.3396 21.9711C54.1291 22.0238 53.8837 22.0414 53.7434 22.1644C53.4453 22.3049 53.1648 22.4103 52.8492 22.5333C52.7615 22.5684 52.6563 22.6035 52.5686 22.6562C51.9725 22.9549 51.3237 23.2535 50.7977 23.6927L50.6574 23.8157C50.4821 23.9562 50.3067 24.1143 50.1314 24.3602C49.921 24.6589 49.7106 24.9048 49.4827 25.1156C49.3599 25.2035 49.2372 25.2737 49.1144 25.344L48.869 25.4845C48.2728 25.8183 47.8695 26.3805 47.5189 26.9075C47.1506 27.4169 46.7298 27.8561 46.2213 28.3128L46.0811 28.4358C46.0811 28.4358 45.9583 28.5763 45.9057 28.6642C45.8882 28.6993 45.8707 28.7344 45.8356 28.7696C45.7304 28.9277 45.6252 29.0858 45.5551 29.2615L45.3622 29.7358C45.292 29.9114 45.2394 30.0871 45.1518 30.2452C45.0992 30.3682 45.0466 30.4911 44.9764 30.5966C44.8888 30.7371 44.7836 30.8601 44.6784 30.983L44.5206 31.1587C44.3627 31.3519 44.2926 31.5803 44.1348 31.7735C43.8893 32.0897 43.7841 32.4587 43.6789 32.8276L43.5562 33.214L43.188 34.2505L42.9776 34.8653C42.8899 35.2694 42.8724 35.6383 42.8899 36.0072C42.8899 36.2707 42.9074 36.5166 42.8899 36.7626C42.8724 36.9734 42.7847 37.1842 42.7146 37.4828C42.4866 38.3085 42.3463 39.1693 42.3639 40.0476C42.3639 40.1882 42.3639 40.3287 42.3113 40.4517C42.2762 40.5395 42.2411 40.6098 42.1885 40.6976C42.1009 40.8206 42.0483 40.9611 42.0132 41.1017C41.9781 41.2598 41.9781 41.4354 41.9957 41.6111V42.3665C41.9957 42.6476 42.0307 42.9111 42.0483 43.1921V43.4556C42.0833 43.6664 42.1009 43.8597 42.0658 44.0705C42.0307 44.4043 41.9957 44.7907 42.0658 45.1772L42.1535 45.5637C42.1885 45.7042 42.2236 45.8448 42.2587 45.9853C42.2937 46.2664 42.2937 46.5474 42.2762 46.8461C42.2762 47.3204 42.2762 47.7947 42.5041 48.2514L42.6269 48.4622C42.697 48.5852 42.7672 48.7082 42.7847 48.8136C42.7847 48.919 42.7847 49.042 42.7847 49.2528C42.7146 49.9906 42.8899 50.6406 43.0652 51.2027L43.3633 52.0284L43.714 53.0121L43.977 53.7499L44.2225 54.4175C44.2926 54.5932 44.3627 54.7688 44.3978 54.9796L44.4329 55.208C44.4504 55.3661 44.4679 55.5242 44.5206 55.6823C44.5732 55.8755 44.6608 56.0512 44.731 56.2445C44.8362 56.4904 44.9414 56.7188 44.9589 56.9647C44.9589 57.0877 44.9589 57.2106 44.9589 57.3336C44.9589 57.562 44.9414 57.7904 45.0115 58.0187C45.0816 58.1768 45.1693 58.3349 45.2745 58.493L45.3622 58.6336C45.5024 58.8619 45.6077 59.1079 45.6603 59.3714V59.4944C45.6953 59.5998 45.7129 59.7052 45.7479 59.8106L45.9759 60.4078C46.1687 60.8822 46.3441 61.374 46.6422 61.8132C46.9928 62.3578 47.1857 62.9551 47.361 63.6226C47.5189 64.2199 47.6942 64.8347 48.0624 65.3793C48.2903 65.7131 48.4482 66.0996 48.5534 66.486C48.6235 66.732 48.7287 66.9604 48.8339 67.1887C48.9216 67.3468 49.0092 67.5049 49.0618 67.6806C49.132 67.8563 49.167 68.032 49.2021 68.2076C49.2547 68.4536 49.3248 68.7171 49.4301 68.9454C49.5703 69.2441 49.7807 69.5076 49.9561 69.6833C50.0437 69.7711 50.1139 69.8765 50.184 69.9819L50.3243 70.1751C50.5172 70.4211 50.675 70.7197 50.8152 71.1062L50.973 71.5629C51.0782 71.8616 51.201 72.1602 51.3413 72.4588C51.6218 73.0034 51.99 73.4777 52.4985 73.8642C52.6914 74.0047 52.8667 74.4088 53.007 74.7074C53.0771 74.848 53.1297 74.9709 53.1823 75.0763C53.5155 75.7088 53.8135 76.0777 54.1993 76.5344L54.4974 76.9033C54.7078 77.1668 55.111 77.6763 55.8825 77.3601C56.0053 77.3074 56.128 77.2371 56.2508 77.1668C56.5313 76.9736 56.7768 76.7628 56.9346 76.5344C57.3379 75.9723 57.1801 75.5331 57.0924 75.3223C56.9872 75.0763 56.8469 74.8304 56.6365 74.5669C56.4261 74.3034 56.1806 74.075 55.9527 73.8466C55.8124 73.7061 55.6721 73.548 55.5143 73.3899L55.111 72.9332C55.111 72.9332 55.0058 72.7926 54.9708 72.7048L54.848 72.494L54.4623 71.967C54.322 71.7913 54.1993 71.6156 54.0765 71.4224C53.8486 71.0535 53.6733 70.6494 53.5155 70.2454C53.4629 70.1224 53.4278 70.017 53.4103 69.8765V69.736V69.5603C53.3752 69.2441 53.2174 69.0333 53.0596 68.8225L52.9193 68.6292L52.3232 67.786L52.2705 67.7157C51.9374 67.2239 51.464 66.205 51.3763 65.678C51.3237 65.3442 51.2536 65.0455 51.1308 64.7645C51.0782 64.6766 51.0432 64.5712 50.9906 64.501L50.8503 64.3077C50.7626 64.1848 50.675 64.0618 50.6399 63.9388C50.5698 63.6753 50.3944 63.4469 50.2366 63.2186C50.1665 63.1307 50.0788 63.0429 50.0087 62.9551C49.9385 62.8848 49.8684 62.8145 49.8158 62.7443C49.6229 62.4983 49.5703 62.1646 49.5177 61.8132C49.4651 61.4794 49.4125 61.1457 49.2372 60.8295C49.167 60.7065 49.0794 60.5835 48.9917 60.4781L48.8339 60.2497C48.7112 60.0741 48.6235 59.8633 48.5709 59.6173C48.5358 59.5119 48.5358 59.389 48.5183 59.2836C48.5008 59.1255 48.4832 58.9673 48.4482 58.8268C48.3254 58.3349 48.115 57.8782 47.9923 57.3863C47.6942 56.0337 47.3435 54.8391 46.9578 53.7148L46.8876 53.5216C46.8175 53.3108 46.7474 53.1 46.6597 52.9067C46.6071 52.8013 46.5194 52.731 46.4493 52.6783C46.4142 52.6608 46.3967 52.6256 46.3616 52.6081C46.2915 52.5202 46.2389 52.4148 46.2038 52.2919C46.1337 52.0284 46.1337 51.7297 46.1512 51.4311C46.1512 51.15 46.1863 50.8514 46.1161 50.5527C46.0635 50.3068 45.9759 50.0784 45.8707 49.8325L45.8356 49.7271C45.6953 49.4109 45.5901 49.0947 45.4849 48.7609L45.292 48.1636C45.257 48.0231 45.292 47.865 45.292 47.6893C45.292 47.6015 45.3096 47.5136 45.3271 47.4434C45.3446 47.1623 45.3622 46.8461 45.2394 46.5299C45.1518 46.2664 45.1342 46.0907 45.0992 45.9502C45.0641 45.7042 45.029 45.4934 44.7836 45.0367C44.6082 44.7029 44.4855 44.457 44.6959 44.1759C44.8712 43.9124 44.9589 43.6137 44.9414 43.2448C44.9414 43.034 44.8888 42.8057 44.8537 42.5949C44.8186 42.2786 44.766 41.9624 44.8537 41.6814C45.2394 40.3111 45.5025 39.2395 45.5726 38.2558C45.5726 38.0977 45.5375 37.922 45.5024 37.7639C45.4674 37.6058 45.4498 37.4477 45.5024 37.3072C45.5551 37.1666 45.6427 37.0437 45.7129 36.9031C45.8707 36.6748 46.0109 36.4464 46.0109 36.1477C46.0109 35.9896 45.9934 35.8315 45.9583 35.6734C45.9408 35.568 45.9233 35.4802 45.9057 35.3748C45.9057 35.0761 46.046 34.8126 46.2389 34.5491C46.3967 34.3383 46.537 34.1451 46.6246 33.8816C46.6772 33.7235 46.7123 33.5478 46.7298 33.3721C46.7298 33.2492 46.7649 33.1262 46.8 33.0032C46.8526 32.8627 46.9052 32.7749 46.9753 32.7046C47.098 32.5992 47.1506 32.4762 47.2208 32.3181C47.4136 31.8438 47.7819 31.2817 48.2027 30.7547L48.3605 30.5614C48.7813 30.1749 49.1144 29.6831 49.5879 29.1561L49.6755 29.0682C50.0437 28.629 50.4295 28.1723 50.8328 27.7507C50.8854 27.6804 50.9204 27.5926 50.938 27.4872C50.9555 27.4345 51.0081 27.3993 51.0432 27.3642C51.0958 27.3115 51.1659 27.2764 51.236 27.2412C51.3413 27.1885 51.4289 27.1358 51.5341 27.0656C51.6569 26.9777 51.7621 26.8372 51.8497 26.7142L51.9199 26.6088C52.0251 26.4683 52.1829 26.3629 52.3407 26.2399C52.7264 25.9764 53.1648 25.8007 53.5856 25.6075L53.9363 25.467C54.2694 25.3616 54.6026 25.2737 54.9006 25.0629C55.0058 24.9927 55.0935 24.9048 55.1987 24.817C55.2338 24.7819 55.2689 24.7292 55.3039 24.6765C55.3741 24.5886 55.4091 24.571 55.4442 24.5359C55.602 24.3778 55.8299 24.3251 56.0754 24.2548L56.2157 24.2197C56.3384 24.1846 56.4612 24.167 56.5839 24.1494C56.7768 24.1143 56.9696 24.0792 57.1801 24.0089C57.4255 23.9386 57.6359 23.8332 57.8639 23.6927L57.934 23.64C58.1269 23.517 58.3899 23.3589 58.4776 22.9373C58.5477 22.6035 58.5302 22.2522 58.4425 21.9184C58.3899 21.7076 58.2847 21.5144 58.1795 21.3738L58.2672 21.3036Z" fill="#231F20"/>
<path d="M89.7707 159.571C105.376 159.571 122.682 157.515 133.448 149.663C141.373 143.866 148.65 133.378 149.93 121.819C152.437 99.2279 140.496 81.9594 127.188 72.7016C114.318 63.7424 97.7837 62.3195 89.7883 62.3195C81.7928 62.3195 65.2583 63.7424 52.3884 72.7016C39.0801 81.9419 27.1395 99.2279 29.6468 121.819C30.9268 133.378 38.1859 143.866 46.1112 149.663C56.877 157.515 74.183 159.571 89.7707 159.571Z" fill="white"/>
<path d="M84.9565 126.775C84.5883 126.827 84.4305 127.231 84.6233 127.565C85.6052 129.234 88.7087 133.169 89.7783 133.187C90.8479 133.169 93.9514 129.234 94.9333 127.565C95.1262 127.249 94.9684 126.845 94.6001 126.775C93.776 126.652 91.7772 126.335 89.7783 126.335C87.7794 126.335 85.7806 126.652 84.9565 126.775Z" fill="#FCD8DE"/>
<path d="M89.8134 134.291C87.6041 134.256 83.7116 128.196 83.6765 128.125C83.396 127.651 83.3609 127.054 83.5888 126.562C83.8168 126.088 84.2727 125.754 84.7987 125.666H84.9039C85.8332 125.508 87.797 125.209 89.7958 125.209C91.7947 125.209 93.741 125.508 94.6878 125.648H94.793C95.319 125.736 95.7749 126.07 96.0029 126.562C96.2308 127.054 96.2133 127.634 95.9152 128.125C95.8801 128.178 92.0051 134.256 89.8309 134.291H89.8134ZM86.0611 127.739C87.2008 129.408 89.0243 131.498 89.7783 131.99C90.5498 131.498 92.3733 129.39 93.4955 127.739C92.5136 127.598 91.146 127.44 89.7783 127.44C88.4107 127.44 87.0255 127.598 86.0611 127.739Z" fill="#F7ADC2"/>
<path d="M127.853 125.211C122.4 121.926 115.895 123.595 113.178 129.058C110.477 134.486 112.669 139.757 117.456 141.794C122.716 144.061 127.661 142.515 130.413 137.789C133.289 132.835 131.658 127.495 127.853 125.211Z" fill="#F7B9C7"/>
<path d="M51.7047 125.211C57.1578 121.926 63.6628 123.595 66.3806 129.058C69.0808 134.486 66.8716 139.757 62.1023 141.794C56.8421 144.061 51.8976 142.515 49.1447 137.789C46.2692 132.835 47.8998 127.495 51.7047 125.211Z" fill="#F7B9C7"/>
<path d="M79.1799 99.8294C79.1799 101.059 78.8818 102.06 77.6544 102.851C75.8134 104.046 72.3417 104.52 68.3439 104.502C65.9418 104.502 61.9265 104.467 59.2087 103.466C57.1923 102.71 55.9124 101.604 55.9124 99.847C55.9124 98.6173 56.2104 97.616 57.4378 96.8255C59.2789 95.6309 62.7506 95.1566 66.7483 95.1742C69.1505 95.1742 73.1658 95.2093 75.8835 96.2106C77.8999 96.966 79.1799 98.0727 79.1799 99.8294Z" fill="#231F20"/>
<path d="M123.648 99.8294C123.648 101.059 123.35 102.06 122.122 102.851C120.281 104.046 116.81 104.52 112.812 104.502C110.41 104.502 106.394 104.467 103.677 103.466C101.66 102.71 100.38 101.604 100.38 99.847C100.38 98.6173 100.678 97.616 101.906 96.8255C103.747 95.6309 107.219 95.1566 111.216 95.1742C113.618 95.1742 117.634 95.2093 120.351 96.2106C122.368 96.966 123.648 98.0727 123.648 99.8294Z" fill="#231F20"/>
<path d="M117.861 116.217C118.72 116.217 119.421 115.567 119.474 114.671C119.526 113.775 118.878 112.985 118.018 112.932C117.387 112.897 111.654 112.581 106.025 112.932C105.622 112.95 105.236 113.161 104.956 113.477C104.675 113.81 104.552 114.232 104.57 114.654C104.623 115.514 105.289 116.2 106.113 116.2H117.861V116.217Z" fill="#231F20"/>
<path d="M73.3746 116.217C74.2338 116.217 74.9527 115.567 74.9877 114.671C75.0403 113.775 74.3916 112.985 73.5324 112.932C72.9012 112.897 67.1676 112.581 61.5392 112.932C61.1359 112.95 60.7502 113.161 60.4696 113.477C60.1891 113.81 60.0664 114.232 60.0839 114.654C60.1365 115.514 60.8028 116.2 61.6269 116.2H73.3746V116.217Z" fill="#231F20"/>
<path d="M30.5393 121.313C31.0478 120.575 31.0127 119.539 30.9776 118.713V117.747C30.9776 117.273 31.0478 116.798 31.0478 116.306C31.0478 115.498 30.9952 114.708 30.925 113.952C30.8724 113.408 30.9075 112.863 30.925 112.319C30.9426 112.073 30.9776 111.809 30.9952 111.563L31.153 110.527C31.2231 109.982 31.416 109.367 31.4511 108.876L31.8894 106.381C31.942 106.118 32.0121 105.872 32.0823 105.626C32.3102 104.782 32.5382 103.904 32.7661 103.043C33.0291 102.183 33.2921 101.304 33.5551 100.443L33.6779 100.004C33.8532 99.4245 34.011 98.8624 34.239 98.1246C34.4844 97.2462 34.6773 96.3854 35.0455 95.6476C35.2209 95.2963 35.4137 94.9801 35.6241 94.6463L36.0099 93.9963C36.4482 93.2234 36.869 92.4504 37.2899 91.6775C37.7107 90.9221 38.0613 90.1316 38.4997 89.4113C38.903 88.6911 39.3589 88.006 39.8498 87.3208C40.3583 86.6533 40.9194 86.0209 41.498 85.3533L41.8136 84.9844C41.9714 84.7736 42.1292 84.5804 42.287 84.3871C42.3572 84.2993 42.4273 84.2115 42.4974 84.1236C42.8306 83.7372 43.1462 83.3507 43.4618 82.9466C43.7423 82.5953 43.9703 82.2264 44.2508 81.8926L45.1801 80.7859C45.4081 80.5224 45.636 80.2589 45.899 80.0129C46.1971 79.6967 46.5653 79.4508 46.8985 79.1697L47.3894 78.7832C47.8979 78.3968 48.3187 77.8873 48.8272 77.536C49.6863 76.9563 50.4228 76.2536 51.1943 75.6212C51.4748 75.3928 51.7554 75.182 52.0359 74.9712C52.8074 74.3563 53.6139 73.7942 54.4556 73.2848C54.9465 72.9861 55.4024 72.6523 55.9109 72.3713C56.8402 71.7564 57.6292 71.2645 58.4533 70.72C59.0144 70.3686 59.593 69.9997 60.1892 69.6659C60.7152 69.3673 61.2938 69.1741 62.0478 68.8754C64.222 68.0322 66.4839 67.2593 68.7983 66.5039C69.1841 66.3809 69.5523 66.2755 69.8854 66.2052C70.1134 66.1701 70.3413 66.135 70.5693 66.1174C70.9375 66.0823 71.3232 66.0647 71.709 65.9944C72.1473 65.9242 72.6032 65.8012 73.0591 65.6782L75.093 65.239C75.8294 65.0634 76.5834 64.958 77.3374 64.8174L78.0563 64.6945C78.6173 64.6066 79.1784 64.5188 79.7395 64.4837C80.6337 64.3958 81.7033 64.3431 82.7904 64.2026L83.8775 64.0621C84.2808 64.0093 84.6665 63.9391 85.0698 63.9215C85.8413 63.8688 86.6303 63.8512 87.472 63.8688C88.7695 63.8688 90.1196 63.9566 91.4872 63.8161L92.1185 63.7458C92.5042 63.7107 92.8724 63.658 93.2056 63.6756C93.5036 63.6931 93.8719 63.7458 94.4329 63.8512C96.4143 64.185 98.3255 64.3256 99.9561 64.4837C100.78 64.5715 101.604 64.6242 102.411 64.7472C103.393 64.8526 104.375 64.9931 105.339 65.1688C106.075 65.2742 106.794 65.4147 107.513 65.5728C108.18 65.7134 108.846 65.8188 109.495 65.9944C110.038 66.1174 110.564 66.2404 111.108 66.416L111.739 66.6268L113.019 67.1012C113.545 67.2593 114.088 67.4349 114.632 67.6106C115.351 67.8565 116.035 68.0673 116.666 68.366C116.982 68.5241 117.262 68.6998 117.56 68.8754C118.069 69.1741 118.612 69.4903 119.226 69.7713C119.664 69.9821 120.155 70.1754 120.611 70.3511L121.049 70.5267C121.751 70.7902 122.417 71.1767 123.048 71.5808L123.346 71.774L124.1 72.2483L125.608 73.2145C126.818 73.9699 127.993 74.9009 129.255 75.709C129.992 76.236 130.711 76.7982 131.412 77.3954C132.061 78.0454 132.727 78.713 133.411 79.3981C134.586 80.6981 135.796 82.0507 137.023 83.4034C137.812 84.1939 138.513 85.1777 139.144 86.1438C139.53 86.7411 139.969 87.3033 140.337 87.9006C140.617 88.3397 140.915 88.7613 141.178 89.2181C141.441 89.6573 141.687 90.114 141.88 90.5883C142.178 91.2383 142.476 91.8883 142.827 92.5207C143.282 93.3463 143.686 94.1544 144.072 94.7341C144.264 95.0328 144.422 95.349 144.58 95.6476C144.685 95.8409 144.79 96.0341 144.878 96.2273C145.246 97.0179 145.597 97.9138 145.965 99.0205C146.105 99.4421 146.193 99.8813 146.316 100.32L146.982 102.938C147.315 104.607 147.859 106.223 148.28 107.857C148.437 108.472 148.648 109.719 148.63 110.632C148.63 111.054 148.665 111.44 148.665 111.774C148.823 113.777 148.806 115.112 148.876 116.816C148.893 117.255 148.911 117.712 148.876 118.151C148.823 119.135 148.736 120.962 149.507 121.594C149.63 121.7 149.753 121.752 149.91 121.787C150.243 121.858 150.577 121.787 150.857 121.541C151.541 120.944 151.769 119.521 151.874 118.854C152.014 118.028 152.049 117.15 152.014 116.061C151.962 115.024 151.944 113.988 151.804 112.969C151.716 112.354 151.629 111.757 151.523 111.019C151.436 110.404 151.383 109.772 151.243 109.174C151.173 108.911 151.155 108.63 151.12 108.349C151.085 108.103 151.05 107.857 151.015 107.593L150.647 105.626L150.121 103.623C149.84 102.306 149.507 101.006 149.139 99.7232C149.034 99.3543 148.928 98.9678 148.876 98.5813L148.823 98.2124L148.718 97.703C148.508 96.8246 148.139 96.0341 147.824 95.3314L147.526 94.6814L146.035 91.8356L145.895 91.5721C145.422 90.7815 144.755 89.6397 144.124 88.4978C143.44 87.3911 142.792 86.3195 142.423 85.6168C141.932 84.7385 141.371 83.948 140.828 83.1926C140.635 82.9291 140.442 82.6831 140.232 82.4372L139.741 81.9102C139.407 81.5588 139.092 81.2251 138.846 80.9089C138.373 80.2413 137.724 79.6089 137.075 79.0643L136.286 78.3968L135.638 77.8522C134.901 77.2373 134.217 76.5171 133.499 75.7266C132.797 74.9712 132.026 74.2685 131.149 73.5834C130.798 73.3023 130.43 73.0915 130.044 72.8631L129.325 72.424C128.782 72.0902 128.256 71.651 127.572 71.1943L126.748 70.5794C126.38 70.2808 125.994 69.9997 125.608 69.7362C124.258 68.9281 122.873 68.1727 121.488 67.4525C117.683 65.4323 113.966 64.1323 110.354 63.2364L109.723 63.0783C109.056 62.9202 108.372 62.7797 107.706 62.6567C107.355 62.604 107.075 62.5864 106.829 62.604C106.724 62.604 106.637 62.604 106.531 62.604C106.198 62.5864 105.83 62.5513 105.444 62.481C104.62 62.3229 103.779 62.0945 102.884 61.8662C102.06 61.6378 101.184 61.4446 100.272 61.304C99.4827 61.1811 98.7112 61.1811 97.9397 61.1459H97.6066L94.4855 61.0405C93.8368 61.0405 93.188 61.0054 92.5393 61.0405C92.1185 61.0405 91.6275 60.9703 91.1015 60.9175C90.8385 60.8824 90.593 60.8648 90.33 60.8473C89.5059 60.777 88.5065 60.7243 87.472 60.8473C86.6128 60.9175 86.0693 60.9702 85.5958 61.0054C84.8244 61.0581 84.1581 61.1108 82.6677 61.4446C81.6156 61.6905 80.8617 61.8662 80.0025 61.7608C79.2135 61.6905 78.2667 61.6905 77.127 61.8837C76.4607 62.0067 75.7768 62.1472 75.1106 62.2878C74.1287 62.5513 73.1818 62.7621 72.2876 62.9026C67.9041 63.5526 64.4324 64.5891 61.4341 65.9066C60.9431 66.135 60.5048 66.3985 60.0489 66.662C59.6106 66.9255 59.2073 67.1714 58.7865 67.3647C58.3481 67.5579 57.8922 67.7336 57.4539 67.8917C56.6473 68.1727 55.8408 68.5417 55.0342 69.0687C54.6134 69.3497 54.2276 69.6308 53.877 69.9822C53.6666 70.1754 53.4386 70.3862 53.2107 70.5794C52.5268 71.1591 51.6501 71.5983 50.8085 72.1605C50.1422 72.5996 49.4233 73.0037 48.757 73.5658C48.3362 73.9347 47.933 74.3212 47.5297 74.7077L46.6705 75.5158C46.3549 75.832 46.0919 76.0779 45.8289 76.2712C45.4256 76.5698 45.1275 76.8509 44.7242 77.2373C43.5319 78.4143 41.989 79.9954 40.5336 81.6642L39.9725 82.2967C38.7627 83.702 37.5178 85.2479 36.2729 87.2857L36.0625 87.6195C35.5189 88.41 35.0806 89.2883 34.6072 90.1491C34.1337 91.0099 33.6779 91.8883 33.3097 92.7842C33.1869 93.0653 33.1343 93.2936 33.0642 93.5923C33.0116 93.7504 32.9239 93.9436 32.8362 94.1017L32.468 94.7517C32.2927 95.0679 32.1349 95.4193 31.9946 95.7706C31.8017 96.2449 31.6615 96.7543 31.5212 97.2462L31.3985 97.6503C31.2231 98.1948 31.0478 98.757 30.8374 99.3894C30.3464 100.83 29.8379 102.288 29.4873 103.764L29.1366 104.958C28.8034 106.03 28.6281 107.172 28.4878 108.331C28.4528 108.735 28.4177 109.139 28.4002 109.543C28.4002 109.701 28.4177 109.877 28.4352 110.053C28.4528 110.351 28.4352 110.544 28.4528 110.685C28.4878 111.335 28.4002 112.126 28.3125 112.898L28.2599 113.338C28.2073 113.724 28.2073 114.128 28.1722 114.515C28.1371 115.165 28.0845 115.797 28.0845 116.465C28.067 117.273 28.1371 118.063 28.2949 118.854L28.33 119.117C28.4528 119.82 28.6106 120.786 29.0314 121.296C29.3645 121.7 29.7152 121.875 30.0483 121.77C30.2587 121.717 30.4516 121.559 30.627 121.313H30.5393Z" fill="#231F20"/>
<path d="M148.948 122.029C148.316 122.504 148.176 123.312 148.018 123.962L147.79 124.717C147.668 125.086 147.562 125.455 147.457 125.824C147.282 126.439 147.177 127.071 147.089 127.686C147.001 128.108 146.914 128.547 146.773 128.968C146.721 129.162 146.651 129.355 146.563 129.548C146.458 129.812 146.318 130.057 146.195 130.321C145.984 130.725 145.721 131.164 145.616 131.551L144.722 133.395L144.406 133.957C143.705 135.205 142.933 136.469 142.162 137.734L141.969 138.05C141.724 138.472 141.461 138.876 141.163 139.438C140.829 140.106 140.479 140.721 140.04 141.248C139.83 141.494 139.62 141.704 139.392 141.933L138.953 142.354C137.919 143.373 136.989 144.462 136.078 145.464C135.183 146.465 134.096 147.256 132.904 148.011L132.571 148.222C132.396 148.345 132.238 148.45 132.08 148.573C132.01 148.626 131.94 148.679 131.852 148.731C131.519 148.942 131.186 149.188 130.87 149.434C130.59 149.662 130.309 149.873 130.028 150.066L129.064 150.734C128.819 150.892 128.591 151.05 128.328 151.156C127.995 151.296 127.661 151.419 127.328 151.542L126.855 151.718C126.381 151.911 125.926 152.174 125.435 152.297C124.628 152.508 123.892 152.912 123.12 153.211C122.84 153.316 122.577 153.422 122.314 153.527C121.56 153.826 120.788 154.072 120.017 154.282L118.667 154.686C117.79 154.968 117.053 155.213 116.299 155.512C115.791 155.723 115.247 155.899 114.704 156.057C114.23 156.18 113.739 156.268 113.073 156.373C111.162 156.654 109.233 156.953 107.252 157.286C106.919 157.339 106.603 157.392 106.323 157.392C106.13 157.392 105.937 157.392 105.744 157.357C105.428 157.322 105.113 157.304 104.797 157.322C104.429 157.339 104.043 157.374 103.657 157.427L101.957 157.62C101.325 157.69 100.712 157.743 100.081 157.778L99.4668 157.831C98.9934 157.866 98.5375 157.919 98.0641 157.901C97.3102 157.901 96.4335 157.901 95.5392 157.954L94.645 158.042L93.6631 158.13C93.0144 158.165 92.3656 158.13 91.6818 158.094C90.6122 158.042 89.49 157.972 88.3679 158.13L87.8418 158.217C87.5262 158.27 87.2281 158.323 86.9476 158.323C86.7021 158.323 86.4041 158.27 85.9306 158.2C84.2825 157.954 82.7044 157.936 81.3543 157.936H79.3203C78.5138 157.901 77.6897 157.884 76.8831 157.849L75.0596 157.761L73.3939 157.638C72.938 157.603 72.4996 157.567 72.0262 157.497L71.4827 157.392C71.1145 157.322 70.7462 157.234 70.378 157.181C69.9222 157.111 69.4663 157.058 68.9929 157.005C68.3792 156.917 67.783 156.847 67.2395 156.689C66.9589 156.619 66.6959 156.531 66.4329 156.426C65.9595 156.25 65.4861 156.074 64.9425 155.951C64.5568 155.881 64.1184 155.811 63.6976 155.776L63.3119 155.723C62.6982 155.635 62.0845 155.477 61.5059 155.301L61.2253 155.196L60.524 154.968L59.1037 154.546C57.964 154.23 56.8418 153.773 55.6495 153.492C54.2293 153.07 52.8792 152.42 51.5466 151.63C50.3367 150.892 49.0918 150.137 47.8119 149.381C47.0228 148.96 46.2513 148.362 45.5675 147.712C45.1467 147.326 44.7259 146.939 44.27 146.571C43.9369 146.307 43.6388 146.008 43.3582 145.71C43.0777 145.411 42.7972 145.095 42.5341 144.761C42.1835 144.304 41.8153 143.848 41.4295 143.408C40.9386 142.829 40.395 142.319 39.9917 141.933C39.7813 141.722 39.606 141.511 39.4131 141.3L39.0624 140.896C38.5715 140.369 38.1331 139.719 37.6246 138.911L37.0986 137.945L36.0641 136.013C35.3978 134.801 34.6965 133.606 33.9425 132.464C33.6444 132.043 33.3288 131.059 33.1009 130.356C32.9957 130.022 32.8905 129.724 32.8203 129.478C32.3469 127.932 32.0313 126.895 31.628 125.578L31.365 124.524C31.1371 123.751 30.9442 122.31 30.05 121.959C29.9097 121.906 29.7694 121.889 29.6116 121.889C29.261 121.889 28.9629 122.029 28.7349 122.275C28.1738 122.89 28.2089 124.102 28.2791 124.664C28.3667 125.349 28.4719 126.087 28.7174 126.948C28.9804 127.774 29.2259 128.582 29.5766 129.355C29.7694 129.829 29.9623 130.286 30.2078 130.848L30.8741 132.236C30.9793 132.447 31.0494 132.657 31.1195 132.868C31.2072 133.061 31.2774 133.255 31.365 133.448C31.6105 133.94 31.8384 134.432 32.1014 134.924L32.9431 136.417C33.4866 137.383 33.9776 138.367 34.5211 139.315C34.6789 139.596 34.8367 139.877 34.977 140.159L35.0998 140.457C35.1524 140.598 35.205 140.721 35.2751 140.844C35.6082 141.511 36.0466 142.073 36.4674 142.548L36.8531 142.987C37.4142 143.672 38.0104 144.322 38.6241 144.937L38.7819 145.112C39.8515 146.202 41.8328 148.239 42.7445 149.17C43.3056 149.803 43.9018 150.33 44.5155 150.804C44.7259 150.962 44.9363 151.138 45.1642 151.261L45.6903 151.56C46.0409 151.753 46.3741 151.946 46.6371 152.157C47.1631 152.596 47.8645 152.895 48.4957 153.193C48.7587 153.316 49.0217 153.422 49.2847 153.509L49.951 153.755C50.6874 154.019 51.3888 154.458 52.1427 154.915C52.8792 155.319 53.6507 155.723 54.5098 156.022C54.8605 156.145 55.2112 156.215 55.5619 156.285L56.2281 156.443C56.7366 156.566 57.2626 156.777 57.8939 156.988L58.6654 157.304C59.016 157.462 59.3843 157.603 59.7525 157.726C60.9623 158.094 62.2248 158.376 63.4521 158.709C66.8186 159.64 69.9397 160.132 72.9555 160.431L73.4815 160.484C74.0426 160.536 74.5862 160.607 75.1473 160.607C75.4278 160.607 75.6733 160.571 75.8662 160.536L76.1116 160.501C76.3922 160.484 76.6903 160.466 76.9883 160.501C77.6722 160.554 78.3735 160.677 79.1099 160.817C79.7938 160.94 80.5126 161.081 81.2666 161.116C81.9154 161.151 82.5291 161.116 83.1603 161.098H83.4233L85.9657 161.011C86.4917 161.011 87.0177 160.993 87.5438 160.958C87.8944 160.94 88.2802 160.993 88.7185 161.046C88.9289 161.063 89.1394 161.098 89.3322 161.116C89.9985 161.186 90.8051 161.221 91.6467 161.151C92.3481 161.081 92.7864 161.081 93.1722 161.063C93.8034 161.028 94.3469 161.011 95.5568 160.782C96.4159 160.607 97.0296 160.484 97.731 160.659C98.3622 160.817 99.1337 160.87 100.081 160.8C100.642 160.765 101.185 160.694 101.746 160.624C102.57 160.501 103.342 160.378 104.078 160.378C107.673 160.361 110.583 160.044 113.178 159.465C113.599 159.377 114.002 159.219 114.388 159.078C114.774 158.92 115.142 158.78 115.51 158.709C115.896 158.639 116.282 158.621 116.668 158.569C117.351 158.481 118.07 158.393 118.807 158.147C119.193 158.024 119.543 157.831 119.894 157.638C120.104 157.515 120.315 157.409 120.543 157.304C121.209 156.988 121.98 156.865 122.787 156.636C123.418 156.478 124.067 156.303 124.733 156.057C125.154 155.881 125.557 155.653 125.961 155.442L126.82 155.003C127.153 154.845 127.433 154.722 127.661 154.651C128.047 154.528 128.363 154.37 128.766 154.159C129.397 153.861 130.099 153.474 130.835 153.053C131.589 152.649 132.378 152.192 133.167 151.683L133.763 151.314C135.078 150.506 136.376 149.487 137.814 148.134L138.059 147.906C139.216 146.816 140.321 145.604 141.303 144.339C141.461 144.146 141.548 143.971 141.653 143.742C141.724 143.619 141.829 143.479 141.916 143.373L142.337 142.917C142.548 142.688 142.758 142.477 142.951 142.231C143.196 141.898 143.407 141.511 143.617 141.142L143.793 140.844C144.021 140.44 144.284 140.018 144.599 139.579C145.318 138.542 145.967 137.488 146.616 136.417L147.142 135.538C147.633 134.765 148.053 133.905 148.404 133.009C148.509 132.693 148.597 132.376 148.685 132.043C148.72 131.92 148.737 131.779 148.772 131.621C148.825 131.375 148.877 131.234 148.895 131.111C149.018 130.584 149.211 129.97 149.456 129.372L149.579 129.039C149.702 128.74 149.807 128.424 149.912 128.125C150.087 127.616 150.263 127.124 150.403 126.579C150.543 125.929 150.631 125.262 150.683 124.612V124.401C150.736 123.804 150.754 122.996 150.438 122.504C150.193 122.1 149.877 121.906 149.526 121.906C149.298 121.906 149.088 121.994 148.877 122.152L148.948 122.029Z" fill="#231F20"/>
</g>
</g>
<defs>
<clipPath id="clip0_1_11">
<rect width="180" height="180" rx="90" fill="white"/>
</clipPath>
<clipPath id="clip1_1_11">
<rect width="124" height="186" fill="white" transform="translate(28 20)"/>
</clipPath>
</defs>
</svg>
