<svg width="96" height="60" viewBox="0 0 96 60" fill="none" xmlns="http://www.w3.org/2000/svg">
<g clip-path="url(#clip0_1_11)">
<path d="M29.8529 27.1702C29.5406 27.1702 29.232 27.0159 29.0477 26.7337C28.7617 26.2897 28.8859 25.6951 29.3299 25.4092C29.4842 25.3076 32.9762 23.0724 37.3224 22.1204C37.3336 20.8372 37.4616 18.8616 38.0448 17.4995C38.8576 15.6029 40.0053 14.538 41.6648 14.1505C43.6441 13.6838 45.36 14.3386 46.7748 16.0997C47.2866 16.7356 47.6855 17.4618 48.0016 18.2069C48.3177 17.4618 48.7165 16.7356 49.2283 16.0997C50.6394 14.3424 52.359 13.6838 54.3383 14.1505C55.994 14.5418 57.1455 15.6067 57.9583 17.4995C58.5415 18.8579 58.6657 20.8372 58.677 22.1204C63.027 23.0724 66.5152 25.3113 66.6695 25.4092C67.1135 25.6951 67.2414 26.2897 66.9517 26.7337C66.6657 27.1777 66.0712 27.3057 65.6272 27.0197C65.5895 26.9971 61.8605 24.6114 57.5444 23.8513C57.0778 23.7685 56.7391 23.3584 56.7541 22.8842C56.8068 20.9237 56.5961 19.1965 56.1935 18.2596C55.6253 16.935 54.9404 16.2652 53.8943 16.0206C52.645 15.7271 51.6667 16.1222 50.7184 17.3038C49.646 18.6396 49.1605 20.5813 48.9461 21.9736C48.8746 22.4402 48.4719 22.7864 47.9978 22.7864C47.5237 22.7864 47.1248 22.444 47.0495 21.9736C46.8351 20.5813 46.3496 18.6396 45.2772 17.3038C44.3289 16.1222 43.3506 15.7271 42.1013 16.0206C41.0589 16.2652 40.3703 16.935 39.8059 18.2596C39.4033 19.1965 39.1963 20.9275 39.2452 22.8842C39.2565 23.3584 38.9216 23.7723 38.455 23.8513C34.1239 24.6152 30.4098 26.9971 30.3722 27.0197C30.2104 27.1251 30.0298 27.174 29.8529 27.174V27.1702Z" fill="#F8BAC3"/>
<path d="M51.9766 23.8031C53.779 23.8031 54.5391 24.2434 54.445 25.1841C54.3585 26.0571 53.3463 26.2227 51.9766 26.2227C50.6069 26.2227 49.5984 26.0571 49.5081 25.1841C49.414 24.2472 50.1704 23.8031 51.9766 23.8031Z" fill="#F8BAC3"/>
<path d="M43.9329 23.8141C45.2537 23.8141 46.3261 24.1377 46.3261 25.0107C46.3261 25.9326 45.6751 26.2073 43.9329 26.2073C42.6121 26.2073 41.5472 26.0492 41.5472 25.18C41.5472 24.2581 42.1906 23.8141 43.9329 23.8141Z" fill="#F8BAC3"/>
<path d="M28.9601 32.7491C28.9601 32.5723 28.9601 32.4142 28.9526 32.2825C28.9526 32.1471 28.9451 32.0191 28.9413 31.8912C28.9375 31.7633 28.9338 31.6353 28.93 31.4998C28.9263 31.3681 28.9225 31.2101 28.9225 31.0332C28.9225 30.7736 28.8472 30.6419 28.7005 30.6419C28.6102 30.6419 28.4973 30.6419 28.3543 30.6494C28.2151 30.6532 28.0645 30.657 27.9103 30.6645C27.756 30.672 27.6055 30.6758 27.4662 30.6795C27.327 30.6833 27.2104 30.6833 27.1201 30.6833C26.8755 30.6833 26.6685 30.6156 26.4954 30.4839C26.3261 30.3484 26.2395 30.149 26.2395 29.8818C26.2395 29.6447 26.311 29.4603 26.4502 29.3286C26.5895 29.2007 26.7626 29.1029 26.962 29.0464C27.1614 28.9862 27.3684 28.9486 27.5791 28.9335C27.7899 28.9185 27.9629 28.9109 28.0984 28.9109H29.3891C29.6186 28.9109 29.8294 28.9298 30.025 28.9674C30.2169 29.005 30.3825 29.0765 30.5217 29.1781C30.6572 29.2835 30.7663 29.4227 30.8454 29.6033C30.9244 29.7802 30.962 30.0173 30.962 30.3032C30.962 30.5629 30.9695 30.8714 30.9846 31.2289C30.9996 31.5864 31.0072 31.9514 31.0072 32.3315C31.0072 33.0577 30.9695 33.7012 30.8943 34.2618C30.819 34.8225 30.6873 35.2929 30.4916 35.6692C30.2997 36.0492 30.0326 36.3352 29.6901 36.5309C29.3477 36.7266 28.915 36.8244 28.3882 36.8244C27.9592 36.8244 27.5904 36.7454 27.2931 36.5836C26.9921 36.4255 26.7438 36.211 26.5518 35.9439C26.3599 35.6767 26.2169 35.3719 26.1266 35.0295C26.0363 34.6871 25.9949 34.3371 25.9949 33.9834C25.9949 33.8291 26.0175 33.6673 26.0664 33.5055C26.1153 33.3437 26.1868 33.1932 26.2847 33.0615C26.3825 32.9298 26.5029 32.8206 26.6459 32.7379C26.7889 32.6551 26.9545 32.6174 27.1426 32.6174C27.248 32.6174 27.3534 32.6287 27.4587 32.6513C27.5678 32.6739 27.6619 32.7153 27.7447 32.7755C27.8275 32.8357 27.8915 32.9147 27.9441 33.0163C27.9968 33.1179 28.0232 33.2421 28.0232 33.3888C28.0232 33.5093 28.0232 33.6673 28.0194 33.8667C28.0156 34.0662 28.0194 34.2618 28.0344 34.45C28.0495 34.6381 28.0796 34.8037 28.1248 34.9392C28.1699 35.0784 28.2414 35.1461 28.3355 35.1461C28.5876 35.1461 28.7532 34.9505 28.836 34.5629C28.9187 34.1715 28.9601 33.5657 28.9601 32.7416V32.7491Z" fill="#F8BAC3"/>
<path d="M35.0176 32.7491C35.0176 32.5723 35.0176 32.4142 35.0138 32.2825C35.01 32.1471 35.0063 32.0191 35.0025 31.8912C34.9987 31.7633 34.995 31.6353 34.9912 31.4998C34.9875 31.3644 34.9875 31.2101 34.9875 31.0332C34.9875 30.7736 34.9122 30.6419 34.7654 30.6419C34.6751 30.6419 34.5622 30.6419 34.4193 30.6494C34.2763 30.6532 34.1295 30.657 33.9752 30.6645C33.821 30.672 33.6704 30.6758 33.5312 30.6795C33.3882 30.6833 33.2753 30.6833 33.185 30.6833C32.9404 30.6833 32.7335 30.6156 32.5604 30.4839C32.391 30.3484 32.3045 30.149 32.3045 29.8818C32.3045 29.6447 32.376 29.4603 32.5152 29.3286C32.6544 29.2007 32.8275 29.1029 33.027 29.0464C33.2264 28.9862 33.4334 28.9486 33.6441 28.9335C33.8548 28.9185 34.0279 28.9109 34.1634 28.9109H35.4541C35.6836 28.9109 35.8943 28.9298 36.09 28.9674C36.2819 29.005 36.4475 29.0765 36.5867 29.1781C36.7259 29.2835 36.8313 29.4227 36.9103 29.6033C36.9893 29.7802 37.027 30.0135 37.027 30.3032C37.027 30.5629 37.0345 30.8714 37.0495 31.2289C37.0646 31.5864 37.0721 31.9514 37.0721 32.3315C37.0721 33.0577 37.0345 33.7012 36.9592 34.2618C36.884 34.8225 36.7523 35.2929 36.5566 35.6692C36.3647 36.0492 36.0975 36.3352 35.7551 36.5309C35.4127 36.7266 34.9799 36.8244 34.4531 36.8244C34.0241 36.8244 33.6554 36.7454 33.3581 36.5836C33.0571 36.4255 32.8087 36.211 32.6168 35.9439C32.4249 35.6767 32.2819 35.3719 32.1954 35.0295C32.1051 34.6871 32.0637 34.3371 32.0637 33.9834C32.0637 33.8291 32.0862 33.6673 32.1352 33.5055C32.1841 33.3437 32.2556 33.1932 32.3534 33.0615C32.4512 32.9298 32.5717 32.8206 32.7146 32.7379C32.8614 32.6551 33.0232 32.6137 33.2114 32.6137C33.3167 32.6137 33.4221 32.625 33.5274 32.6475C33.6366 32.6701 33.7306 32.7115 33.8097 32.7717C33.8924 32.8319 33.9564 32.9109 34.0091 33.0125C34.0618 33.1141 34.0881 33.2383 34.0881 33.3851C34.0881 33.5055 34.0881 33.6635 34.0806 33.863C34.0806 34.0624 34.0806 34.2581 34.0956 34.4462C34.1107 34.6344 34.1408 34.7999 34.186 34.9354C34.2311 35.0746 34.3026 35.1424 34.3967 35.1424C34.6488 35.1424 34.8144 34.9467 34.8971 34.5591C34.9799 34.1678 35.0213 33.5619 35.0213 32.7379L35.0176 32.7491Z" fill="#F8BAC3"/>
<path d="M38.1259 35.8251C38.1259 35.6256 38.1447 35.4751 38.1861 35.3811C38.2275 35.2832 38.2802 35.2155 38.3404 35.1741C38.4044 35.1327 38.4721 35.1064 38.5473 35.0951C38.6226 35.0838 38.6903 35.065 38.7543 35.0386C38.8183 35.0123 38.871 34.9709 38.9086 34.9107C38.9462 34.8505 38.9688 34.7526 38.9688 34.6097C38.9688 34.0527 38.9613 33.4394 38.9425 32.7658C38.9236 32.096 38.9161 31.4036 38.9161 30.6887C38.9161 30.5984 38.8935 30.5419 38.8484 30.5118C38.8032 30.4817 38.7505 30.4667 38.6866 30.4629C38.6226 30.4629 38.5511 30.4591 38.4758 30.4591C38.4006 30.4591 38.3291 30.4441 38.2651 30.414C38.2012 30.3839 38.1485 30.3312 38.1033 30.2522C38.0582 30.1732 38.0356 30.0527 38.0356 29.8909C38.0356 29.6087 38.1221 29.4018 38.2915 29.2663C38.4608 29.1308 38.664 29.0367 38.8935 28.9841C39.1231 28.9276 39.3564 28.9013 39.5934 28.905C39.8305 28.9088 40.0186 28.9126 40.1616 28.9126C40.2896 28.9126 40.4514 28.9163 40.6583 28.9276C40.8615 28.9389 41.061 28.9728 41.2529 29.0292C41.4448 29.0857 41.6141 29.1722 41.7534 29.2964C41.8964 29.4206 41.9641 29.5861 41.9641 29.8044C41.9641 30.0038 41.8738 30.1581 41.6894 30.2672C41.5088 30.3764 41.3131 30.4479 41.1061 30.4855C41.076 30.493 41.0497 30.5005 41.0234 30.5081C40.997 30.5156 40.9857 30.5382 40.9857 30.5758C40.9857 31.1252 40.9895 31.6407 41.0008 32.1224C41.0121 32.604 41.0158 33.1195 41.0158 33.6689C41.0158 33.8834 41.0121 34.0791 41.0045 34.2522C40.997 34.4253 40.9932 34.5984 40.9932 34.7715C40.9932 34.8994 41.0158 34.9859 41.061 35.0386C41.1061 35.0913 41.1626 35.1252 41.2266 35.1402C41.2943 35.1553 41.3658 35.1628 41.4486 35.1666C41.5314 35.1703 41.6028 35.1891 41.6706 35.2268C41.7383 35.2644 41.791 35.3246 41.8361 35.4112C41.8813 35.4977 41.9039 35.6294 41.9039 35.8063C41.9039 36.0584 41.8249 36.2541 41.6631 36.3895C41.5012 36.5288 41.3131 36.6266 41.0911 36.6906C40.8691 36.7545 40.6433 36.7884 40.41 36.7959C40.1805 36.8034 39.9923 36.8072 39.8531 36.8072C39.7139 36.8072 39.5408 36.8072 39.3413 36.7959C39.1419 36.7884 38.95 36.7545 38.7694 36.6906C38.5887 36.6266 38.4345 36.5288 38.3065 36.3971C38.1786 36.2616 38.1184 36.0734 38.1184 35.8288L38.1259 35.8251Z" fill="#F8BAC3"/>
<path d="M47.5143 36.8263C47.3073 36.8263 47.1041 36.7398 46.9122 36.5704C46.7203 36.4011 46.5397 36.1866 46.3704 35.9345C46.2048 35.6824 46.0505 35.4077 45.9075 35.1104C45.7683 34.8132 45.6404 34.5385 45.5275 34.2863C45.4146 34.0342 45.3167 33.8235 45.234 33.6504C45.1474 33.4811 45.0834 33.3945 45.0383 33.3945C45.0082 33.3945 44.9856 33.4096 44.9706 33.4434C44.9555 33.4773 44.9442 33.5149 44.9367 33.5601C44.9292 33.6053 44.9254 33.6504 44.9254 33.6956V33.7859C44.9254 34.0229 44.9593 34.2826 45.027 34.5648C45.0947 34.847 45.1286 35.1067 45.1286 35.3437C45.1286 35.4754 45.1248 35.6297 45.1098 35.799C45.0985 35.9684 45.0609 36.1339 44.9969 36.2882C44.9329 36.4425 44.8351 36.5742 44.6959 36.6796C44.5566 36.7849 44.361 36.8338 44.1013 36.8338C43.8116 36.8338 43.5896 36.7134 43.439 36.4726C43.2885 36.2318 43.1756 35.9232 43.1041 35.5432C43.0326 35.1631 42.995 34.7417 42.9875 34.2751C42.98 33.8084 42.9762 33.3456 42.9762 32.8941C42.9762 32.6043 42.9762 32.3146 42.98 32.0211C42.9837 31.7275 42.9837 31.4378 42.9837 31.1481C42.9837 30.8809 43.0025 30.6137 43.0402 30.3465C43.0778 30.0794 43.1418 29.8386 43.2358 29.6278C43.3299 29.4171 43.4579 29.244 43.6272 29.1161C43.7928 28.9881 44.011 28.9204 44.2782 28.9204C44.4776 28.9204 44.6808 29.0145 44.8802 29.2026C45.0797 29.3908 45.2754 29.6316 45.4597 29.9213C45.6441 30.2111 45.821 30.5196 45.9903 30.8508C46.1559 31.1819 46.3064 31.4905 46.4343 31.7802C46.566 32.07 46.6752 32.3108 46.7692 32.4989C46.8633 32.6871 46.9235 32.7812 46.9536 32.7812C46.9988 32.7812 47.0251 32.7398 47.0326 32.6532C47.0402 32.5667 47.0402 32.514 47.0326 32.4914C46.9649 32.0926 46.916 31.6786 46.8821 31.2534C46.8483 30.832 46.852 30.4444 46.8934 30.0944C46.9348 29.7445 47.0214 29.4585 47.1568 29.2365C47.2923 29.0145 47.4955 28.9016 47.7702 28.9016C48.075 28.9016 48.3083 28.9467 48.4663 29.0408C48.6244 29.1349 48.7448 29.2628 48.8238 29.4246C48.9028 29.5864 48.948 29.7821 48.9593 30.0079C48.9706 30.2337 48.9781 30.482 48.9781 30.7492C48.9781 31.0164 48.9743 31.3287 48.9668 31.6636C48.9593 31.9985 48.9517 32.3259 48.9404 32.6419C48.9292 32.9618 48.9216 33.2515 48.9141 33.5149C48.9066 33.7783 48.9028 33.9778 48.9028 34.1095C48.9028 34.4895 48.8878 34.8433 48.8652 35.1744C48.8388 35.5055 48.7786 35.7915 48.6883 36.0323C48.5943 36.2732 48.4588 36.4651 48.2744 36.6043C48.0938 36.7435 47.8417 36.815 47.5218 36.815L47.5143 36.8263Z" fill="#F8BAC3"/>
<path d="M53.2261 34.7338C53.3804 34.7338 53.5158 34.7112 53.6287 34.6623C53.7416 34.6134 53.8281 34.5532 53.8959 34.4779C53.9636 34.4027 54.0125 34.3236 54.0426 34.2371C54.0727 34.1505 54.0878 34.0753 54.0878 34.0076C54.0878 33.8232 53.9787 33.7291 53.7642 33.7291C53.6889 33.7291 53.8281 33.7291 53.7416 33.7329C53.6513 33.7366 53.5346 33.7404 53.3841 33.7479C53.1245 33.763 52.9551 33.7028 52.8761 33.5711C52.7971 33.4394 52.7595 33.2512 52.7595 33.0141C52.7595 32.6717 52.9213 32.4008 53.2411 32.2616C53.3954 32.1938 53.5723 32.1562 53.7378 32.1449C53.9297 32.1299 53.9072 32.1223 54.1179 32.1223C54.355 32.1223 54.5883 32.1411 54.814 32.1825C55.0398 32.2239 55.2468 32.3067 55.4312 32.4271C55.6155 32.5513 55.7661 32.7282 55.8752 32.9615C55.9881 33.1948 56.0407 33.5108 56.0407 33.9022C56.0407 34.3312 55.9655 34.73 55.8187 35.095C55.672 35.4601 55.465 35.7724 55.2016 36.032C54.9382 36.2917 54.6296 36.4949 54.2722 36.6378C53.9147 36.7846 53.5271 36.8561 53.1019 36.8561C52.6767 36.8561 52.2665 36.7884 51.8865 36.6491C51.5064 36.5099 51.179 36.2879 50.8968 35.9793C50.6146 35.6708 50.3926 35.2719 50.227 34.7752C50.0652 34.2823 49.9824 33.6839 49.9824 32.9765C49.9824 31.5579 50.2646 30.508 50.8216 29.8307C51.3822 29.1496 52.2026 28.8109 53.2788 28.8109C54.1254 28.8109 54.7726 28.9577 55.228 29.2512C55.6155 29.5033 55.8375 29.906 55.8902 30.3575C55.9391 30.7564 55.8902 31.2757 55.5553 31.5504C55.4537 31.6331 55.3408 31.6858 55.2167 31.7122C55.0887 31.7385 54.9721 31.7498 54.8592 31.7498C54.6447 31.7498 54.4227 31.7009 54.2345 31.588C54.1405 31.5315 54.0539 31.46 53.9862 31.3735C53.9147 31.2832 53.8846 31.1741 53.8281 31.0762C53.7755 30.9822 53.6964 30.9031 53.6024 30.8467C53.4707 30.7639 53.3239 30.7225 53.1508 30.7225C52.9439 30.7225 52.7708 30.794 52.6391 30.9332C52.5036 31.0725 52.3982 31.2531 52.3154 31.4713C52.2327 31.6896 52.1762 31.9304 52.1423 32.1938C52.1085 32.4572 52.0934 32.7131 52.0934 32.9577C52.0934 33.1722 52.116 33.3867 52.1612 33.5974C52.2063 33.8081 52.274 34 52.3681 34.1656C52.4622 34.3312 52.5788 34.4666 52.7181 34.5682C52.8573 34.6698 53.0266 34.7188 53.2185 34.7188L53.2261 34.7338Z" fill="#F8BAC3"/>
<path d="M60.2198 34.7338C60.3741 34.7338 60.5096 34.7112 60.6225 34.6623C60.7354 34.6134 60.8219 34.5532 60.8896 34.4779C60.9574 34.4027 61.0063 34.3236 61.0364 34.2371C61.0665 34.1505 61.0816 34.0753 61.0816 34.0076C61.0816 33.8232 60.9724 33.7291 60.7579 33.7291C60.6827 33.7291 60.8219 33.7291 60.7354 33.7329C60.6451 33.7366 60.5284 33.7404 60.3779 33.7479C60.1182 33.763 59.9489 33.7028 59.8699 33.5711C59.7909 33.4394 59.7532 33.2512 59.7532 33.0141C59.7532 32.6717 59.9151 32.4008 60.2349 32.2616C60.3892 32.1938 60.566 32.1562 60.7316 32.1449C60.9235 32.1299 60.9047 32.1223 61.1117 32.1223C61.3487 32.1223 61.582 32.1411 61.8078 32.1825C62.0336 32.2239 62.2405 32.3067 62.4249 32.4271C62.6093 32.5513 62.7598 32.7282 62.869 32.9615C62.9818 33.1948 63.0345 33.5108 63.0345 33.9022C63.0345 34.3312 62.9593 34.73 62.8125 35.095C62.6658 35.4601 62.4588 35.7724 62.1954 36.032C61.932 36.2917 61.6234 36.4949 61.2659 36.6378C60.9085 36.7846 60.5209 36.8561 60.0957 36.8561C59.6705 36.8561 59.2603 36.7884 58.8802 36.6491C58.5002 36.5099 58.1728 36.2879 57.8906 35.9793C57.6084 35.6708 57.3864 35.2719 57.2208 34.7752C57.059 34.2823 56.9762 33.6839 56.9762 32.9765C56.9762 31.5579 57.2584 30.508 57.8153 29.8307C58.3722 29.1534 59.1963 28.8109 60.2725 28.8109C61.1192 28.8109 61.7702 28.9577 62.2217 29.2512C62.6093 29.5033 62.8313 29.906 62.884 30.3575C62.9329 30.7564 62.884 31.2757 62.5491 31.5504C62.4475 31.6331 62.3346 31.6858 62.2104 31.7122C62.0825 31.7385 61.9658 31.7498 61.853 31.7498C61.6385 31.7498 61.4165 31.7009 61.2283 31.588C61.1342 31.5315 61.0477 31.46 60.98 31.3735C60.9085 31.2832 60.8784 31.1741 60.8219 31.0762C60.7692 30.9822 60.6902 30.9031 60.5961 30.8467C60.4644 30.7639 60.3177 30.7263 60.1446 30.7263C59.9376 30.7263 59.7645 30.7978 59.6328 30.937C59.4974 31.0762 59.392 31.2569 59.3092 31.4751C59.2264 31.6934 59.17 31.9342 59.1361 32.1976C59.1023 32.461 59.0872 32.7169 59.0872 32.9615C59.0872 33.1759 59.1098 33.3904 59.1549 33.6012C59.2001 33.8119 59.2678 34.0038 59.3619 34.1694C59.456 34.3349 59.5726 34.4704 59.7118 34.572C59.8511 34.6736 60.0204 34.7225 60.2123 34.7225L60.2198 34.7338Z" fill="#F8BAC3"/>
<path d="M67.0684 36.8599C66.3346 36.8599 65.7626 36.7282 65.36 36.4648C64.9536 36.2014 64.6563 35.859 64.4682 35.4413C64.28 35.0236 64.1634 34.5495 64.1295 34.0226C64.0919 33.4958 64.0731 32.9653 64.0731 32.4309C64.0731 31.9493 64.0806 31.4977 64.0994 31.0763C64.1182 30.6586 64.1671 30.2861 64.2424 29.97C64.3214 29.6501 64.4381 29.4018 64.5999 29.2174C64.7579 29.0368 64.9837 28.9464 65.2734 28.9464C65.518 28.9464 65.7062 29.0104 65.8416 29.1346C65.9733 29.2625 66.0749 29.4168 66.1427 29.6087C66.2104 29.7969 66.2518 30.0001 66.2631 30.2146C66.2781 30.429 66.2857 30.6322 66.2857 30.8166C66.2857 31.2042 66.2781 31.588 66.2631 31.9756C66.248 32.3632 66.2405 32.747 66.2405 33.1346C66.2405 33.3115 66.248 33.5034 66.2631 33.7066C66.2781 33.9098 66.312 34.1017 66.3684 34.2785C66.4249 34.4554 66.5039 34.6059 66.6093 34.7226C66.7146 34.843 66.8539 34.8994 67.0307 34.8994C67.2527 34.8994 67.4258 34.8392 67.55 34.715C67.6742 34.5909 67.7645 34.414 67.8209 34.1732C67.8811 33.9361 67.915 33.6426 67.9263 33.3002C67.9376 32.954 67.9451 32.5589 67.9451 32.1148C67.9451 31.7273 67.9338 31.3472 67.9113 30.9671C67.8887 30.5871 67.8774 30.207 67.8774 29.8195C67.8774 29.5222 67.9677 29.2926 68.1446 29.1346C68.3214 28.9766 68.551 28.8938 68.8219 28.8938C69.0665 28.8938 69.2697 28.9427 69.424 29.0368C69.5782 29.1346 69.6986 29.2663 69.7852 29.4394C69.8717 29.6087 69.9282 29.8157 69.9583 30.0528C69.9884 30.2898 70.0034 30.5532 70.0034 30.843V31.9229C70.0034 32.318 69.9959 32.7131 69.9809 33.1083C69.9658 33.5071 69.9282 33.8872 69.868 34.2484C69.8078 34.6134 69.7175 34.9521 69.5895 35.2719C69.4616 35.5918 69.2923 35.8665 69.0778 36.0998C68.8633 36.3331 68.5886 36.5175 68.2612 36.6492C67.9301 36.7846 67.5312 36.8486 67.0646 36.8486L67.0684 36.8599Z" fill="#F8BAC3"/>
<path d="M40.4119 45.9439C40.2426 45.9439 40.0695 45.8762 39.9002 45.7445C39.7308 45.609 39.569 45.4472 39.4147 45.2478C39.2642 45.0521 39.1175 44.8376 38.982 44.6081C38.8428 44.3785 38.7186 44.1641 38.6019 43.9684C38.4853 43.7727 38.3837 43.6071 38.2971 43.4717C38.2068 43.3362 38.1391 43.2722 38.0864 43.2722C37.9321 43.2722 37.8531 43.4115 37.8531 43.6862C37.8531 43.8179 37.8531 43.9722 37.8644 44.149C37.8719 44.3221 37.8644 44.5027 37.8531 44.6909C37.8456 44.8527 37.8268 45.0107 37.7929 45.1575C37.759 45.308 37.7064 45.4397 37.6311 45.5601C37.5558 45.6805 37.4618 45.7746 37.3414 45.8461C37.2209 45.9176 37.0742 45.9515 36.8973 45.9515C36.6151 45.9515 36.3969 45.8499 36.2463 45.6504C36.0958 45.451 35.9829 45.2102 35.9114 44.9279C35.8399 44.6457 35.7986 44.356 35.7873 44.0549C35.776 43.7539 35.7722 43.5093 35.7722 43.3136C35.7722 43.118 35.7722 42.8884 35.7647 42.6401C35.7647 42.3917 35.7609 42.1358 35.7609 41.8762C35.7609 41.6166 35.7609 41.3607 35.7534 41.1123C35.7496 40.864 35.7496 40.6382 35.7496 40.4388C35.7496 40.2243 35.7572 39.9797 35.776 39.7087C35.7948 39.4378 35.8437 39.1819 35.9265 38.9411C36.0093 38.7003 36.1335 38.4971 36.3065 38.3277C36.4759 38.1622 36.7129 38.0756 37.0177 38.0756C37.2172 38.0756 37.379 38.1057 37.5032 38.1697C37.6273 38.2337 37.7214 38.3202 37.7854 38.4293C37.8531 38.5422 37.8983 38.6702 37.9208 38.8132C37.9434 38.9562 37.9547 39.1104 37.9547 39.276C37.9547 39.4265 37.951 39.6034 37.9397 39.8103C37.9284 40.0173 37.9246 40.1942 37.9246 40.3334C37.9246 40.3785 37.9321 40.4388 37.9397 40.5102C37.951 40.5855 37.9848 40.6231 38.045 40.6231C38.0977 40.6231 38.1692 40.5592 38.2633 40.435C38.3573 40.3108 38.4627 40.1528 38.5869 39.9609C38.7111 39.7727 38.8465 39.5658 39.0008 39.3475C39.1513 39.1293 39.3131 38.9223 39.4787 38.7341C39.6443 38.546 39.8174 38.388 39.9905 38.26C40.1636 38.1358 40.3367 38.0719 40.5097 38.0719C40.6565 38.0719 40.7882 38.1057 40.9049 38.1772C41.0215 38.2487 41.1193 38.339 41.2059 38.4519C41.2924 38.5648 41.3564 38.6928 41.4016 38.8433C41.4467 38.9938 41.4693 39.1443 41.4693 39.2986C41.4693 39.4905 41.4204 39.6862 41.3225 39.8781C41.2247 40.07 41.1081 40.2619 40.9651 40.4463C40.8258 40.6307 40.6716 40.8075 40.5022 40.9769C40.3329 41.1424 40.1824 41.2967 40.0394 41.4397C39.9002 41.5789 39.7797 41.7031 39.6819 41.8009C39.5841 41.9025 39.5351 41.9816 39.5351 42.0418C39.5351 42.102 39.554 42.1547 39.5841 42.2036C39.6179 42.2525 39.6556 42.2939 39.7007 42.3315C39.8851 42.4783 40.0883 42.6438 40.3028 42.8282C40.5173 43.0088 40.7205 43.2045 40.9049 43.4115C41.0892 43.6184 41.2435 43.8292 41.3677 44.0474C41.4919 44.2619 41.5521 44.4764 41.5521 44.6946C41.5521 45.0747 41.4542 45.3795 41.2586 45.609C41.0629 45.8386 40.7807 45.9552 40.4194 45.9552L40.4119 45.9439Z" fill="#F8BAC3"/>
<path d="M42.5024 44.9657C42.5024 44.7663 42.5212 44.6158 42.5626 44.5217C42.604 44.4238 42.6567 44.3561 42.7169 44.3147C42.7809 44.2733 42.8486 44.247 42.9239 44.2357C42.9991 44.2244 43.0669 44.2056 43.1308 44.1793C43.1948 44.1529 43.2475 44.1115 43.2851 44.0513C43.3265 43.9911 43.3453 43.8933 43.3453 43.7503C43.3453 43.1934 43.3378 42.58 43.319 41.9064C43.3002 41.2366 43.2926 40.5443 43.2926 39.8293C43.2926 39.739 43.2701 39.6825 43.2249 39.6524C43.1797 39.6223 43.1271 39.6073 43.0631 39.6035C42.9991 39.6035 42.9276 39.5998 42.8524 39.5998C42.7771 39.5998 42.7019 39.5847 42.6416 39.5546C42.5777 39.5245 42.525 39.4718 42.4798 39.3928C42.4347 39.3138 42.4121 39.1934 42.4121 39.0316C42.4121 38.7493 42.4987 38.5424 42.668 38.4069C42.8373 38.2714 43.0405 38.1774 43.2701 38.1247C43.4996 38.0682 43.7329 38.0419 43.97 38.0457C44.207 38.0494 44.3989 38.0532 44.5382 38.0532C44.6661 38.0532 44.8279 38.057 45.0349 38.0682C45.2381 38.0795 45.4375 38.1134 45.6294 38.1698C45.8213 38.2263 45.9907 38.3128 46.1299 38.437C46.2691 38.5612 46.3406 38.7268 46.3406 38.945C46.3406 39.1444 46.2503 39.2987 46.0697 39.4079C45.8853 39.517 45.6934 39.5885 45.4864 39.6261C45.4563 39.6336 45.43 39.6412 45.4036 39.6487C45.3773 39.6562 45.366 39.6788 45.366 39.7164C45.366 40.2658 45.3735 40.7813 45.3848 41.263C45.3961 41.7446 45.3999 42.2602 45.3999 42.8095C45.3999 43.024 45.3999 43.2197 45.3886 43.3928C45.3811 43.5659 45.3773 43.739 45.3773 43.9121C45.3773 44.04 45.3999 44.1266 45.445 44.1793C45.4902 44.2319 45.5466 44.2658 45.6106 44.2809C45.6783 44.2959 45.7498 44.3034 45.8326 44.3072C45.9154 44.311 45.9869 44.3298 46.0546 44.3674C46.1224 44.405 46.1788 44.4652 46.2202 44.5518C46.2654 44.6383 46.2879 44.77 46.2879 44.9469C46.2879 45.199 46.2089 45.3947 46.0471 45.5301C45.8853 45.6694 45.6972 45.7672 45.4751 45.8312C45.2531 45.8952 45.0236 45.929 44.794 45.9365C44.5645 45.9441 44.3801 45.9478 44.2371 45.9478C44.0941 45.9478 43.9248 45.9478 43.7254 45.9365C43.5259 45.929 43.334 45.8952 43.1534 45.8312C42.969 45.7672 42.8185 45.6694 42.6906 45.5377C42.5626 45.4022 42.5024 45.2141 42.5024 44.9695V44.9657Z" fill="#F8BAC3"/>
<path d="M51.8902 45.9669C51.6833 45.9669 51.4801 45.8804 51.2882 45.7111C51.0963 45.5417 50.9156 45.3272 50.7463 45.0751C50.5807 44.823 50.4265 44.5483 50.2835 44.251C50.1442 43.9538 50.0163 43.6791 49.9034 43.427C49.7905 43.1748 49.6927 42.9641 49.6099 42.791C49.5233 42.6217 49.4594 42.5352 49.4142 42.5352C49.3841 42.5352 49.3615 42.5502 49.3465 42.5841C49.3314 42.6179 49.3201 42.6556 49.3126 42.7007C49.3051 42.7459 49.3013 42.791 49.3013 42.8362V42.9265C49.3013 43.1636 49.3352 43.4232 49.4029 43.7054C49.4707 43.9876 49.5045 44.2473 49.5045 44.4844C49.5045 44.6161 49.5008 44.7703 49.4895 44.9397C49.4782 45.109 49.4406 45.2746 49.3766 45.4288C49.3126 45.5831 49.2148 45.7148 49.0756 45.8202C48.9363 45.9256 48.7407 45.9745 48.481 45.9745C48.1913 45.9745 47.9693 45.8541 47.8187 45.6132C47.6682 45.3724 47.5553 45.0638 47.4838 44.6838C47.4123 44.3037 47.3747 43.8823 47.3672 43.4157C47.3597 42.9491 47.3559 42.4862 47.3559 42.0347C47.3559 41.7449 47.3559 41.4552 47.3634 41.1617C47.3634 40.8682 47.3672 40.5784 47.3672 40.2887C47.3672 40.0215 47.386 39.7543 47.4236 39.4872C47.4613 39.22 47.5252 38.9792 47.6193 38.7685C47.7134 38.5577 47.8413 38.3846 48.0106 38.2567C48.1762 38.1288 48.3945 38.061 48.6616 38.061C48.8611 38.061 49.0643 38.1551 49.2637 38.3432C49.4631 38.5314 49.655 38.7722 49.8432 39.062C50.0276 39.3517 50.2044 39.6603 50.3738 39.9914C50.5393 40.3225 50.6899 40.6311 50.8178 40.9209C50.9495 41.2106 51.0586 41.4514 51.1527 41.6396C51.2468 41.8277 51.307 41.9218 51.3371 41.9218C51.3822 41.9218 51.4086 41.8804 51.4161 41.7939C51.4236 41.7073 51.4236 41.6546 51.4161 41.632C51.3484 41.2294 51.2995 40.8193 51.2656 40.394C51.2317 39.9726 51.2355 39.585 51.2769 39.2351C51.3183 38.8851 51.4048 38.5991 51.5403 38.3771C51.672 38.1551 51.8789 38.0422 52.1536 38.0422C52.4584 38.0422 52.688 38.0874 52.8498 38.1814C53.0078 38.2755 53.1282 38.4034 53.2073 38.5653C53.2863 38.7271 53.3314 38.9227 53.3427 39.1485C53.354 39.3743 53.3578 39.6226 53.3578 39.8898C53.3578 40.157 53.354 40.4693 53.3465 40.8042C53.339 41.1391 53.3277 41.4665 53.3201 41.7826C53.3089 42.1024 53.3013 42.3922 53.2938 42.6556C53.2863 42.919 53.2825 43.1184 53.2825 43.2501C53.2825 43.6302 53.2675 43.9839 53.2449 44.315C53.2185 44.6462 53.1583 44.9321 53.068 45.173C52.974 45.4138 52.8385 45.6057 52.6579 45.7449C52.4735 45.8842 52.2251 45.9557 51.9053 45.9557L51.8902 45.9669Z" fill="#F8BAC3"/>
<path d="M57.6035 43.8744C57.7578 43.8744 57.8932 43.8518 58.0061 43.8029C58.119 43.754 58.2056 43.6938 58.2733 43.6185C58.341 43.5433 58.3899 43.4643 58.4163 43.3777C58.4464 43.2912 58.4614 43.2159 58.4614 43.1482C58.4614 42.9638 58.3523 42.8697 58.1378 42.8697C58.0626 42.8697 58.2018 42.8697 58.1153 42.8735C58.0249 42.8773 57.9083 42.881 57.7578 42.8885C57.4981 42.9036 57.3288 42.8434 57.2498 42.7117C57.1708 42.58 57.1331 42.3918 57.1331 42.1548C57.1331 41.8123 57.2949 41.5414 57.6148 41.4022C57.7691 41.3344 57.9459 41.2968 58.1115 41.2855C58.3034 41.2705 58.2808 41.263 58.4915 41.263C58.7286 41.263 58.9619 41.2818 59.1877 41.3232C59.4135 41.3646 59.6204 41.4473 59.8048 41.5677C59.9892 41.6919 60.1397 41.8688 60.2488 42.1021C60.3617 42.3354 60.4144 42.6515 60.4144 43.0428C60.4144 43.4718 60.3391 43.8707 60.1924 44.2357C60.0456 44.6007 59.8387 44.913 59.5753 45.1726C59.3119 45.4323 59.0033 45.6355 58.6458 45.7785C58.2883 45.9215 57.9008 45.9967 57.4756 45.9967C57.0503 45.9967 56.6402 45.929 56.2601 45.7898C55.8801 45.6505 55.5527 45.4285 55.2705 45.12C54.9883 44.8114 54.7662 44.4125 54.6007 43.9158C54.4389 43.4229 54.3561 42.8246 54.3561 42.1171C54.3561 40.6985 54.6383 39.6487 55.1952 38.9713C55.7559 38.2902 56.5762 37.9516 57.6524 37.9516C58.4991 37.9516 59.1501 38.0983 59.6016 38.3918C59.9892 38.6439 60.2112 39.0466 60.2639 39.4981C60.3128 39.897 60.2639 40.4163 59.929 40.691C59.8274 40.7738 59.7145 40.8265 59.5903 40.8528C59.4624 40.8791 59.3457 40.8904 59.2328 40.8904C59.0184 40.8904 58.7963 40.8415 58.6082 40.7286C58.5141 40.6722 58.4276 40.6007 58.3598 40.5141C58.2883 40.4238 58.2582 40.3147 58.2018 40.2169C58.1491 40.1228 58.0701 40.0438 57.976 39.9873C57.8443 39.9045 57.6976 39.8631 57.5245 39.8631C57.3175 39.8631 57.1444 39.9346 57.0127 40.0739C56.8772 40.2131 56.7719 40.3937 56.6891 40.612C56.6063 40.8302 56.5499 41.071 56.516 41.3344C56.4821 41.5979 56.4671 41.8537 56.4671 42.0983C56.4671 42.3128 56.4897 42.5273 56.5348 42.738C56.58 42.9487 56.6477 43.1407 56.7418 43.3062C56.8359 43.4718 56.9525 43.6073 57.0917 43.7089C57.231 43.8105 57.4003 43.8594 57.5922 43.8594L57.6035 43.8744Z" fill="#F8BAC3"/>
</g>
<defs>
<clipPath id="clip0_1_11">
<rect width="44.0113" height="32" fill="white" transform="translate(25.9936 14)"/>
</clipPath>
</defs>
</svg>
