<svg width="97" height="60" viewBox="0 0 97 60" fill="none" xmlns="http://www.w3.org/2000/svg">
<g clip-path="url(#clip0_1_243)">
<g clip-path="url(#clip1_1_243)">
<path d="M23.9879 36.9053C24.0556 36.9956 24.1121 37.052 24.1855 37.1085C24.2532 37.1593 24.2927 37.2326 24.2983 37.3173C24.3153 37.5657 24.3999 37.8197 24.5467 38.0454C24.7217 38.2769 25.049 38.4688 25.3821 38.5309C25.5514 38.5534 25.7828 38.576 25.9691 38.5817C26.0142 38.5817 26.0763 38.5873 26.1328 38.5986C26.1779 38.6042 26.2118 38.6099 26.2457 38.6099C26.6069 38.6099 26.9286 38.4406 27.1318 38.147C27.3576 37.8253 27.3858 37.4133 27.2221 37.0012C27.1996 36.9504 27.1939 36.8996 27.2052 36.8432C27.2278 36.7077 27.2504 36.5497 27.256 36.3465C27.256 36.0022 27.1262 35.7312 26.8553 35.5224C26.7424 35.4377 26.7085 35.2853 26.7706 35.1555L26.8214 35.0539C26.9173 34.7886 26.8891 34.4048 26.7311 34.0605C26.59 33.7557 26.3642 33.5243 26.1046 33.4227C26.0425 33.4057 25.9917 33.3775 25.9522 33.3324C25.8957 33.2703 25.8562 33.1856 25.8731 33.1009C25.9183 32.7736 25.8731 32.4688 25.732 32.1922C25.6361 31.9946 25.5232 31.8648 25.3708 31.7689C25.241 31.6898 25.1958 31.5149 25.2748 31.3794C25.6135 30.7924 25.732 30.386 25.4667 29.8046C25.2692 29.4208 24.9587 29.1442 24.5523 28.9918C24.4056 28.9354 24.3266 28.7717 24.3774 28.6193C24.3999 28.5516 24.4112 28.45 24.4225 28.3427L24.4395 28.1621C24.4564 27.8855 24.3999 27.338 23.8073 27.005C23.717 26.9542 23.6605 26.8526 23.6605 26.751C23.6605 26.7171 23.6605 26.6437 23.6887 26.5591C23.7283 26.0793 23.6718 25.8818 23.3839 25.4866L23.2485 25.3907C23.1412 25.3117 23.0961 25.1762 23.1412 25.0577C23.3106 24.5835 23.2936 24.1997 23.0961 23.8498C23.0227 23.7425 22.938 23.6127 22.8477 23.5393C22.7631 23.4716 22.7179 23.3531 22.7461 23.2458C22.8421 22.8451 22.8195 22.4274 22.6897 22.2129C22.0462 21.2251 20.4545 21.2646 19.5345 21.6033C18.8966 21.8573 18.6878 22.1 18.5354 22.766C18.5411 23.037 18.6088 23.3587 18.7612 23.7143C18.7781 23.7482 18.7838 23.7877 18.7838 23.8272C18.7838 23.9062 18.7443 24.0022 18.6878 24.053C18.6652 24.0699 18.6426 24.0868 18.6201 24.0981C18.1347 24.4876 18.0048 24.8263 18.0839 25.4754C18.0895 25.5036 18.1403 25.6108 18.1911 25.7124L18.2814 25.91C18.3379 26.0398 18.2927 26.1922 18.1742 26.2712C17.9653 26.4067 17.8355 26.5647 17.7678 26.7566C17.5984 27.1969 17.6041 27.6541 17.7791 28.1C17.8299 28.2298 17.7791 28.3822 17.6662 28.4556C17.4065 28.6193 17.2654 28.8846 17.1751 29.3644C17.1582 29.5958 17.192 29.878 17.2823 30.1207C17.3388 30.2731 17.2598 30.4368 17.1074 30.4932L16.955 30.5497C16.5768 30.8488 16.4639 31.0407 16.351 31.5487C16.3567 31.8761 16.4244 32.1866 16.5599 32.4236C16.605 32.497 16.6107 32.5873 16.5824 32.6663C16.5542 32.751 16.4921 32.8131 16.4131 32.8413L16.2607 32.8977C15.8825 33.1969 15.7979 33.3549 15.685 33.8968C15.685 33.9758 15.7076 34.0774 15.7245 34.1903C15.7414 34.3088 15.6963 34.4725 15.5947 34.5346C15.4931 34.5967 15.3915 34.6757 15.3068 34.7604C15.002 35.1047 14.9907 35.5506 15.0415 35.8554C15.0585 35.9739 15.0077 36.0812 14.9117 36.1433C14.5617 36.3747 14.3698 36.719 14.3924 37.0972C14.4206 37.5318 14.7311 37.9326 15.2447 38.1978C15.4818 38.2374 15.7076 38.2882 15.9333 38.3333C16.7066 38.5083 17.3162 38.6438 18.0218 38.1809C18.4338 37.6334 18.4959 37.3342 18.3209 36.7642C18.2871 36.6626 18.3209 36.5497 18.3943 36.4707C18.4733 36.3973 18.5298 36.3183 18.5975 36.211C18.8458 35.8667 18.9531 35.3418 18.8854 34.8564C18.8741 34.7717 18.9023 34.687 18.9587 34.6249C19.0152 34.5628 19.0942 34.5233 19.1789 34.5233H19.2748C19.3877 34.5064 19.5232 34.4556 19.6078 34.4217C19.6982 34.3879 19.7998 34.3992 19.8844 34.4556C19.907 34.4556 19.9239 34.4612 19.9409 34.4725C20.2287 34.5854 20.4997 34.5911 20.8101 34.4951C20.8891 34.4725 20.9738 34.4838 21.0472 34.5233C21.606 34.8676 22.1083 34.7378 22.43 34.5685C22.4696 34.5459 22.5204 34.5346 22.5655 34.5346C22.5994 34.5346 22.6332 34.5403 22.6671 34.5516C22.7461 34.5798 22.8082 34.6419 22.8364 34.7152C22.938 34.958 23.1469 35.1781 23.4235 35.3418C23.446 35.3531 23.4686 35.37 23.4855 35.3926C23.4855 35.3926 23.5759 35.4321 23.5815 35.4321C23.7 35.4942 23.7678 35.624 23.7395 35.7538C23.6436 36.211 23.7226 36.5779 23.9879 36.8771M21.86 31.1988C21.7866 31.323 21.6285 31.3681 21.4987 31.3173C21.1883 31.1819 20.7819 31.2101 20.4714 31.3738C20.4263 31.3963 20.3811 31.4076 20.336 31.4076C20.2852 31.4076 20.2287 31.3907 20.1836 31.3625C20.0989 31.3117 20.0425 31.2157 20.0425 31.1085V30.9617C20.0707 30.7472 20.0707 30.5723 20.0707 30.3916C20.0707 30.307 20.1102 30.2054 20.1779 30.1489C20.4319 29.9344 20.6351 29.5901 20.7254 29.2007C20.748 29.0991 20.827 29.0144 20.9286 28.9862C21.0302 28.958 21.1431 28.9862 21.2165 29.0596C21.2786 29.1216 21.335 29.2345 21.3237 29.3248C21.2729 29.7595 21.3407 30.1263 21.5269 30.4481C21.6173 30.6061 21.6963 30.7247 21.8035 30.815C21.9164 30.9053 21.939 31.069 21.8656 31.1931" fill="#FFDC69"/>
<path d="M39.8935 37.6169C39.9104 37.5774 39.9387 37.5491 39.9669 37.5209C40.0967 37.4137 40.2209 37.2782 40.3676 37.0863C40.5821 36.5275 40.5313 35.9913 40.2209 35.6639C40.1927 35.6357 40.1701 35.5962 40.1588 35.5567C39.9951 35.06 39.6734 34.7157 39.2839 34.6141C38.9509 34.5294 38.6009 34.6141 38.3244 34.8624C38.2341 34.9414 38.1042 34.9584 37.997 34.9076C37.7938 34.806 37.5624 34.7777 37.3027 34.8342C37.0431 34.9019 36.8738 34.9866 36.7609 35.0938C36.6649 35.1954 36.5069 35.2067 36.3883 35.1277C36.3432 35.0938 36.2754 35.0543 36.2359 35.0374C35.9142 34.9132 35.7223 34.9019 35.3328 34.9414C35.2764 34.964 35.2199 34.9866 35.1691 35.0092C35.1183 35.0261 35.0563 35.0487 35.0393 35.0656C34.9264 35.1446 34.7627 35.1333 34.6555 35.0374C34.2491 34.789 33.7298 34.9301 33.3629 35.0938L33.2726 35.139C33.1936 35.1785 33.0976 35.1785 33.013 35.139C32.9283 35.0995 32.8719 35.0205 32.8549 34.9301C32.8493 34.8906 32.8211 34.8342 32.7985 34.7721C32.7703 34.71 32.7421 34.6423 32.7195 34.5745C32.6969 34.535 32.6348 34.456 32.5727 34.3713C32.5106 34.2867 32.4881 34.1625 32.5332 34.0665C32.7082 33.6884 32.7195 33.1578 32.5558 32.7175C32.5163 32.599 32.5501 32.4692 32.6461 32.3902C32.8719 32.1983 33.0412 31.8257 33.0638 31.4475C33.0694 31.3629 33.1089 31.2895 33.171 31.2387L33.442 31.0186C33.5548 30.9283 33.7185 30.9339 33.8258 31.0299L34.0459 31.2274C34.616 31.7185 35.3611 31.5322 35.8521 31.1315C35.9424 31.0581 36.061 31.0468 36.1626 31.0919C36.394 31.1992 36.6818 31.2161 37.0939 31.1315L37.1616 31.1032C37.2576 31.0524 37.3761 31.0637 37.4608 31.1258C37.6188 31.2387 37.7712 31.3516 37.9913 31.4363C38.3639 31.4871 38.5784 31.4532 38.9283 31.2782C38.9848 31.25 39.0412 31.2443 39.1033 31.25C39.4137 31.2951 39.7129 31.2161 39.95 31.0242C40.2435 30.7815 40.4241 30.3808 40.4467 29.8897C40.3733 29.4043 40.0403 28.6592 39.4758 28.281C39.1823 28.0891 38.8775 28.027 38.5614 28.1117C38.4655 28.1399 38.3639 28.1117 38.2905 28.044C38.0873 27.8577 37.8389 27.7505 37.6075 27.7505C37.314 27.773 37.0882 27.8182 36.8794 27.8972C36.7834 27.9311 36.6818 27.9198 36.5972 27.8634C36.1626 27.5473 35.8352 27.5078 35.2425 27.7279C35.0563 27.869 34.9208 27.9875 34.8305 28.1004C34.7402 28.2077 34.5878 28.2359 34.4692 28.1681C34.1362 27.9875 33.758 27.9311 33.3516 27.9932C33.2388 28.0101 33.1315 27.965 33.0694 27.8746C33.0017 27.7843 32.996 27.6714 33.0412 27.5698C33.092 27.4626 33.1146 27.3497 33.1372 27.2142C33.1767 26.7345 33.0751 26.3789 32.7928 26.0515C32.7138 25.9555 32.7025 25.8257 32.759 25.7185C32.8493 25.5604 32.8944 25.3685 32.8944 25.1484C32.8944 25.0355 32.9565 24.9396 33.0525 24.8888C33.092 24.8662 33.1146 24.8549 33.1259 24.8436C33.1992 24.7702 33.3121 24.742 33.4137 24.7702C33.854 24.8944 34.2322 24.8888 34.5539 24.7646L34.7797 24.6517C34.87 24.6065 34.9885 24.6122 35.0732 24.6743C35.5473 25.0016 35.9481 25.075 36.377 24.917L36.5351 24.8492C36.6141 24.821 36.6931 24.821 36.7722 24.8492C37.1786 25.0299 37.6922 25.075 38.1776 24.9621L38.4034 24.8944C38.4655 24.8775 38.5332 24.8775 38.5897 24.9C39.013 25.0524 39.3516 25.0355 39.6339 24.8492C40.1927 24.4767 40.4297 23.4607 40.4692 22.6197C40.3225 22.1569 40.0516 21.8182 39.7072 21.6658C39.425 21.5416 39.1146 21.5473 38.8324 21.6827C38.7533 21.7222 38.6687 21.7222 38.5897 21.6884C38.172 21.5021 37.7825 21.536 37.4213 21.7787C37.3197 21.8408 37.1955 21.8408 37.0939 21.7787C36.7439 21.5416 36.3545 21.4626 36.0497 21.5642L35.7279 21.6997C35.632 21.7392 35.5247 21.7279 35.4401 21.6658C35.1917 21.4795 34.9264 21.3497 34.6273 21.265C34.0516 21.107 33.6903 21.3836 33.4871 21.6432C33.4024 21.7561 33.2444 21.79 33.1146 21.7222C32.6687 21.4852 32.2849 21.4118 31.9236 21.4965C31.5849 21.615 31.41 21.7279 31.2181 21.9593C31.1616 22.027 31.0826 22.0666 30.9979 22.0666C30.315 22.0835 29.4739 22.3939 29.1691 23.2124C28.9434 23.8897 29.0337 24.6404 29.4119 25.1202C29.4739 25.2048 29.4909 25.3234 29.4457 25.4193C29.282 25.7862 29.2707 26.1362 29.4175 26.4579C29.4739 26.6329 29.5191 26.7288 29.5699 26.8191C29.6207 26.9038 29.6263 27.011 29.5812 27.1014C29.536 27.1973 29.5022 27.265 29.4852 27.3441C29.2425 28.1625 29.2312 28.71 29.4457 29.0825C29.4965 29.1785 29.4965 29.297 29.4344 29.3873C29.3611 29.5002 29.3159 29.6131 29.2707 29.7768C29.0958 30.4033 29.1917 30.8888 29.5586 31.2613C29.6546 31.3572 29.6715 31.504 29.5981 31.6225C29.299 32.1023 29.2256 32.6216 29.3949 33.0788L29.4739 33.3441C29.4965 33.4118 29.4909 33.4852 29.457 33.5529C29.2256 34.0553 29.1522 34.8003 29.5191 35.3253C29.5868 35.4212 29.5925 35.5454 29.5304 35.647C29.4514 35.7712 29.4119 35.8784 29.3949 35.9631C29.2538 36.4316 29.2877 36.8436 29.4739 37.1879C29.6659 37.5266 29.9989 37.7749 30.4222 37.8935C30.4674 37.9047 30.5125 37.933 30.5464 37.9668C30.8963 38.2999 31.3535 38.3958 31.743 38.2152C31.7825 38.1983 31.8277 38.187 31.8672 38.187C31.9518 38.187 32.0309 38.2208 32.0873 38.2886C32.4429 38.695 32.8436 38.8586 33.3178 38.7909C33.7355 38.7062 34.029 38.5708 34.266 38.3394C34.3563 38.2491 34.4918 38.2265 34.6047 38.2829C34.8248 38.3958 35.0563 38.4523 35.282 38.4523C35.5247 38.4353 35.7336 38.3789 35.9255 38.2716C36.0214 38.2208 36.1456 38.2265 36.2359 38.2886C36.5633 38.5256 36.8738 38.6159 37.1955 38.5651C37.331 38.5426 37.4721 38.4974 37.5793 38.4466C37.6696 38.4015 37.7769 38.4071 37.8615 38.4579C38.0365 38.5651 38.2736 38.6216 38.5445 38.5934C39.1767 38.503 39.6056 38.1983 39.8766 37.6338" fill="#FFDC69"/>
<path d="M53.0165 38.7279H53.0221C54.2526 38.7279 56.0983 38.0788 56.104 37.0402C56.104 36.6959 55.8838 36.1653 55.246 35.7025C55.1388 35.6234 55.0993 35.4823 55.1444 35.3638C55.2178 35.1775 55.2517 35.0195 55.2517 34.8784C55.2517 34.7091 55.2009 34.3591 54.8848 33.9866C54.8114 33.9019 54.7945 33.7834 54.834 33.6818C54.9243 33.4673 54.9638 33.2584 54.9638 33.0044C54.9638 32.773 54.9074 32.5755 54.7888 32.3666C54.7211 32.2537 54.738 32.1126 54.8283 32.0167C55.1331 31.6949 55.2912 31.3563 55.2912 31.012C55.2912 30.8031 55.2404 30.6112 55.1331 30.4193C55.0767 30.3121 55.088 30.1879 55.1614 30.0919C55.4605 29.7194 55.5903 29.392 55.596 29.0026C55.596 28.6865 55.5 28.3986 55.3138 28.1446C55.2404 28.0487 55.2347 27.9132 55.3025 27.8116C55.4379 27.6028 55.5057 27.3431 55.5057 27.0101C55.5057 26.6545 55.3759 26.2989 55.1388 26.0223C55.0711 25.9377 55.0485 25.8191 55.0936 25.7175L55.2178 25.424C55.2178 25.3845 55.2178 25.3111 55.2178 25.1926C55.2178 24.9104 55.1331 24.6451 54.9582 24.408C54.8904 24.3121 54.8848 24.1822 54.9469 24.0806C55.1106 23.8154 55.2009 23.5218 55.2009 23.2509C55.2009 22.9461 55.1106 22.7147 54.9187 22.5228C54.8679 22.472 54.8396 22.3986 54.834 22.3252C54.8171 21.5632 54.168 20.7166 53.2648 20.7109C53.0108 20.7109 52.7851 20.8182 52.5085 20.9819C52.4408 21.0214 52.3617 21.0383 52.2884 21.0157C52.2263 20.9988 52.1585 20.9988 52.0626 20.9988H52.0569C51.4925 20.9988 51.0522 21.4447 50.8942 22.1615V22.4438C50.8998 22.5397 50.8547 22.63 50.7757 22.6808C50.4652 22.8953 50.279 23.4033 50.279 23.7646C50.279 23.9057 50.3015 24.0524 50.341 24.1992C50.3636 24.2838 50.3467 24.3798 50.2902 24.4532C50.2507 24.4983 50.2056 24.5378 50.1491 24.5548C50.0475 24.7185 49.9572 25.3224 49.9516 25.5256V25.6949C49.9516 25.8078 49.8895 25.9094 49.7879 25.9602C49.6976 26.0054 49.5903 26.0618 49.5452 26.1183C49.4887 26.1917 49.421 26.2086 49.3081 26.2312C49.2178 26.2312 49.1275 26.186 49.0767 26.1126L48.9299 25.9151C48.8679 25.8304 48.8566 25.7175 48.8961 25.6216C48.8961 24.837 48.3994 24.1653 48.0325 23.9847C47.9535 23.9452 47.9027 23.8718 47.8801 23.7871C47.7559 23.2509 47.5188 22.9405 47.1124 22.7881L46.96 22.7429C46.898 22.726 46.8472 22.6865 46.8076 22.6357L46.5141 22.2406C46.2037 21.8229 45.3627 21.281 44.7023 21.1907C44.6233 21.2302 44.5273 21.2246 44.4483 21.1907C44.2338 21.0891 43.9629 21.044 43.6411 21.0383C42.9695 21.3092 42.6534 21.6874 42.6477 22.1898C42.6477 22.4155 42.7155 22.6695 42.8396 22.9518C42.8904 23.0647 42.8679 23.1945 42.7775 23.2791C42.6308 23.4203 42.5631 23.7533 42.5631 24.0016C42.5631 24.3008 42.659 24.583 42.8453 24.837C42.9017 24.9104 42.9187 25.012 42.8904 25.1079L42.8396 25.2547C42.7663 25.4748 42.7267 25.6329 42.7267 25.7514C42.7267 26.0449 42.8227 26.2989 43.0541 26.6037C43.1049 26.6658 43.1219 26.7448 43.1106 26.8295C43.0993 26.9085 43.0541 26.9762 42.9864 27.027C42.7775 27.1681 42.6421 27.5012 42.6421 27.8906C42.6421 28.218 42.7775 28.5736 43.0485 28.9461C43.1331 29.0647 43.1219 29.2227 43.0146 29.3243C42.659 29.6742 42.5348 29.9057 42.5348 30.1935C42.5348 30.4645 42.6534 30.741 42.9017 31.0402C42.9525 31.1023 42.9751 31.1757 42.9695 31.2547C42.9638 31.3337 42.9243 31.4071 42.8622 31.4579C42.484 31.7627 42.2808 32.1578 42.2752 32.5529C42.2752 32.8238 42.3881 33.0948 42.5969 33.3488C42.6421 33.4052 42.6647 33.4673 42.6647 33.535C42.6647 33.6084 42.6364 33.7044 42.5856 33.7608C42.3429 34.0261 42.2188 34.3083 42.2188 34.6187C42.2188 35.0195 42.405 35.4372 42.6929 35.6686C42.7945 35.7476 42.8283 35.8774 42.7832 36.0016C42.7267 36.1484 42.7042 36.3064 42.7042 36.5153C42.7042 36.6733 42.7211 36.7749 42.7719 36.8765C42.8114 36.9555 42.8114 37.0458 42.7719 37.1249C42.6929 37.3055 42.6477 37.4805 42.6477 37.6441C42.6477 38.3158 43.6919 39.2472 44.2902 39.2472C44.6741 39.2472 45.1821 39.0101 45.357 38.3441C45.374 38.2763 45.4191 38.2199 45.4756 38.1747L45.7578 37.9828C46.04 37.6103 46.1416 37.3845 46.1416 37.091C46.1416 36.9668 46.1247 36.7693 46.0569 36.5378C46.0344 36.4588 46.0457 36.3742 46.0852 36.3008C46.2037 36.1089 46.294 35.7871 46.294 35.5444C46.294 35.2001 46.1416 34.8727 45.8425 34.5736C45.7409 34.472 45.7296 34.3196 45.8086 34.2011C46.0118 33.8963 46.1021 33.6423 46.1077 33.3826C46.1077 33.0891 45.9666 32.7617 45.6844 32.4061C45.6167 32.3158 45.5997 32.1973 45.6505 32.0957C45.7296 31.932 45.8086 31.8078 45.8763 31.6893C46.0005 31.4917 46.0682 31.3789 46.0682 31.1644C46.0682 30.9894 46.0231 30.7975 45.9215 30.5378C45.882 30.4362 45.8989 30.3234 45.9666 30.2443L46.1868 29.9734C46.3166 29.7928 46.39 29.5501 46.3956 29.3017C46.3956 28.9179 46.2376 28.5002 45.9949 28.2519C45.8989 28.1503 45.882 27.9979 45.961 27.885C46.0739 27.7156 46.2093 27.4278 46.2093 27.1625C46.2093 27.0609 46.2658 26.9649 46.3505 26.9141C46.4351 26.8633 46.548 26.8577 46.6327 26.9028L46.7286 26.9536C46.7286 26.9536 46.7512 26.9649 46.7625 26.9706C46.8359 27.0044 46.898 27.0665 46.9262 27.1456L46.9826 27.3149C47.0899 27.6648 47.1745 27.9132 47.4455 28.139C47.5132 28.1954 47.5527 28.2744 47.5527 28.3591C47.6148 29.3864 48.2978 30.4588 49.2855 30.4645H49.2968C49.5621 30.4645 49.7935 30.3911 49.9685 30.2613C50.008 30.233 50.0532 30.2105 50.104 30.2048C50.5499 30.1314 51.0974 29.8718 51.1877 28.9969C51.199 28.901 51.2498 28.8219 51.3288 28.7768C51.4022 28.7316 51.5433 28.5679 51.5659 28.4833C51.6054 28.3535 51.7521 28.2914 51.8537 28.2744C51.9892 28.2744 52.1021 28.3704 52.136 28.4946C52.1698 28.6526 52.2489 28.805 52.3448 28.9179C52.4351 29.0308 52.4351 29.1888 52.3392 29.2961C52.0287 29.646 51.8707 29.979 51.865 30.2782C51.865 30.4645 51.9045 30.6282 51.9892 30.7636C52.0739 30.8991 52.0344 31.0741 51.9045 31.1644C51.6505 31.3281 51.5151 31.8586 51.5151 32.0957C51.5151 32.2876 51.5715 32.5134 51.6731 32.694C51.7409 32.8182 51.707 32.9762 51.5941 33.0665C51.2554 33.3262 51.0692 33.6592 51.0635 34.0092C51.0635 34.3704 51.278 34.9066 51.882 35.313C51.961 35.3695 52.0118 35.4598 52.0118 35.5557C52.0118 35.6291 51.9949 35.6855 51.9836 35.725C51.9836 35.8887 52.0908 36.1879 52.1642 36.3234C52.2319 36.4475 52.2093 36.5999 52.0965 36.6902C51.8537 36.8934 51.707 37.2039 51.7013 37.4974C51.7013 37.9602 52.0344 38.5472 52.9939 38.6884" fill="#FFDC69"/>
<path d="M67.629 36.9053C67.7024 37.0012 67.7532 37.052 67.8322 37.1085C67.8999 37.1593 67.9394 37.2326 67.9451 37.3173C67.962 37.5713 68.0523 37.8197 68.1878 38.0454C68.3684 38.2769 68.6845 38.4688 69.0232 38.5309C69.1925 38.5534 69.4239 38.576 69.6102 38.576C69.6553 38.576 69.7174 38.5817 69.7739 38.593C69.8134 38.5986 69.8529 38.6042 69.8868 38.6042C70.248 38.6042 70.5754 38.4349 70.7729 38.1414C70.9931 37.8253 71.0326 37.4076 70.8632 36.9956C70.8407 36.9448 70.835 36.8883 70.8463 36.8375C70.8689 36.7021 70.8915 36.544 70.8971 36.3465C70.8971 36.0022 70.7673 35.7312 70.4964 35.5224C70.3835 35.4377 70.3496 35.2853 70.4117 35.1555L70.4625 35.0539C70.5584 34.7886 70.5302 34.4048 70.3722 34.0661C70.2311 33.7613 70.0053 33.5299 69.7457 33.4283C69.6836 33.4114 69.6328 33.3832 69.5933 33.338C69.5368 33.2759 69.5029 33.1913 69.5142 33.1066C69.5594 32.7792 69.5142 32.4744 69.3731 32.1978C69.2715 32.0003 69.1643 31.8705 69.0175 31.7745C68.8877 31.6898 68.8426 31.5149 68.9216 31.3794C69.2602 30.7924 69.3788 30.386 69.1135 29.8046C68.9159 29.4208 68.6055 29.1442 68.2047 28.9918C68.0523 28.9354 67.979 28.7717 68.0298 28.6249C68.0523 28.5572 68.0636 28.4612 68.0749 28.3484L68.0918 28.1621C68.1088 27.8855 68.058 27.338 67.4597 27.005C67.3694 26.9542 67.3129 26.8526 67.3129 26.751C67.3129 26.7171 67.3129 26.6437 67.3411 26.5591C67.375 26.0793 67.3242 25.8818 67.0307 25.4866L66.8952 25.3907C66.788 25.3117 66.7485 25.1762 66.788 25.0577C66.9573 24.5835 66.9404 24.1997 66.7428 23.8498C66.6638 23.7312 66.5848 23.6071 66.4945 23.5393C66.4042 23.4716 66.3647 23.3531 66.3929 23.2458C66.4888 22.8451 66.4663 22.4274 66.3364 22.2129C65.693 21.2251 64.1013 21.2646 63.1812 21.6033C62.5434 21.8573 62.3346 22.1 62.1822 22.766C62.1878 23.037 62.2555 23.3587 62.4079 23.7199C62.4249 23.7538 62.4305 23.7933 62.4305 23.8328C62.4305 23.9119 62.391 24.0078 62.3346 24.0586C62.312 24.0755 62.2894 24.0925 62.2612 24.1038C61.7758 24.4932 61.6516 24.8319 61.7306 25.481C61.7362 25.5092 61.787 25.6165 61.8322 25.7124L61.9225 25.9156C61.979 26.0454 61.9338 26.1978 61.8153 26.2769C61.6064 26.418 61.4766 26.5704 61.4145 26.7623C61.2452 27.2025 61.2508 27.6654 61.4258 28.1113C61.4766 28.2411 61.4258 28.3879 61.3129 28.4669C61.0533 28.6306 60.9122 28.8959 60.8219 29.3756C60.8049 29.6071 60.8388 29.8893 60.9291 30.132C60.9855 30.2844 60.9065 30.4481 60.7541 30.5045L60.6017 30.561C60.2179 30.8658 60.1107 31.052 60.0034 31.56C60.0091 31.8874 60.0768 32.1978 60.2123 32.4349C60.2574 32.5083 60.2631 32.5986 60.2348 32.6776C60.2066 32.7623 60.1445 32.8244 60.0655 32.8526L59.9131 32.909C59.5349 33.2082 59.4503 33.3662 59.3374 33.9081C59.3374 33.9815 59.36 34.0831 59.3769 34.196C59.3938 34.3145 59.3487 34.4782 59.2471 34.5403C59.1511 34.6024 59.0439 34.6814 58.9592 34.766C58.6544 35.1104 58.6431 35.5506 58.6939 35.8611C58.7108 35.9739 58.66 36.0868 58.5641 36.1489C58.2085 36.3803 58.0222 36.7247 58.0448 37.1028C58.073 37.5374 58.3835 37.9382 58.8971 38.2035C59.1342 38.243 59.36 38.2938 59.5801 38.339C60.3534 38.5139 60.963 38.6494 61.6685 38.1866C62.0806 37.639 62.1426 37.3399 61.9677 36.7698C61.9394 36.6682 61.9677 36.5553 62.041 36.4763C62.1201 36.3973 62.1822 36.3183 62.2442 36.2167C62.487 35.8723 62.5998 35.3418 62.5321 34.862C62.5208 34.7773 62.5434 34.6927 62.5998 34.6306C62.6563 34.5685 62.7353 34.529 62.82 34.529H62.9216C63.0006 34.5177 63.1191 34.4838 63.2546 34.4274C63.3449 34.3935 63.4521 34.4048 63.5312 34.4612C63.5481 34.4612 63.5707 34.4669 63.5876 34.4782C63.8811 34.5911 64.1464 34.5967 64.4568 34.5008C64.5359 34.4782 64.6205 34.4895 64.6939 34.529C65.2527 34.8733 65.7551 34.7435 66.0768 34.5741C66.1163 34.5516 66.1671 34.5403 66.2123 34.5403C66.2461 34.5403 66.28 34.5459 66.3139 34.5572C66.3929 34.5854 66.455 34.6475 66.4832 34.7209C66.5848 34.958 66.788 35.1837 67.0646 35.3418C67.0871 35.3531 67.1097 35.37 67.1267 35.3926L67.217 35.4321C67.3355 35.4942 67.4032 35.624 67.3694 35.7538C67.2734 36.211 67.3524 36.5779 67.6177 36.8771M65.5011 31.1988C65.4277 31.323 65.2696 31.3681 65.1342 31.3173C64.8181 31.1875 64.4173 31.2101 64.1069 31.3738C64.0674 31.3963 64.0166 31.4076 63.9714 31.4076C63.9206 31.4076 63.8642 31.3907 63.819 31.3625C63.7287 31.3117 63.6779 31.2157 63.6779 31.1085V30.9617C63.7061 30.7472 63.7061 30.5723 63.7061 30.3916C63.7061 30.307 63.7457 30.2054 63.8134 30.1489C64.0674 29.9344 64.2649 29.5901 64.3609 29.2007C64.3891 29.0991 64.4681 29.0144 64.5697 28.9862C64.6713 28.958 64.7842 28.9862 64.8576 29.0596C64.9197 29.1216 64.9761 29.2345 64.9648 29.3248C64.914 29.7651 64.9761 30.1263 65.168 30.4481C65.2584 30.6061 65.3317 30.7247 65.4446 30.815C65.5575 30.9053 65.5857 31.069 65.5067 31.1931" fill="#FFDC69"/>
<path d="M83.1192 38.2952C83.4466 38.2952 83.7401 38.1823 83.949 37.9735C84.1409 37.7816 84.2481 37.5332 84.2481 37.268C84.2481 37.0027 84.1409 36.7261 83.9264 36.4721C83.8812 36.4213 83.8586 36.3536 83.8586 36.2802V36.2294C83.7683 35.9302 83.5426 35.6649 83.3845 35.4674C83.2434 35.2924 83.1418 35.1682 83.1136 35.0328C83.0233 34.8296 82.8878 34.649 82.7185 34.5304C82.6395 34.474 82.5943 34.3837 82.5943 34.2877C82.6 33.4975 82.0863 33.1758 81.8662 33.0798C81.7872 33.0459 81.7307 32.9782 81.7081 32.8935C81.6404 32.6621 81.5332 32.4702 81.392 32.3291L81.3638 32.3178C81.2848 32.2614 81.234 32.1711 81.234 32.0695V31.9509C81.234 31.5728 81.0364 31.172 80.8953 31.014C80.8502 30.9575 80.822 30.8898 80.822 30.822C80.822 30.7712 80.8276 30.7148 80.8389 30.6527C80.8389 30.6245 80.8502 30.5963 80.8502 30.5737C80.8502 30.3874 80.8107 30.1899 80.7373 30.0431C80.7034 29.9754 80.6978 29.8907 80.726 29.8173C80.7486 29.744 80.805 29.6819 80.8728 29.648C81.0477 29.5633 81.1889 29.4392 81.3356 29.2473C81.3751 29.1965 81.4259 29.1569 81.488 29.14C81.7759 29.061 82.2895 28.8014 82.4645 27.9886C82.4814 27.9095 82.5322 27.8418 82.5999 27.8023C82.7072 27.7346 82.7524 27.6499 82.8427 27.4806C82.916 27.3395 83.012 27.1645 83.1757 26.9782C83.4918 26.6226 83.5482 26.4138 83.5934 25.9001C83.5313 25.6969 83.4466 25.5276 83.3619 25.3583C83.3111 25.251 83.3281 25.1212 83.4071 25.0309C83.5934 24.8277 83.7006 24.4664 83.7063 24.0713C83.7063 23.6085 83.5031 23.3037 83.3281 23.1344C83.0402 22.8465 82.662 22.7336 82.4363 22.7393C82.3685 22.7393 82.3064 22.7393 82.2556 22.7562C82.1258 22.7901 81.9847 22.7223 81.9226 22.5982C81.8775 22.5078 81.8718 22.4006 81.8662 22.3159C81.6573 21.5934 81.2905 21.3112 80.568 21.3056C80.2575 21.3056 80.0261 21.4298 79.8906 21.537C79.7834 21.6217 79.6366 21.616 79.5294 21.537C79.2528 21.3169 78.9537 21.2266 78.457 21.2266C78.3158 21.2435 78.186 21.283 78.0619 21.3564C77.9998 21.3903 77.9264 21.4072 77.8587 21.3903C77.7175 21.362 77.6385 21.3507 77.5651 21.3451C77.3111 21.3451 77.0233 21.4354 76.7016 21.5991C76.6056 21.6499 76.4927 21.6442 76.4024 21.5878C76.0807 21.379 75.8436 21.2887 75.6065 21.2887C75.4316 21.2943 75.2792 21.3225 75.0873 21.4072C75.0195 21.4354 74.9461 21.441 74.8728 21.4128C74.7599 21.3733 74.5962 21.3564 74.5002 21.3507C74.2293 21.3507 73.9414 21.4806 73.7213 21.695C73.535 21.8757 73.3149 22.2087 73.3149 22.7506C73.3262 22.7844 73.3375 22.8352 73.3375 22.8917C73.3375 22.9763 73.3036 23.0553 73.2415 23.1118C72.9988 23.3319 72.7448 23.7496 72.7448 24.0939C72.7448 24.3536 72.8351 24.6527 72.9311 24.9462C72.9762 25.0873 73.0158 25.2228 73.0496 25.3526C73.0553 25.3752 73.0609 25.426 73.0609 25.4486C73.0609 25.505 73.044 25.5558 73.0158 25.6066C72.9142 25.7647 72.8634 25.9396 72.8577 26.1146C72.8577 26.521 72.9875 26.7807 73.1964 27.0798C73.2585 27.1701 73.2641 27.283 73.219 27.379L73.1174 27.5765C73.0722 27.695 73.0496 27.8305 73.0496 27.9886C73.0496 28.2369 73.123 28.4796 73.2698 28.7167C73.3375 28.8239 73.3318 28.965 73.2472 29.061C73.0383 29.3037 72.9424 29.5859 72.9424 29.9528C72.9424 30.2745 72.9932 30.5793 73.0778 30.7543C73.1343 30.8672 73.1117 31.0027 73.0214 31.093C72.79 31.3244 72.6602 31.7647 72.6602 32.0638C72.6602 32.4194 72.7956 32.7186 73.0835 33.0121C73.1851 33.1137 73.1964 33.2661 73.1174 33.3846C72.9198 33.6668 72.8182 33.949 72.8182 34.2256C72.8182 34.5022 72.9142 34.7562 73.1174 34.9989C73.1794 35.0723 73.202 35.1739 73.1738 35.2698C73.1286 35.4279 73.0835 35.5746 73.0835 35.7045C73.0835 35.8907 73.1286 36.0544 73.2077 36.1899C73.2528 36.2633 73.2641 36.3536 73.2359 36.4382C73.1907 36.568 73.1399 36.6866 73.0891 36.7995C72.9988 37.0027 72.9311 37.1607 72.9254 37.3526C72.9254 37.9453 73.4334 38.4025 74.218 38.5154C74.2745 38.5154 74.3309 38.5267 74.3704 38.5549C74.6413 38.7129 74.8558 38.7863 75.0534 38.7863H75.059C75.6799 38.7863 76.1258 38.2388 76.1653 37.426V37.3357C76.1428 37.2736 76.1202 37.2059 76.1202 37.1212C76.1202 37.0535 76.1428 36.9914 76.1823 36.9406C76.3911 36.6696 76.4701 36.2858 76.4701 36.0375C76.4701 35.8286 76.3968 35.6593 76.3121 35.4448C76.2274 35.2473 76.1371 35.0271 76.092 34.7393L75.9791 34.4119C75.9508 34.3216 75.9621 34.22 76.0186 34.1466C76.2895 33.7797 76.3855 33.4354 76.3855 32.871C76.3121 32.6113 76.2218 32.4307 76.0299 32.2388C75.9396 32.1485 75.917 32.0017 75.9791 31.8945C76.1089 31.6631 76.1653 31.4429 76.171 31.2002C76.171 31.0591 76.2726 30.8164 76.4137 30.7882L76.8314 30.7148C76.916 30.7035 76.9951 30.7204 77.0572 30.7712C77.1249 30.822 77.1644 30.8898 77.17 30.9744C77.2095 31.347 77.4748 31.6856 77.8812 31.8719C77.9603 31.9058 78.0223 31.9791 78.0393 32.0695C78.0675 32.1823 78.1804 32.3855 78.2425 32.4533C78.2933 32.4702 78.3384 32.4984 78.3723 32.5436C78.4287 32.6113 78.4513 32.696 78.4344 32.7807C78.4118 32.9218 78.3892 33.0459 78.3892 33.1475C78.3892 33.3507 78.4457 34.0224 79.2133 34.2708C79.3093 34.299 79.3826 34.378 79.4052 34.4796C79.456 34.6885 79.5238 34.8014 79.5689 34.8578L79.6649 35.0158C79.6931 35.061 79.7044 35.1118 79.7044 35.1626C79.7044 35.8794 79.9866 36.3141 80.6188 36.5624C80.7317 36.6076 80.805 36.7148 80.805 36.8333C80.805 37.6292 81.8944 38.2331 82.2726 38.2952L82.837 38.3347C82.8765 38.3122 82.933 38.2952 82.9838 38.2952H83.1136H83.1192ZM80.2914 26.0412L80.0938 26.3347L80.0205 26.5267C79.9922 26.5944 79.9414 26.6508 79.8794 26.6791C79.7552 26.7411 79.6253 26.8258 79.4955 26.9331C79.4391 26.9726 79.377 27.0008 79.3093 27.0008H79.1286C78.7787 27.0008 78.4908 27.1588 78.2538 27.4806C78.2538 27.4918 78.2481 27.5031 78.2425 27.5201C78.1917 27.633 78.0844 27.7007 77.9715 27.712C77.9207 27.712 77.8756 27.712 77.853 27.7233C77.8248 27.7346 77.7909 27.7402 77.7571 27.7402C77.695 27.7402 77.599 27.7007 77.5369 27.6555L77.2886 27.616C77.0854 27.6386 76.9217 27.6555 76.7862 27.695C76.6959 27.7233 76.6 27.7007 76.5266 27.6442C76.4532 27.5878 76.4137 27.5031 76.4137 27.4072C76.4137 27.3451 76.4193 27.2887 76.4306 27.2322C76.4306 27.204 76.4363 27.1701 76.4419 27.1363C76.4419 26.8258 76.3064 26.5887 76.1484 26.3178C76.0073 26.0695 75.8436 25.7929 75.7702 25.426C75.7533 25.2905 75.7194 25.172 75.663 25.0365C75.6122 24.9067 75.6573 24.76 75.7702 24.6866L75.8436 24.6358C75.9339 24.5793 76.0412 24.585 76.1597 24.6019C76.1879 24.6076 76.2161 24.6132 76.2613 24.6132C76.6 24.6132 76.9612 24.506 77.2208 24.3253C77.2716 24.2915 77.3281 24.2633 77.3902 24.2745C77.5143 24.2745 77.6272 24.3028 77.7458 24.3366C77.8304 24.3592 77.9207 24.3761 77.9602 24.3761C78.0675 24.3761 78.1465 24.3761 78.2142 24.3479C78.3046 24.3141 78.4062 24.3253 78.4852 24.3761C78.6489 24.489 78.9537 24.5737 79.1794 24.5793C79.202 24.5737 79.3036 24.5568 79.3262 24.5568C79.4617 24.5568 79.5802 24.6471 79.6084 24.7769C79.71 25.1946 79.9132 25.4147 80.2293 25.6461C80.3535 25.7421 80.3873 25.9114 80.297 26.0469" fill="#FFDC69"/>
<path d="M93.6399 37.8926C93.8883 38.0281 94.2439 38.1241 94.6842 38.1805C95.4631 37.9942 95.7792 37.4975 95.813 37.0855C95.8187 36.9952 95.8695 36.9162 95.9429 36.8654C96.2759 36.6509 96.4734 36.3348 96.496 35.9792C96.5186 35.6462 96.3831 35.3244 96.1235 35.0987C96.1009 35.0761 96.0727 35.0479 96.0614 35.0196C95.7058 34.3818 95.068 34.252 94.6221 34.4439C94.4922 34.5004 94.3398 34.4552 94.2608 34.3367C94.1423 34.1561 93.9899 34.0262 93.8093 33.9529L93.2731 33.84C93.1376 33.8117 93.0416 33.6932 93.0416 33.5521C93.0416 33.5521 93.036 33.5408 93.0303 33.5295L92.8328 33.2586C92.7876 33.1965 92.7651 33.1118 92.782 33.0385C92.7933 32.9594 92.8384 32.8861 92.9062 32.8465C93.1715 32.6603 93.3464 32.4063 93.4311 32.0846C93.5101 31.6725 93.4311 31.2887 93.2223 31.0065C93.1376 30.8992 93.1376 30.7525 93.2223 30.6452C93.4255 30.3856 93.5327 30.0526 93.5553 29.5615C93.5553 29.1608 93.3408 28.8729 93.1658 28.7092C93.1037 28.6528 93.0699 28.5737 93.0699 28.4891C93.0699 28.4044 93.115 28.3254 93.1771 28.2746C93.3069 28.1617 93.4311 28.0149 93.527 27.84C93.7133 27.3771 93.7302 27.1513 93.6004 26.7111L93.3577 26.3555C93.29 26.2539 93.29 26.1128 93.369 26.0168C93.4932 25.8531 93.5779 25.6894 93.6174 25.5314C93.6286 25.4919 93.6456 25.4524 93.6738 25.4185L93.8939 25.1476C93.973 25.0516 94.0971 25.0178 94.21 25.0573C94.5261 25.1589 94.8704 25.1137 95.1413 24.9275C95.4857 24.696 95.6889 24.2671 95.7227 23.7252C95.7227 22.935 95.0059 22.0093 94.3568 21.7214C93.9391 21.586 93.719 21.5973 93.2335 21.7722C93.1376 21.8625 93.0416 21.9303 92.9513 21.998C92.8384 22.077 92.6917 22.0714 92.5844 21.9867C92.02 21.5069 91.3257 21.4844 90.7726 21.9303C90.671 22.0149 90.5186 22.0206 90.4113 21.9359C89.8751 21.5352 89.2373 21.6989 88.797 21.9077C88.6785 21.9641 88.5374 21.9359 88.4471 21.8343C88.1592 21.5013 87.7641 21.3658 87.3747 21.4618C86.9175 21.5803 86.5675 22.0037 86.449 22.5963C86.449 23.5333 86.782 24.7694 87.4311 25.221C87.7415 25.4411 88.1084 25.4637 88.5487 25.2943C88.6334 25.2661 88.7914 25.1307 88.9099 25.0291C88.9946 24.9557 89.1188 24.9387 89.2204 24.9839C89.322 25.0347 89.3897 25.1363 89.3897 25.2492C89.401 25.2887 89.4574 25.3959 89.5195 25.4919C89.576 25.5878 89.576 25.7064 89.5195 25.7967C89.4574 25.9039 89.3897 26.0112 89.3502 26.1297C89.2486 26.6208 89.2881 26.9312 89.5082 27.2755C89.576 27.3771 89.5703 27.5069 89.5026 27.6085C89.2937 27.8964 89.1865 28.2746 89.1809 28.7374C89.2429 29.2116 89.3671 29.4768 89.6268 29.6857C89.7509 29.7873 89.7735 29.9679 89.6776 30.0921C89.2712 30.617 89.1865 31.2492 89.4461 31.7402C89.5026 31.8418 89.4913 31.966 89.4179 32.062C89.2542 32.2708 89.1244 32.491 89.0398 32.6998C88.8366 33.2417 88.9212 33.6593 89.2994 33.9924C89.401 34.0827 89.4292 34.2238 89.3671 34.348C89.3671 34.4383 89.3163 34.5173 89.2486 34.5737C89.1809 34.6302 89.0793 34.6415 88.989 34.6245L88.6221 34.5342C88.4019 34.5568 88.2439 34.5794 88.1084 34.6132C88.0068 34.6358 87.9052 34.6132 87.8318 34.5512C87.6174 34.3536 87.3577 34.252 87.0981 34.252C86.9908 34.252 86.8836 34.2689 86.782 34.3028C86.353 34.4439 86.0426 34.8503 85.9297 35.4148V35.4317C85.9297 36.4533 85.9297 37.7233 86.7538 38.316C87.0811 38.5474 87.6004 38.6208 87.9786 38.4797C88.1028 38.4458 88.306 38.3216 88.4302 38.2144C88.4414 38.1862 88.464 38.1579 88.4866 38.1354C88.543 38.0789 88.6164 38.0507 88.6954 38.0507C88.7914 38.0055 88.9212 37.9942 89.0115 38.0507C89.2599 38.2257 89.5816 38.3216 89.9937 38.3498C90.4113 38.3498 90.7613 38.2031 91.0887 37.8757C91.1846 37.7798 91.337 37.7628 91.4499 37.8362L91.5797 37.9209C91.7152 38.0055 91.8394 38.0958 91.9974 38.1636C92.5111 38.3668 92.9344 38.2934 93.2956 37.9378C93.3859 37.8475 93.5327 37.8249 93.6456 37.887" fill="#FFDC69"/>
<path d="M8.1787 24.799C8.14483 25.0361 8.21256 25.0813 8.26901 25.1264C8.29158 25.1433 8.30852 25.1659 8.33109 25.1885C8.35932 25.2224 8.38754 25.2562 8.42705 25.2732C8.48914 25.307 8.56251 25.3127 8.63025 25.3183C8.68105 25.3183 8.73185 25.324 8.777 25.3465C8.79958 25.3522 8.81651 25.3691 8.83345 25.3804C8.85602 25.403 8.8786 25.4256 8.90118 25.4481C8.93505 25.4876 8.96891 25.5441 9.01407 25.5554C9.07616 25.5949 9.13824 25.64 9.20033 25.6908L9.25678 25.736C9.38095 25.8376 9.51077 25.9448 9.66882 26.0069L9.70833 26.0239C9.75913 26.0464 9.80993 26.069 9.88895 26.0747C9.9849 26.0747 10.0752 26.086 10.1373 26.1368C10.1655 26.1593 10.1881 26.1932 10.2107 26.2214L10.2558 26.2779C10.3744 26.4077 10.5268 26.4641 10.7017 26.5149C10.8711 26.5657 11.0009 26.6786 11.1533 26.7972L11.1985 26.831C11.1985 26.831 11.2493 26.8592 11.2718 26.8649C11.2831 26.8649 11.2944 26.8649 11.3057 26.8762C11.3565 26.8987 11.4073 26.9157 11.4581 26.927C11.5032 26.927 11.554 26.9326 11.6048 26.9383C11.6613 26.9383 11.7177 26.9439 11.7629 26.9439C11.8024 26.9439 11.8363 26.9552 11.8701 26.9721C11.9153 26.9891 11.9548 27.0173 11.9943 27.0455L12.0564 27.085C12.1185 27.1189 12.1919 27.1132 12.254 27.1527C12.3556 27.2092 12.4741 27.2148 12.5813 27.2092H12.6999L13.0216 27.2261H13.2079C13.3264 27.2035 13.428 27.1753 13.5296 27.1245C13.5973 27.0907 13.6651 27.0511 13.7328 27.0286C13.7949 27.0116 13.857 27.006 13.9473 27.0003C14.2013 26.9834 14.4609 26.91 14.7036 26.7633C14.7431 26.7351 14.7826 26.7181 14.8222 26.7068C14.8504 26.7068 14.8842 26.7068 14.9125 26.7068C14.9633 26.7068 15.0197 26.7068 15.0649 26.6843C15.1213 26.6617 15.1665 26.6278 15.206 26.5883C15.2737 26.5319 15.3358 26.4698 15.3979 26.4077C15.4656 26.3343 15.5277 26.2553 15.5898 26.1763L15.6462 26.0972C15.6858 26.0352 15.7253 25.9731 15.7704 25.911C15.8438 25.815 15.9228 25.6965 15.951 25.5554C15.9623 25.5102 15.968 25.4594 15.968 25.4143C15.968 25.3578 15.9793 25.307 15.9793 25.2619C15.9905 25.1659 16.0244 25.07 16.047 24.9627C16.0865 24.799 16.1034 24.6184 16.0131 24.4604L15.9623 24.3926C15.9341 24.3531 15.9002 24.3136 15.8889 24.2741C15.8833 24.2402 15.8889 24.1951 15.8889 24.1217C15.9002 23.8621 15.7704 23.6532 15.6406 23.5008C15.5785 23.4218 15.5051 23.3541 15.4374 23.2863C15.3527 23.2073 15.2624 23.1339 15.1665 23.0662L14.9576 22.9251L14.7601 22.8178C14.7036 22.7896 14.6528 22.767 14.602 22.7275L14.5456 22.6824C14.5061 22.6485 14.4722 22.6203 14.427 22.5977C14.3762 22.5695 14.3198 22.5469 14.2577 22.5356C14.1787 22.513 14.1053 22.4961 14.0489 22.451C14.0207 22.4284 13.9924 22.4002 13.9642 22.3719C13.9134 22.3211 13.8626 22.2703 13.7949 22.2478C13.7441 22.2365 13.6876 22.2365 13.6312 22.2421H13.5804C13.4957 22.2534 13.4223 22.2421 13.349 22.2083L13.3151 22.1913C13.2869 22.1744 13.2587 22.1631 13.2248 22.1575L13.0385 22.1349C12.8918 22.1179 12.7337 22.101 12.5757 22.1462C12.3838 22.197 12.2032 22.1687 12.0169 22.1462C11.8419 22.1236 11.6613 22.101 11.4807 22.1631C11.3734 22.2026 11.2549 22.2195 11.1307 22.2083C11.0573 22.2026 10.984 22.2195 10.9106 22.2365C10.8598 22.2478 10.809 22.2647 10.7525 22.2647C10.6961 22.2647 10.6453 22.2647 10.5889 22.2647C10.5098 22.2591 10.4308 22.2591 10.3574 22.276C10.2615 22.3042 10.1825 22.3606 10.126 22.4114C10.0978 22.4397 10.0639 22.4566 10.0357 22.4735L9.97926 22.513C9.90024 22.5695 9.81557 22.6034 9.6914 22.6316L9.55029 22.6654C9.45433 22.688 9.35838 22.7106 9.27371 22.7501C9.11002 22.8235 8.9802 22.9533 8.88989 23.1283C8.85602 23.1904 8.73749 23.2468 8.65283 23.2863C8.61331 23.3033 8.5738 23.3202 8.54558 23.3428C8.37061 23.4557 8.27465 23.5629 8.16176 23.704L8.07145 23.8169C8.00372 23.8959 7.8739 24.0878 8.12225 24.3362C8.16176 24.3701 8.20692 24.4096 8.25772 24.4434C8.37625 24.5281 8.49478 24.5902 8.59074 24.641C8.8278 24.7708 8.91811 24.7426 8.96327 24.72C9.01971 24.6974 9.07051 24.6636 9.11567 24.6015C9.16082 24.545 9.20033 24.4717 9.24549 24.3983L9.33015 24.2628L9.42046 24.1386C9.42046 24.1386 9.45433 24.1104 9.47691 24.0991L9.52771 24.0653L9.64624 23.958C9.68575 23.9185 9.72526 23.879 9.77606 23.8508C9.86637 23.7887 9.97361 23.7605 10.0752 23.7379C10.1034 23.7322 10.1373 23.721 10.1712 23.7322L10.205 23.7435L10.2558 23.7605C10.3349 23.783 10.3913 23.7379 10.4421 23.6984L10.4873 23.6645L10.7017 23.5347L10.7187 23.5234C10.8429 23.4444 11.1081 23.3879 11.238 23.4331C11.3226 23.4613 11.396 23.467 11.4637 23.4557L11.5371 23.4387L11.5879 23.4162C11.6218 23.3992 11.6556 23.3823 11.6895 23.3879C11.7572 23.3992 11.825 23.371 11.8871 23.3371C11.9153 23.3258 11.9379 23.3033 11.9661 23.2807C11.9887 23.2638 12.0112 23.2468 12.0338 23.2355C12.1072 23.2017 12.1975 23.2299 12.2822 23.2581C12.3668 23.292 12.4346 23.3202 12.5192 23.3033C12.5531 23.2976 12.5813 23.2807 12.6152 23.2638L12.6773 23.2355C12.7281 23.2186 12.7789 23.2242 12.841 23.2468C12.8635 23.2581 12.8918 23.2694 12.9143 23.2863C12.9482 23.3089 12.9764 23.3315 13.0103 23.3428C13.1232 23.3823 13.2417 23.3879 13.3433 23.4387C13.6312 23.5798 13.8457 23.6927 14.0827 23.8113L14.1166 23.8282C14.1561 23.8508 14.19 23.8733 14.2351 23.8846C14.2577 23.8903 14.2859 23.8846 14.3085 23.8733H14.3367C14.365 23.8621 14.3932 23.8733 14.4101 23.8846C14.4553 23.9185 14.4666 23.9862 14.4778 24.0483C14.4778 24.1104 14.4891 24.1725 14.5117 24.2177C14.5343 24.2572 14.5738 24.2854 14.619 24.3136L14.6359 24.3249C14.6923 24.3701 14.7262 24.4209 14.7657 24.4773L14.8278 24.5845C14.8278 24.5845 14.8278 24.641 14.8109 24.6749L14.7883 24.72C14.7714 24.7708 14.7488 24.8216 14.7714 24.8781C14.7939 24.9289 14.7939 24.9571 14.7883 24.9853C14.7883 25.0305 14.7883 25.0643 14.8391 25.1772C14.8786 25.2562 14.8842 25.324 14.7883 25.3352C14.698 25.3352 14.6415 25.3578 14.602 25.4086C14.602 25.4086 14.5682 25.4707 14.5512 25.5102C14.5286 25.5667 14.4948 25.6175 14.4327 25.6288C14.1392 25.6626 13.9247 25.6796 13.7159 25.7642C13.682 25.7812 13.6538 25.8094 13.6199 25.8489C13.5917 25.8828 13.5578 25.9166 13.5239 25.911C13.4901 25.911 13.4506 25.894 13.4167 25.8771C13.349 25.8489 13.2869 25.8094 13.2191 25.8432C13.1853 25.8602 13.1514 25.894 13.1119 25.9279C13.0893 25.9505 13.0667 25.9731 13.0442 25.9844C12.9764 26.0239 12.9031 25.9956 12.8297 25.9561C12.7732 25.9279 12.7168 25.894 12.6491 25.894C12.6096 25.894 12.5644 25.9053 12.5192 25.9166C12.4854 25.9279 12.4572 25.9336 12.4289 25.9336C12.3951 25.9336 12.3668 25.9279 12.3499 25.9053C12.316 25.8771 12.2878 25.8658 12.2483 25.8602C12.1241 25.8376 11.9604 25.7868 11.8137 25.6965L11.7572 25.6626C11.6387 25.578 11.5089 25.5046 11.3452 25.4256L11.317 25.4143C11.1928 25.3522 11.0291 25.2619 10.8711 25.2054C10.8429 25.1941 10.8203 25.2054 10.7808 25.2111C10.7638 25.2111 10.7469 25.1998 10.7356 25.1941C10.7187 25.1829 10.7017 25.1603 10.6905 25.1433C10.6679 25.1151 10.6453 25.0925 10.6171 25.0756C10.5776 25.053 10.5268 25.0474 10.476 25.0417H10.4365C10.38 25.0305 10.3349 25.0022 10.2897 24.9684C10.1768 24.8893 10.0696 24.8047 9.96797 24.7144L9.88331 24.6353C9.80993 24.562 9.73655 24.4886 9.62931 24.4547C9.59544 24.4434 9.55593 24.4378 9.51642 24.4321C9.50513 24.4321 9.48255 24.4321 9.45997 24.4321C9.42611 24.4321 9.40918 24.4321 9.39789 24.4321C9.32451 24.4378 9.26807 24.3926 9.21162 24.3475L9.17775 24.3249C9.17775 24.3249 9.12131 24.2797 9.09309 24.2515C9.04793 24.212 9.00278 24.1669 8.94633 24.1386C8.8786 24.1048 8.80522 24.0878 8.72056 24.0878H8.69234C8.61896 24.0878 8.51736 24.0822 8.41012 24.2064C8.31981 24.308 8.25207 24.4321 8.20127 24.5676C8.16741 24.6523 8.15047 24.7369 8.13918 24.816L8.1787 24.799Z" fill="#FFDC69"/>
<path d="M8.10918 24.0707C7.95678 23.8845 7.84954 23.9127 7.77051 23.9353C7.74229 23.9353 7.70842 23.9466 7.66891 23.9522C7.61811 23.9578 7.56731 23.9635 7.52216 23.9861C7.44878 24.0199 7.39234 24.082 7.33589 24.1385C7.29638 24.1836 7.26252 24.2288 7.21736 24.257C7.19478 24.2683 7.17221 24.2796 7.14963 24.2909C7.11576 24.3022 7.0819 24.3078 7.04803 24.3134C6.99159 24.3247 6.91821 24.3247 6.88999 24.3642L6.66986 24.4715L6.59648 24.4997C6.43843 24.5674 6.28039 24.6352 6.14493 24.7481L6.11106 24.7763C6.0659 24.8102 6.02075 24.8497 5.98124 24.9174C5.93044 25.0021 5.88528 25.0754 5.81755 25.1093C5.78368 25.1262 5.74982 25.1319 5.71031 25.1375L5.63693 25.1488C5.47324 25.1883 5.34342 25.3069 5.24747 25.4028C5.15151 25.5101 5.00476 25.527 4.86365 25.5439H4.82413C4.82413 25.5439 4.78462 25.5609 4.76769 25.5721C4.76205 25.5721 4.7564 25.5834 4.74511 25.5834C4.7056 25.5947 4.67174 25.6117 4.63787 25.6399L4.5532 25.7133C4.52498 25.7415 4.49112 25.7697 4.45725 25.7866C4.43467 25.7979 4.40645 25.8149 4.37823 25.8149C4.34436 25.8149 4.30485 25.8149 4.27098 25.8036L4.22018 25.7923C4.16938 25.7866 4.12423 25.8149 4.07343 25.7979C3.98876 25.7697 3.91539 25.7979 3.84201 25.8261C3.81379 25.8374 3.79121 25.8431 3.76299 25.8487C3.68961 25.8657 3.61059 25.86 3.53721 25.86H3.40175C3.31708 25.8769 3.23806 25.8939 3.15904 25.9277C3.10259 25.9503 3.04615 25.9785 2.9897 25.9842C2.9389 25.9898 2.89375 25.9729 2.83731 25.9503C2.66797 25.8826 2.50429 25.8318 2.33495 25.7866C2.30673 25.781 2.27851 25.7697 2.26722 25.7471C2.25593 25.7302 2.25029 25.7076 2.25029 25.6907C2.239 25.6568 2.23335 25.6229 2.22207 25.6004C2.20513 25.5778 2.18255 25.5665 2.15433 25.5496L2.05838 25.4818C2.02451 25.4536 1.99065 25.431 1.96807 25.3972L1.94549 25.3689C1.94549 25.3689 1.90598 25.3238 1.90598 25.2899C1.90598 25.2391 1.88905 25.177 1.86082 25.1262L1.82131 25.0754C1.82131 25.0754 1.79309 25.0359 1.7818 25.0133C1.77051 24.9682 1.7818 24.923 1.79309 24.8722C1.81567 24.7932 1.84953 24.7255 1.79309 24.6352L1.76487 24.59C1.76487 24.59 1.731 24.5336 1.731 24.511C1.74229 24.4941 1.75358 24.4715 1.79309 24.4433C1.91162 24.353 1.94549 24.2457 1.97936 24.1385C1.99065 24.0877 2.01887 24.0369 2.0358 23.9804C2.06402 23.9183 2.09789 23.8562 2.13176 23.7998C2.15998 23.7603 2.1882 23.7151 2.22771 23.6756L2.33495 23.5684C2.36318 23.5402 2.3914 23.5063 2.43655 23.495L2.48735 23.4837C2.52122 23.4724 2.56073 23.4668 2.58895 23.4555C2.62846 23.4386 2.66233 23.4103 2.70184 23.3878C2.75264 23.3539 2.80344 23.32 2.85988 23.32C2.8881 23.32 2.92197 23.3257 2.95019 23.337C3.00664 23.3539 3.06308 23.3652 3.11388 23.3539C3.14775 23.3426 3.18726 23.3144 3.22112 23.2862L3.25499 23.2579C3.30579 23.2184 3.36788 23.1959 3.42997 23.2015H3.46383C3.46383 23.2015 3.51463 23.2128 3.53721 23.2071L3.67832 23.1789C3.79685 23.162 3.90974 23.1507 4.02827 23.0999C4.16938 23.0322 4.32178 23.0717 4.49112 23.1225C4.64351 23.1676 4.79027 23.2128 4.95396 23.1902C5.04991 23.1789 5.15151 23.1902 5.24182 23.241C5.29826 23.2692 5.35471 23.2805 5.41115 23.2918C5.45066 23.2975 5.49582 23.3087 5.53533 23.3257C5.57484 23.3426 5.60871 23.3765 5.64257 23.4047C5.69337 23.4442 5.73853 23.4894 5.79497 23.5119C5.86271 23.5402 5.94173 23.5345 6.00382 23.5289C6.03768 23.5289 6.0659 23.5289 6.09413 23.5345H6.15057C6.22395 23.5514 6.30297 23.5853 6.37635 23.6474L6.45537 23.7264C6.50617 23.7829 6.56261 23.8337 6.61906 23.8788C6.73194 23.9635 6.86741 24.003 7.0311 24.0086C7.09318 24.0086 7.16656 24.0933 7.21172 24.161C7.2343 24.1893 7.25687 24.2175 7.27381 24.2344C7.38669 24.3586 7.48265 24.415 7.59554 24.4884L7.6802 24.5505C7.74229 24.6013 7.82696 24.669 8.13176 24.5054C8.17691 24.4771 8.22771 24.4489 8.28415 24.415C8.40269 24.336 8.50993 24.2514 8.58331 24.1667C8.75828 23.9409 8.67926 23.7772 8.6454 23.7095C8.60024 23.6248 8.5438 23.5514 8.45349 23.4837C8.36882 23.4216 8.27287 23.3708 8.17691 23.3313C8.12047 23.3031 8.05838 23.2805 7.99629 23.2523L7.82696 23.1789C7.82696 23.1789 7.7818 23.1507 7.76487 23.1338L7.70843 23.0886C7.65198 23.0547 7.59554 23.0265 7.53345 22.9983L7.35283 22.908C7.23994 22.8459 7.13834 22.7556 7.03674 22.6709C7.00852 22.6483 6.97465 22.6201 6.95208 22.5863L6.9295 22.5467L6.89563 22.4903C6.83354 22.4056 6.74888 22.3887 6.6755 22.3718L6.60212 22.3548C6.50052 22.3266 6.39328 22.304 6.28604 22.2927H6.25781C6.07719 22.2589 5.74982 22.1516 5.60871 22.0613C5.5184 21.9992 5.42809 21.9597 5.33778 21.9484C5.30391 21.9484 5.27569 21.9428 5.24182 21.9428H5.16844C5.11764 21.9541 5.07249 21.9654 5.03862 21.9484C4.9596 21.9202 4.87493 21.9315 4.79027 21.9541C4.7564 21.9654 4.72254 21.9767 4.68867 21.9936C4.66045 22.0049 4.63223 22.0162 4.604 22.0275C4.51369 22.0557 4.42338 22.0162 4.32178 21.9767C4.22583 21.9428 4.1073 21.9033 4.00005 21.9315C3.9549 21.9428 3.90974 21.9597 3.87023 21.9823C3.84201 21.9936 3.81379 22.0105 3.79121 22.0218C3.72912 22.0444 3.66139 22.0557 3.57672 22.05C3.5485 22.05 3.50899 22.0387 3.46948 22.0331C3.41868 22.0218 3.36788 22.0162 3.32272 22.0162C3.16468 22.0275 3.01228 22.0783 2.85424 22.1065C2.41398 22.1686 2.01887 22.3153 1.6802 22.5806L1.62376 22.6258C1.56167 22.6766 1.49958 22.7274 1.44878 22.7895C1.42056 22.8233 1.41492 22.8685 1.40927 22.9023C1.40927 22.9193 1.40363 22.9306 1.39798 22.9419C1.38105 22.9814 1.35847 23.0209 1.33589 23.0547C1.27381 23.1225 1.1835 23.1789 1.08754 23.2354C1.00287 23.2918 0.90692 23.3595 0.850476 23.4498C0.799676 23.5289 0.777098 23.6248 0.754521 23.7151V23.7546C0.720654 23.8901 0.698077 24.003 0.675499 24.1215C0.66421 24.2006 0.652922 24.2739 0.652922 24.3473C0.652922 24.3981 0.619055 24.4489 0.590833 24.511C0.579544 24.5449 0.562611 24.5731 0.551322 24.5957C0.517456 24.6916 0.489234 24.8158 0.5231 24.94C0.551322 25.0585 0.568256 25.1093 0.579544 25.1657C0.602122 25.2561 0.619055 25.3407 0.754521 25.4875C0.850476 25.5891 0.923853 25.6455 0.889987 25.7697C0.861765 25.8882 0.889987 26.0124 0.980297 26.1309C1.03674 26.1987 1.09883 26.2608 1.16656 26.3059C1.26816 26.3793 1.36412 26.4414 1.43185 26.526C1.77051 26.955 2.18255 27.13 2.53251 27.1695C2.58895 27.1752 2.65104 27.1582 2.70748 27.1413C2.76393 27.1244 2.82037 27.1018 2.86553 27.1131C2.91633 27.1244 2.96148 27.1526 3.00664 27.1752C3.0913 27.2203 3.17597 27.2655 3.27757 27.2429C3.32837 27.2316 3.37917 27.1977 3.42997 27.1639C3.45819 27.1413 3.48641 27.1187 3.52028 27.1074C3.61059 27.0623 3.70654 27.0905 3.81379 27.1187C3.89845 27.1413 3.98312 27.1526 4.06779 27.1356C4.12423 27.1244 4.17503 27.0961 4.23147 27.0679C4.27098 27.051 4.31049 27.0284 4.34436 27.0115C4.38952 26.9945 4.42338 26.9889 4.45725 27.0002C4.51369 27.0115 4.5532 27.0002 4.604 26.9832C4.76769 26.9381 4.96525 26.876 5.19102 26.8139L5.27569 26.797C5.46195 26.7575 5.64257 26.6784 5.84577 26.5599L5.87964 26.5373C6.04897 26.4357 6.18444 26.3454 6.3199 26.2213C6.34248 26.2043 6.34812 26.1761 6.35377 26.1366C6.35941 26.1197 6.37635 26.1084 6.39328 26.1027C6.41586 26.0914 6.43843 26.0858 6.46101 26.0801C6.49488 26.0745 6.52874 26.0632 6.55697 26.0463C6.59648 26.0237 6.6247 25.9785 6.65292 25.939L6.6755 25.9052C6.70372 25.86 6.74888 25.8318 6.80532 25.8092C6.92385 25.7471 7.04803 25.6907 7.17221 25.6455L7.27945 25.6117C7.37541 25.5834 7.47136 25.5609 7.54474 25.4875C7.56731 25.4649 7.59554 25.4367 7.61247 25.4028C7.61811 25.3915 7.62376 25.3746 7.63505 25.3577C7.64634 25.3294 7.66327 25.3181 7.66891 25.3069C7.69714 25.2448 7.76487 25.2222 7.82696 25.1996L7.86082 25.1883C7.89469 25.177 7.92856 25.1714 7.96242 25.1657C8.01887 25.1545 8.06967 25.1432 8.12047 25.1206C8.17691 25.0924 8.23335 25.0472 8.27287 24.9851L8.2898 24.9682C8.32931 24.9174 8.38575 24.8553 8.36882 24.686C8.35189 24.5505 8.31802 24.415 8.25593 24.2852C8.21642 24.2006 8.17691 24.1272 8.12611 24.0651L8.10918 24.0707Z" fill="#FFDC69"/>
<path d="M9.46395 37.6348C9.73488 37.5163 9.73488 37.4485 9.74053 37.3921C9.74053 37.3695 9.75181 37.3469 9.75746 37.3243C9.76875 37.2905 9.78004 37.251 9.78004 37.2227C9.77439 37.1719 9.72359 37.1268 9.67844 37.0816C9.64457 37.0478 9.61071 37.0195 9.59942 36.98C9.59377 36.9631 9.59377 36.9462 9.59377 36.9292C9.59377 36.9067 9.60506 36.8784 9.61635 36.8502C9.63328 36.8107 9.66715 36.7543 9.63893 36.726C9.63328 36.6696 9.62764 36.6075 9.63328 36.5511V36.4946C9.64457 36.3704 9.65022 36.235 9.59942 36.1164L9.58813 36.0882C9.57119 36.0487 9.55426 36.0092 9.50346 35.964C9.43573 35.9076 9.37928 35.8568 9.37928 35.8004C9.37928 35.7721 9.39622 35.7439 9.40751 35.7157L9.43008 35.6592C9.47524 35.5238 9.4188 35.4052 9.35106 35.298C9.28333 35.1908 9.32284 35.0666 9.36235 34.9368L9.37364 34.8973C9.37364 34.8973 9.37364 34.8634 9.368 34.8465C9.368 34.8408 9.36235 34.8295 9.36235 34.8239C9.36235 34.79 9.35106 34.7505 9.33413 34.7166C9.3172 34.6884 9.29462 34.6602 9.27204 34.632C9.24946 34.5981 9.22124 34.5699 9.20995 34.536C9.19866 34.5134 9.19302 34.4909 9.19302 34.4626C9.19302 34.4288 9.20995 34.4005 9.22689 34.3667L9.24946 34.3215C9.27204 34.2764 9.23817 34.2312 9.26075 34.1861C9.30026 34.107 9.27204 34.0393 9.24382 33.9716L9.22124 33.8982C9.20431 33.8305 9.20431 33.7571 9.19866 33.6893V33.5652C9.15351 33.4918 9.11964 33.4241 9.0632 33.362C9.02369 33.3168 8.97853 33.2773 8.95595 33.2265C8.93902 33.187 8.94467 33.1418 8.95595 33.0798C8.98418 32.9104 8.97289 32.7411 8.91644 32.5774C8.90515 32.5492 8.89951 32.521 8.91644 32.4984C8.92773 32.4814 8.94467 32.4645 8.9616 32.4476C8.98982 32.4194 9.02369 32.3911 9.02933 32.3629C9.04062 32.329 9.02933 32.2952 9.02369 32.267L8.99547 32.1202L8.97289 31.9622V31.9114C8.9616 31.8719 8.95031 31.8323 8.96724 31.7928C8.98982 31.7251 9.00675 31.6517 8.97853 31.5783C8.97289 31.5558 8.95595 31.5275 8.94467 31.505C8.92773 31.4767 8.91644 31.4485 8.9108 31.4259C8.89951 31.3695 8.9108 31.3131 8.93338 31.2566C8.9616 31.1607 8.99547 31.0647 8.90515 30.9744L8.86 30.9349C8.83178 30.9067 8.80356 30.8841 8.79791 30.8615C8.79791 30.8389 8.81484 30.8163 8.84307 30.7712C8.94467 30.6244 8.9108 30.4946 8.87129 30.3817L8.8092 30.2124L8.73582 30.0092L8.69067 29.8568L8.65116 29.7157C8.63987 29.6762 8.62293 29.6423 8.63422 29.5972L8.65116 29.552C8.66245 29.5181 8.67373 29.4899 8.67373 29.456C8.67373 29.4165 8.66245 29.377 8.65116 29.3375C8.63422 29.2867 8.61729 29.2359 8.64551 29.1851C8.6568 29.1625 8.67938 29.1343 8.70196 29.1117C8.74147 29.0666 8.78098 29.0271 8.78098 28.9763C8.78098 28.9424 8.7584 28.9029 8.73582 28.869L8.71325 28.8352C8.67938 28.7844 8.67373 28.7279 8.69067 28.6771L8.70196 28.6489C8.70196 28.6489 8.71889 28.6094 8.72453 28.5868V28.4626C8.71324 28.361 8.71324 28.2594 8.6568 28.1522C8.58342 28.0224 8.62858 27.8982 8.67938 27.7627C8.72453 27.6385 8.76404 27.5144 8.71889 27.3846C8.69067 27.3055 8.69631 27.2209 8.74147 27.1418C8.76969 27.091 8.76969 27.0459 8.76969 26.9951C8.76969 26.9612 8.76969 26.9217 8.78098 26.8878C8.79227 26.854 8.82049 26.8201 8.84307 26.7862C8.87693 26.7354 8.9108 26.6903 8.92209 26.6395C8.93338 26.5774 8.89951 26.5097 8.87129 26.4645C8.85436 26.4363 8.84871 26.4137 8.84307 26.3911L8.83178 26.346C8.8092 26.2839 8.82049 26.2162 8.85436 26.1428L8.90515 26.0525C8.93902 25.996 8.97289 25.9339 8.98982 25.8775C9.02369 25.7646 8.98982 25.6517 8.89951 25.5219C8.86564 25.4711 8.9108 25.3977 8.93902 25.3413C8.95595 25.3131 8.96724 25.2905 8.97853 25.2679C9.02369 25.1381 9.02933 25.0591 9.01804 24.9462V24.8559C9.01804 24.7938 9.01804 24.6752 8.61729 24.5228C8.5552 24.5003 8.48747 24.4777 8.41409 24.4551C8.24476 24.4043 8.08107 24.3704 7.94561 24.3535C7.61259 24.314 7.52792 24.4043 7.49405 24.4495C7.4489 24.5059 7.42068 24.568 7.42068 24.6527C7.42068 24.7317 7.43197 24.8163 7.45454 24.901L7.49405 25.0534L7.52792 25.1945C7.52792 25.1945 7.52792 25.234 7.51663 25.251L7.4997 25.3074C7.4997 25.3582 7.4997 25.4034 7.50534 25.4542C7.50534 25.505 7.51663 25.5558 7.51099 25.6066C7.4997 25.7025 7.46583 25.7928 7.42068 25.8831C7.40939 25.9114 7.3981 25.9396 7.36988 25.9622L7.33601 25.9847L7.29086 26.0186C7.22312 26.075 7.24006 26.1428 7.25134 26.1992L7.26263 26.25C7.27392 26.3234 7.29086 26.4024 7.30214 26.4814V26.504C7.33601 26.6338 7.31343 26.8766 7.22312 26.9838C7.16668 27.0515 7.13846 27.1193 7.13281 27.1814C7.13281 27.2039 7.13281 27.2265 7.13846 27.2491L7.15539 27.2999C7.17232 27.3338 7.18361 27.3676 7.17232 27.3958C7.1441 27.4523 7.17232 27.5144 7.20619 27.5765C7.22312 27.599 7.24006 27.6273 7.26263 27.6498C7.27957 27.6724 7.30214 27.6893 7.31343 27.7119C7.35294 27.7797 7.31343 27.8474 7.26828 27.9208C7.22312 27.9941 7.18361 28.0675 7.20619 28.1409C7.21748 28.1691 7.24006 28.203 7.25699 28.2312L7.2965 28.2877C7.31908 28.3328 7.32472 28.378 7.30779 28.4344C7.30214 28.457 7.28521 28.4796 7.26828 28.5078C7.2457 28.5417 7.22877 28.5755 7.22312 28.6037C7.20619 28.711 7.22877 28.8239 7.20619 28.9311C7.13281 29.2303 7.12152 29.5012 7.17232 29.7608V29.806C7.18361 29.8512 7.1949 29.902 7.21748 29.9471C7.22877 29.9697 7.26263 29.9923 7.29086 30.0036L7.32472 30.0205C7.32472 30.0205 7.36988 30.0656 7.37552 30.0939C7.38681 30.1503 7.3473 30.2124 7.30779 30.2801C7.26828 30.3422 7.22877 30.4043 7.22877 30.472C7.22877 30.5285 7.26263 30.5793 7.2965 30.6301L7.30779 30.6527C7.35294 30.7204 7.37552 30.7938 7.3981 30.8671L7.4489 31.0026C7.46019 31.0308 7.43761 31.0647 7.41503 31.1042C7.40374 31.1268 7.39245 31.1437 7.38117 31.1607C7.35294 31.2227 7.33037 31.2905 7.36988 31.3582C7.40374 31.4147 7.40939 31.4542 7.42068 31.488C7.43197 31.5388 7.44325 31.5896 7.5505 31.6856C7.62952 31.7533 7.68596 31.8041 7.58436 31.8719C7.48841 31.9339 7.4489 32.0017 7.45454 32.0807C7.45454 32.1315 7.47712 32.1766 7.4997 32.2218C7.52792 32.2895 7.55614 32.3573 7.52792 32.4194C7.37552 32.7411 7.34166 32.9951 7.40374 33.2152C7.41503 33.2491 7.45454 33.283 7.48841 33.3168C7.52792 33.3507 7.56179 33.3789 7.56179 33.4071C7.56179 33.441 7.53357 33.4749 7.51099 33.5087C7.47148 33.5708 7.42632 33.6385 7.47148 33.7006C7.49405 33.7345 7.53921 33.7627 7.58436 33.7909C7.61259 33.8079 7.64081 33.8248 7.66339 33.8417C7.71983 33.8982 7.69161 33.9659 7.66339 34.0393C7.63516 34.0957 7.61259 34.1578 7.62388 34.2143C7.63516 34.2538 7.65774 34.2877 7.68596 34.3215C7.7029 34.3441 7.72547 34.3723 7.73676 34.3949C7.74805 34.4231 7.74805 34.4513 7.73676 34.4739C7.71419 34.5134 7.71983 34.5417 7.72547 34.5755C7.74805 34.6884 7.77063 34.8408 7.7537 34.9988V35.0609C7.71983 35.1908 7.72547 35.3319 7.75934 35.4899V35.5181C7.79321 35.648 7.82143 35.7834 7.88352 35.9132C7.89481 35.9358 7.91738 35.9471 7.9569 35.964C7.97383 35.9753 7.97383 35.9866 7.97383 35.9979C7.97383 36.0148 7.96818 36.0318 7.96254 36.0544C7.95125 36.0826 7.94561 36.1108 7.94561 36.1334C7.94561 36.1672 7.97947 36.2011 8.01334 36.2293L8.04156 36.2576C8.07543 36.2914 8.08107 36.3309 8.08107 36.3817C8.08672 36.489 8.08107 36.5962 8.06978 36.7035L8.05285 36.7938C8.03592 36.8784 8.01898 36.9631 8.06414 37.0365C8.08107 37.0647 8.10365 37.0873 8.12623 37.1099C8.13752 37.1211 8.15445 37.1268 8.17138 37.1381C8.1996 37.155 8.1996 37.1663 8.21654 37.1719C8.27298 37.2058 8.27298 37.2623 8.26734 37.3187V37.3526C8.26734 37.3808 8.25605 37.409 8.2504 37.4429C8.23912 37.4937 8.23347 37.5445 8.24476 37.5896C8.25605 37.6461 8.29556 37.6969 8.34636 37.742L8.36329 37.759C8.40845 37.7985 8.46489 37.8606 8.66809 37.8493C8.83178 37.838 9.00111 37.8098 9.17609 37.759C9.28333 37.7307 9.38493 37.6912 9.47524 37.6517L9.46395 37.6348Z" fill="#FFDC69"/>
<path d="M8.28906 24.4192C8.53742 24.0523 9.28812 23.4314 10.0219 23.0984C10.7839 22.7485 11.4725 22.6356 12.3248 22.6074C13.1771 22.5791 14.2326 22.867 14.8196 23.4258C15.4067 23.9846 15.6268 24.8369 15.2655 25.5481C14.9551 26.1633 14.2665 26.4399 13.5892 26.5133C12.9231 26.5923 11.9974 26.5415 10.925 25.9037C10.0953 25.4126 9.14137 24.7692 8.29471 24.4249" fill="#FFDC69"/>
<path d="M8.2886 24.4192C8.04025 24.0523 7.28954 23.4314 6.55577 23.0984C5.79378 22.7485 5.10516 22.6356 4.25286 22.6074C3.40055 22.5791 2.34505 22.867 1.75803 23.4258C1.17101 23.9846 0.950881 24.8369 1.31212 25.5481C1.62256 26.1633 2.31118 26.4399 2.98851 26.5133C3.65455 26.5923 4.58023 26.5415 5.65267 25.9037C6.4824 25.4126 7.4363 24.7692 8.28296 24.4249" fill="#FFDC69"/>
</g>
</g>
<defs>
<clipPath id="clip0_1_243">
<rect width="96" height="60" fill="white" transform="translate(0.5)"/>
</clipPath>
<clipPath id="clip1_1_243">
<rect width="96" height="18.5532" fill="white" transform="translate(0.5 20.7227)"/>
</clipPath>
</defs>
</svg>
