<svg width="183" height="180" viewBox="0 0 183 180" fill="none" xmlns="http://www.w3.org/2000/svg">
<g clip-path="url(#clip0_1_257)">
<rect width="183" height="180" rx="90" fill="#FEEA9C"/>
<g clip-path="url(#clip1_1_257)">
<path d="M96.8524 170.94C97.1887 172.592 97.2326 174.537 97.2911 176.234C97.3496 177.916 97.7299 179.598 98.973 180.841C99.9383 181.791 100.977 182.391 102.351 182.713C103.638 183.02 105.174 183.181 106.49 183.181C107.807 183.181 109.693 183.122 110.732 182.859C112.414 182.435 113.364 181.718 114.315 180.446C115.178 179.276 115.616 177.448 115.807 176.044C116.216 173.133 115.982 169.945 115.616 167.035" fill="#FAA634"/>
<path d="M87.0094 170.94C86.673 172.592 86.6292 174.537 86.5707 176.234C86.5122 177.916 86.1319 179.598 84.8888 180.841C83.9235 181.791 82.8851 182.391 81.5104 182.713C80.2233 183.02 78.6877 183.181 77.3714 183.181C76.0552 183.181 74.1685 183.122 73.1301 182.859C71.4482 182.435 70.483 181.718 69.547 180.446C68.6841 179.276 68.2453 177.448 68.0552 176.044C67.6457 173.133 67.8797 169.945 68.2453 167.035" fill="#FAA634"/>
<path d="M114.858 167.238C114.42 167.443 114.42 167.662 114.405 167.838C114.405 167.911 114.39 167.984 114.376 168.043C114.361 168.145 114.332 168.247 114.346 168.35C114.346 168.525 114.434 168.686 114.507 168.832C114.566 168.949 114.61 169.052 114.639 169.169C114.639 169.227 114.639 169.271 114.639 169.33C114.639 169.403 114.61 169.476 114.595 169.564C114.566 169.681 114.507 169.827 114.551 169.929C114.551 170.105 114.551 170.295 114.551 170.47V170.631C114.522 171.012 114.493 171.392 114.551 171.772V171.86C114.58 171.991 114.61 172.109 114.683 172.269C114.771 172.46 114.858 172.635 114.844 172.811C114.844 172.898 114.8 172.971 114.771 173.045L114.712 173.205C114.595 173.571 114.654 173.937 114.712 174.288C114.771 174.639 114.654 174.96 114.522 175.311L114.478 175.414C114.478 175.414 114.463 175.516 114.463 175.56C114.463 175.589 114.463 175.604 114.463 175.633C114.449 175.736 114.434 175.838 114.449 175.94L114.493 176.218C114.507 176.321 114.522 176.423 114.522 176.525C114.522 176.598 114.522 176.672 114.493 176.73C114.463 176.818 114.42 176.891 114.361 176.979L114.288 177.096C114.215 177.213 114.229 177.344 114.156 177.447C114.025 177.622 114.01 177.812 113.981 178.002C113.981 178.076 113.966 178.134 113.937 178.207C113.893 178.383 113.82 178.558 113.732 178.719L113.601 178.997C113.557 179.202 113.513 179.348 113.498 179.538C113.484 179.67 113.484 179.787 113.41 179.904C113.352 180.006 113.264 180.094 113.147 180.196C112.84 180.489 112.533 180.767 112.211 181.059C112.167 181.103 112.109 181.147 112.05 181.161C112.006 181.161 111.963 181.161 111.904 181.161C111.816 181.147 111.743 181.132 111.685 181.161C111.612 181.161 111.538 181.22 111.48 181.264L111.158 181.425C111.041 181.483 110.91 181.542 110.778 181.571L110.646 181.615C110.544 181.644 110.442 181.688 110.339 181.673C110.193 181.673 109.988 181.673 109.798 181.732L109.593 181.805C109.52 181.834 109.447 181.863 109.359 181.878C109.213 181.907 109.037 181.878 108.877 181.878C108.613 181.849 108.335 181.805 108.058 181.951L107.926 182.024C107.853 182.068 107.765 182.112 107.707 182.127C107.648 182.127 107.56 182.097 107.443 182.054C107.019 181.893 106.61 181.937 106.288 181.98L105.791 182.054L105.176 182.112H104.723L104.299 182.141C104.182 182.141 104.065 182.141 103.963 182.112L103.831 182.068C103.743 182.039 103.655 181.995 103.568 181.98C103.451 181.951 103.334 181.951 103.217 181.951C103.056 181.951 102.91 181.951 102.778 181.863C102.719 181.834 102.661 181.776 102.602 181.732C102.5 181.644 102.412 181.556 102.295 181.512C102.208 181.498 102.105 181.498 102.003 181.512H101.915C101.769 181.512 101.637 181.483 101.52 181.395L101.462 181.352C101.462 181.352 101.374 181.278 101.33 181.249L101.038 181.103C100.804 180.971 100.584 180.825 100.306 180.737C99.9699 180.635 99.7213 180.313 99.5604 180.021C99.3995 179.743 99.2825 179.48 99.0631 179.246C98.9169 179.099 98.8438 178.909 98.8145 178.69C98.8145 178.558 98.756 178.441 98.7268 178.324C98.6975 178.236 98.6683 178.149 98.6683 178.046C98.6683 177.944 98.6683 177.856 98.6975 177.754C98.7268 177.622 98.756 177.476 98.7414 177.344C98.7267 177.169 98.639 177.008 98.5805 176.876C98.5366 176.818 98.522 176.745 98.5074 176.672L98.4781 176.54C98.4196 176.364 98.4196 176.174 98.4781 175.911L98.5366 175.619C98.5805 175.414 98.6098 175.224 98.6244 175.019C98.639 174.639 98.5512 174.258 98.3465 173.893C98.2734 173.761 98.3026 173.469 98.3465 173.264C98.3465 173.162 98.3611 173.074 98.3757 173.001C98.3757 172.547 98.3172 172.24 98.2149 171.86L98.1417 171.553C98.0979 171.333 97.9809 170.909 97.2789 170.924C97.1765 170.924 97.0595 170.924 96.9279 170.953C96.65 170.997 96.3867 171.085 96.182 171.172C95.6847 171.406 95.6262 171.67 95.6116 171.816C95.5823 171.977 95.5823 172.138 95.6408 172.343C95.6847 172.533 95.7578 172.723 95.8456 172.913C95.8895 173.03 95.9333 173.147 95.9772 173.293L96.0942 173.659C96.0942 173.659 96.0942 173.761 96.0942 173.82V173.981C96.0942 174.112 96.1381 174.244 96.1527 174.375C96.182 174.522 96.2112 174.653 96.2112 174.8C96.2258 175.077 96.182 175.355 96.1527 175.619C96.1527 175.692 96.1235 175.779 96.0796 175.867L96.0357 175.94L95.9626 176.043C95.8602 176.218 95.9041 176.423 95.9626 176.598L96.0065 176.759C96.0503 177.008 96.1088 177.242 96.182 177.491V177.564C96.3136 177.988 96.4598 178.792 96.4745 179.202C96.4745 179.465 96.533 179.714 96.6207 179.933C96.65 180.006 96.6939 180.079 96.7377 180.152C96.767 180.211 96.8109 180.255 96.8547 180.299C96.9425 180.401 97.0156 180.489 97.0449 180.591C97.118 180.796 97.2935 180.971 97.469 181.118C97.5421 181.176 97.6299 181.22 97.7176 181.264C97.7907 181.308 97.8492 181.337 97.9224 181.381C98.1417 181.512 98.2587 181.746 98.3904 181.966C98.522 182.185 98.6682 182.405 98.9169 182.536C99.0046 182.595 99.1216 182.624 99.224 182.653L99.4288 182.712C99.575 182.77 99.7213 182.858 99.8821 182.975C99.9406 183.034 100.014 183.092 100.072 183.151C100.16 183.238 100.248 183.311 100.35 183.385C100.687 183.589 101.067 183.692 101.418 183.853C102.412 184.277 103.217 184.423 104.065 184.481H104.211C104.357 184.496 104.518 184.511 104.665 184.481C104.738 184.481 104.811 184.423 104.869 184.379C104.899 184.364 104.913 184.35 104.942 184.335C105.016 184.306 105.103 184.277 105.191 184.277C105.381 184.277 105.571 184.35 105.761 184.438C105.952 184.511 106.142 184.584 106.361 184.598C106.551 184.598 106.712 184.555 106.873 184.511H106.946C107.165 184.423 107.385 184.394 107.619 184.35L108.043 184.262C108.131 184.247 108.248 184.277 108.365 184.321C108.423 184.335 108.482 184.35 108.54 184.364C108.716 184.408 108.935 184.438 109.169 184.364C109.359 184.306 109.476 184.291 109.579 184.262C109.754 184.233 109.9 184.204 110.222 183.999C110.442 183.853 110.602 183.736 110.836 183.867C111.07 183.984 111.304 183.999 111.568 183.926C111.729 183.882 111.875 183.794 112.021 183.721C112.24 183.604 112.445 183.472 112.665 183.428C113.805 183.224 114.654 182.58 115.107 181.922C115.18 181.82 115.224 181.688 115.253 181.556C115.282 181.425 115.312 181.308 115.385 181.235C115.458 181.147 115.575 181.059 115.677 180.986C115.853 180.84 116.043 180.679 116.101 180.445C116.131 180.313 116.131 180.182 116.101 180.05C116.101 179.962 116.087 179.889 116.087 179.816C116.087 179.597 116.233 179.406 116.379 179.202C116.496 179.041 116.599 178.88 116.643 178.69C116.672 178.558 116.672 178.427 116.672 178.295C116.672 178.207 116.672 178.105 116.672 178.017C116.672 177.915 116.701 177.842 116.745 177.783C116.818 177.681 116.833 177.593 116.847 177.476C116.906 177.11 116.994 176.628 117.111 176.145L117.154 175.97C117.271 175.575 117.33 175.151 117.345 174.624V174.536C117.359 174.112 117.359 173.688 117.301 173.264C117.301 173.191 117.257 173.147 117.198 173.088C117.184 173.059 117.184 173.001 117.184 172.971C117.184 172.913 117.198 172.869 117.213 172.811C117.242 172.737 117.257 172.65 117.257 172.577C117.257 172.46 117.213 172.357 117.169 172.24L117.14 172.152C117.096 172.035 117.096 171.904 117.096 171.757C117.096 171.436 117.125 171.099 117.154 170.778L117.198 170.514C117.242 170.28 117.271 170.032 117.198 169.783C117.169 169.695 117.14 169.622 117.096 169.534C117.081 169.505 117.052 169.461 117.023 169.432C116.979 169.374 116.979 169.33 116.95 169.3C116.862 169.169 116.862 169.008 116.877 168.832V168.745C116.877 168.657 116.891 168.569 116.906 168.496C116.92 168.35 116.935 168.218 116.92 168.087C116.906 167.926 116.847 167.75 116.76 167.604L116.73 167.545C116.657 167.399 116.555 167.209 116.233 167.136C115.97 167.077 115.677 167.063 115.399 167.121C115.224 167.151 115.063 167.194 114.917 167.268L114.858 167.238Z" fill="#231F20"/>
<path d="M67.4749 167.032C66.9922 167.12 66.9337 167.339 66.8899 167.529C66.8752 167.602 66.846 167.661 66.8167 167.734C66.7729 167.836 66.729 167.939 66.7144 168.041C66.6851 168.216 66.7144 168.407 66.7582 168.567C66.7875 168.699 66.8167 168.816 66.8167 168.948C66.8167 169.006 66.8167 169.065 66.7875 169.123C66.7729 169.196 66.7436 169.269 66.7144 169.357C66.6705 169.474 66.5827 169.621 66.612 169.723C66.5974 169.913 66.5681 170.103 66.5242 170.293L66.495 170.469C66.4219 170.864 66.3634 171.273 66.3926 171.697V171.8C66.4072 171.931 66.4219 172.078 66.495 172.253C66.5827 172.458 66.6559 172.663 66.6559 172.853C66.6559 172.94 66.6266 173.028 66.5974 173.116L66.5535 173.291C66.4657 173.701 66.5535 174.11 66.6412 174.476C66.7436 174.842 66.6851 175.237 66.6412 175.646V175.763C66.6412 175.763 66.6412 175.88 66.6412 175.939C66.6412 175.968 66.6559 175.982 66.6559 176.012C66.6559 176.129 66.6851 176.246 66.729 176.363C66.7582 176.465 66.8021 176.553 66.8606 176.655C66.9045 176.758 66.963 176.86 67.0069 176.977C67.0361 177.05 67.0507 177.138 67.0654 177.211C67.0654 177.313 67.0654 177.416 67.0654 177.533V177.679C67.0507 177.84 67.1239 177.971 67.1092 178.132C67.1092 178.396 67.197 178.63 67.2994 178.849L67.4017 179.083L67.665 179.77C67.7235 179.902 67.7674 180.048 67.8405 180.18C68.0014 180.429 68.1769 180.619 68.3816 180.794C68.5279 180.911 68.6888 181.043 68.8058 181.145C68.9081 181.248 68.9813 181.379 69.0983 181.54C69.42 182.023 69.8588 182.476 70.4292 182.783C70.5169 182.842 70.6047 182.886 70.6778 182.959C70.7217 183.003 70.7509 183.061 70.7948 183.12C70.8533 183.207 70.9118 183.31 70.9995 183.383C71.1019 183.456 71.2043 183.514 71.3213 183.558C71.4968 183.631 71.6577 183.69 71.8332 183.748L72.3889 183.909L72.5644 183.953C72.7107 183.982 72.8277 184.012 72.9739 184.07C73.2079 184.173 73.4566 184.246 73.7344 184.26C73.8222 184.26 73.9099 184.26 73.9977 184.26C74.1001 184.26 74.1878 184.246 74.2756 184.246C74.4511 184.246 74.6266 184.304 74.8167 184.348C75.1092 184.421 75.4163 184.509 75.7235 184.377L75.8697 184.319C75.9575 184.275 76.0452 184.231 76.1183 184.231C76.1915 184.231 76.2646 184.26 76.3962 184.319C76.835 184.509 77.2591 184.465 77.6394 184.407L78.2097 184.304L78.8825 184.158L79.3798 184.056L79.8331 183.953C79.9501 183.924 80.0671 183.88 80.1988 183.895H80.345C80.4474 183.895 80.5498 183.895 80.6522 183.895C80.7838 183.88 80.9008 183.836 81.0324 183.792C81.1933 183.734 81.3542 183.675 81.515 183.69C81.6028 183.69 81.6759 183.705 81.7637 183.734C81.9245 183.763 82.0854 183.792 82.2463 183.734C82.3633 183.69 82.4803 183.631 82.5827 183.558L82.685 183.485C82.8459 183.368 83.0214 183.295 83.1969 183.251H83.2847C83.3578 183.222 83.4309 183.193 83.5041 183.163L83.9136 182.944C84.2353 182.769 84.5424 182.549 84.7764 182.242C85.0543 181.862 85.4053 181.657 85.8002 181.335C86.1658 181.043 86.5168 180.692 86.6777 180.224C86.7801 179.946 86.9117 179.668 87.0726 179.419C87.175 179.258 87.2335 179.083 87.292 178.922C87.3359 178.79 87.3651 178.673 87.409 178.542C87.4529 178.425 87.526 178.308 87.5845 178.191C87.6722 178.03 87.76 177.854 87.7892 177.679C87.8331 177.445 87.7892 177.211 87.76 177.05C87.7454 176.962 87.7307 176.875 87.7307 176.787V176.626C87.6869 176.407 87.7015 176.187 87.76 175.939L87.8331 175.646C87.8916 175.456 87.9355 175.266 87.9647 175.061C88.0086 174.695 87.9647 174.33 87.7892 173.964C87.7307 173.833 87.7892 173.569 87.8477 173.379C87.877 173.291 87.8916 173.204 87.9062 173.145C87.994 172.736 87.9794 172.458 87.9794 172.107V171.829C87.9794 171.624 88.0232 171.273 87.3651 171.025C87.2627 170.981 87.1604 170.951 87.0287 170.922C86.7508 170.864 86.4876 170.834 86.2536 170.849C85.6978 170.893 85.5516 171.2 85.4785 171.332C85.4053 171.507 85.3468 171.697 85.3468 171.931C85.3468 172.165 85.3761 172.385 85.4053 172.619C85.42 172.75 85.4492 172.897 85.4638 173.043L85.5223 173.452C85.5223 173.452 85.5223 173.569 85.5223 173.628V173.789C85.4931 173.935 85.5223 174.067 85.5223 174.213C85.5223 174.359 85.5516 174.505 85.5516 174.652C85.5516 174.929 85.4785 175.207 85.42 175.485C85.4053 175.558 85.3907 175.646 85.3322 175.719L85.2737 175.792L85.2006 175.895C85.0836 176.085 85.1128 176.246 85.1421 176.377C85.1421 176.421 85.1567 176.465 85.1567 176.509L85.2006 177.094V177.152C85.2298 177.489 85.0543 178.088 84.8496 178.279C84.7179 178.41 84.6156 178.527 84.5717 178.659C84.5571 178.703 84.5278 178.747 84.5278 178.79V178.907C84.4986 178.981 84.4839 179.054 84.4401 179.098C84.3377 179.185 84.3084 179.317 84.2792 179.449C84.2792 179.507 84.2646 179.566 84.2499 179.624C84.2499 179.683 84.2499 179.726 84.2207 179.77C84.1622 179.917 84.0013 179.99 83.8112 180.078C83.6357 180.151 83.4602 180.209 83.3286 180.355C83.2847 180.414 83.2408 180.487 83.1969 180.56L83.1092 180.692C83.0361 180.78 82.9483 180.853 82.8167 180.897C82.7582 180.911 82.6997 180.926 82.6412 180.926C82.5534 180.926 82.4657 180.926 82.3925 180.97C82.1439 181.057 81.9245 181.174 81.6467 181.218C80.9447 181.306 80.1549 181.408 79.4675 181.555L79.3505 181.584C79.2189 181.613 79.0873 181.628 78.9556 181.672C78.8971 181.701 78.8386 181.759 78.7948 181.803C78.7801 181.818 78.7655 181.847 78.7363 181.862C78.6778 181.906 78.6046 181.935 78.5315 181.95C78.3706 181.979 78.1951 181.92 78.005 181.862C77.8295 181.803 77.6686 181.73 77.4931 181.73C77.3469 181.73 77.186 181.774 77.0251 181.818H76.952C76.7472 181.906 76.5279 181.935 76.3231 181.964L75.9282 182.023C75.8405 182.023 75.7381 181.993 75.6357 181.95C75.5772 181.92 75.5333 181.906 75.4895 181.891C75.3286 181.833 75.1385 181.774 74.9337 181.818C74.7582 181.847 74.6558 181.847 74.5681 181.847C74.4218 181.847 74.2902 181.847 73.9831 181.964C73.7637 182.052 73.6028 182.11 73.5004 181.906C73.4127 181.73 73.2664 181.613 73.0763 181.555C72.9593 181.525 72.8423 181.511 72.7107 181.496C72.5352 181.482 72.3597 181.438 72.2427 181.321C71.7162 180.736 71.4383 180.341 71.0142 179.975C70.941 179.917 70.8533 179.887 70.7509 179.843C70.6485 179.814 70.5608 179.77 70.5169 179.697C70.473 179.624 70.473 179.551 70.473 179.463C70.473 179.317 70.473 179.156 70.3414 179.054C70.2829 178.995 70.1805 178.951 70.0928 178.907C70.0343 178.878 69.9758 178.849 69.9319 178.82C69.7856 178.717 69.7856 178.527 69.7856 178.322C69.7856 178.176 69.7856 178.015 69.7271 177.869C69.6833 177.767 69.6248 177.679 69.5663 177.591C69.5224 177.533 69.4785 177.46 69.4493 177.401C69.42 177.328 69.4054 177.255 69.42 177.196C69.4493 177.094 69.42 177.021 69.3908 176.918C69.3176 176.611 69.2299 176.187 69.2299 175.763V175.602C69.2445 175.237 69.2299 174.856 69.186 174.388V174.315C69.1421 173.935 69.1129 173.555 69.0398 173.174C69.0398 173.116 68.9813 173.072 68.9374 173.014C68.9228 172.984 68.9228 172.94 68.9228 172.897C68.9228 172.853 68.9374 172.794 68.952 172.75C68.9666 172.677 68.9959 172.604 68.9959 172.531C68.9959 172.429 68.952 172.326 68.9081 172.224L68.8789 172.136C68.835 172.019 68.835 171.902 68.8496 171.77C68.8789 171.463 68.9228 171.156 68.9813 170.849L69.0398 170.6C69.0983 170.381 69.1714 170.162 69.1421 169.913C69.1421 169.825 69.1129 169.752 69.0836 169.664C69.0836 169.635 69.0544 169.591 69.0398 169.562C69.0105 169.503 69.0105 169.46 68.9959 169.43C68.9228 169.299 68.9666 169.138 68.9959 168.977V168.889C69.0398 168.816 69.069 168.728 69.0836 168.655C69.1275 168.524 69.1714 168.407 69.186 168.275C69.2006 168.114 69.186 167.953 69.1421 167.778V167.719C69.0983 167.573 69.0398 167.368 68.7473 167.207C68.4986 167.09 68.2354 167.003 67.9429 166.988C67.7674 166.973 67.5919 166.988 67.431 167.003L67.4749 167.032Z" fill="#231F20"/>
<path d="M66.942 164.12C58.942 165.1 54.4082 160.171 53.1504 153.78C51.9512 147.682 53.911 141.1 57.9329 136.376C62.1303 131.433 70.2765 126.694 75.2637 125.217H108.58C113.582 126.694 121.728 131.433 125.911 136.376C129.933 141.115 131.892 147.696 130.693 153.78C129.435 160.171 124.902 165.1 116.902 164.12" fill="#FFEF6C"/>
<path d="M66.3299 136.48C63.4195 142.886 62.2203 149.321 63.0978 155.171C63.5219 157.965 64.2239 160.714 65.4232 163.171C68.0264 168.495 72.5602 171.259 77.5474 172.809C82.1397 174.228 87.1415 174.798 91.924 174.652C96.7064 174.798 101.708 174.228 106.301 172.809C111.288 171.259 115.821 168.495 118.425 163.171C119.624 160.729 120.326 157.965 120.75 155.171C121.628 149.321 120.443 142.872 117.518 136.48" fill="#FFEF6C"/>
<path d="M117.166 164.928C117.693 165.44 118.6 165.542 119.316 165.527C119.594 165.527 119.887 165.557 120.164 165.527C120.589 165.513 121.027 165.527 121.452 165.44C122.168 165.308 122.856 165.089 123.47 164.796C123.923 164.621 124.347 164.343 124.786 164.138C124.991 164.05 125.196 163.933 125.4 163.816C125.678 163.655 125.971 163.538 126.234 163.378C126.643 163.1 127.185 162.836 127.462 162.5C128.047 162.003 128.574 161.432 129.071 160.862L129.51 160.292C130.461 159.019 131.206 157.542 131.631 155.977L131.733 155.597C131.879 155.085 131.967 154.573 132.026 153.915C132.084 153.125 132.099 152.379 132.157 151.663L132.274 150.683C132.303 150.463 132.333 150.259 132.333 150.039C132.435 148.504 132.186 146.968 131.806 145.608C131.426 144.248 131.104 142.888 130.607 141.469L130.461 141.074C130.387 140.855 130.3 140.665 130.197 140.489C130.153 140.401 130.11 140.328 130.066 140.226C129.89 139.831 129.685 139.451 129.437 139.085C129.232 138.763 129.027 138.456 128.793 138.164L128.047 137.184L127.521 136.467C127.302 136.175 127.097 135.853 126.877 135.546L126.556 135.122C126.234 134.683 125.824 134.317 125.473 133.922C124.918 133.25 124.245 132.694 123.587 132.182C123.353 131.992 123.119 131.816 122.885 131.626C122.227 131.129 121.583 130.617 120.925 130.134C120.545 129.842 120.15 129.579 119.755 129.315C118.965 128.833 118.278 128.453 117.547 128.116C117.049 127.882 116.537 127.648 116.04 127.4C115.601 127.166 115.177 126.932 114.592 126.595C112.925 125.659 111.126 124.84 109.166 124.27C108.991 124.226 108.684 124.094 108.435 124.138C108.186 124.138 108.113 124.138 107.952 124.124C107.762 124.109 107.587 124.065 107.397 124.036C107.104 123.977 106.797 123.933 106.49 123.919C106.124 123.89 105.759 123.904 105.378 123.919L103.711 123.948H101.883L101.298 123.977C100.845 123.977 100.391 123.977 99.9379 123.977C99.2212 123.933 98.3584 123.904 97.4955 123.933L96.618 123.977L95.6673 124.021C95.0531 124.021 94.4242 124.007 93.7514 123.963C92.713 123.904 91.6308 123.846 90.5339 123.977L90.0366 124.05C89.7295 124.094 89.437 124.138 89.1738 124.138C88.9398 124.138 88.6472 124.109 88.1792 124.065C86.5851 123.89 85.0495 123.933 83.7478 123.992L81.7734 124.08L79.4041 124.182L77.6491 124.241L76.0257 124.299L75.3237 124.328C75.1482 124.314 74.9727 124.358 74.8118 124.416L74.4462 124.518L73.9051 124.665L72.8374 125.016C72.4133 125.191 71.9892 125.381 71.565 125.586C71.0093 125.864 70.4828 126.127 69.9563 126.347L69.1665 126.639C68.7131 126.815 68.2305 126.99 67.7479 127.253C67.4115 127.458 67.0459 127.692 66.7095 127.941L66.4024 128.16C65.9051 128.511 65.3786 128.862 64.8521 129.169L64.5888 129.315C64.3695 129.432 64.1647 129.564 63.96 129.696C63.5505 129.974 63.1556 130.251 62.7607 130.559C61.7954 131.246 60.8448 132.021 59.9673 132.899C58.9289 133.981 57.8174 134.975 56.7351 136.189C55.7552 137.286 54.8485 138.544 54.2196 139.948C53.8393 140.796 53.4298 141.718 53.035 142.61C52.7717 143.151 52.6255 143.736 52.4499 144.306L52.1136 145.579L51.7772 146.836C51.6309 147.436 51.4993 148.036 51.4554 148.65C51.3823 149.454 51.4262 150.244 51.5139 150.829C51.5432 151.136 51.5724 151.429 51.6163 151.721L51.7041 152.277C51.8211 153.023 51.9381 153.827 52.1282 154.807C52.1867 155.187 52.2744 155.568 52.3768 155.948C52.5523 156.708 52.801 157.454 53.1227 158.186C53.737 159.56 54.673 160.818 55.843 161.754C56.077 161.915 56.3841 162.207 56.7059 162.515C57.0569 162.792 57.4225 163.1 57.7443 163.363C58.066 163.568 58.3585 163.758 58.5925 163.919C60.1574 164.796 61.3713 165.059 62.8484 165.264L64.0185 165.352C64.4426 165.352 65.0568 165.352 65.598 165.235C66.1391 165.089 66.6217 164.869 66.8119 164.518C66.8704 164.416 66.885 164.299 66.885 164.167C66.885 163.875 66.7534 163.626 66.534 163.421C65.9929 162.939 65.013 162.895 64.545 162.822C63.9746 162.778 63.3896 162.675 62.6729 162.573C61.9856 162.471 61.3274 162.324 60.6693 162.12C60.289 161.988 59.8795 161.856 59.4554 161.622C59.0752 161.447 58.7241 161.213 58.3585 160.979C58.1976 160.891 58.066 160.745 57.9344 160.613C57.8028 160.496 57.6858 160.379 57.5541 160.248C57.2324 159.926 56.9106 159.604 56.6181 159.239C56.311 158.873 56.0185 158.478 55.7845 158.054C55.2872 157.25 54.9655 156.343 54.7315 155.436C54.6584 155.173 54.5999 154.895 54.556 154.632V154.368L54.5413 154.003C54.4828 153.374 54.3805 152.774 54.2781 152.248L54.205 151.75C54.1026 151.005 54.0587 150.244 54.0441 149.484V149.279C53.9856 147.963 54.5121 145.491 54.9947 144.467C55.2872 143.809 55.5505 143.18 55.8137 142.581C55.9015 142.361 55.9892 142.156 56.0624 141.952L56.2525 141.484C56.3841 141.162 56.5011 140.855 56.662 140.635C56.9691 140.138 57.2763 139.582 57.5541 139.041L57.9051 138.383C57.9929 138.208 58.0806 138.017 58.1976 137.842C58.5633 137.257 59.0898 136.76 59.6748 136.248C60.2452 135.765 60.8302 135.283 61.4152 134.712L62.0879 134.025C62.2342 133.879 62.3658 133.718 62.5267 133.586C62.8777 133.279 63.2726 132.928 63.7698 132.606L64.428 132.211C64.7351 132.036 65.0422 131.86 65.3347 131.67C66.3 131.041 67.2799 130.398 68.3036 129.842C69.7077 129.096 71.0678 128.438 72.3987 127.853C73.0568 127.56 73.7149 127.297 74.3585 127.049C74.6802 126.917 75.002 126.815 75.3237 126.712C75.4846 126.654 75.3968 126.683 75.4261 126.668H75.938L76.4352 126.654C76.9617 126.654 77.4882 126.639 78.0147 126.595C78.278 126.581 78.4974 126.522 78.6875 126.478L78.9069 126.434C79.1701 126.39 79.448 126.361 79.7405 126.361C80.384 126.361 81.0568 126.42 81.7734 126.493C82.4316 126.566 83.1189 126.624 83.8356 126.639C84.4498 126.639 85.0348 126.595 85.6345 126.551H85.8831C86.6875 126.464 87.4919 126.434 88.2962 126.405L89.8026 126.332C90.1244 126.317 90.5046 126.361 90.9142 126.405C91.1189 126.42 91.309 126.449 91.4992 126.464C92.1427 126.507 92.9032 126.551 93.6929 126.507C94.3511 126.464 94.7752 126.449 95.1408 126.449C95.7405 126.449 96.2523 126.42 97.4224 126.259C98.2414 126.142 98.841 126.054 99.4991 126.23C100.099 126.39 100.815 126.464 101.708 126.464C102.234 126.464 102.761 126.434 103.287 126.405C104.077 126.361 104.808 126.332 105.51 126.39C106.358 126.449 107.163 126.507 107.938 126.566C108.537 126.61 108.084 126.566 108.625 126.727C108.947 126.844 109.269 126.975 109.576 127.107C110.819 127.634 111.96 128.16 113.057 128.672C113.422 128.833 113.773 128.979 114.139 129.096C114.505 129.213 114.841 129.345 115.133 129.535C115.441 129.725 115.718 129.93 116.011 130.149C116.508 130.529 117.02 130.939 117.634 131.275C117.956 131.451 118.292 131.597 118.629 131.743C118.834 131.831 119.038 131.919 119.228 132.021C119.813 132.343 120.355 132.811 120.91 133.337C121.349 133.732 121.773 134.171 122.271 134.581C122.578 134.844 122.899 135.107 123.236 135.341C123.47 135.517 123.675 135.707 123.894 135.897C124.143 136.116 124.318 136.306 124.45 136.496C124.654 136.804 124.874 137.008 125.122 137.315C125.912 138.222 126.834 139.538 127.506 141.001L127.755 141.557C128.267 142.785 128.764 144.116 129.174 145.769L129.247 146.047C129.554 147.378 129.729 148.796 129.802 150.186C129.817 150.405 129.846 150.566 129.89 150.785C129.905 150.902 129.89 151.063 129.89 151.18C129.89 151.356 129.846 151.531 129.817 151.721C129.773 151.984 129.729 152.248 129.7 152.511C129.642 152.877 129.627 153.257 129.598 153.623L129.568 153.93C129.525 154.325 129.437 154.763 129.261 155.217C128.94 156.27 128.472 157.25 127.887 158.142C127.726 158.376 127.579 158.624 127.375 158.829C126.892 159.429 126.351 159.984 125.795 160.555C125.62 160.76 125.415 160.95 125.21 161.125C125.137 161.198 125.049 161.286 124.962 161.374C124.83 161.535 124.713 161.593 124.64 161.666C124.303 161.973 123.806 162.222 123.294 162.412L123.016 162.529L122.227 162.734C121.788 162.851 121.349 162.866 120.896 162.983C120.34 163.041 119.799 163.187 119.228 163.231L119.038 163.261C118.541 163.348 117.839 163.363 117.4 163.641C117.049 163.875 116.845 164.138 116.859 164.416C116.859 164.591 116.947 164.782 117.122 164.942L117.166 164.928Z" fill="#231F20"/>
<path d="M116.917 137.022C116.653 137.592 116.887 138.162 117.048 138.645L117.209 139.201C117.282 139.479 117.355 139.757 117.443 140.034C117.604 140.488 117.809 140.927 118.014 141.336C118.16 141.629 118.291 141.936 118.394 142.243C118.438 142.389 118.482 142.535 118.525 142.682C118.584 142.886 118.599 143.091 118.642 143.31C118.686 143.647 118.73 144.027 118.818 144.305C118.935 144.802 119.023 145.3 119.096 145.797L119.169 146.265C119.286 147.303 119.403 148.385 119.52 149.468L119.549 149.731C119.578 150.082 119.622 150.433 119.695 150.886C119.783 151.427 119.871 151.939 119.827 152.437C119.812 152.671 119.769 152.89 119.725 153.109L119.637 153.548C119.447 154.572 119.344 155.625 119.227 156.619C119.125 157.599 118.803 158.55 118.408 159.501L118.291 159.764C118.233 159.91 118.189 160.042 118.145 160.188C118.131 160.246 118.116 160.32 118.087 160.378C117.984 160.656 117.882 160.934 117.794 161.212L117.575 161.943C117.487 162.206 117.399 162.484 117.282 162.733C117.195 162.923 117.107 163.098 117.004 163.274C116.887 163.493 116.712 163.698 116.566 163.888L116.346 164.166C116.127 164.458 115.937 164.766 115.688 165.043C115.264 165.453 114.928 165.936 114.562 166.374C114.445 166.535 114.284 166.682 114.153 166.828C113.772 167.237 113.334 167.603 112.88 167.954C112.617 168.159 112.354 168.349 112.076 168.539C111.579 168.948 111.14 169.27 110.686 169.621C110.379 169.87 110.058 170.104 109.707 170.309C109.399 170.499 109.063 170.616 108.61 170.791C107.308 171.274 105.977 171.713 104.573 172.151C104.339 172.224 104.12 172.298 103.915 172.312C103.769 172.327 103.637 172.327 103.491 172.327C103.257 172.327 103.037 172.327 102.803 172.356C102.54 172.4 102.262 172.458 101.999 172.517L100.785 172.766C100.332 172.839 99.893 172.926 99.4396 172.985L99.0009 173.043C98.6645 173.087 98.3281 173.131 97.9917 173.146C97.4506 173.146 96.8071 173.175 96.1636 173.248L95.5055 173.336L94.7888 173.409C94.3208 173.438 93.8528 173.409 93.3556 173.38C92.595 173.321 91.7029 173.234 90.8693 173.394L90.489 173.468C90.255 173.511 90.0356 173.555 89.8455 173.555C89.67 173.555 89.4506 173.526 89.0996 173.453C87.915 173.248 86.7596 173.204 85.7797 173.16L84.3026 173.073C83.7176 173.029 83.1179 172.97 82.5329 172.897C82.0942 172.853 81.6554 172.766 81.2167 172.707L80.0174 172.488C79.6956 172.429 79.3739 172.371 79.0521 172.254L78.6719 172.122C78.4233 172.02 78.16 171.932 77.9114 171.844C77.6042 171.742 77.2679 171.654 76.9461 171.566C76.522 171.435 76.0979 171.318 75.7322 171.113C75.5567 171.011 75.3812 170.908 75.2057 170.791C74.9132 170.586 74.6061 170.382 74.2551 170.206C74.0065 170.089 73.714 169.972 73.4361 169.87L73.1874 169.767C72.7779 169.607 72.3977 169.373 72.0321 169.109L71.8712 168.978C71.7396 168.861 71.6079 168.758 71.4617 168.656C71.1692 168.466 70.9059 168.232 70.628 168.027C69.9845 167.486 69.3557 166.916 68.7121 166.316C67.9224 165.599 67.3374 164.692 66.8547 163.683C66.416 162.762 66.0211 161.782 65.5677 160.802C65.2899 160.203 65.0851 159.515 64.9535 158.842C64.8803 158.433 64.778 158.009 64.6756 157.599C64.6025 157.292 64.544 157 64.5001 156.678C64.4562 156.371 64.4416 156.064 64.427 155.757C64.3977 155.318 64.3831 154.894 64.3538 154.469C64.2807 153.914 64.193 153.387 64.1052 152.992C64.0613 152.788 64.0467 152.583 64.0175 152.378L63.9736 151.998C63.9297 151.471 63.9151 150.901 64.0028 150.214C64.0321 149.95 64.0613 149.687 64.1052 149.424L64.3685 147.83C64.5147 146.835 64.6317 145.811 64.661 144.802C64.6756 144.422 64.895 143.691 65.0851 143.179C65.1729 142.945 65.246 142.711 65.3045 142.535C65.6701 141.38 65.9187 140.619 66.2259 139.64C66.299 139.376 66.3867 139.128 66.4891 138.879C66.6792 138.323 67.0888 137.3 66.6061 136.715C66.533 136.627 66.4452 136.554 66.3282 136.495C66.0796 136.364 65.8017 136.32 65.5385 136.378C64.8804 136.524 64.4562 137.27 64.2661 137.651C64.0175 138.089 63.8127 138.587 63.608 139.201C63.4032 139.8 63.2716 140.4 63.14 141.014C63.0668 141.38 62.9937 141.746 62.8913 142.184L62.6866 143.296C62.6573 143.457 62.6134 143.618 62.5696 143.778C62.5257 143.925 62.4964 144.071 62.4526 144.232C62.3648 144.627 62.3063 145.036 62.2478 145.431L62.0869 146.674C61.9699 147.493 61.8383 148.298 61.7213 149.087C61.6774 149.321 61.6628 149.555 61.6043 149.789L61.5458 150.009L61.4581 150.316C61.3264 150.857 61.3849 151.398 61.4142 151.881L61.4581 152.32C61.5019 152.978 61.5897 153.636 61.6921 154.279L61.7213 154.455C61.8968 155.596 62.2624 157.643 62.3648 158.608C62.4233 159.223 62.5403 159.808 62.7158 160.363C62.7743 160.554 62.8328 160.744 62.906 160.919L63.0815 161.329C63.2131 161.607 63.3301 161.855 63.4032 162.104C63.5495 162.601 63.8127 163.098 64.0906 163.552C64.2076 163.742 64.3392 163.917 64.4708 164.093L64.7926 164.517C65.1436 165 65.3922 165.585 65.7432 166.17C66.0504 166.74 66.416 167.31 66.8986 167.808C67.1034 167.998 67.3081 168.188 67.5129 168.363L67.9224 168.685C68.2295 168.948 68.5659 169.226 68.9169 169.577L69.3849 170.031C69.6043 170.235 69.809 170.455 70.043 170.63C70.8182 171.245 71.6957 171.713 72.5293 172.21C74.8547 173.57 77.1801 174.316 79.3885 174.798L79.7688 174.886C80.1783 174.974 80.5878 175.062 81.0119 175.106C81.2313 175.135 81.4068 175.106 81.553 175.106H81.7432C81.9479 175.091 82.1819 175.106 82.4013 175.135C82.8986 175.208 83.4251 175.354 83.9662 175.5C84.4781 175.647 85.0046 175.764 85.575 175.837C86.0576 175.881 86.5256 175.881 87.0082 175.866H87.213L89.1143 175.822L90.2989 175.764C90.5475 175.749 90.8693 175.793 91.1764 175.822C91.3227 175.837 91.4835 175.852 91.6298 175.866C92.127 175.895 92.6682 175.983 93.3263 175.925C93.8528 175.881 94.1746 175.866 94.4671 175.851C94.9351 175.822 95.3446 175.808 96.2513 175.588C96.8948 175.427 97.3482 175.31 97.8747 175.442C98.3574 175.559 98.9424 175.574 99.6444 175.486C100.054 175.427 100.463 175.34 100.873 175.252C101.473 175.12 102.043 174.974 102.599 174.915C105.29 174.667 107.454 174.111 109.297 173.263C109.604 173.131 109.867 172.941 110.131 172.766C110.394 172.59 110.643 172.4 110.891 172.283C111.169 172.166 111.447 172.064 111.725 171.947C112.222 171.756 112.734 171.537 113.217 171.157C113.465 170.952 113.67 170.718 113.875 170.499L114.24 170.075C114.635 169.68 115.118 169.329 115.63 168.934C116.025 168.612 116.434 168.29 116.785 167.866C117.019 167.603 117.209 167.296 117.399 167.003L117.794 166.374C117.94 166.126 118.072 165.95 118.218 165.804C118.438 165.57 118.555 165.336 118.73 165.043C119.257 164.137 119.871 162.894 120.398 161.621L120.602 161.139C121.041 160.071 121.377 158.901 121.67 157.482L121.714 157.248C121.933 156.108 122.109 154.908 122.138 153.694C122.138 153.504 122.109 153.358 122.079 153.168C122.079 153.065 122.079 152.934 122.079 152.831L122.138 152.378C122.167 152.159 122.211 151.925 122.196 151.691C122.196 151.369 122.153 151.047 122.109 150.74L122.065 150.477C122.006 150.14 121.992 149.775 121.977 149.365C121.919 148.429 121.86 147.508 121.772 146.587L121.699 145.841C121.626 145.168 121.553 144.466 121.319 143.793C121.246 143.559 121.173 143.325 121.07 143.106C121.026 143.018 120.983 142.916 120.939 142.828C120.851 142.667 120.822 142.55 120.792 142.477C120.617 142.111 120.485 141.658 120.383 141.204L120.31 140.956L120.134 140.268C120.046 139.888 119.944 139.508 119.798 139.142C119.637 138.689 119.418 138.25 119.169 137.841L119.096 137.694C118.891 137.314 118.584 136.817 118.16 136.641C117.823 136.495 117.516 136.51 117.268 136.656C117.107 136.744 116.99 136.89 116.902 137.08L116.917 137.022Z" fill="#231F20"/>
<path d="M121.988 130.63C127.297 127.866 133.396 123.596 137.871 118.623C142.347 113.665 146.661 104.378 147.919 97.7677C150.463 84.3272 147.904 68.3419 140.548 57.724C132.05 45.4681 117.294 33.1829 91.9336 33.2414C66.5735 33.1829 51.8167 45.4535 43.3195 57.7094C35.9484 68.3272 33.389 84.3272 35.9338 97.7677C37.1915 104.393 41.506 113.665 45.9813 118.623C50.4566 123.581 56.4236 128.173 61.8642 130.63C67.7728 133.278 76.5479 134.901 82.9829 135.808C88.7453 136.612 94.5953 136.7 100.372 136.027C107.085 135.252 116.065 133.702 121.974 130.63H121.988Z" fill="#FFEF6C"/>
<path d="M76.8323 92.064C76.7738 91.9616 76.73 91.8739 76.6715 91.7861C76.5545 91.5814 76.496 91.3474 76.4521 91.0695C76.4375 90.9525 76.4228 90.8355 76.4228 90.7039C76.4228 90.5284 76.3936 90.3529 76.3351 90.2066C76.1596 89.724 75.7354 89.2121 75.3113 88.7002C75.2821 88.6564 75.2382 88.6125 75.2236 88.5686C74.6824 87.8812 73.7903 87.501 73.0737 87.3401L72.591 87.2085C72.4594 87.1792 72.3132 87.1646 72.1815 87.1353C72.3132 86.4041 72.7373 85.3803 73.9951 84.2834C74.3753 83.9617 74.1121 83.3474 73.6294 83.4205C73.0005 83.5083 72.2547 83.6692 71.4649 83.947C71.4649 83.947 71.4064 83.9763 71.3771 83.9763C70.9823 84.1079 70.5874 84.2834 70.1925 84.4736C69.7976 84.6344 69.3735 84.8246 68.9786 84.9854C67.8525 85.4681 67.8379 86.1847 67.1066 86.6527C66.3753 87.1207 66.5362 88.4516 65.9073 89.373C65.2785 90.2944 65.6733 91.4644 65.6733 91.4644C65.5417 91.6984 65.454 91.9616 65.4247 92.298C65.3808 92.7514 65.454 93.2048 65.571 93.6143C65.6441 93.8629 65.7172 94.0969 65.8196 94.3602C65.9073 94.5942 66.0097 94.8136 66.1413 95.0037C66.1998 95.0914 66.2145 95.1938 66.2437 95.2962C66.273 95.3839 66.3168 95.4717 66.3607 95.5594C66.4777 95.7788 66.6532 95.9689 66.8287 96.1444C67.0188 96.3199 67.2382 96.4662 67.443 96.6124C67.8525 96.8903 68.2474 97.1682 68.7007 97.4022C68.8324 97.4607 68.9786 97.5338 69.0956 97.6362L69.2126 97.7532C69.2126 97.7532 69.3296 97.8702 69.3881 97.9141C69.7245 98.1627 69.8708 98.1188 70.0901 98.0896H70.2656C70.5581 98.0603 70.602 98.0165 71.0993 98.0165H71.2163C71.5965 97.9872 72.123 97.958 72.6349 97.8556C73.1468 97.7532 73.6441 97.5777 73.9658 97.5338C74.3314 97.49 74.6386 97.373 74.8726 97.1975C74.9603 97.139 75.0334 97.0658 75.0919 96.9927L75.2236 96.8026C75.3113 96.6709 75.3844 96.5393 75.5014 96.4808C75.7354 96.3638 75.9109 96.0567 76.0572 95.7057C76.1157 95.5594 76.145 95.4132 76.1596 95.2669C76.1742 95.1353 76.1888 95.0183 76.2035 94.9013C76.2766 94.521 76.5106 94.2139 76.73 93.819C76.9347 93.4534 77.081 93 76.9932 92.532C76.9493 92.3565 76.8908 92.1956 76.7885 92.0494L76.8323 92.064Z" fill="#231F20"/>
<path d="M118.234 92.064C118.176 91.9616 118.132 91.8739 118.073 91.7861C117.956 91.5814 117.898 91.3474 117.854 91.0695C117.839 90.9525 117.825 90.8355 117.825 90.7039C117.825 90.5284 117.796 90.3529 117.737 90.2066C117.562 89.724 117.137 89.2121 116.713 88.7002C116.684 88.6564 116.64 88.6125 116.625 88.5686C116.084 87.8812 115.192 87.501 114.476 87.3401L113.993 87.2085C113.861 87.1792 113.715 87.1646 113.583 87.1353C113.715 86.4041 114.139 85.3803 115.397 84.2834C115.777 83.9617 115.514 83.3474 115.031 83.4205C114.402 83.5083 113.657 83.6692 112.867 83.947C112.867 83.947 112.808 83.9763 112.779 83.9763C112.384 84.1079 111.989 84.2834 111.594 84.4736C111.2 84.6344 110.775 84.8246 110.381 84.9854C109.254 85.4681 109.24 86.1847 108.509 86.6527C107.777 87.1207 107.938 88.4516 107.309 89.373C106.68 90.2944 107.075 91.4644 107.075 91.4644C106.944 91.6984 106.856 91.9616 106.827 92.298C106.783 92.7514 106.856 93.2048 106.973 93.6143C107.046 93.8629 107.119 94.0969 107.222 94.3602C107.309 94.5942 107.412 94.8136 107.543 95.0037C107.602 95.0914 107.631 95.1938 107.646 95.2962C107.675 95.3839 107.719 95.4717 107.748 95.5594C107.865 95.7788 108.041 95.9689 108.216 96.1444C108.406 96.3199 108.626 96.4662 108.83 96.6124C109.24 96.8903 109.635 97.1682 110.088 97.4022C110.22 97.4607 110.366 97.5338 110.483 97.6362L110.6 97.7532C110.6 97.7532 110.717 97.8702 110.775 97.9141C111.112 98.1627 111.258 98.1188 111.477 98.0896H111.653C111.945 98.0603 111.989 98.0165 112.487 98.0165H112.604C112.984 97.9872 113.51 97.958 114.022 97.8556C114.534 97.7532 115.031 97.5777 115.353 97.5338C115.719 97.49 116.026 97.373 116.26 97.1975C116.348 97.139 116.421 97.0658 116.479 96.9927L116.611 96.8026C116.699 96.6709 116.772 96.5393 116.889 96.4808C117.123 96.3638 117.298 96.0567 117.444 95.7057C117.503 95.5594 117.532 95.4132 117.547 95.2669C117.561 95.1353 117.576 95.0183 117.591 94.9013C117.664 94.521 117.898 94.2139 118.103 93.819C118.307 93.4534 118.454 93 118.366 92.532C118.322 92.3565 118.264 92.1956 118.161 92.0494L118.234 92.064Z" fill="#231F20"/>
<path d="M85.4327 102.156C85.0379 102.697 85.0671 102.799 85.0964 102.872C85.0964 102.902 85.0964 102.946 85.0964 102.989C85.0964 103.048 85.0964 103.121 85.1256 103.15C85.1695 103.209 85.2719 103.194 85.3742 103.165C85.4474 103.165 85.5205 103.136 85.579 103.165C85.5936 103.165 85.6082 103.194 85.6229 103.223C85.6229 103.253 85.6229 103.297 85.6229 103.34C85.6229 103.414 85.5936 103.531 85.6667 103.516C85.7106 103.574 85.7545 103.633 85.7837 103.706L85.813 103.779C85.8861 103.925 85.9592 104.086 86.1201 104.145H86.164C86.164 104.145 86.2664 104.203 86.398 104.159C86.5442 104.116 86.6759 104.086 86.7197 104.159C86.7344 104.189 86.7197 104.247 86.7197 104.306C86.7197 104.335 86.7197 104.379 86.7197 104.408C86.7344 104.627 86.9099 104.657 87.1146 104.671C87.3048 104.671 87.3194 104.876 87.3486 105.081V105.139C87.3486 105.139 87.3779 105.183 87.4071 105.183H87.4364C87.4656 105.227 87.5095 105.242 87.5534 105.256C87.5973 105.256 87.6558 105.256 87.7143 105.256C87.7728 105.256 87.8459 105.256 87.8898 105.256C87.919 105.256 87.9629 105.271 87.9629 105.315C87.9775 105.359 87.9775 105.417 87.9775 105.476V105.564C87.9775 105.651 88.0653 105.637 88.0653 105.724C88.0653 105.871 88.153 105.9 88.2554 105.929C88.2846 105.929 88.3285 105.944 88.3578 105.958C88.4455 106.002 88.504 106.075 88.5625 106.134C88.5918 106.178 88.6356 106.207 88.6649 106.251C88.7819 106.266 88.8843 106.28 89.0451 106.251C89.1475 106.222 89.2499 106.207 89.323 106.207C89.3815 106.207 89.4108 106.28 89.44 106.353C89.5424 106.573 89.7033 106.719 89.9227 106.792C89.9665 106.792 89.9958 106.821 89.9958 106.865C89.9958 106.894 89.9812 106.953 89.9665 106.997C89.9373 107.085 89.9227 107.158 89.9373 107.202C89.9373 107.245 90.0104 107.289 90.0835 107.333L90.376 107.509C90.4784 107.567 90.5808 107.64 90.6832 107.713L90.7855 107.787C90.8587 107.83 90.9318 107.889 90.9903 107.977C91.078 108.123 91.2097 108.284 91.3559 108.342C91.4144 108.357 91.4583 108.372 91.5168 108.372C91.5753 108.372 91.6338 108.386 91.6777 108.415C91.7801 108.474 91.8678 108.591 91.9702 108.737C92.1164 108.957 92.3066 109.205 92.4967 109.088C92.5259 109.074 92.5552 109.044 92.5698 109.015C92.6137 108.971 92.6576 108.913 92.7014 108.942C92.7453 108.986 92.7746 108.942 92.8477 109C93.1109 109.117 93.345 108.825 93.5205 108.562L93.7837 108.167L94.0762 107.713L94.281 107.406L94.4565 107.128C94.5003 107.055 94.5442 106.982 94.6173 106.953L94.7197 106.924C94.7197 106.924 94.8513 106.88 94.9098 106.836C94.983 106.777 95.0122 106.719 95.0268 106.675C95.0561 106.602 95.0707 106.543 95.1585 106.543C95.2023 106.543 95.2608 106.558 95.3193 106.587C95.4217 106.617 95.5241 106.646 95.568 106.617C95.5972 106.587 95.5972 106.514 95.5972 106.441V106.383C95.5972 106.28 95.6265 106.236 95.7142 106.222H95.7581C95.7581 106.222 95.8312 106.222 95.8459 106.207L95.9629 106.09C96.0506 106.002 96.153 105.915 96.153 105.724C96.153 105.49 96.3431 105.461 96.5479 105.432C96.738 105.403 96.9281 105.373 96.9574 105.169C96.972 105.052 97.0597 104.979 97.206 104.979C97.2937 104.979 97.3376 104.935 97.3815 104.891C97.4107 104.861 97.44 104.818 97.4985 104.818C97.557 104.818 97.6155 104.818 97.6886 104.818C97.791 104.818 97.8934 104.847 97.9373 104.818C98.0104 104.774 98.0104 104.657 97.9958 104.554C97.9958 104.496 97.9958 104.467 98.0104 104.437V104.364C98.0396 104.262 98.1128 104.218 98.2444 104.203H98.4053C98.5076 104.203 98.6246 104.189 98.6978 104.159C98.844 104.086 98.8879 103.911 98.8148 103.618C98.7855 103.516 98.9318 103.487 99.0195 103.487C99.0634 103.487 99.1073 103.487 99.1365 103.472C99.312 103.399 99.3705 103.282 99.429 103.136L99.4875 103.019C99.5314 102.946 99.6191 102.785 98.9756 102.024C98.8733 101.907 98.7709 101.79 98.6393 101.644C98.3614 101.337 98.0835 101.059 97.8495 100.84C97.2645 100.298 97.089 100.284 97.0012 100.269C96.8989 100.269 96.8257 100.284 96.7819 100.372C96.738 100.445 96.738 100.576 96.7234 100.693C96.7234 100.766 96.7234 100.84 96.6941 100.913C96.6941 100.971 96.6649 101.044 96.6649 101.117C96.6649 101.147 96.6356 101.161 96.6064 101.161C96.5771 101.161 96.5625 101.176 96.5479 101.191C96.5186 101.234 96.4894 101.293 96.4747 101.351C96.4455 101.41 96.4309 101.468 96.387 101.512C96.3139 101.6 96.1676 101.615 96.036 101.629C95.9921 101.629 95.9629 101.629 95.8897 101.629L95.8166 101.6C95.8166 101.6 95.7435 101.571 95.7142 101.556C95.5534 101.498 95.5387 101.585 95.5241 101.659C95.5241 101.688 95.5241 101.702 95.5095 101.732C95.4656 101.819 95.4364 101.922 95.4071 102.01V102.039C95.3486 102.214 95.1 102.375 94.866 102.317C94.7197 102.287 94.6173 102.287 94.5588 102.346C94.5442 102.361 94.5296 102.39 94.515 102.419C94.515 102.448 94.515 102.463 94.515 102.492C94.515 102.551 94.515 102.595 94.4565 102.595C94.3687 102.595 94.3541 102.697 94.3541 102.799C94.3541 102.843 94.3687 102.902 94.3833 102.96C94.3833 103.004 94.4126 103.063 94.4126 103.092C94.4126 103.209 94.2956 103.194 94.1493 103.18C94.0177 103.18 93.8861 103.15 93.8568 103.253C93.8568 103.297 93.8568 103.355 93.8568 103.414C93.8568 103.457 93.8568 103.487 93.8568 103.531C93.8568 103.604 93.813 103.648 93.7398 103.662C93.7106 103.662 93.6667 103.662 93.6082 103.662C93.5497 103.662 93.4766 103.648 93.4473 103.662C93.3157 103.721 93.2572 103.838 93.1109 103.882C92.9208 103.94 92.7453 104.013 92.6137 104.116C92.5259 104.189 92.5259 104.189 92.5406 104.174C92.5406 104.174 92.5552 104.174 92.5698 104.203C92.5698 104.203 92.5991 104.262 92.6137 104.276C92.6283 104.32 92.6576 104.379 92.6868 104.437C92.6868 104.467 92.7014 104.496 92.7161 104.51C92.7453 104.569 92.7453 104.613 92.7453 104.627C92.7453 104.657 92.6868 104.569 92.6576 104.467C92.6283 104.393 92.5991 104.32 92.5844 104.262C92.5844 104.262 92.5844 104.335 92.5991 104.423V104.467C92.5991 104.584 92.5991 104.657 92.5991 104.73C92.5991 104.788 92.5844 104.818 92.5698 104.861C92.5698 104.891 92.5552 104.803 92.5406 104.715C92.5406 104.671 92.5406 104.642 92.5406 104.598C92.5406 104.496 92.5406 104.423 92.5113 104.51C92.4967 104.584 92.4821 104.584 92.4674 104.598C92.4528 104.598 92.4528 104.627 92.3504 104.847C92.2773 105.008 92.2042 105.11 92.2773 104.847C92.3504 104.613 92.3797 104.496 92.3651 104.481C92.3651 104.481 92.3358 104.496 92.2919 104.525C92.2481 104.569 92.1896 104.598 92.2334 104.525C92.2919 104.028 92.1164 103.691 91.8532 103.618C91.8093 103.618 91.7216 103.633 91.6338 103.677C91.5461 103.706 91.4729 103.75 91.4437 103.706C91.4291 103.662 91.4437 103.589 91.4437 103.531C91.4583 103.399 91.4876 103.267 91.3706 103.282C91.3121 103.282 91.2243 103.34 91.1219 103.384C91.0634 103.414 91.0049 103.443 90.961 103.457C90.8294 103.501 90.8294 103.384 90.8294 103.253C90.8294 103.15 90.8294 103.048 90.7709 103.019C90.727 102.989 90.6539 103.019 90.5808 103.019C90.5369 103.019 90.4784 103.019 90.4492 103.019C90.4053 103.019 90.3907 102.989 90.3907 102.931C90.3907 102.858 90.376 102.829 90.3322 102.814C90.2152 102.741 90.0689 102.624 89.9958 102.434L89.9665 102.361C89.908 102.185 89.8203 102.053 89.6448 101.936H89.6155C89.4839 101.819 89.3523 101.717 89.1622 101.688C89.1329 101.688 89.0744 101.717 89.0159 101.746C88.9867 101.746 88.972 101.746 88.9574 101.746C88.9574 101.732 88.9574 101.702 88.9574 101.673C88.9574 101.629 88.9574 101.585 88.9281 101.556C88.8989 101.527 88.8258 101.542 88.7526 101.556H88.6941C88.621 101.585 88.5771 101.556 88.5479 101.498C88.4748 101.395 88.4016 101.264 88.3578 101.132C88.3578 101.088 88.3431 101.044 88.3285 101C88.3139 100.883 88.2846 100.752 88.1676 100.752C88.1238 100.752 88.0799 100.752 88.0214 100.752C87.9921 100.752 87.9629 100.766 87.9336 100.781C87.8751 100.81 87.8605 100.796 87.8313 100.81C87.7143 100.854 87.685 100.796 87.6558 100.723V100.679C87.6558 100.679 87.6265 100.606 87.6119 100.562C87.6119 100.489 87.5973 100.415 87.5534 100.386C87.4949 100.342 87.4071 100.342 87.2901 100.372H87.2463C87.1439 100.401 87.0123 100.415 86.6759 100.737C86.398 100.986 86.1201 101.293 85.8422 101.6C85.6667 101.805 85.5205 101.995 85.3889 102.17L85.4327 102.156Z" fill="#FAA634"/>
<path d="M74.3624 90.7758C74.3624 91.4047 73.8505 91.902 73.2362 91.902C72.622 91.902 72.1101 91.3901 72.1101 90.7758C72.1101 90.1616 72.622 89.6497 73.2362 89.6497C73.8505 89.6497 74.3624 90.1616 74.3624 90.7758Z" fill="white"/>
<path d="M116.061 90.7758C116.061 91.4047 115.549 91.902 114.934 91.902C114.32 91.902 113.808 91.3901 113.808 90.7758C113.808 90.1616 114.32 89.6497 114.934 89.6497C115.549 89.6497 116.061 90.1616 116.061 90.7758Z" fill="white"/>
<path d="M65.0911 131.024C64.2867 130.19 62.8388 129.678 61.7273 129.108C61.2885 128.903 60.879 128.64 60.4549 128.406C59.8406 128.025 59.2264 127.645 58.6121 127.265C57.5737 126.621 56.5646 125.993 55.5847 125.393C54.8973 124.954 54.2099 124.486 53.5372 123.974C53.2301 123.74 52.9376 123.492 52.6304 123.243C52.2209 122.892 51.8407 122.526 51.4458 122.175C50.8315 121.59 50.1588 120.888 49.6176 120.406C48.6963 119.499 47.8041 118.563 46.9559 117.612L46.2246 116.72C44.6158 114.643 43.2118 112.259 41.8809 109.817L41.5592 109.203C41.1497 108.398 40.7255 107.579 40.199 106.541C39.5555 105.313 39.0144 104.113 38.5903 102.914C38.4001 102.358 38.2539 101.802 38.1076 101.232L37.8444 100.135C37.2301 97.5612 36.8206 94.8848 36.4696 92.3839C36.1771 89.883 36.2064 87.3674 36.3965 84.7057L36.4696 83.9598C36.5135 83.5649 36.5281 83.1846 36.5427 82.8044C36.5427 82.6289 36.5574 82.468 36.572 82.2925L36.7914 79.9964C36.8352 79.3236 36.9376 78.6655 36.9961 78.0073C37.0692 77.2761 37.157 76.5448 37.3033 75.8282C37.391 75.3017 37.4934 74.7898 37.6104 74.2633C37.8005 73.6198 37.976 72.9763 38.1661 72.3474C38.2539 72.0403 38.3416 71.7478 38.4586 71.4553C38.7804 70.5485 38.9851 69.5832 39.3654 68.7203C39.9358 67.2725 40.5062 65.8246 41.0912 64.4352C41.3252 63.9379 41.5445 63.4553 41.7639 62.9727C42.4367 61.6418 43.1679 60.3401 44.0016 59.1262C44.455 58.395 45.0107 57.7076 45.508 56.991C46.4879 55.5869 47.3507 54.4462 48.2575 53.2762C48.901 52.4718 49.5006 51.6381 50.2319 50.8923C50.8608 50.2341 51.4897 49.5467 52.4403 48.757C55.0875 46.3877 57.9394 44.1793 61.0838 42.2488C61.5957 41.8978 62.0929 41.6053 62.5609 41.4005C62.8827 41.2543 63.2044 41.1226 63.5262 40.9764C64.0381 40.7424 64.5646 40.523 65.1057 40.289C65.7346 40.0258 66.3781 39.7333 67.007 39.4261C67.943 38.9581 68.9229 38.6071 69.9028 38.2269L71.5115 37.6126L73.1642 37.1154L74.2318 36.7936C75.0362 36.5157 75.8698 36.3402 76.7181 36.1793C77.3908 36.0477 78.1221 35.9015 78.8826 35.7406C79.6577 35.609 80.4621 35.492 81.2811 35.3603L82.9192 35.0532C83.5188 34.9655 84.1184 34.907 84.7181 34.8338C85.8881 34.7461 87.0727 34.5852 88.3451 34.6144C90.3195 34.5998 92.367 34.5852 94.4438 34.5706L95.4091 34.5267C95.9941 34.4974 96.5498 34.4536 97.0471 34.5267C97.5005 34.5706 98.0416 34.6437 98.9045 34.7753C100.411 34.9655 101.859 35.2287 103.248 35.4627C104.652 35.6528 105.954 35.9453 107.168 36.194C108.396 36.4133 109.595 36.7351 110.795 37.0715C112.243 37.4225 113.647 37.949 115.051 38.4462C116.118 38.7826 117.113 39.2945 118.137 39.7186C119.087 40.0989 119.979 40.5961 120.901 41.0641C121.661 41.4298 122.378 41.8247 123.08 42.3073L123.928 42.863C124.499 43.2287 125.069 43.6236 125.61 44.0331C126.297 44.5157 126.999 45.0129 127.701 45.5102C128.608 46.2268 129.486 46.8703 130.246 47.6016L131.328 48.7131C131.943 49.3712 132.586 50.0586 133.288 50.8045C133.815 51.3164 134.385 51.8721 134.912 52.4279L135.409 52.9398C136.228 53.7442 136.93 54.6656 137.632 55.5723L137.968 56.0257C138.232 56.406 138.48 56.7716 138.743 57.1518C139.299 57.8831 139.826 58.629 140.294 59.3895C141.493 61.203 142.517 63.2067 143.511 65.2396C144.725 67.6966 145.515 70.373 146.144 73.2249C146.714 75.8282 147.138 78.5631 147.475 81.3272C147.694 83.0091 147.796 84.8373 147.753 86.6069C147.753 87.6892 147.679 88.7715 147.679 89.8537C147.636 90.6435 147.577 91.4332 147.504 92.223C147.431 92.9981 147.285 93.7733 147.153 94.5338C146.977 95.6014 146.714 96.669 146.539 97.7367C146.275 99.1115 145.939 100.428 145.69 101.451C145.544 101.978 145.398 102.475 145.237 102.972L144.93 103.909C144.491 105.181 143.95 106.526 143.146 108.121C142.838 108.735 142.517 109.334 142.18 109.919C141.508 111.104 140.791 112.274 140.06 113.429C138.656 115.609 137.193 117.612 135.482 119.528C134.853 120.259 133.42 121.517 132.323 122.365C131.811 122.76 131.343 123.126 130.948 123.418C128.52 125.261 126.824 126.431 124.645 127.835C124.074 128.201 123.489 128.552 122.904 128.888C121.617 129.707 119.116 130.731 118.605 131.726C118.531 131.872 118.502 132.003 118.517 132.135C118.561 132.428 118.824 132.603 119.292 132.647C120.389 132.72 122.509 131.989 123.402 131.506C124.528 130.95 125.683 130.307 127.043 129.429C128.345 128.581 129.588 127.674 130.787 126.709C131.504 126.139 132.221 125.554 133.054 124.837C133.771 124.223 134.458 123.594 135.131 122.95C135.424 122.658 135.745 122.395 136.052 122.117C136.33 121.854 136.608 121.59 136.901 121.327C137.617 120.61 138.305 119.879 138.948 119.089C139.636 118.27 140.264 117.422 140.864 116.559C142.034 114.877 143.116 113.166 144.082 111.44C144.374 110.929 144.652 110.417 144.945 109.919L145.237 109.437C145.369 109.217 145.486 108.998 145.617 108.779C146.29 107.609 146.743 106.366 147.138 105.283L147.489 104.26C148.001 102.738 148.469 101.188 148.806 99.5941C148.835 99.4478 148.864 99.3016 148.893 99.1553C149.04 98.4533 149.186 97.6197 149.317 96.7129C149.478 95.8062 149.61 94.8263 149.712 93.861C149.946 91.9305 150.093 90.0292 150.166 88.8592C150.312 87.3528 150.297 85.9049 150.253 84.5009C150.21 84.0183 150.18 83.5356 150.151 83.0676C150.122 82.7166 150.078 82.351 150.049 81.9854C149.946 81.2687 149.844 80.5814 149.8 79.9964C149.712 78.7678 149.434 77.4369 149.171 76.2084C149.04 75.7112 148.908 75.1993 148.776 74.702C148.659 74.2925 148.557 73.883 148.425 73.4735C148.221 72.7861 148.045 72.0841 147.884 71.3383C147.694 70.607 147.504 69.8465 147.299 69.0714C146.875 67.5942 146.422 66.0586 145.705 64.5375C145.442 63.9233 145.135 63.3383 144.813 62.7679L144.213 61.6564C143.745 60.8228 143.219 59.9014 142.604 58.8337L141.815 57.4882C141.464 56.8593 141.04 56.289 140.645 55.7039C139.299 53.7734 137.749 51.9892 136.199 50.2049C131.884 45.4078 127.146 41.693 122.144 39.0605L121.281 38.6071C120.374 38.0952 119.409 37.6711 118.458 37.2909C117.976 37.0861 117.552 36.9545 117.201 36.8521C117.069 36.8082 116.923 36.7643 116.776 36.7205C116.279 36.5596 115.753 36.3987 115.212 36.2086C114.027 35.7698 112.798 35.2287 111.467 34.8046C110.239 34.3512 108.952 33.9124 107.577 33.6199C106.393 33.3567 105.266 33.1081 104.082 33.0057L103.585 32.9472L101.23 32.6547L98.8752 32.4792C97.8953 32.4353 96.9154 32.3037 95.9356 32.3183C95.2921 32.3183 94.5462 32.2598 93.7564 32.1867C93.3615 32.1574 92.9813 32.1282 92.601 32.0989C91.3433 32.0112 89.8515 32.055 88.2866 32.1428C86.985 32.2013 86.1806 32.3329 85.4639 32.3914C84.2939 32.5377 83.2702 32.5377 81.0471 33.0934C79.4676 33.4591 78.3415 33.7077 77.0545 33.8539C75.8844 33.9709 74.4512 34.1611 72.7693 34.7022C71.7748 35.0093 70.7656 35.3018 69.815 35.7113C68.3817 36.2963 67.0216 36.8082 65.7638 37.364C59.5043 39.8356 54.9558 43.0385 51.358 46.3877C50.773 46.9581 50.2173 47.4846 49.72 48.0842C49.2228 48.6692 48.7548 49.225 48.2575 49.7076C47.731 50.2049 47.2484 50.7314 46.7365 51.2433C45.8151 52.1354 44.9376 53.1299 44.0893 54.2853C43.6359 54.8849 43.2996 55.5284 42.9193 56.1427C42.6999 56.523 42.4659 56.9032 42.2466 57.2835C41.9102 57.8685 41.5445 58.4681 41.135 59.0677C40.7548 59.682 40.3599 60.3255 39.965 60.9836C39.3508 62.0366 38.7658 63.1189 38.2539 64.3328C37.9468 65.1226 37.6104 65.9123 37.391 66.7167C37.2155 67.2871 37.04 67.8428 36.8645 68.4132C36.6597 69.0714 36.5135 69.5832 36.338 70.022C36.0747 70.724 35.8846 71.3383 35.7091 72.1426C35.0656 74.585 34.466 77.8465 34.0857 81.181C34.0272 81.6051 33.9687 82.0146 33.9395 82.4388C33.647 85.2175 33.5885 88.2011 33.8517 91.7696L33.8956 92.3692C34.1881 95.2358 34.583 98.2193 35.4897 101.071C35.636 101.51 35.7676 101.832 35.9577 102.256C36.0455 102.475 36.1625 102.797 36.2356 103.046L36.572 104.128C36.7329 104.654 36.9084 105.196 37.1277 105.707C37.4056 106.424 37.7566 107.141 38.1076 107.828L38.4001 108.398C38.7804 109.159 39.1753 109.963 39.6287 110.87C40.667 112.918 41.8078 114.921 43.1094 116.837C43.4458 117.364 43.8407 117.861 44.2063 118.373C45.2593 119.748 46.4147 121.005 47.731 122.205C48.1844 122.614 48.6378 123.009 49.1058 123.389C49.2959 123.535 49.5006 123.696 49.72 123.857C50.071 124.12 50.2904 124.296 50.4659 124.428C51.2557 124.998 52.177 125.773 53.0838 126.49L53.5957 126.885L55.0143 127.967C55.8041 128.537 56.5938 129.093 57.4567 129.605C58.4951 130.234 59.592 130.775 60.7035 131.243L61.0692 131.389C62.0783 131.784 63.4969 132.208 64.3744 132.223C65.0911 132.223 65.4567 132.062 65.4713 131.769C65.4713 131.579 65.3543 131.345 65.0764 131.082L65.0911 131.024Z" fill="#231F20"/>
</g>
</g>
<defs>
<clipPath id="clip0_1_257">
<rect width="183" height="180" rx="90" fill="white"/>
</clipPath>
<clipPath id="clip1_1_257">
<rect width="116.636" height="152.584" fill="white" transform="translate(33.6836 32)"/>
</clipPath>
</defs>
</svg>
