<svg width="180" height="180" viewBox="0 0 180 180" fill="none" xmlns="http://www.w3.org/2000/svg">
<g clip-path="url(#clip0_1_30)">
<rect width="180" height="180" rx="90" fill="#F8D6D7"/>
<g clip-path="url(#clip1_1_30)">
<path d="M77.86 162.624C76.2105 164.45 73.1196 167.781 69.8365 170.247C64.9039 173.93 60.0514 173.114 57.8253 170.631C55.375 167.925 53.6774 164.161 56.3679 159.757C58.4659 156.33 60.8041 154.44 65.2082 151.173C69.4522 148.018 73.568 146.497 77.7799 145.136C82.8086 143.518 86.2839 143.63 89.3908 143.646C92.4977 143.63 95.9729 143.518 101.002 145.136C105.214 146.497 109.329 148.018 113.573 151.173C117.977 154.44 120.316 156.33 122.414 159.757C125.104 164.161 123.407 167.925 120.956 170.631C118.73 173.098 113.862 173.93 108.945 170.247C105.662 167.797 102.571 164.45 100.922 162.624" fill="white"/>
<path d="M89.5518 144.496C89.8241 144.992 90.2404 145.024 90.5607 145.056C90.6889 145.056 90.817 145.088 90.9451 145.12C91.1373 145.152 91.3134 145.184 91.5056 145.2C91.8099 145.2 92.1142 145.152 92.4185 145.104C92.6267 145.072 92.8349 145.024 93.0431 145.024C93.1392 145.024 93.2352 145.024 93.3313 145.04C93.4594 145.056 93.6036 145.088 93.7317 145.12C93.9399 145.184 94.1801 145.264 94.3563 145.248C94.6766 145.296 94.9969 145.328 95.3012 145.393L95.5894 145.457C96.2461 145.601 96.9027 145.761 97.5913 145.857H97.7675C97.9917 145.905 98.2159 145.953 98.5202 145.937C98.8725 145.921 99.2248 145.937 99.5291 146.017C99.6733 146.065 99.8014 146.129 99.9295 146.209L100.186 146.353C100.794 146.658 101.499 146.818 102.14 146.93C102.78 147.058 103.357 147.362 103.949 147.683L104.125 147.779C104.222 147.827 104.302 147.859 104.398 147.875C104.446 147.875 104.478 147.891 104.526 147.923C104.702 148.003 104.894 148.067 105.07 148.115L105.567 148.227C105.743 148.259 105.935 148.307 106.111 148.355C106.239 148.403 106.368 148.435 106.48 148.499C106.624 148.58 106.768 148.676 106.896 148.788L107.088 148.932C107.28 149.076 107.537 149.14 107.713 149.3C108.033 149.54 108.385 149.701 108.738 149.845C108.866 149.893 108.994 149.957 109.106 150.005C109.442 150.181 109.763 150.357 110.083 150.565L110.627 150.918C111.012 151.094 111.332 151.254 111.7 151.398C111.957 151.494 112.197 151.574 112.421 151.718C112.629 151.831 112.79 151.975 113.046 152.199C113.734 152.807 114.487 153.368 115.272 153.896C115.4 153.977 115.528 154.073 115.608 154.169C115.672 154.233 115.72 154.329 115.768 154.409C115.848 154.537 115.928 154.681 116.025 154.793C116.137 154.921 116.297 155.034 116.425 155.13L117.049 155.61C117.274 155.786 117.498 155.978 117.706 156.171L117.914 156.347C118.074 156.491 118.219 156.635 118.363 156.795C118.571 157.067 118.811 157.372 119.099 157.644L119.404 157.916C119.516 158.012 119.628 158.108 119.724 158.221C119.916 158.445 120.076 158.685 120.22 158.957C120.461 159.374 120.685 159.806 121.069 160.158L121.261 160.318C121.39 160.415 121.47 160.495 121.534 160.591C121.582 160.687 121.614 160.815 121.662 161.007C121.79 161.712 122.062 162.272 122.238 162.785C122.334 163.041 122.415 163.297 122.463 163.57C122.543 163.89 122.591 164.21 122.607 164.546C122.607 164.787 122.623 165.043 122.607 165.283C122.607 165.507 122.559 165.748 122.511 165.972C122.495 166.164 122.447 166.34 122.35 166.516L122.238 166.724C122.158 166.869 122.078 166.997 121.998 167.141C121.918 167.317 121.838 167.509 121.758 167.685C121.662 167.942 121.534 168.166 121.374 168.358C121.293 168.454 121.181 168.534 121.085 168.598C120.909 168.742 120.717 168.87 120.573 169.063C120.477 169.207 120.381 169.367 120.285 169.543L120.204 169.703C120.06 169.959 119.9 170.104 119.708 170.248L119.596 170.296C119.5 170.344 119.436 170.392 119.356 170.44C119.212 170.552 119.035 170.648 118.875 170.76C118.443 170.968 118.01 171.193 117.562 171.401C117.001 171.705 116.345 171.689 115.688 171.609C115.08 171.545 114.487 171.369 113.83 171.337C113.446 171.289 113.03 171.177 112.661 170.952C112.437 170.808 112.197 170.744 111.973 170.632C111.813 170.552 111.636 170.472 111.476 170.376C111.316 170.28 111.188 170.136 111.044 170.024C110.852 169.831 110.66 169.687 110.451 169.511C110.179 169.303 109.875 169.191 109.635 169.079C109.506 169.015 109.394 168.951 109.282 168.886L109.074 168.758C108.786 168.582 108.498 168.358 108.193 168.022L107.841 167.637C107.617 167.365 107.392 167.109 107.136 166.853C106.672 166.388 106.127 165.988 105.535 165.683C105.311 165.571 105.006 165.187 104.782 164.899C104.686 164.771 104.59 164.643 104.51 164.546C103.997 163.954 103.613 163.602 103.116 163.153L102.732 162.801C102.46 162.529 101.947 162.032 101.243 162.368C101.131 162.416 101.035 162.497 100.922 162.577C100.682 162.785 100.49 163.009 100.394 163.249C100.122 163.826 100.41 164.306 100.554 164.53C100.73 164.803 100.938 165.059 101.243 165.347C101.531 165.619 101.851 165.86 102.172 166.1C102.364 166.244 102.556 166.388 102.78 166.564L103.357 166.997C103.437 167.061 103.517 167.141 103.581 167.221L103.789 167.429C103.981 167.605 104.173 167.765 104.382 167.926L104.99 168.438C105.375 168.79 105.727 169.175 106.079 169.543C106.175 169.655 106.287 169.767 106.368 169.895L106.448 170.04L106.544 170.232C106.736 170.552 107.024 170.728 107.28 170.888L107.521 171.032C107.857 171.273 108.225 171.497 108.626 171.705L108.722 171.769C109.362 172.17 110.611 172.858 111.172 173.259C111.54 173.499 111.893 173.707 112.277 173.819C112.405 173.851 112.549 173.899 112.677 173.915L112.982 173.963C113.19 173.995 113.398 173.995 113.558 174.059C113.895 174.187 114.295 174.187 114.663 174.155C114.823 174.155 114.968 174.123 115.112 174.091C115.24 174.059 115.352 174.027 115.48 174.011C115.88 173.963 116.313 174.011 116.793 174.043C117.242 174.043 117.722 174.075 118.203 173.883C118.395 173.803 118.571 173.739 118.731 173.627L119.051 173.435C119.308 173.307 119.58 173.162 119.916 173.018L120.349 172.842C120.541 172.762 120.765 172.682 120.941 172.554C121.55 172.17 122.062 171.545 122.495 171.113C123.728 169.831 124.641 168.342 125.025 166.692L125.089 166.404C125.169 166.1 125.185 165.78 125.217 165.475C125.217 165.315 125.185 165.187 125.137 165.075C125.121 165.027 125.105 164.979 125.089 164.947C125.057 164.787 125.041 164.627 125.041 164.466C125.009 164.098 125.105 163.698 125.121 163.281C125.153 162.881 125.169 162.48 125.057 162.064C124.993 161.712 124.817 161.407 124.657 161.103L124.593 160.975C124.352 160.575 124.144 160.174 123.904 159.806L123.439 159.117C123.327 158.989 123.263 158.797 123.199 158.589C123.167 158.493 123.135 158.381 123.087 158.301C122.943 157.996 122.767 157.628 122.463 157.324C122.222 157.067 122.062 156.907 121.95 156.763C121.742 156.523 121.566 156.315 121.021 155.994C120.637 155.754 120.365 155.61 120.268 155.242C120.172 154.905 119.964 154.569 119.628 154.265C119.42 154.073 119.212 153.912 118.987 153.768C118.651 153.528 118.347 153.336 118.106 153.064C116.969 151.734 115.928 150.822 114.903 150.149C114.727 150.037 114.551 149.973 114.343 149.909C114.151 149.845 113.959 149.781 113.814 149.669C113.67 149.54 113.542 149.396 113.414 149.268C113.19 149.012 112.95 148.74 112.597 148.596C112.421 148.515 112.213 148.483 112.021 148.435C111.909 148.419 111.781 148.403 111.668 148.355C111.332 148.259 111.044 148.003 110.724 147.747C110.483 147.539 110.227 147.346 109.923 147.202C109.731 147.106 109.506 147.042 109.298 146.978C109.154 146.93 108.994 146.898 108.85 146.834C108.69 146.77 108.562 146.706 108.465 146.626C108.305 146.498 108.161 146.434 107.969 146.353C107.376 146.097 106.576 145.761 105.807 145.393L105.519 145.248C104.878 144.928 104.173 144.64 103.293 144.368L103.149 144.32C102.444 144.095 101.739 143.871 100.986 143.727C100.874 143.695 100.778 143.727 100.634 143.727C100.57 143.727 100.49 143.695 100.426 143.679C100.33 143.647 100.25 143.599 100.154 143.567C100.026 143.503 99.8815 143.439 99.7533 143.407C99.5612 143.343 99.353 143.343 99.1448 143.343H98.9686C98.7444 143.343 98.5202 143.279 98.2639 143.215L96.5183 142.782L96.0539 142.654C95.6375 142.542 95.1891 142.43 94.7246 142.446C94.5645 142.446 94.4043 142.462 94.2442 142.494C94.1801 142.494 94.1161 142.526 94.036 142.542C93.9239 142.574 93.8438 142.574 93.7798 142.59C93.5235 142.67 93.2192 142.622 92.9149 142.59H92.7388L92.2743 142.51C92.0181 142.462 91.7779 142.43 91.5216 142.43C91.2174 142.43 90.9131 142.478 90.6088 142.542H90.5127C90.2404 142.622 89.8721 142.702 89.6639 143.054C89.5038 143.343 89.4237 143.647 89.4397 143.951C89.4397 144.143 89.5038 144.336 89.5998 144.496H89.5518Z" fill="#231F20"/>
<path d="M89.2336 142.796C88.9614 142.284 88.561 142.252 88.2247 142.22C88.0966 142.22 87.9685 142.188 87.8403 142.156C87.6482 142.124 87.456 142.092 87.2478 142.076C86.9115 142.076 86.5912 142.14 86.2869 142.204C86.0627 142.252 85.8385 142.316 85.6143 142.332C85.5182 142.332 85.4061 142.332 85.294 142.332C85.1498 142.332 85.0057 142.316 84.8616 142.3C84.6213 142.284 84.3491 142.22 84.1569 142.284L83.0999 142.348H82.7636C82.0269 142.428 81.2582 142.508 80.5215 142.716L80.3453 142.764C80.1051 142.829 79.8649 142.909 79.5766 143.069C79.2243 143.245 78.92 143.437 78.5837 143.517C78.4235 143.549 78.2634 143.565 78.1032 143.581L77.799 143.613C77.0623 143.725 76.4217 144.014 75.7971 144.318C75.1885 144.622 74.5319 144.75 73.8273 144.894L73.6351 144.942C73.523 144.958 73.4429 145.007 73.3468 145.055C73.2988 145.071 73.2667 145.103 73.2187 145.119C73.0265 145.183 72.8343 145.279 72.6582 145.375C72.498 145.455 72.3379 145.567 72.1937 145.663L71.6812 145.983C71.5531 146.048 71.425 146.112 71.2969 146.16C71.1207 146.224 70.9446 146.256 70.7684 146.304L70.5122 146.368C70.2559 146.432 70.0317 146.592 69.7755 146.656C69.3591 146.768 68.9907 146.992 68.6384 147.217L68.2701 147.457L67.1971 148.065C66.9889 148.178 66.7807 148.306 66.5885 148.434C66.2201 148.722 65.9159 148.978 65.6436 149.283C65.4514 149.491 65.2592 149.699 65.0511 149.891C64.8749 150.051 64.6507 150.179 64.3784 150.356C63.5937 150.852 62.825 151.413 62.1043 152.069C61.9762 152.181 61.8641 152.277 61.752 152.341C61.6719 152.389 61.5758 152.405 61.4797 152.437C61.3196 152.486 61.1754 152.534 61.0313 152.614C60.8711 152.71 60.727 152.838 60.5989 152.966L59.9743 153.543L59.2857 154.183L59.0615 154.391C58.9013 154.551 58.7251 154.728 58.549 154.872C58.2607 155.112 57.9084 155.4 57.6201 155.769C57.524 155.897 57.4279 156.009 57.3479 156.153C57.2518 156.297 57.1557 156.441 57.0596 156.569C56.8674 156.842 56.6272 157.066 56.387 157.322C56.0186 157.722 55.6343 158.155 55.4421 158.731L55.362 158.988C55.314 159.148 55.2819 159.324 55.2179 159.436C55.1538 159.548 55.0577 159.676 54.8816 159.868C54.305 160.573 54.0328 161.422 53.9207 162.175C53.8566 162.543 53.8246 162.927 53.8246 163.312C53.8085 163.76 53.8246 164.224 53.8886 164.673C53.9367 165.009 53.9687 165.33 54.0648 165.65C54.1288 165.954 54.2089 166.242 54.321 166.515C54.4011 166.755 54.4972 166.963 54.5612 167.203L54.6253 167.492C54.6734 167.684 54.7374 167.876 54.8175 168.052C54.9136 168.276 55.0417 168.484 55.1858 168.693C55.362 168.981 55.5542 169.221 55.6663 169.493L55.8264 169.91C55.9225 170.166 56.0186 170.422 56.1948 170.646C56.3229 170.807 56.4991 170.967 56.6752 171.095L56.8354 171.223C57.0756 171.415 57.3639 171.687 57.5881 171.944L57.7002 172.072C57.7963 172.184 57.9084 172.264 58.0045 172.36C58.2287 172.536 58.4849 172.664 58.7251 172.809C59.3177 173.129 59.9583 173.417 60.6469 173.481C61.4637 173.577 62.2484 173.737 63.0972 173.833C63.882 173.914 64.6987 173.865 65.4674 173.609C65.9319 173.433 66.4283 173.305 66.9248 173.177C67.2291 173.097 67.5334 173.001 67.8056 172.857C68.0138 172.76 68.206 172.648 68.4302 172.568L69.0708 172.328C69.3591 172.216 69.6794 172.12 69.9356 171.944C70.2719 171.719 70.5762 171.447 70.7684 171.223C70.8645 171.111 70.9766 171.015 71.0727 170.919L71.2649 170.727C71.5211 170.47 71.8254 170.23 72.2258 169.958L72.6902 169.654C72.9945 169.445 73.3148 169.253 73.603 169.013C74.1476 168.581 74.596 168.036 74.9483 167.427C75.0764 167.203 75.4768 166.883 75.7811 166.659C75.9092 166.547 76.0373 166.451 76.1334 166.371C76.742 165.826 77.0783 165.41 77.5107 164.881L77.847 164.465C78.1032 164.16 78.5677 163.6 78.1513 162.927C78.0872 162.831 78.0072 162.735 77.9111 162.623C77.6869 162.399 77.4466 162.239 77.1904 162.159C76.5818 161.95 76.1494 162.271 75.9412 162.415C75.685 162.607 75.4608 162.831 75.2045 163.135C74.9643 163.424 74.7401 163.744 74.5319 164.064C74.4038 164.257 74.2597 164.433 74.0995 164.657L73.6831 165.217C73.6191 165.297 73.539 165.362 73.4589 165.426L73.2507 165.618L72.7542 166.162C72.5781 166.354 72.4179 166.547 72.2258 166.723C71.8734 167.059 71.457 167.347 71.0567 167.62C70.9446 167.7 70.8164 167.78 70.6883 167.828L70.5442 167.876L70.352 167.94C70.0317 168.068 69.8075 168.276 69.6153 168.484C69.5513 168.549 69.5032 168.613 69.4231 168.661C69.1349 168.917 68.8626 169.173 68.5904 169.413L68.5103 169.477C68.0458 169.926 66.9728 170.438 66.4444 170.502C66.108 170.534 65.8038 170.614 65.5155 170.695C65.4194 170.727 65.3233 170.759 65.2272 170.791L65.019 170.887C64.8749 170.967 64.7468 170.999 64.6186 171.015C64.3624 171.015 64.0902 171.127 63.8339 171.207C63.7218 171.239 63.6257 171.303 63.5136 171.351C63.4335 171.383 63.3374 171.415 63.2414 171.447C62.9371 171.543 62.6168 171.447 62.2805 171.335C61.9762 171.207 61.6719 171.111 61.3356 171.047C61.2075 171.031 61.0633 171.047 60.9192 171.031L60.663 170.999C60.4548 170.983 60.2626 170.887 60.0544 170.743C59.9583 170.695 59.8942 170.614 59.8142 170.534C59.7181 170.422 59.606 170.326 59.5099 170.23C59.1575 169.926 58.8693 169.686 58.533 169.205C57.7162 168.004 57.1397 166.899 56.7713 165.842L56.7073 165.65C56.6272 165.458 56.6112 165.249 56.5311 165.057C56.483 164.961 56.419 164.881 56.3709 164.801C56.3549 164.769 56.3229 164.753 56.3069 164.721C56.2588 164.625 56.2108 164.513 56.1948 164.385C56.1948 164.128 56.2428 163.84 56.3709 163.568C56.467 163.312 56.5952 163.055 56.6592 162.783C56.7073 162.543 56.7553 162.303 56.7713 162.062V161.95C56.8514 161.614 56.9475 161.278 57.0756 160.957L57.3318 160.349C57.3959 160.205 57.524 160.077 57.6682 159.948L57.8763 159.756C58.0845 159.548 58.3248 159.276 58.5009 158.956C58.6291 158.683 58.7572 158.523 58.8533 158.395C59.0134 158.171 59.1575 157.979 59.3818 157.466C59.5419 157.098 59.67 156.826 60.0224 156.746C60.3427 156.665 60.6469 156.489 60.9512 156.217C61.1274 156.041 61.3036 155.865 61.4637 155.673C61.7199 155.4 61.9602 155.128 62.2484 154.968C63.7058 154.183 64.8429 153.478 65.7717 152.678C65.9159 152.55 66.044 152.373 66.1561 152.229C66.2682 152.069 66.3803 151.925 66.5084 151.829C66.6525 151.733 66.8287 151.685 66.9889 151.621C67.2931 151.525 67.5974 151.413 67.8537 151.172C67.9818 151.044 68.0939 150.9 68.19 150.74C68.254 150.644 68.3181 150.548 68.3982 150.468C68.6224 150.227 68.9587 150.099 69.311 149.987C69.5833 149.891 69.8716 149.795 70.1438 149.651C70.32 149.555 70.4801 149.411 70.6403 149.299C70.7524 149.202 70.8645 149.122 70.9926 149.042C71.1367 148.946 71.2488 148.898 71.377 148.882C71.5691 148.85 71.6973 148.786 71.8734 148.69C72.4179 148.434 73.1546 148.097 73.9394 147.857L74.2436 147.777C74.9003 147.601 75.5889 147.377 76.4057 147.072L76.5498 147.024C77.2064 146.784 77.9271 146.528 78.5677 146.256C78.6638 146.208 78.7438 146.144 78.8239 146.064C78.872 146.031 78.952 145.999 79.0161 145.983C79.1122 145.967 79.1923 145.951 79.2884 145.951C79.4165 145.951 79.5606 145.919 79.6887 145.887C79.8649 145.839 80.0411 145.759 80.2172 145.663L80.3614 145.583C80.5535 145.487 80.7617 145.439 81.002 145.407C81.5465 145.311 82.091 145.247 82.6515 145.215C82.7956 145.215 82.9558 145.215 83.0999 145.215C83.5003 145.215 83.9167 145.215 84.3331 145.135C84.4772 145.103 84.6213 145.071 84.7655 145.023C84.8295 145.007 84.8776 144.975 84.9416 144.942C85.0377 144.894 85.1178 144.894 85.1658 144.862C85.3901 144.766 85.6943 144.766 85.9666 144.782H86.1267C86.2709 144.782 86.415 144.814 86.5591 144.83C86.7994 144.862 87.0236 144.894 87.2798 144.894C87.5681 144.894 87.8724 144.846 88.1606 144.782H88.2567C88.529 144.702 88.8813 144.622 89.1055 144.286C89.2817 144.014 89.3618 143.693 89.3297 143.389C89.3297 143.197 89.2657 143.005 89.1856 142.845L89.2336 142.796Z" fill="#231F20"/>
<path d="M109.124 157.962C109.892 162.19 110.437 169.621 110.501 176.716C110.549 182.497 110.229 185.348 109.428 189.175C108.611 193.003 103.551 194.028 99.6109 193.964C94.7904 193.9 91.6354 192.41 91.0429 188.343C90.5785 185.156 90.7066 179.935 90.7386 178.686C90.7386 178.526 90.6265 178.397 90.4664 178.397H88.993C88.8328 178.397 88.7207 178.526 88.7207 178.686C88.7688 179.951 88.8969 185.156 88.4164 188.343C87.8079 192.427 84.6529 193.9 79.8324 193.964C75.8927 194.012 70.832 193.003 70.0152 189.175C69.1985 185.364 68.8942 182.497 68.9422 176.716C69.0063 169.621 69.5508 162.19 70.3195 157.962" fill="white"/>
<path d="M108.289 158.204C107.825 158.444 107.825 158.668 107.825 158.86C107.825 158.94 107.825 159.004 107.793 159.084C107.777 159.197 107.761 159.309 107.761 159.421C107.777 159.597 107.873 159.773 107.953 159.917C108.017 160.029 108.081 160.141 108.097 160.27C108.097 160.318 108.113 160.382 108.113 160.446C108.113 160.526 108.097 160.606 108.081 160.686C108.065 160.814 108.001 160.974 108.049 161.07C108.065 161.263 108.065 161.455 108.065 161.647V161.823C108.065 162.223 108.065 162.64 108.145 163.056V163.152C108.193 163.28 108.225 163.425 108.321 163.585C108.433 163.777 108.546 163.969 108.546 164.161C108.546 164.257 108.514 164.337 108.497 164.433L108.449 164.61C108.369 165.026 108.481 165.426 108.594 165.795C108.722 166.163 108.642 166.547 108.562 166.948V167.06C108.562 167.06 108.546 167.172 108.562 167.236C108.562 167.268 108.562 167.284 108.562 167.316C108.562 167.428 108.578 167.54 108.61 167.652C108.642 167.749 108.674 167.845 108.722 167.941C108.77 168.053 108.802 168.149 108.834 168.261C108.85 168.341 108.866 168.421 108.866 168.501C108.866 168.597 108.834 168.709 108.802 168.806L108.77 168.95C108.738 169.094 108.77 169.238 108.738 169.382C108.658 169.622 108.706 169.847 108.754 170.087L108.802 170.327C108.834 170.551 108.834 170.775 108.834 171V171.4C108.898 171.656 108.962 171.864 109.058 172.089C109.122 172.233 109.202 172.393 109.234 172.553C109.266 172.697 109.234 172.825 109.234 173.018C109.17 173.546 109.186 174.091 109.266 174.651C109.266 174.747 109.298 174.827 109.266 174.907C109.25 174.955 109.218 175.019 109.186 175.067C109.122 175.148 109.074 175.244 109.058 175.324C109.042 175.42 109.058 175.532 109.058 175.644L109.09 176.108L109.122 176.621V176.781C109.122 176.909 109.138 177.037 109.122 177.165C109.074 177.374 109.042 177.614 109.074 177.854C109.074 177.934 109.106 178.014 109.122 178.094C109.138 178.19 109.17 178.27 109.17 178.367C109.17 178.543 109.154 178.719 109.106 178.911C109.042 179.199 108.978 179.504 109.106 179.824L109.186 179.968C109.234 180.048 109.282 180.144 109.282 180.208C109.282 180.272 109.25 180.352 109.186 180.48C108.978 180.913 109.01 181.345 109.042 181.714L109.106 182.274L109.17 182.947L109.202 183.443V183.892C109.234 184.02 109.234 184.132 109.202 184.26L109.154 184.404C109.122 184.5 109.09 184.596 109.074 184.692C109.058 184.821 109.074 184.949 109.074 185.077C109.074 185.253 109.074 185.413 109.01 185.557C108.978 185.637 108.93 185.701 108.882 185.765C108.802 185.894 108.706 186.006 108.674 186.166C108.674 186.278 108.674 186.39 108.706 186.518V186.63C108.754 186.806 108.738 186.983 108.674 187.143L108.642 187.223C108.642 187.223 108.594 187.351 108.562 187.415L108.497 187.815C108.433 188.136 108.369 188.456 108.401 188.808C108.433 189.209 108.305 189.481 108.065 189.753C107.873 190.009 107.649 190.202 107.505 190.49C107.424 190.682 107.264 190.826 107.056 190.906C106.928 190.954 106.848 191.05 106.72 191.114C106.64 191.162 106.56 191.227 106.464 191.259C106.384 191.307 106.271 191.307 106.159 191.323C106.015 191.323 105.871 191.355 105.743 191.403C105.567 191.467 105.439 191.595 105.343 191.707C105.295 191.755 105.23 191.803 105.166 191.835L105.054 191.899C104.894 191.995 104.718 192.075 104.462 192.075H104.173C103.981 192.075 103.789 192.075 103.597 192.091C103.245 192.139 102.908 192.268 102.588 192.524C102.46 192.62 102.188 192.588 101.995 192.572C101.899 192.572 101.819 192.572 101.755 192.556C101.323 192.54 101.035 192.604 100.666 192.668L100.378 192.716C100.17 192.748 99.7693 192.78 99.6412 193.533C99.6252 193.645 99.6092 193.773 99.6092 193.917C99.6092 194.237 99.6092 194.526 99.6733 194.766C99.8174 195.358 100.154 195.454 100.314 195.503C100.506 195.551 100.714 195.567 100.97 195.535C101.211 195.503 101.451 195.422 101.675 195.342C101.819 195.294 101.963 195.246 102.124 195.198L102.54 195.054C102.54 195.054 102.668 195.038 102.732 195.038C102.796 195.038 102.844 195.038 102.908 195.038C103.068 195.006 103.213 194.958 103.373 194.91L103.837 194.782C104.141 194.702 104.462 194.702 104.782 194.67C104.878 194.67 104.974 194.654 105.07 194.67L105.166 194.702L105.311 194.734C105.551 194.782 105.743 194.67 105.919 194.574L106.079 194.494C106.319 194.381 106.544 194.221 106.784 194.077L106.848 194.045C107.248 193.805 108.017 193.357 108.449 193.228C108.722 193.132 108.962 192.988 109.154 192.812C109.218 192.748 109.282 192.684 109.33 192.604L109.442 192.428C109.506 192.3 109.57 192.187 109.667 192.123C109.859 191.979 109.955 191.707 110.035 191.483C110.067 191.387 110.083 191.291 110.099 191.178C110.099 191.098 110.099 191.002 110.131 190.922C110.179 190.65 110.387 190.442 110.531 190.17C110.676 189.929 110.852 189.609 110.868 189.369C110.868 189.273 110.868 189.161 110.836 189.065L110.804 188.872C110.804 188.728 110.804 188.568 110.884 188.408C110.916 188.328 110.948 188.264 110.996 188.2C111.06 188.104 111.108 188.008 111.14 187.911C111.236 187.575 111.268 187.223 111.364 186.87C111.652 185.942 111.797 185.061 111.813 184.212V184.068C111.813 183.908 111.813 183.748 111.813 183.603C111.813 183.523 111.749 183.459 111.7 183.395C111.684 183.379 111.668 183.347 111.652 183.331C111.62 183.251 111.588 183.171 111.588 183.075C111.588 182.883 111.668 182.691 111.765 182.482C111.861 182.29 111.941 182.098 111.957 181.89C111.957 181.714 111.925 181.537 111.877 181.361V181.281C111.797 181.041 111.765 180.801 111.749 180.577L111.684 180.144C111.668 180.048 111.717 179.936 111.765 179.824C111.781 179.76 111.813 179.712 111.829 179.648C111.893 179.456 111.941 179.247 111.877 179.007C111.829 178.815 111.813 178.687 111.813 178.591C111.813 178.415 111.797 178.27 111.604 177.934C111.476 177.694 111.38 177.518 111.572 177.342C111.749 177.165 111.829 176.957 111.829 176.701C111.829 176.541 111.797 176.397 111.765 176.237C111.717 176.012 111.668 175.804 111.733 175.596C112.037 174.603 112.117 173.818 112.021 173.098C112.005 172.985 111.941 172.873 111.877 172.761C111.813 172.649 111.749 172.553 111.749 172.441C111.749 172.329 111.797 172.233 111.845 172.121C111.925 171.928 112.005 171.736 111.925 171.528C111.893 171.416 111.813 171.32 111.733 171.208C111.684 171.144 111.636 171.08 111.604 171.016C111.508 170.823 111.556 170.615 111.62 170.391C111.668 170.215 111.717 170.023 111.7 169.847C111.7 169.718 111.636 169.606 111.588 169.478C111.556 169.398 111.524 169.302 111.508 169.222C111.492 169.126 111.492 169.046 111.508 168.982C111.556 168.87 111.54 168.774 111.524 168.661C111.492 168.293 111.444 167.813 111.476 167.316V167.124C111.524 166.708 111.524 166.275 111.476 165.763V165.683C111.412 165.266 111.364 164.834 111.252 164.401C111.236 164.337 111.188 164.289 111.124 164.225C111.092 164.193 111.092 164.145 111.092 164.097C111.092 164.049 111.092 163.985 111.108 163.937C111.124 163.857 111.14 163.777 111.14 163.681C111.14 163.569 111.076 163.457 111.012 163.344L110.964 163.248C110.9 163.136 110.9 162.992 110.884 162.848C110.884 162.512 110.868 162.175 110.884 161.823L110.916 161.551C110.948 161.295 110.964 161.038 110.884 160.782C110.852 160.702 110.82 160.606 110.772 160.526C110.756 160.494 110.724 160.462 110.692 160.43C110.643 160.366 110.627 160.334 110.611 160.302C110.499 160.174 110.499 159.997 110.515 159.821V159.725C110.515 159.629 110.515 159.549 110.531 159.453C110.531 159.309 110.563 159.165 110.531 159.004C110.499 158.828 110.435 158.652 110.339 158.492L110.307 158.444C110.227 158.3 110.099 158.092 109.747 158.028C109.458 157.979 109.138 157.995 108.834 158.06C108.642 158.108 108.465 158.172 108.305 158.252L108.289 158.204Z" fill="#231F20"/>
<path d="M99.5157 193.114C99.3716 192.601 99.1474 192.553 98.9552 192.521C98.8911 192.521 98.811 192.489 98.747 192.457C98.6509 192.409 98.5388 192.377 98.4427 192.361C98.2665 192.345 98.0904 192.393 97.9302 192.441C97.8021 192.473 97.69 192.505 97.5619 192.505C97.5138 192.505 97.4498 192.505 97.4017 192.473C97.3217 192.457 97.2576 192.425 97.1935 192.377C97.0814 192.313 96.9693 192.217 96.8572 192.233C96.6811 192.201 96.5209 192.137 96.3608 192.073L96.2166 192.009C95.8803 191.865 95.56 191.721 95.2397 191.625H95.1596C95.0475 191.577 94.9354 191.544 94.7753 191.544C94.5831 191.544 94.3909 191.544 94.2628 191.448C94.2147 191.4 94.1667 191.336 94.1347 191.272L94.0546 191.144C93.8784 190.856 93.6222 190.712 93.366 190.536C93.1097 190.359 93.0296 190.055 92.9816 189.735C92.9816 189.703 92.9816 189.671 92.9816 189.639C92.9816 189.591 92.9496 189.559 92.9335 189.511C92.9335 189.495 92.9015 189.479 92.9015 189.463C92.8695 189.382 92.8214 189.302 92.7734 189.222C92.7254 189.158 92.6773 189.078 92.6293 189.014C92.5652 188.934 92.5012 188.854 92.4691 188.774C92.4371 188.71 92.4211 188.646 92.4211 188.566C92.4211 188.47 92.4211 188.39 92.4531 188.293V188.165C92.5011 188.037 92.4531 187.893 92.4691 187.749C92.5172 187.525 92.4691 187.285 92.4051 187.076C92.389 186.996 92.357 186.916 92.357 186.836C92.325 186.612 92.309 186.388 92.309 186.163V185.763C92.2289 185.507 92.1809 185.299 92.0687 185.074C91.9887 184.93 91.9246 184.77 91.8926 184.61C91.8606 184.466 91.8926 184.338 91.8926 184.146C91.9566 183.601 91.9406 183.057 91.8766 182.48C91.8766 182.384 91.8605 182.304 91.8766 182.224C91.8926 182.176 91.9246 182.112 91.9727 182.064C92.0367 181.984 92.0848 181.887 92.1008 181.791C92.1328 181.679 92.1168 181.583 92.1008 181.471L92.0687 180.991V180.462L92.0527 180.286C92.0527 180.158 92.0527 180.03 92.0687 179.886C92.1168 179.677 92.1648 179.437 92.1328 179.181C92.1328 179.101 92.1008 179.005 92.0848 178.925L92.0527 178.781V178.717C92.0527 178.717 92.0367 178.476 92.0047 178.364C91.8926 177.836 91.5242 177.371 91.0118 177.163C90.8836 177.115 90.7555 177.083 90.6114 177.051C90.5153 177.051 90.4833 177.051 90.4512 177.051H90.211C89.6985 177.051 89.106 177.067 88.6415 177.259L88.4333 177.355C88.3212 177.419 88.1771 177.435 88.113 177.515C88.033 177.563 87.9049 177.627 87.7447 177.756C87.6006 177.884 87.5045 178.012 87.4244 178.204C87.3764 178.412 87.3123 178.604 87.3123 178.829C87.3123 179.181 87.3603 179.501 87.3924 179.806L87.4244 180.078L87.4564 180.222L87.5045 180.51L87.6166 181.199L87.6806 181.711L87.7447 182.176C87.7607 182.304 87.7767 182.432 87.7447 182.56L87.7127 182.72C87.6967 182.832 87.6646 182.928 87.6646 183.041C87.6646 183.169 87.6646 183.297 87.6967 183.441C87.7127 183.617 87.7447 183.793 87.6967 183.937C87.6646 184.017 87.6326 184.098 87.5846 184.178C87.5045 184.306 87.4404 184.45 87.4244 184.61C87.4244 184.722 87.4564 184.85 87.4885 184.962L87.5205 185.074C87.5685 185.251 87.5685 185.427 87.5205 185.603L87.4885 185.683C87.4885 185.683 87.4404 185.811 87.4404 185.891V186.308C87.3924 186.628 87.3764 186.98 87.4404 187.317C87.5365 187.733 87.4084 188.165 87.2482 188.518C87.1201 188.854 86.944 189.174 86.9119 189.527C86.8799 189.751 86.7838 189.959 86.6076 190.103C86.5116 190.199 86.4475 190.311 86.3674 190.423C86.3194 190.504 86.2553 190.584 86.1913 190.648C86.1272 190.712 86.0151 190.744 85.935 190.792C85.8069 190.84 85.6948 190.904 85.5827 190.968C85.4546 191.064 85.3905 191.224 85.3104 191.336C85.2784 191.4 85.2304 191.448 85.1823 191.496L85.1022 191.593C84.9901 191.721 84.814 191.801 84.5898 191.865L84.3175 191.897C84.1413 191.929 83.9492 191.945 83.773 191.977C83.4527 192.057 83.1324 192.217 82.8281 192.489C82.716 192.585 82.4277 192.569 82.2356 192.569C82.1395 192.569 82.0594 192.569 81.9793 192.569C81.5469 192.569 81.2586 192.65 80.8903 192.73L80.602 192.794C80.3778 192.826 79.9774 192.874 79.8653 193.626C79.8493 193.739 79.8333 193.867 79.8333 194.011C79.8333 194.331 79.8653 194.619 79.9294 194.86C80.0896 195.452 80.4419 195.532 80.602 195.58C80.7942 195.628 81.0184 195.628 81.2747 195.58C81.5309 195.532 81.7711 195.452 82.0113 195.356C82.1555 195.308 82.2996 195.244 82.4758 195.18C82.6199 195.132 82.7641 195.068 82.9082 195.004C82.9722 194.972 83.0363 194.972 83.1164 194.972H83.3086C83.4687 194.908 83.6289 194.844 83.789 194.78L84.2855 194.603C84.6058 194.491 84.9581 194.443 85.2944 194.347C85.3905 194.315 85.4866 194.299 85.6147 194.299H85.7268C85.7268 194.299 85.8229 194.315 85.887 194.315C86.1592 194.315 86.3514 194.155 86.5116 194.011L86.6717 193.867C86.9119 193.674 87.1361 193.482 87.3283 193.242L87.3764 193.178C87.7447 192.826 88.3853 192.089 88.7536 191.785C88.9779 191.593 89.154 191.368 89.2821 191.128C89.3302 191.048 89.3462 190.952 89.3782 190.872L89.4263 190.664C89.4583 190.52 89.4743 190.391 89.5384 190.311C89.6505 190.119 89.6665 189.863 89.6825 189.623C89.6825 189.527 89.6825 189.431 89.6505 189.334C89.6345 189.254 89.6185 189.174 89.6024 189.094C89.5704 188.838 89.7145 188.582 89.8106 188.358C89.9227 188.117 90.0188 187.877 90.0028 187.621C90.0028 187.509 89.9708 187.413 89.9388 187.301L89.8907 187.108C89.8587 186.964 89.8747 186.788 89.9227 186.612C89.9388 186.532 89.9708 186.452 90.0028 186.372C90.0509 186.26 90.0829 186.163 90.0989 186.051C90.163 185.699 90.1309 185.331 90.195 184.962C90.3712 183.985 90.4192 183.089 90.3551 182.224V182.08C90.3391 181.919 90.3231 181.759 90.2911 181.615C90.2751 181.535 90.211 181.471 90.163 181.423C90.1469 181.407 90.1149 181.375 90.1149 181.359C90.0669 181.279 90.0348 181.199 90.0348 181.103C90.0348 180.911 90.0829 180.702 90.163 180.494C90.243 180.334 90.3071 179.966 90.3071 180.046C90.3071 180.046 90.2591 180.014 90.211 179.982L90.195 179.95C90.1309 179.886 90.0829 179.806 90.0509 179.725C90.0509 179.677 90.0509 179.645 90.0669 179.613C90.0669 179.597 90.1469 179.645 90.195 179.693L90.2591 179.757C90.2591 179.757 90.3551 179.854 90.3872 179.806V179.773L90.4993 178.717L89.4903 178.684V178.7V178.733C89.5224 178.845 89.5704 178.973 89.6505 179.149C89.7786 179.405 89.8587 179.581 89.6505 179.773C89.4743 179.95 89.3782 180.158 89.3782 180.43C89.3782 180.59 89.4103 180.75 89.4263 180.911C89.4743 181.151 89.5063 181.359 89.4423 181.567C89.122 182.576 89.0259 183.409 89.138 184.162C89.154 184.29 89.2181 184.402 89.2821 184.514C89.3462 184.626 89.4103 184.738 89.4103 184.834C89.4103 184.946 89.3622 185.058 89.3142 185.171C89.2341 185.363 89.17 185.571 89.2341 185.795C89.2661 185.907 89.3462 186.019 89.4423 186.115C89.4903 186.179 89.5384 186.244 89.5864 186.308C89.6825 186.5 89.6505 186.74 89.5864 186.98C89.5384 187.172 89.5063 187.365 89.5384 187.573C89.5544 187.701 89.6185 187.829 89.6665 187.957C89.7145 188.053 89.7466 188.133 89.7786 188.229C89.8106 188.342 89.8106 188.422 89.7786 188.502C89.7466 188.63 89.7786 188.742 89.8106 188.87C89.8907 189.302 90.0509 189.863 90.211 190.439L90.2751 190.664C90.4032 191.16 90.6594 191.673 91.0758 192.201L91.1399 192.297C91.4922 192.714 91.9086 193.098 92.389 193.386C92.4691 193.434 92.5492 193.434 92.6453 193.434C92.6933 193.434 92.7414 193.482 92.7734 193.498C92.8214 193.546 92.8695 193.594 92.9175 193.642C92.9816 193.723 93.0617 193.803 93.1417 193.851C93.2539 193.915 93.414 193.947 93.5421 193.963H93.6542C93.7984 194.011 93.9425 194.075 94.1026 194.155L95.1596 194.651L95.4479 194.78C95.7041 194.892 95.9764 195.036 96.2807 195.02C96.3768 195.02 96.4889 195.02 96.585 194.988C96.633 194.988 96.665 194.972 96.7131 194.94C96.7932 194.908 96.8412 194.924 96.8732 194.908C97.0494 194.844 97.2256 194.892 97.4177 194.94L97.5138 194.972C97.6099 194.988 97.706 195.036 97.7861 195.052C97.9302 195.1 98.0904 195.148 98.2505 195.148C98.4427 195.148 98.6349 195.148 98.8271 195.068H98.8911C99.0673 194.988 99.2915 194.924 99.4356 194.571C99.5477 194.299 99.5958 193.979 99.5798 193.674C99.5798 193.482 99.5477 193.29 99.4997 193.114H99.5157Z" fill="#231F20"/>
<path d="M79.7385 193.113C79.5784 192.601 79.3702 192.569 79.194 192.537C79.1299 192.537 79.0499 192.489 78.9858 192.473C78.8897 192.425 78.7776 192.393 78.6815 192.377C78.5054 192.377 78.3452 192.409 78.169 192.457C78.0569 192.489 77.9288 192.537 77.8167 192.537C77.7687 192.537 77.7046 192.537 77.6566 192.521C77.5765 192.505 77.5124 192.473 77.4484 192.425C77.3363 192.377 77.2081 192.281 77.112 192.313C76.9359 192.297 76.7597 192.233 76.5836 192.185L76.4234 192.137C76.0711 192.008 75.7187 191.896 75.3504 191.848H75.2543C75.1422 191.816 75.0141 191.8 74.8379 191.848C74.6297 191.88 74.4376 191.912 74.2774 191.848C74.2133 191.816 74.1493 191.752 74.1012 191.688L73.9891 191.576C73.7169 191.336 73.3966 191.24 73.0923 191.16C72.788 191.08 72.5958 190.807 72.4517 190.535C72.4517 190.503 72.4197 190.487 72.4037 190.455C72.3876 190.407 72.3556 190.391 72.3236 190.359C72.3236 190.359 72.2915 190.343 72.2755 190.327C72.2275 190.263 72.1634 190.215 72.0994 190.167L71.9072 190.039C71.9072 190.039 71.7631 189.942 71.699 189.894C71.6509 189.862 71.6189 189.814 71.6029 189.75C71.5869 189.686 71.5869 189.606 71.6029 189.526V189.414C71.6029 189.318 71.5388 189.222 71.5549 189.11C71.5709 189.014 71.5549 188.95 71.5388 188.869C71.5068 188.773 71.4748 188.645 71.4267 188.549L71.3467 188.325C71.2826 188.117 71.2506 187.893 71.2185 187.668L71.1545 187.284C71.0584 187.044 70.9783 186.852 70.8502 186.643C70.7541 186.499 70.674 186.371 70.626 186.227C70.5779 186.099 70.5779 185.955 70.5779 185.779C70.5779 185.25 70.5139 184.722 70.3858 184.193C70.3698 184.097 70.3537 184.017 70.3698 183.937C70.3698 183.889 70.4178 183.825 70.4498 183.777C70.4979 183.697 70.5459 183.601 70.5619 183.52C70.5779 183.424 70.5619 183.312 70.5459 183.216L70.4819 182.752L70.4178 182.239V182.079C70.3858 181.951 70.3698 181.823 70.4018 181.695C70.4338 181.487 70.4658 181.246 70.4178 181.006C70.4178 180.926 70.3858 180.846 70.3537 180.766C70.3217 180.67 70.3057 180.59 70.2897 180.494C70.2737 180.318 70.2897 180.141 70.3377 179.949C70.3858 179.661 70.4498 179.357 70.3057 179.052L70.2256 178.908C70.1776 178.828 70.1295 178.732 70.1135 178.668C70.1135 178.604 70.1455 178.524 70.1936 178.396C70.3858 177.947 70.3377 177.515 70.2737 177.147L70.1776 176.586L70.0815 175.913L70.0174 175.417L69.9694 174.952C69.9534 174.824 69.9373 174.696 69.9694 174.568L70.0014 174.424C70.0174 174.328 70.0495 174.216 70.0495 174.12C70.0495 173.992 70.0495 173.863 70.0334 173.735C70.0174 173.559 69.9854 173.399 70.0334 173.239C70.0655 173.159 70.0975 173.079 70.1455 173.015C70.2256 172.887 70.2897 172.742 70.3057 172.598C70.3057 172.486 70.2737 172.374 70.2416 172.246L70.2096 172.134C70.1616 171.958 70.1616 171.782 70.2096 171.621L70.2416 171.541C70.2416 171.541 70.2737 171.413 70.2897 171.333V170.917C70.3057 170.596 70.3217 170.244 70.2416 169.908C70.1295 169.491 70.2416 169.075 70.3377 168.643C70.4338 168.242 70.5299 167.842 70.4658 167.425C70.4338 167.169 70.4658 166.897 70.5459 166.641C70.594 166.481 70.61 166.32 70.626 166.16C70.626 166.048 70.626 165.92 70.674 165.808C70.7061 165.696 70.7541 165.584 70.8022 165.472C70.8662 165.311 70.9463 165.151 70.9623 164.991C70.9943 164.783 70.9463 164.575 70.8982 164.399C70.8662 164.319 70.8662 164.238 70.8662 164.158V164.014C70.8182 163.806 70.8502 163.598 70.9303 163.342L71.0264 163.037C71.0904 162.845 71.1705 162.637 71.2185 162.445C71.2986 162.06 71.2506 161.676 71.1064 161.276C71.0584 161.132 71.1385 160.843 71.2185 160.651C71.2506 160.555 71.2826 160.475 71.2986 160.411C71.4107 159.962 71.4107 159.658 71.4107 159.274V158.97C71.4267 158.745 71.4588 158.345 70.7541 158.089C70.642 158.057 70.5299 158.025 70.3858 157.993C70.0815 157.929 69.7932 157.897 69.537 157.913C68.9284 157.961 68.7683 158.249 68.7042 158.393C68.6081 158.569 68.5761 158.761 68.5601 159.002C68.5601 159.242 68.5601 159.466 68.6081 159.706C68.6241 159.85 68.6401 159.995 68.6562 160.155L68.6882 160.571C68.6882 160.571 68.6882 160.699 68.6562 160.747L68.6241 160.907C68.6241 161.051 68.6241 161.212 68.6241 161.356C68.6241 161.516 68.6241 161.66 68.6241 161.82C68.6081 162.125 68.512 162.413 68.4319 162.685C68.3999 162.765 68.3839 162.861 68.3198 162.925L68.2558 163.005L68.1757 163.101C68.0476 163.294 68.0636 163.486 68.0796 163.662V163.822L68.1437 164.527V164.591C68.1757 165.007 68.0956 165.76 67.9195 166.096C67.8074 166.304 67.7433 166.513 67.7433 166.721C67.7433 166.785 67.7433 166.865 67.7433 166.929L67.7753 167.089C67.7913 167.201 67.8234 167.297 67.7753 167.377C67.7113 167.554 67.7593 167.762 67.8074 167.938C67.8234 168.018 67.8554 168.098 67.9034 168.178C67.9355 168.242 67.9675 168.306 67.9835 168.37C68.0476 168.579 67.9515 168.803 67.8714 169.027C67.7913 169.251 67.6953 169.475 67.7273 169.716C67.7273 169.812 67.7753 169.908 67.8074 170.004L67.8714 170.196C67.9034 170.34 67.9034 170.484 67.8714 170.66C67.8714 170.741 67.8234 170.805 67.7913 170.885C67.7433 170.981 67.7113 171.093 67.6953 171.189C67.6472 171.525 67.6792 171.878 67.6152 172.214C67.455 173.159 67.391 174.008 67.455 174.84V174.985C67.455 175.129 67.471 175.289 67.5031 175.433C67.5191 175.513 67.5831 175.577 67.6312 175.625C67.6472 175.641 67.6792 175.673 67.6792 175.689C67.7273 175.769 67.7433 175.849 67.7593 175.929C67.7593 176.122 67.6953 176.314 67.6152 176.506C67.5351 176.698 67.455 176.89 67.455 177.098C67.455 177.275 67.5031 177.451 67.5511 177.611V177.691C67.6472 177.931 67.6792 178.155 67.7113 178.396L67.7913 178.828C67.8074 178.924 67.7753 179.036 67.7273 179.148C67.7113 179.212 67.6792 179.261 67.6632 179.325C67.6152 179.517 67.5671 179.741 67.6312 179.965C67.6792 180.157 67.6953 180.285 67.7113 180.382C67.7273 180.558 67.7433 180.702 67.9355 181.038C68.0796 181.278 68.1757 181.439 67.9995 181.647C67.8394 181.823 67.7593 182.047 67.7753 182.303C67.7753 182.464 67.8234 182.608 67.8714 182.768C67.9355 182.992 67.9835 183.2 67.9515 183.408C67.7273 184.433 67.7113 185.266 67.9034 185.987C67.9355 186.099 68.0156 186.211 68.0956 186.323C68.1757 186.419 68.2558 186.531 68.2558 186.627C68.2558 186.74 68.2398 186.852 68.2077 186.964C68.1597 187.172 68.1116 187.38 68.2077 187.572C68.2558 187.684 68.3519 187.764 68.448 187.861C68.512 187.909 68.5601 187.973 68.6081 188.037C68.7362 188.213 68.7042 188.437 68.6882 188.677C68.6722 188.869 68.6561 189.046 68.6882 189.238C68.7202 189.35 68.7843 189.478 68.8804 189.622C68.9444 189.718 68.9925 189.814 69.0405 189.91C69.0886 190.023 69.1206 190.119 69.1046 190.215C69.1046 190.359 69.1686 190.471 69.2327 190.599C69.4249 191.032 69.7612 191.56 70.1295 192.056L70.2576 192.249C70.5619 192.665 70.9623 193.049 71.4908 193.386L71.5869 193.45C72.0193 193.706 72.4837 193.946 72.9642 194.058C73.0442 194.074 73.1083 194.058 73.2044 194.042C73.2524 194.042 73.3005 194.058 73.3325 194.074L73.4927 194.17C73.4927 194.17 73.6528 194.267 73.7329 194.299C73.845 194.347 73.9891 194.347 74.1173 194.331H74.2294C74.3735 194.331 74.5016 194.363 74.6618 194.411L75.6867 194.763L75.959 194.875C76.1992 194.971 76.4715 195.083 76.7437 195.051C76.8398 195.051 76.9359 195.019 77.032 195.003C77.064 195.003 77.112 194.971 77.1601 194.955C77.2402 194.923 77.2722 194.923 77.3042 194.907C77.4644 194.843 77.6405 194.875 77.8167 194.907H77.9128C78.0089 194.939 78.089 194.971 78.1851 195.003C78.3292 195.051 78.4733 195.083 78.6335 195.099C78.8257 195.099 79.0018 195.067 79.194 195.003H79.2581C79.4182 194.923 79.6424 194.843 79.7705 194.491C79.8666 194.218 79.9147 193.898 79.8987 193.594C79.8987 193.402 79.8506 193.21 79.8026 193.049L79.7385 193.113Z" fill="#231F20"/>
<path d="M120.31 78.048C127.293 68.327 131.953 55.6591 132.033 46.7068C132.114 37.7384 127.501 30.0992 118.261 27.9853C109.02 25.8713 100.18 29.9231 95.8877 39.9965C91.996 49.1571 92.1402 65.9728 93.4694 73.2916" fill="white"/>
<path d="M103.512 57.0381C103.784 52.0895 104.505 47.2369 105.802 44.2101C107.355 40.5587 110.831 37.3237 115.363 38.3807C118.822 39.1814 121.304 42.6727 121.256 47.2209C121.224 50.4079 120.135 54.4917 118.117 59.5364C116.42 63.7804 111.968 75.5033 106.923 74.3182C103.224 73.4374 103.224 62.4512 103.512 57.0381Z" fill="#F7B9C7"/>
<path d="M59.2736 78.048C52.2911 68.327 47.6307 55.6591 47.5506 46.7068C47.4706 37.7384 52.0829 30.0992 61.3235 27.9853C70.5641 25.8713 79.4044 29.9231 83.6964 39.9965C87.5881 49.1571 87.4439 65.9728 86.1147 73.2916" fill="white"/>
<path d="M76.0749 57.0381C75.8027 52.0895 75.082 47.2369 73.7848 44.2101C72.2313 40.5587 68.7561 37.3237 64.2238 38.3807C60.7646 39.1814 58.2823 42.6727 58.3303 47.2209C58.3624 50.4079 59.4514 54.4917 61.4693 59.5364C63.1669 63.7804 67.619 75.5033 72.6637 74.3182C76.3632 73.4374 76.3632 62.4512 76.0749 57.0381Z" fill="#F7B9C7"/>
<path d="M94.2938 73.0046C94.7582 72.7003 94.7422 72.38 94.7262 72.1078C94.7262 72.0117 94.7262 71.8996 94.7262 71.8035C94.7262 71.6434 94.7582 71.4992 94.7262 71.3391C94.7102 71.0828 94.6141 70.8426 94.518 70.6024C94.4539 70.4422 94.3899 70.2661 94.3579 70.0899C94.3579 70.0098 94.3418 69.9297 94.3418 69.8497C94.3418 69.7376 94.3579 69.6255 94.3739 69.5134C94.4059 69.3372 94.4539 69.113 94.4059 68.9689C94.3899 68.6966 94.3739 68.4243 94.3739 68.1521V67.8959C94.3899 67.3193 94.4059 66.7268 94.3098 66.1502V66.0061C94.2618 65.8139 94.2458 65.6217 94.1497 65.3815C94.0376 65.0932 93.9415 64.821 93.9415 64.5487C93.9415 64.4206 93.9735 64.2925 94.0055 64.1804L94.0536 63.9402C94.1497 63.3636 94.0856 62.7871 93.9735 62.2586C93.8774 61.7301 93.9735 61.1856 94.0856 60.6251L94.1176 60.4649C94.1176 60.3848 94.1176 60.3048 94.1176 60.2247C94.1176 60.1927 94.1176 60.1606 94.1176 60.1126C94.1176 59.9524 94.1176 59.7923 94.1016 59.6161L94.0376 59.1837C94.0055 59.0236 93.9735 58.8634 93.9575 58.7193C93.9575 58.6072 93.9575 58.4951 93.9575 58.383C93.9735 58.2388 94.0215 58.0947 94.0536 57.9666L94.1016 57.7744C94.1497 57.5662 94.1016 57.358 94.1817 57.1658C94.2938 56.8455 94.2778 56.5092 94.2618 56.1889V55.8366C94.2618 55.5163 94.2618 55.196 94.3098 54.8757L94.3739 54.3152C94.3579 53.9468 94.3418 53.6425 94.2618 53.3222C94.2137 53.098 94.1657 52.8738 94.1657 52.6496C94.1657 52.4574 94.2137 52.2652 94.2618 52.009C94.4219 51.2723 94.502 50.5036 94.566 49.7349C94.566 49.6068 94.5821 49.4786 94.6301 49.3826C94.6621 49.3185 94.7102 49.2384 94.7582 49.1744C94.8383 49.0623 94.9024 48.9502 94.9504 48.838C94.9985 48.6939 95.0145 48.5498 95.0145 48.4056L95.1106 47.749L95.2227 47.0284L95.2547 46.8041C95.2867 46.628 95.3027 46.4518 95.3668 46.2757C95.4629 46.0034 95.591 45.6831 95.6391 45.3468L95.6711 44.9945C95.6711 44.8663 95.6871 44.7382 95.7031 44.6101C95.7512 44.3699 95.8312 44.1296 95.9594 43.9054C96.1355 43.5371 96.3277 43.1527 96.3117 42.7043V42.4961C96.2796 42.368 96.2636 42.2399 96.3117 42.1438C96.3437 42.0637 96.4078 41.9676 96.5359 41.8075C96.9523 41.295 97.0804 40.7185 97.2406 40.238L97.4808 39.5013C97.5769 39.2131 97.6569 38.9088 97.7851 38.6205L98.0733 37.9959L98.3296 37.4194C98.3936 37.2592 98.4577 37.0991 98.5698 36.971L98.7139 36.8108C98.81 36.6987 98.9061 36.6026 98.9862 36.4905C99.0823 36.3464 99.1784 36.2022 99.2584 36.0421C99.3705 35.8339 99.4666 35.6257 99.6428 35.4816C99.7229 35.4175 99.819 35.3534 99.9311 35.3054C100.107 35.2093 100.283 35.0972 100.412 34.9531C100.492 34.841 100.572 34.6808 100.652 34.5367L100.716 34.4086C100.828 34.2004 100.988 34.0242 101.18 33.8801L101.276 33.816C101.276 33.816 101.42 33.7039 101.501 33.6398L101.885 33.2395C102.221 32.9512 102.558 32.6469 102.846 32.2786C103.182 31.8141 103.727 31.5739 104.239 31.3017C104.736 31.0775 105.248 30.8853 105.696 30.5169C105.969 30.3087 106.321 30.1806 106.673 30.0845C106.882 30.0365 107.074 29.9244 107.282 29.8603C107.426 29.8123 107.586 29.7482 107.73 29.7162C107.89 29.6842 108.051 29.6681 108.211 29.6521C108.435 29.6521 108.643 29.6041 108.867 29.572C109.14 29.508 109.396 29.3799 109.588 29.2838C109.684 29.2197 109.78 29.1877 109.892 29.1557L110.085 29.0756C110.341 28.9795 110.629 28.9475 110.997 28.9475H111.414C111.686 28.9475 111.974 29.0115 112.247 29.0115C112.759 29.0115 113.272 28.8834 113.784 28.7233C113.976 28.6592 114.361 28.7233 114.649 28.7713C114.777 28.8033 114.889 28.8193 115.001 28.8514C115.61 28.9795 116.026 28.9475 116.555 28.9795L116.971 29.0115C117.275 29.0436 117.836 29.1076 118.172 28.419C118.22 28.3069 118.268 28.1948 118.3 28.0506C118.38 27.7463 118.412 27.4581 118.38 27.2018C118.3 26.5933 117.852 26.4011 117.628 26.305C117.371 26.1929 117.083 26.1128 116.731 26.0968C116.378 26.0968 116.042 26.0968 115.69 26.1288C115.482 26.1288 115.273 26.1609 115.033 26.1769C114.825 26.1769 114.617 26.2249 114.409 26.257C114.312 26.257 114.232 26.257 114.136 26.257C114.056 26.257 113.976 26.257 113.88 26.2409C113.656 26.2409 113.432 26.257 113.223 26.273L112.535 26.353C112.086 26.4011 111.638 26.353 111.206 26.353C111.077 26.353 110.949 26.353 110.805 26.337L110.677 26.305L110.501 26.257C110.181 26.1929 109.908 26.273 109.652 26.353L109.428 26.4331L108.403 26.8015L108.307 26.8335C107.73 27.0257 106.625 27.426 106.081 27.4581C105.744 27.5061 105.424 27.6022 105.136 27.7303C105.04 27.7784 104.944 27.8264 104.848 27.8745L104.639 28.0026C104.495 28.0827 104.383 28.2108 104.255 28.2428C103.999 28.3389 103.759 28.5311 103.55 28.7233C103.47 28.8033 103.39 28.8994 103.31 28.9795L103.118 29.2037C102.894 29.4439 102.59 29.572 102.253 29.7162C101.933 29.8603 101.581 29.9884 101.34 30.2767C101.244 30.3888 101.148 30.5169 101.068 30.629L100.908 30.8532C100.78 31.0134 100.604 31.1735 100.379 31.3337L100.091 31.5259C99.9631 31.6059 99.819 31.702 99.7069 31.7981C99.3225 32.1505 98.9541 32.5348 98.6018 32.9192C97.5769 33.9121 96.7921 34.9851 96.1996 36.0741L96.1035 36.2663C95.9914 36.4745 95.8953 36.6667 95.8152 36.8909C95.7672 37.003 95.7832 37.1151 95.7832 37.1952C95.7832 37.2272 95.7832 37.2752 95.7832 37.3073C95.7832 37.4194 95.7351 37.5475 95.6871 37.6596C95.575 37.9158 95.3988 38.1401 95.1906 38.3803C94.9985 38.6045 94.8063 38.8447 94.6782 39.117C94.55 39.3572 94.518 39.6134 94.47 39.8697V39.9818C94.3899 40.3341 94.3098 40.6704 94.2137 40.9907C94.1657 41.1989 94.1016 41.4071 94.0696 41.6153C94.0536 41.7594 93.9575 41.8876 93.8614 42.0477C93.8133 42.1278 93.7653 42.1918 93.7333 42.2719C93.6052 42.5121 93.461 42.8164 93.429 43.1527C93.3809 43.441 93.3649 43.6012 93.3329 43.7613C93.2849 44.0015 93.2528 44.2257 93.3009 44.7382C93.3489 45.1066 93.3809 45.3628 93.1247 45.587C92.9005 45.7952 92.7724 46.0675 92.6923 46.4358C92.6443 46.66 92.6443 46.8842 92.6282 47.0924C92.6282 47.4287 92.5802 47.733 92.4841 48.0053C91.9556 49.3505 91.6834 50.4716 91.6513 51.5125C91.6513 51.6887 91.6834 51.8489 91.7314 52.025C91.7794 52.1852 91.8115 52.3453 91.7794 52.4895C91.7474 52.6336 91.6994 52.7777 91.6353 52.9379C91.5232 53.1941 91.4271 53.4664 91.4591 53.7707C91.4752 53.9308 91.5392 54.091 91.6033 54.2511C91.6353 54.3472 91.6834 54.4433 91.6994 54.5394C91.7634 54.8276 91.6834 55.1159 91.5873 55.4362C91.5232 55.6924 91.4431 55.9327 91.4431 56.2209C91.4431 56.3971 91.4752 56.5733 91.5072 56.7494C91.5232 56.8776 91.5552 57.0057 91.5552 57.1178C91.5552 57.2619 91.5552 57.374 91.5232 57.4701C91.4752 57.6303 91.4591 57.7584 91.4752 57.9345C91.4752 58.463 91.4591 59.1517 91.3791 59.8563L91.347 60.1286C91.267 60.7211 91.2349 61.3297 91.251 62.0824V62.2105C91.283 62.8191 91.299 63.4437 91.3951 64.0523C91.3951 64.1484 91.4591 64.2124 91.5072 64.3085C91.5392 64.3565 91.5392 64.4366 91.5392 64.4847C91.5392 64.5647 91.5392 64.6448 91.5072 64.7249C91.4912 64.837 91.4752 64.9651 91.4752 65.0772C91.4752 65.2374 91.5232 65.3975 91.5873 65.5577L91.6353 65.6858C91.6834 65.862 91.6994 66.0541 91.6994 66.2623C91.6994 66.7428 91.6994 67.2232 91.6834 67.7197L91.6513 68.1201C91.6193 68.4724 91.5873 68.8407 91.6834 69.2091C91.7154 69.3372 91.7474 69.4653 91.7955 69.5774C91.8115 69.6255 91.8435 69.6735 91.8755 69.7376C91.9236 69.8337 91.9396 69.8817 91.9556 69.9298C92.0677 70.1219 92.0517 70.3782 92.0677 70.6344V70.7785C92.0677 70.9067 92.0677 71.0348 92.0677 71.1629C92.0677 71.3711 92.0517 71.5793 92.0677 71.7875C92.0997 72.0437 92.1798 72.3 92.2919 72.5242L92.324 72.6042C92.42 72.8124 92.5482 73.1167 92.9165 73.2288C93.2208 73.3249 93.5251 73.3249 93.8294 73.2609C94.0215 73.2128 94.1977 73.1327 94.3579 73.0367L94.2938 73.0046Z" fill="#231F20"/>
<path d="M118.205 28.8554C118.285 29.3999 118.558 29.512 118.798 29.6081C118.894 29.6401 118.974 29.6881 119.054 29.7362C119.182 29.8003 119.31 29.8803 119.439 29.9284C119.663 30.0084 119.887 30.0405 120.111 30.0565C120.271 30.0565 120.447 30.0885 120.592 30.1206C120.656 30.1366 120.736 30.1686 120.8 30.2006C120.896 30.2487 120.976 30.2967 121.056 30.3768C121.184 30.4889 121.328 30.633 121.456 30.6651C121.681 30.7772 121.889 30.9053 122.097 31.0174C122.161 31.0654 122.225 31.0975 122.289 31.1455C122.69 31.4658 123.138 31.7541 123.586 31.9943L123.699 32.0584C123.843 32.1545 123.987 32.2345 124.227 32.2986C124.499 32.3787 124.772 32.4427 124.932 32.6349C125.012 32.715 125.076 32.8111 125.14 32.9072L125.268 33.0993C125.588 33.5157 125.973 33.836 126.373 34.1243C126.789 34.3965 126.982 34.861 127.206 35.3254L127.27 35.4535C127.27 35.4535 127.35 35.5817 127.398 35.6297C127.43 35.6457 127.446 35.6777 127.462 35.7098C127.526 35.8379 127.622 35.95 127.718 36.0621L127.991 36.3344C128.103 36.4304 128.199 36.5265 128.295 36.6386C128.359 36.7187 128.407 36.8148 128.455 36.8949C128.503 37.023 128.535 37.1511 128.551 37.2792L128.599 37.4554C128.647 37.6316 128.775 37.7917 128.807 37.9679C128.855 38.2722 128.983 38.5444 129.144 38.8007L129.288 39.0729C129.432 39.3292 129.496 39.6174 129.576 39.8897L129.72 40.3701C129.88 40.6584 129.976 40.9307 130.137 41.1869C130.249 41.3631 130.361 41.5392 130.425 41.7314C130.489 41.9076 130.521 42.0837 130.521 42.324C130.569 43.0286 130.681 43.7173 130.793 44.4379C130.809 44.55 130.841 44.6782 130.825 44.7742C130.825 44.8383 130.777 44.9184 130.761 44.9824C130.713 45.0945 130.665 45.2066 130.649 45.3348C130.633 45.4629 130.649 45.607 130.649 45.7512L130.697 46.3597C130.713 46.5839 130.729 46.8081 130.713 47.0484V47.2726C130.713 47.4487 130.713 47.6089 130.681 47.7851C130.633 48.0573 130.585 48.3616 130.569 48.6979V49.0342C130.601 49.1623 130.601 49.2744 130.601 49.4026C130.601 49.6428 130.537 49.867 130.473 50.1072C130.361 50.4916 130.233 50.8759 130.313 51.3083L130.361 51.5165C130.393 51.6447 130.425 51.7568 130.409 51.8529C130.393 51.9489 130.345 52.045 130.249 52.2052C129.944 52.7657 129.88 53.3422 129.832 53.8547L129.752 54.6074L129.656 55.5203C129.64 55.7445 129.592 55.9687 129.544 56.1929L129.432 56.8015C129.4 56.9776 129.384 57.1378 129.32 57.2979L129.24 57.4901L129.08 57.8745C129.015 58.0346 128.983 58.2108 128.951 58.387C128.903 58.6112 128.871 58.8354 128.759 59.0276C128.711 59.1236 128.631 59.2037 128.567 59.2998C128.439 59.46 128.327 59.6201 128.247 59.8123C128.199 59.9564 128.183 60.1166 128.167 60.2767V60.4209C128.135 60.6611 128.055 60.8853 127.958 61.0935L127.894 61.1896C127.846 61.2697 127.798 61.3497 127.766 61.4458L127.574 61.9743C127.414 62.3907 127.238 62.8231 127.174 63.2875C127.094 63.8641 126.789 64.3445 126.485 64.857C126.197 65.3214 125.909 65.8179 125.748 66.3624C125.652 66.6987 125.492 67.035 125.284 67.3233C125.156 67.4995 125.06 67.7077 124.964 67.8998C124.9 68.044 124.82 68.1881 124.739 68.3323C124.643 68.4604 124.547 68.5885 124.435 68.7166C124.291 68.8928 124.131 69.0529 124.019 69.2611C123.875 69.5174 123.811 69.7896 123.747 70.0138C123.715 70.1259 123.682 70.222 123.634 70.3341L123.554 70.5263C123.458 70.7825 123.314 71.0388 123.09 71.3431L122.834 71.6794C122.642 71.8876 122.465 72.1118 122.305 72.336C122.001 72.7684 121.809 73.2649 121.713 73.8094C121.665 74.0176 121.408 74.3058 121.216 74.53C121.136 74.6261 121.056 74.7222 120.992 74.8023C120.624 75.2988 120.431 75.6671 120.159 76.1315L119.951 76.4999C119.791 76.7561 119.503 77.2526 120.015 77.8291C120.095 77.9092 120.191 78.0053 120.303 78.0854C120.56 78.2775 120.816 78.4217 121.056 78.4857C121.649 78.6619 121.985 78.3576 122.145 78.2135C122.337 78.0373 122.513 77.8291 122.674 77.5409C122.834 77.2686 122.962 76.9803 123.074 76.676C123.154 76.4999 123.218 76.3237 123.298 76.1155L123.522 75.587C123.522 75.587 123.602 75.4429 123.666 75.3788L123.811 75.1867C123.923 75.0105 124.003 74.8183 124.083 74.6421C124.179 74.45 124.259 74.2578 124.371 74.0656C124.579 73.7133 124.836 73.377 125.092 73.0727C125.172 72.9766 125.236 72.8805 125.332 72.8004L125.444 72.7364L125.588 72.6403C125.812 72.4641 125.909 72.2079 125.989 71.9837L126.069 71.7755C126.197 71.4712 126.325 71.1669 126.437 70.8626L126.469 70.7825C126.661 70.254 127.174 69.3252 127.51 68.9568C127.718 68.7166 127.894 68.4764 128.007 68.2201C128.055 68.1241 128.087 68.044 128.119 67.9479L128.183 67.7397C128.215 67.5956 128.247 67.4514 128.327 67.3553C128.471 67.1471 128.551 66.8749 128.583 66.6186C128.599 66.5065 128.615 66.3944 128.615 66.2823C128.615 66.1862 128.615 66.1062 128.631 66.0101C128.679 65.7218 128.871 65.4656 129.064 65.1933C129.256 64.9371 129.448 64.6648 129.528 64.3285C129.56 64.2004 129.576 64.0563 129.592 63.9281L129.624 63.6719C129.656 63.4797 129.72 63.2715 129.848 63.0633C129.896 62.9672 129.96 62.8872 130.024 62.7911C130.121 62.663 130.201 62.5508 130.249 62.4067C130.441 61.9743 130.569 61.4939 130.761 61.0615C131.306 59.8603 131.706 58.7233 131.946 57.5862L131.994 57.394C132.042 57.1858 132.09 56.9776 132.106 56.7694C132.106 56.6573 132.09 56.5613 132.058 56.4812C132.058 56.4491 132.042 56.4171 132.026 56.3851C132.01 56.273 132.01 56.1609 132.026 56.0328C132.074 55.7765 132.202 55.5363 132.347 55.264C132.475 55.0238 132.619 54.7676 132.683 54.4953C132.747 54.2551 132.731 54.0149 132.731 53.7586V53.6625C132.731 53.3262 132.747 53.0059 132.779 52.6856C132.795 52.4774 132.811 52.2853 132.811 52.0771C132.811 51.9489 132.875 51.8048 132.955 51.6447C132.987 51.5646 133.019 51.4845 133.051 51.4205C133.147 51.1642 133.243 50.8759 133.227 50.5396C133.211 50.2674 133.227 50.0912 133.227 49.9471C133.227 49.7069 133.243 49.4987 133.115 49.0022C133.019 48.6659 132.955 48.4096 133.147 48.1534C133.324 47.9132 133.42 47.6249 133.436 47.2566C133.436 47.0324 133.436 46.8242 133.388 46.5999C133.34 46.2796 133.291 45.9754 133.34 45.6871C133.612 44.2778 133.564 43.0927 133.307 42.0837C133.259 41.9236 133.179 41.7634 133.083 41.6193C132.987 41.4752 132.891 41.331 132.875 41.1869C132.843 41.0428 132.875 40.8826 132.875 40.7225C132.875 40.4342 132.907 40.1459 132.763 39.8576C132.683 39.7135 132.571 39.5854 132.443 39.4573C132.363 39.3772 132.299 39.3131 132.234 39.2331C132.058 38.9928 132.042 38.6725 131.994 38.3522C131.946 38.096 131.898 37.8398 131.786 37.5835C131.706 37.4234 131.61 37.2632 131.498 37.1191L131.274 36.8148C131.194 36.6867 131.145 36.5906 131.129 36.4785C131.097 36.3183 131.033 36.1902 130.953 36.0461C130.713 35.5656 130.313 34.9731 129.976 34.3325L129.848 34.0923C129.528 33.5798 129.192 33.0193 128.647 32.4748L128.551 32.3787C128.119 31.9302 127.67 31.4658 127.142 31.1135C127.062 31.0494 126.982 31.0334 126.869 31.0174C126.821 31.0014 126.757 30.9533 126.725 30.9053C126.661 30.8412 126.613 30.7772 126.565 30.7131C126.485 30.617 126.421 30.5209 126.309 30.4569C126.181 30.3608 126.005 30.2967 125.845 30.2327L125.716 30.1846C125.54 30.1206 125.396 30.0084 125.22 29.8643C124.836 29.56 124.419 29.3038 124.035 28.9995L123.715 28.7433C123.426 28.5191 123.122 28.3269 122.754 28.1988C122.626 28.1667 122.497 28.1347 122.369 28.1027C122.321 28.1027 122.257 28.1027 122.193 28.1027C122.097 28.1027 122.033 28.0706 121.985 28.0706C121.761 28.0706 121.536 27.9745 121.312 27.8624L121.184 27.7984C121.072 27.7503 120.96 27.6863 120.848 27.6222C120.672 27.5261 120.496 27.398 120.287 27.35C120.047 27.2859 119.775 27.2539 119.519 27.2539H119.439C119.214 27.2539 118.894 27.2539 118.638 27.5421C118.446 27.7824 118.317 28.0706 118.253 28.3749C118.221 28.5671 118.221 28.7593 118.253 28.9354L118.205 28.8554Z" fill="#231F20"/>
<path d="M86.9866 73.3108C87.5151 73.1667 87.6112 72.8304 87.6752 72.5581C87.7072 72.446 87.7393 72.3499 87.7873 72.2378C87.8514 72.0777 87.8994 71.9175 87.9315 71.7574C87.9795 71.4851 87.9315 71.2129 87.9154 70.9566C87.8994 70.7644 87.8674 70.5883 87.8834 70.3961C87.8834 70.316 87.8994 70.2199 87.9154 70.1399C87.9315 70.0278 87.9795 69.9157 88.0115 69.8035C88.0756 69.6274 88.1557 69.4192 88.1396 69.259C88.1717 68.9708 88.2197 68.6985 88.2678 68.4102L88.2998 68.154C88.3799 67.5615 88.476 66.9529 88.4599 66.3443V66.1842C88.4599 65.976 88.4439 65.7838 88.3639 65.5276C88.2838 65.2233 88.2037 64.935 88.2197 64.6467C88.2197 64.5186 88.2678 64.3905 88.2998 64.2624L88.3639 64.0221C88.492 63.4296 88.4279 62.837 88.3478 62.2765C88.2678 61.732 88.3478 61.1715 88.4439 60.5949L88.476 60.4348C88.476 60.3387 88.476 60.2586 88.476 60.1786C88.476 60.1465 88.476 60.0985 88.476 60.0665C88.476 59.8903 88.476 59.7301 88.4439 59.554L88.3478 59.1216C88.2998 58.9614 88.2678 58.8013 88.2357 58.6411C88.2197 58.529 88.2037 58.4169 88.2197 58.2888C88.2197 58.1447 88.2518 58.0005 88.2838 57.8564L88.3158 57.6482C88.3478 57.44 88.3158 57.2158 88.3478 57.0076C88.4119 56.6553 88.3478 56.3189 88.2998 55.9826L88.2518 55.6303C88.2197 55.31 88.2197 54.9737 88.1877 54.6374L88.1557 54.0608C88.0756 53.6925 87.9955 53.3882 87.8834 53.0679C87.8033 52.8437 87.7233 52.6355 87.6592 52.4113C87.6112 52.2191 87.6112 52.0109 87.6112 51.7387C87.5951 50.9539 87.5151 50.1692 87.3229 49.3845C87.2909 49.2564 87.2588 49.1282 87.2748 49.0161C87.2748 48.9361 87.3069 48.856 87.3229 48.7759C87.3549 48.6478 87.403 48.5036 87.403 48.3755C87.403 48.2154 87.3709 48.0712 87.3389 47.9111L87.1787 47.2385L87.0026 46.4858L86.9545 46.2455C86.9065 46.0534 86.8745 45.8772 86.8585 45.685C86.8424 45.3807 86.7944 45.0284 86.6663 44.6761L86.5221 44.3237C86.4741 44.1956 86.41 44.0675 86.378 43.9394C86.2979 43.6831 86.2819 43.4269 86.2339 43.1386C86.1698 42.7062 86.0897 42.2418 85.8175 41.8414L85.6894 41.6653C85.6093 41.5532 85.5292 41.4571 85.4812 41.345C85.4491 41.2489 85.4331 41.1208 85.4171 40.9286C85.353 40.2239 85.0968 39.6153 84.7925 39.1349L84.3441 38.4142L83.7996 37.5494L83.3672 36.9248L82.9668 36.3643C82.8547 36.2202 82.7586 36.06 82.6625 35.8839L82.5664 35.6757C82.5024 35.5315 82.4223 35.4034 82.3422 35.2753C82.2461 35.1151 82.118 34.971 81.9899 34.8109C81.8137 34.6187 81.6696 34.4105 81.5575 34.2183C81.4934 34.1062 81.4614 33.9941 81.4134 33.882C81.3333 33.6738 81.2532 33.4656 81.1091 33.2894C80.997 33.1613 80.8528 33.0492 80.7087 32.9371L80.5806 32.841C80.3564 32.6809 80.1642 32.5047 80.0201 32.2965L79.956 32.1844C79.8919 32.0883 79.8279 32.0082 79.7638 31.9282L79.3154 31.4958C78.9471 31.1594 78.5467 30.8231 78.0823 30.5829C77.5217 30.2786 77.0413 29.8943 76.5448 29.4298C76.0804 29.0295 75.5519 28.6771 74.9593 28.4209C74.591 28.2928 74.2066 28.1326 73.8703 27.8924C73.6621 27.7483 73.4379 27.6362 73.1977 27.5561C73.0215 27.492 72.8454 27.444 72.6852 27.3639C72.5251 27.2838 72.3649 27.1877 72.2048 27.0916C71.9806 26.9635 71.7563 26.8034 71.5161 26.7393C71.1958 26.6432 70.8595 26.6272 70.6193 26.6272C70.4912 26.6272 70.363 26.6112 70.2509 26.5952L70.0267 26.5632C69.7064 26.5632 69.3861 26.4991 68.9858 26.387L68.5213 26.2429C68.217 26.1307 67.8967 26.0827 67.5925 26.0347C66.9999 25.9546 66.3753 25.9866 65.7988 26.2268C65.5746 26.3069 65.1422 26.2589 64.8219 26.2268C64.6777 26.2108 64.5336 26.2108 64.4215 26.2108C63.7168 26.2429 63.2524 26.3069 62.6759 26.451L62.2274 26.5792C61.8911 26.6592 61.2826 26.8194 61.2665 27.5881C61.2665 27.7002 61.2665 27.8283 61.2986 27.9725C61.3626 28.2768 61.4587 28.565 61.5868 28.7732C61.9071 29.3177 62.3395 29.3337 62.5317 29.3498C62.7719 29.3658 63.0282 29.3337 63.3325 29.2537C63.6207 29.2056 63.909 29.1095 64.1973 29.0134C64.3734 28.9654 64.5496 28.9013 64.7578 28.8373L65.3023 28.7252C65.3023 28.7252 65.4625 28.7252 65.5425 28.7252C65.6226 28.7252 65.6867 28.7252 65.7667 28.7252C65.9589 28.7252 66.1511 28.6931 66.3593 28.6611C66.5675 28.6451 66.7597 28.6451 66.9679 28.6611C67.3682 28.6771 67.7526 28.7412 68.1209 28.8533C68.2331 28.8853 68.3452 28.9174 68.4412 28.9814L68.5373 29.0615L68.6655 29.1576C68.9057 29.3177 69.1459 29.3017 69.3701 29.3017C69.4342 29.3017 69.5142 29.3017 69.5783 29.3017L70.4912 29.4138H70.5712C71.0997 29.4619 72.0286 29.8622 72.3969 30.1505C72.6211 30.3587 72.8454 30.5188 73.0856 30.6149C73.1657 30.647 73.2457 30.679 73.3418 30.711L73.55 30.7591C73.6942 30.7911 73.8063 30.8391 73.9023 30.9032C74.0785 31.0634 74.3187 31.1434 74.559 31.2075C74.655 31.2395 74.7672 31.2555 74.8632 31.2715C74.9433 31.2715 75.0394 31.2876 75.1195 31.3196C75.3757 31.4157 75.5839 31.6559 75.7921 31.8801C75.9843 32.1203 76.2085 32.3285 76.4647 32.5047C76.5768 32.5688 76.6889 32.6168 76.8171 32.6809L77.0413 32.793C77.2014 32.873 77.3616 33.0012 77.5217 33.1773C77.5858 33.2414 77.6338 33.3375 77.6979 33.4336C77.762 33.5617 77.842 33.6898 77.9221 33.7859C78.1944 34.1382 78.5787 34.4105 78.8189 34.8109C79.5236 35.8358 80.1482 36.7647 80.7567 37.6615L80.8528 37.8217C80.9649 37.9978 81.077 38.158 81.2052 38.3181C81.2692 38.3982 81.3653 38.4463 81.4454 38.4783C81.4774 38.4783 81.5095 38.5103 81.5415 38.5263C81.6376 38.5904 81.7176 38.6705 81.7657 38.7666C81.8778 38.9908 81.9258 39.263 81.9739 39.5353C82.0219 39.7915 82.054 40.0638 82.1661 40.32C82.2622 40.5282 82.3903 40.7204 82.5184 40.9126L82.5664 40.9926C82.7426 41.2489 82.8867 41.5371 83.0309 41.8094C83.127 41.9856 83.2231 42.1457 83.3031 42.3379C83.3672 42.45 83.3672 42.6101 83.3672 42.7863C83.3672 42.8664 83.3672 42.9465 83.3672 43.0265C83.3832 43.2828 83.4312 43.5871 83.5754 43.8593C83.7035 44.0835 83.7515 44.2597 83.7836 44.3878C83.8476 44.612 83.9117 44.8042 84.2 45.2206C84.4082 45.5089 84.5523 45.717 84.4242 46.0053C84.3121 46.2776 84.28 46.5819 84.3441 46.9182C84.3761 47.1264 84.4562 47.3346 84.5203 47.5267C84.6164 47.831 84.7285 48.1033 84.6964 48.3915C84.6003 49.7848 84.6484 50.8739 84.8406 51.8508C84.8726 52.0109 84.9527 52.1551 85.0327 52.3152C85.1128 52.4593 85.1929 52.6035 85.1929 52.7476C85.1929 52.8917 85.1609 53.0519 85.1288 53.196C85.0648 53.4683 85.0007 53.7405 85.0968 54.0128C85.1448 54.1569 85.2249 54.3011 85.321 54.4452C85.3691 54.5253 85.4331 54.6214 85.4651 54.7014C85.5773 54.9577 85.5292 55.262 85.4651 55.5823C85.4171 55.8385 85.3851 56.0787 85.4171 56.351C85.4331 56.5271 85.4812 56.6873 85.5292 56.8635C85.5612 56.9756 85.5933 57.1037 85.6253 57.2158C85.6573 57.3599 85.6413 57.472 85.6253 57.5681C85.5773 57.7283 85.5933 57.8564 85.5933 58.0165C85.6253 58.529 85.6573 59.2016 85.5933 59.8903L85.5612 60.1465C85.4972 60.7231 85.4812 61.3156 85.4972 62.0523V62.1804C85.4972 62.773 85.4972 63.3815 85.5773 63.9741C85.5773 64.0702 85.6253 64.1343 85.6894 64.2303C85.7054 64.2784 85.6894 64.3424 85.6894 64.4065C85.6894 64.4866 85.6573 64.5667 85.6413 64.6307C85.6093 64.7428 85.5933 64.8549 85.5773 64.967C85.5773 65.1272 85.6093 65.2873 85.6573 65.4475L85.6894 65.5756C85.7374 65.7518 85.7214 65.9279 85.6894 66.1361C85.6413 66.6006 85.5773 67.065 85.4972 67.5294L85.4171 67.8978C85.337 68.2341 85.2409 68.5704 85.273 68.9387C85.273 69.0669 85.305 69.195 85.321 69.3071C85.321 69.3551 85.353 69.4192 85.3691 69.4672C85.4011 69.5633 85.4011 69.6114 85.4171 69.6594C85.4972 69.8676 85.4331 70.1078 85.3851 70.332L85.353 70.4602C85.321 70.5723 85.289 70.7004 85.257 70.8125C85.1929 71.0047 85.1449 71.1968 85.1128 71.389C85.0968 71.6293 85.0808 71.8695 85.1128 72.1257V72.2058C85.1449 72.43 85.1769 72.7343 85.4972 72.9585C85.7534 73.1347 86.0417 73.2628 86.362 73.2948C86.5542 73.3268 86.7463 73.2948 86.9225 73.2628L86.9866 73.3108Z" fill="#231F20"/>
<path d="M61.0162 27.1884C60.6799 26.756 60.3276 26.8201 60.0553 26.8681C59.9432 26.8841 59.8311 26.8841 59.719 26.9001C59.5588 26.9001 59.3827 26.9161 59.2225 26.9642C58.9663 27.0443 58.7261 27.2044 58.5019 27.3485C58.3417 27.4607 58.1816 27.5567 58.0214 27.6368C57.9413 27.6688 57.8613 27.7009 57.7812 27.7169L57.4289 27.797C57.2367 27.845 57.0125 27.861 56.8843 27.9731C56.6121 28.1012 56.3558 28.1973 56.0676 28.3094C55.9875 28.3415 55.8914 28.3735 55.8113 28.4215C55.2668 28.6938 54.6743 28.9661 54.1938 29.3664L54.0657 29.4785C53.9056 29.6067 53.7454 29.7508 53.5853 29.975C53.3931 30.2473 53.2009 30.4715 52.9927 30.6636C52.8806 30.7437 52.7685 30.8078 52.6564 30.8718L52.4322 31C51.8877 31.3042 51.5193 31.8167 51.199 32.2972C50.8627 32.7616 50.4784 33.162 50.0139 33.5784L49.8858 33.6905C49.8858 33.6905 49.7737 33.8186 49.7257 33.8987C49.7096 33.9307 49.6936 33.9627 49.6616 33.9948C49.5655 34.1389 49.4694 34.283 49.4054 34.4432L49.2292 34.8756C49.1651 35.0357 49.1171 35.1959 49.037 35.34C48.989 35.4521 48.9409 35.5642 48.8769 35.6603C48.7968 35.7884 48.7007 35.9005 48.6046 36.0126L48.4605 36.1728C48.3163 36.349 48.2523 36.5571 48.1081 36.7333C47.8839 37.0216 47.7878 37.3579 47.6918 37.6942L47.5796 38.0465L47.2433 38.9914L47.0512 39.5519C46.9711 39.9203 46.9551 40.2566 46.9711 40.5929C46.9711 40.8331 46.9871 41.0574 46.9711 41.2816C46.9551 41.4737 46.875 41.6659 46.8109 41.9382C46.6027 42.6909 46.4746 43.4756 46.4906 44.2764C46.4906 44.4045 46.4906 44.5326 46.4426 44.6447C46.4106 44.7248 46.3785 44.7888 46.3305 44.8689C46.2504 44.981 46.2024 45.1091 46.1703 45.2373C46.1383 45.3814 46.1383 45.5415 46.1543 45.7017V46.3903C46.1543 46.6466 46.1863 46.8868 46.2024 47.143V47.3833C46.2344 47.5754 46.2504 47.7516 46.2184 47.9438C46.1863 48.2481 46.1543 48.6004 46.2184 48.9527L46.2985 49.3051C46.3305 49.4332 46.3625 49.5613 46.3945 49.6894C46.4266 49.9457 46.4266 50.2019 46.4106 50.4741C46.4106 50.9066 46.4106 51.339 46.6188 51.7553L46.7309 51.9475C46.7949 52.0596 46.859 52.1717 46.875 52.2678C46.875 52.3639 46.875 52.476 46.875 52.6682C46.8109 53.3408 46.9711 53.9334 47.1312 54.4459L47.4035 55.1986L47.7238 56.0954L47.964 56.768L48.1882 57.3766C48.2523 57.5367 48.3163 57.6969 48.3484 57.8891L48.3804 58.0973C48.3964 58.2414 48.4124 58.3855 48.4605 58.5297C48.5085 58.7058 48.5886 58.866 48.6527 59.0422C48.7487 59.2664 48.8448 59.4746 48.8608 59.6988C48.8608 59.8109 48.8608 59.923 48.8608 60.0351C48.8608 60.2433 48.8448 60.4515 48.9089 60.6597C48.973 60.8038 49.053 60.9479 49.1491 61.0921L49.2292 61.2202C49.3573 61.4284 49.4534 61.6526 49.5014 61.8928V62.0049C49.5335 62.101 49.5495 62.1971 49.5815 62.2932L49.7897 62.8377C49.9659 63.2701 50.126 63.7185 50.3983 64.1189C50.7186 64.6154 50.8947 65.1599 51.0549 65.7684C51.199 66.3129 51.3592 66.8735 51.6955 67.3699C51.9037 67.6742 52.0478 68.0265 52.1439 68.3789C52.208 68.6031 52.3041 68.8113 52.4002 69.0195C52.4802 69.1636 52.5603 69.3077 52.6083 69.4679C52.6724 69.628 52.7044 69.7882 52.7365 69.9483C52.7845 70.1726 52.8486 70.4128 52.9447 70.621C53.0728 70.8932 53.265 71.1335 53.4251 71.2936C53.5052 71.3737 53.5692 71.4698 53.6333 71.5659L53.7614 71.742C53.9376 71.9662 54.0817 72.2385 54.2098 72.5908L54.354 73.0072C54.4501 73.2795 54.5622 73.5517 54.6903 73.824C54.9465 74.3204 55.2828 74.7528 55.7473 75.1052C55.9234 75.2333 56.0836 75.6016 56.2117 75.8739C56.2758 76.002 56.3238 76.1141 56.3719 76.2102C56.6761 76.7867 56.9484 77.123 57.3007 77.5394L57.573 77.8757C57.7652 78.116 58.1335 78.5804 58.8382 78.2921C58.9503 78.2441 59.0624 78.18 59.1745 78.116C59.4307 77.9398 59.6549 77.7476 59.7991 77.5394C60.1674 77.027 60.0233 76.6266 59.9432 76.4344C59.8471 76.2102 59.719 75.986 59.5268 75.7458C59.3346 75.5055 59.1104 75.2973 58.9022 75.0891C58.7741 74.961 58.646 74.8169 58.5019 74.6728L58.1335 74.2564C58.1335 74.2564 58.0374 74.1282 58.0054 74.0482L57.8933 73.856L57.541 73.3755C57.4128 73.2154 57.3007 73.0552 57.1886 72.8791C56.9804 72.5428 56.8203 72.1744 56.6761 71.8061C56.6281 71.694 56.5961 71.5979 56.5801 71.4698V71.3416V71.1815C56.548 70.8932 56.4039 70.701 56.2598 70.5089L56.1316 70.3327L55.5871 69.564L55.5391 69.4999C55.2348 69.0515 54.8024 68.1226 54.7223 67.6422C54.6743 67.3379 54.6102 67.0656 54.4981 66.8094C54.4501 66.7293 54.418 66.6332 54.37 66.5692L54.2419 66.393C54.1618 66.2809 54.0817 66.1688 54.0497 66.0567C53.9856 65.8165 53.8255 65.6083 53.6814 65.4001C53.6173 65.32 53.5372 65.2399 53.4732 65.1599C53.4091 65.0958 53.345 65.0317 53.297 64.9677C53.1208 64.7435 53.0728 64.4392 53.0247 64.1189C52.9767 63.8146 52.9286 63.5103 52.7685 63.2221C52.7044 63.11 52.6244 62.9979 52.5443 62.9018L52.4002 62.6936C52.288 62.5334 52.208 62.3412 52.1599 62.117C52.1279 62.0209 52.1279 61.9088 52.1119 61.8127C52.0959 61.6686 52.0799 61.5245 52.0478 61.3964C51.9357 60.9479 51.7435 60.5315 51.6314 60.0831C51.3592 58.85 51.0389 57.761 50.6866 56.736L50.6225 56.5598C50.5584 56.3677 50.4944 56.1755 50.4143 55.9993C50.3663 55.9032 50.2862 55.8392 50.2221 55.7911C50.1901 55.7751 50.1741 55.7431 50.142 55.7271C50.078 55.647 50.0299 55.5509 49.9979 55.4388C49.9338 55.1986 49.9339 54.9263 49.9499 54.6541C49.9499 54.3978 49.9819 54.1256 49.9178 53.8533C49.8698 53.6291 49.7897 53.4209 49.6936 53.1967L49.6616 53.1006C49.5335 52.8123 49.4374 52.5241 49.3413 52.2198L49.1651 51.6753C49.1331 51.5472 49.1651 51.403 49.1651 51.2429C49.1651 51.1628 49.1811 51.0827 49.1972 51.0187C49.2132 50.7624 49.2292 50.4742 49.1171 50.1859C49.037 49.9457 49.021 49.7855 48.989 49.6574C48.9569 49.4332 48.9249 49.241 48.7007 48.8246C48.5405 48.5203 48.4284 48.2961 48.6206 48.0399C48.7808 47.7997 48.8608 47.5274 48.8448 47.1911C48.8448 46.9989 48.7968 46.7907 48.7648 46.5985C48.7327 46.3103 48.6847 46.022 48.7648 45.7658C49.1171 44.5166 49.3573 43.5397 49.4214 42.6428C49.4214 42.4987 49.3893 42.3385 49.3573 42.1944C49.3253 42.0503 49.3093 41.9061 49.3573 41.778C49.4054 41.6499 49.4854 41.5378 49.5495 41.4097C49.6936 41.2015 49.8217 40.9933 49.8217 40.721C49.8217 40.5769 49.8057 40.4328 49.7737 40.2886C49.7577 40.1925 49.7417 40.1125 49.7257 40.0164C49.7257 39.7441 49.8538 39.5039 50.0299 39.2637C50.1741 39.0715 50.3022 38.8953 50.3823 38.6551C50.4303 38.511 50.4623 38.3508 50.4784 38.1907C50.4784 38.0786 50.5104 37.9665 50.5424 37.8544C50.5905 37.7262 50.6385 37.6462 50.7026 37.5821C50.8147 37.486 50.8627 37.3739 50.9268 37.2298C51.1029 36.7974 51.4393 36.2849 51.8236 35.8044L51.9677 35.6283C52.3521 35.276 52.6564 34.8275 53.0888 34.3471L53.1689 34.267C53.5052 33.8666 53.8575 33.4502 54.2259 33.0659C54.2739 33.0018 54.3059 32.9218 54.3219 32.8257C54.338 32.7776 54.386 32.7456 54.418 32.7136C54.4661 32.6655 54.5301 32.6335 54.5942 32.6015C54.6903 32.5534 54.7704 32.5054 54.8665 32.4413C54.9786 32.3612 55.0747 32.2331 55.1547 32.121L55.2188 32.0249C55.3149 31.8968 55.459 31.8007 55.6031 31.6886C55.9555 31.4484 56.3558 31.2882 56.7402 31.1121L57.0605 30.9839C57.3648 30.8879 57.6691 30.8078 57.9413 30.6156C58.0374 30.5515 58.1175 30.4715 58.2136 30.3914C58.2456 30.3594 58.2776 30.3113 58.3097 30.2633C58.3737 30.1832 58.4058 30.1672 58.4378 30.1351C58.5819 29.991 58.7901 29.943 59.0143 29.8789L59.1425 29.8469C59.2546 29.8148 59.3667 29.7988 59.4788 29.7828C59.6549 29.7508 59.8311 29.7188 60.0233 29.6547C60.2475 29.5906 60.4397 29.4946 60.6479 29.3664L60.7119 29.3184C60.8881 29.2063 61.1283 29.0621 61.2084 28.6778C61.2724 28.3735 61.2564 28.0532 61.1764 27.7489C61.1283 27.5567 61.0322 27.3806 60.9361 27.2525L61.0162 27.1884Z" fill="#231F20"/>
<path d="M89.7906 153.239C104.044 153.239 119.851 151.365 129.684 144.207C136.923 138.922 143.569 129.361 144.738 118.823C147.028 98.2278 136.122 82.4851 123.967 74.0453C112.212 65.8776 97.1094 64.5804 89.8066 64.5804C82.5038 64.5804 67.4017 65.8776 55.6467 74.0453C43.4913 82.4691 32.5852 98.2278 34.8753 118.823C36.0444 129.361 42.6746 138.922 49.9133 144.207C59.7465 151.365 75.5533 153.239 89.7906 153.239Z" fill="white"/>
<path d="M85.3935 123.341C85.0572 123.389 84.913 123.757 85.0892 124.061C85.986 125.583 88.8207 129.17 89.7976 129.186C90.7745 129.17 93.6091 125.583 94.506 124.061C94.6821 123.773 94.538 123.405 94.2017 123.341C93.449 123.229 91.6233 122.94 89.7976 122.94C87.9719 122.94 86.1462 123.229 85.3935 123.341Z" fill="#FCD8DE"/>
<path d="M89.8296 130.194C87.8117 130.161 84.2564 124.636 84.2244 124.572C83.9681 124.14 83.9361 123.595 84.1443 123.147C84.3525 122.715 84.7689 122.41 85.2493 122.33H85.3454C86.1942 122.186 87.9879 121.914 89.8136 121.914C91.6393 121.914 93.4169 122.186 94.2818 122.314H94.3778C94.8583 122.394 95.2747 122.699 95.4829 123.147C95.6911 123.595 95.6751 124.124 95.4028 124.572C95.3708 124.62 91.8315 130.161 89.8456 130.194H89.8296ZM86.4024 124.22C87.4434 125.741 89.1089 127.647 89.7976 128.096C90.5022 127.647 92.1678 125.725 93.1927 124.22C92.2959 124.092 91.0467 123.948 89.7976 123.948C88.5484 123.948 87.2832 124.092 86.4024 124.22Z" fill="#F7ADC2"/>
<path d="M124.574 121.915C119.594 118.921 113.652 120.442 111.17 125.423C108.703 130.371 110.705 135.176 115.077 137.033C119.882 139.099 124.398 137.69 126.912 133.382C129.539 128.866 128.049 123.997 124.574 121.915Z" fill="#F7B9C7"/>
<path d="M55.0223 121.915C60.0029 118.921 65.9445 120.442 68.4268 125.423C70.8931 130.371 68.8752 135.176 64.5191 137.033C59.7146 139.099 55.1984 137.69 52.6841 133.382C50.0576 128.866 51.547 123.997 55.0223 121.915Z" fill="#F7B9C7"/>
<path d="M80.1173 98.7763C80.1173 99.8973 79.845 100.81 78.724 101.531C77.0424 102.62 73.8714 103.052 70.22 103.036C68.026 103.036 64.3585 103.004 61.8762 102.091C60.0345 101.403 58.8654 100.394 58.8654 98.7923C58.8654 97.6713 59.1377 96.7584 60.2587 96.0377C61.9403 94.9487 65.1113 94.5163 68.7627 94.5323C70.9567 94.5323 74.6241 94.5644 77.1065 95.4772C78.9482 96.1659 80.1173 97.1748 80.1173 98.7763Z" fill="#231F20"/>
<path d="M120.733 98.7763C120.733 99.8973 120.461 100.81 119.34 101.531C117.658 102.62 114.487 103.052 110.836 103.036C108.642 103.036 104.974 103.004 102.492 102.091C100.65 101.403 99.4811 100.394 99.4811 98.7923C99.4811 97.6713 99.7533 96.7584 100.874 96.0377C102.556 94.9487 105.727 94.5163 109.378 94.5323C111.572 94.5323 115.24 94.5644 117.722 95.4772C119.564 96.1659 120.733 97.1748 120.733 98.7763Z" fill="#231F20"/>
<path d="M115.447 113.716C116.232 113.716 116.872 113.124 116.92 112.307C116.968 111.49 116.376 110.769 115.591 110.721C115.015 110.689 109.778 110.401 104.637 110.721C104.269 110.737 103.916 110.93 103.66 111.218C103.404 111.522 103.292 111.906 103.308 112.291C103.356 113.076 103.964 113.7 104.717 113.7H115.447V113.716Z" fill="#231F20"/>
<path d="M74.8149 113.716C75.5996 113.716 76.2563 113.124 76.2883 112.307C76.3363 111.49 75.7438 110.769 74.959 110.721C74.3825 110.689 69.1456 110.401 64.0048 110.721C63.6365 110.737 63.2841 110.93 63.0279 111.218C62.7717 111.522 62.6596 111.906 62.6756 112.291C62.7236 113.076 63.3322 113.7 64.0849 113.7H74.8149V113.716Z" fill="#231F20"/>
<path d="M35.6904 118.362C36.1549 117.689 36.1228 116.744 36.0908 115.992V115.111C36.0908 114.678 36.1549 114.246 36.1549 113.798C36.1549 113.061 36.1068 112.34 36.0427 111.652C35.9947 111.155 36.0267 110.659 36.0427 110.162C36.0588 109.938 36.0908 109.698 36.1068 109.473L36.2509 108.529C36.315 108.032 36.4912 107.472 36.5232 107.023L36.9236 104.749C36.9716 104.509 37.0357 104.285 37.0997 104.06C37.3079 103.292 37.5161 102.491 37.7243 101.706C37.9645 100.922 38.2048 100.121 38.445 99.336L38.5571 98.9357C38.7172 98.4072 38.8614 97.8947 39.0696 97.2221C39.2938 96.4213 39.47 95.6366 39.8063 94.9639C39.9664 94.6436 40.1426 94.3554 40.3348 94.0511L40.6871 93.4585C41.0875 92.7539 41.4718 92.0492 41.8562 91.3446C42.2405 90.6559 42.5608 89.9352 42.9612 89.2786C43.3296 88.622 43.7459 87.9974 44.1944 87.3728C44.6588 86.7643 45.1713 86.1877 45.6998 85.5792L45.988 85.2429C46.1322 85.0507 46.2763 84.8745 46.4204 84.6984C46.4845 84.6183 46.5486 84.5382 46.6126 84.4581C46.9169 84.1058 47.2052 83.7535 47.4934 83.3851C47.7497 83.0648 47.9579 82.7285 48.2141 82.4242L49.0629 81.4153C49.2711 81.1751 49.4793 80.9348 49.7195 80.7106C49.9918 80.4224 50.3281 80.1981 50.6324 79.9419L51.0808 79.5896C51.5452 79.2372 51.9296 78.7728 52.394 78.4525C53.1788 77.924 53.8514 77.2834 54.556 76.7069C54.8123 76.4987 55.0685 76.3065 55.3248 76.1143C56.0294 75.5538 56.7661 75.0413 57.5348 74.5769C57.9832 74.3046 58.3996 74.0004 58.8641 73.7441C59.7129 73.1836 60.4335 72.7352 61.1862 72.2387C61.6987 71.9184 62.2272 71.5821 62.7717 71.2778C63.2522 71.0056 63.7807 70.8294 64.4693 70.5571C66.4552 69.7884 68.5211 69.0838 70.6351 68.3951C70.9874 68.283 71.3237 68.1869 71.628 68.1229C71.8362 68.0908 72.0444 68.0588 72.2526 68.0428C72.5889 68.0108 72.9412 67.9947 73.2935 67.9307C73.6939 67.8666 74.1103 67.7545 74.5267 67.6424L76.3844 67.242C77.0571 67.0819 77.7457 66.9858 78.4343 66.8577L79.091 66.7456C79.6034 66.6655 80.1159 66.5854 80.6284 66.5534C81.4452 66.4733 82.4221 66.4253 83.415 66.2972L84.4079 66.169C84.7763 66.121 85.1286 66.0569 85.4969 66.0409C86.2016 65.9929 86.9223 65.9769 87.691 65.9929C88.8761 65.9929 90.1093 66.0729 91.3584 65.9448L91.935 65.8808C92.2873 65.8487 92.6236 65.8007 92.9279 65.8167C93.2001 65.8327 93.5365 65.8808 94.0489 65.9769C95.8586 66.2811 97.6043 66.4093 99.0937 66.5534C99.8464 66.6335 100.599 66.6815 101.336 66.7936C102.233 66.8897 103.129 67.0178 104.01 67.178C104.683 67.2741 105.339 67.4022 105.996 67.5463C106.605 67.6744 107.213 67.7705 107.806 67.9307C108.302 68.0428 108.783 68.1549 109.279 68.315L109.856 68.5072L111.025 68.9396C111.505 69.0838 112.002 69.2439 112.498 69.4041C113.155 69.6283 113.779 69.8204 114.356 70.0927C114.644 70.2368 114.9 70.397 115.173 70.5571C115.637 70.8294 116.134 71.1177 116.694 71.3739C117.094 71.5661 117.543 71.7422 117.959 71.9024L118.36 72.0625C119 72.3028 119.609 72.6551 120.185 73.0234L120.458 73.1996L121.146 73.632L122.524 74.5128C123.629 75.2015 124.702 76.0503 125.855 76.787C126.527 77.2674 127.184 77.7799 127.824 78.3244C128.417 78.9169 129.026 79.5255 129.65 80.1501C130.723 81.3352 131.828 82.5684 132.949 83.8015C133.67 84.5222 134.311 85.419 134.887 86.2998C135.239 86.8444 135.64 87.3568 135.976 87.9013C136.232 88.3017 136.505 88.6861 136.745 89.1025C136.985 89.5028 137.209 89.9192 137.385 90.3516C137.658 90.9442 137.93 91.5367 138.25 92.1133C138.667 92.866 139.035 93.6027 139.387 94.1312C139.563 94.4034 139.708 94.6917 139.852 94.9639C139.948 95.1401 140.044 95.3163 140.124 95.4924C140.46 96.2131 140.781 97.0299 141.117 98.0388C141.245 98.4232 141.325 98.8235 141.437 99.2239L142.046 101.61C142.35 103.132 142.847 104.605 143.231 106.094C143.375 106.655 143.567 107.792 143.551 108.625C143.551 109.009 143.583 109.361 143.583 109.666C143.727 111.491 143.711 112.709 143.775 114.262C143.791 114.662 143.807 115.079 143.775 115.479C143.727 116.376 143.647 118.042 144.352 118.618C144.464 118.714 144.576 118.762 144.72 118.794C145.025 118.858 145.329 118.794 145.585 118.57C146.21 118.025 146.418 116.728 146.514 116.12C146.642 115.367 146.674 114.566 146.642 113.573C146.594 112.628 146.578 111.684 146.45 110.755C146.37 110.194 146.29 109.65 146.194 108.977C146.114 108.417 146.066 107.84 145.937 107.295C145.873 107.055 145.857 106.799 145.825 106.543C145.793 106.319 145.761 106.094 145.729 105.854L145.393 104.06L144.912 102.235C144.656 101.034 144.352 99.8485 144.016 98.6794C143.92 98.3431 143.823 97.9908 143.775 97.6384L143.727 97.3021L143.631 96.8377C143.439 96.0369 143.103 95.3163 142.814 94.6757L142.542 94.0831L141.181 91.4887L141.053 91.2485C140.62 90.5278 140.012 89.4868 139.435 88.4459C138.811 87.4369 138.218 86.46 137.882 85.8194C137.433 85.0186 136.921 84.298 136.425 83.6093C136.248 83.3691 136.072 83.1449 135.88 82.9207L135.432 82.4402C135.127 82.1199 134.839 81.8157 134.615 81.5274C134.182 80.9188 133.59 80.3423 132.997 79.8458L132.277 79.2372L131.684 78.7408C131.011 78.1803 130.387 77.5236 129.73 76.803C129.09 76.1143 128.385 75.4737 127.584 74.8491C127.264 74.5929 126.928 74.4007 126.575 74.1925L125.919 73.7922C125.422 73.4879 124.942 73.0875 124.317 72.6711L123.565 72.1106C123.228 71.8383 122.876 71.5821 122.524 71.3419C121.29 70.6052 120.025 69.9165 118.76 69.2599C115.285 67.4182 111.89 66.2331 108.591 65.4163L108.014 65.2722C107.405 65.1281 106.781 64.9999 106.172 64.8878C105.852 64.8398 105.596 64.8238 105.372 64.8398C105.275 64.8398 105.195 64.8398 105.099 64.8398C104.795 64.8238 104.459 64.7918 104.106 64.7277C103.354 64.5836 102.585 64.3754 101.768 64.1672C101.015 63.959 100.215 63.7828 99.3819 63.6547C98.6612 63.5426 97.9566 63.5426 97.2519 63.5106H96.9476L94.097 63.4145C93.5044 63.4145 92.9119 63.3824 92.3193 63.4145C91.935 63.4145 91.4865 63.3504 91.0061 63.3024C90.7659 63.2703 90.5417 63.2543 90.3014 63.2383C89.5487 63.1742 88.6359 63.1262 87.691 63.2383C86.9063 63.3024 86.4098 63.3504 85.9774 63.3824C85.2727 63.4305 84.6642 63.4785 83.3029 63.7828C82.342 64.007 81.6534 64.1672 80.8686 64.0711C80.148 64.007 79.2831 64.007 78.2422 64.1832C77.6336 64.2953 77.009 64.4234 76.4005 64.5515C75.5036 64.7917 74.6388 64.9839 73.822 65.112C69.8183 65.7046 66.6473 66.6495 63.9088 67.8506C63.4604 68.0588 63.06 68.299 62.6436 68.5393C62.2432 68.7795 61.8749 69.0037 61.4905 69.1798C61.0901 69.356 60.6738 69.5162 60.2734 69.6603C59.5367 69.9165 58.8 70.2529 58.0633 70.7333C57.679 70.9895 57.3266 71.2458 57.0063 71.5661C56.8142 71.7422 56.606 71.9344 56.3978 72.1106C55.7732 72.6391 54.9724 73.0395 54.2037 73.5519C53.5951 73.9523 52.9385 74.3207 52.33 74.8331C51.9456 75.1694 51.5773 75.5218 51.2089 75.8741L50.4242 76.6108C50.1359 76.8991 49.8957 77.1233 49.6555 77.2994C49.2871 77.5717 49.0149 77.8279 48.6465 78.1803C47.5575 79.2533 46.1482 80.6946 44.8189 82.216L44.3065 82.7926C43.2014 84.0738 42.0644 85.4831 40.9273 87.3408L40.7351 87.6451C40.2387 88.3658 39.8383 89.1665 39.4059 89.9513C38.9735 90.736 38.5571 91.5367 38.2208 92.3535C38.1087 92.6097 38.0606 92.8179 37.9966 93.0902C37.9485 93.2343 37.8685 93.4105 37.7884 93.5546L37.4521 94.1472C37.2919 94.4354 37.1478 94.7557 37.0197 95.076C36.8435 95.5084 36.7154 95.9729 36.5873 96.4213L36.4752 96.7896C36.315 97.2861 36.1549 97.7986 35.9627 98.3751C35.5143 99.6884 35.0498 101.018 34.7295 102.363L34.4092 103.452C34.1049 104.429 33.9448 105.47 33.8167 106.527C33.7846 106.895 33.7526 107.263 33.7366 107.632C33.7366 107.776 33.7526 107.936 33.7686 108.096C33.7846 108.368 33.7686 108.545 33.7846 108.673C33.8167 109.265 33.7366 109.986 33.6565 110.691L33.6085 111.091C33.5604 111.443 33.5604 111.812 33.5284 112.164C33.4964 112.757 33.4483 113.333 33.4483 113.942C33.4323 114.678 33.4964 115.399 33.6405 116.12L33.6725 116.36C33.7846 117.001 33.9288 117.881 34.3131 118.346C34.6174 118.714 34.9377 118.874 35.242 118.778C35.4342 118.73 35.6103 118.586 35.7705 118.362H35.6904Z" fill="#231F20"/>
<path d="M143.841 119.015C143.264 119.447 143.136 120.184 142.992 120.776L142.784 121.465C142.672 121.801 142.576 122.138 142.48 122.474C142.32 123.035 142.223 123.611 142.143 124.172C142.063 124.556 141.983 124.956 141.855 125.341C141.807 125.517 141.743 125.693 141.663 125.869C141.567 126.109 141.439 126.334 141.327 126.574C141.134 126.942 140.894 127.343 140.798 127.695L139.981 129.376L139.693 129.889C139.052 131.026 138.348 132.179 137.643 133.332L137.467 133.62C137.243 134.005 137.003 134.373 136.73 134.886C136.426 135.494 136.106 136.055 135.705 136.535C135.513 136.759 135.321 136.952 135.113 137.16L134.712 137.544C133.768 138.473 132.919 139.466 132.086 140.379C131.269 141.292 130.276 142.012 129.187 142.701L128.883 142.893C128.723 143.005 128.579 143.101 128.435 143.213C128.371 143.261 128.306 143.309 128.226 143.357C127.922 143.55 127.618 143.774 127.33 143.998C127.073 144.206 126.817 144.398 126.561 144.575L125.68 145.183C125.456 145.327 125.248 145.471 125.007 145.568C124.703 145.696 124.399 145.808 124.095 145.92L123.662 146.08C123.23 146.256 122.813 146.496 122.365 146.609C121.628 146.801 120.956 147.169 120.251 147.441C119.995 147.537 119.754 147.633 119.514 147.73C118.826 148.002 118.121 148.226 117.416 148.418L116.183 148.787C115.382 149.043 114.71 149.267 114.021 149.539C113.557 149.731 113.06 149.892 112.564 150.036C112.131 150.148 111.683 150.228 111.074 150.324C109.329 150.58 107.567 150.852 105.757 151.157C105.453 151.205 105.165 151.253 104.909 151.253C104.732 151.253 104.556 151.253 104.38 151.221C104.092 151.189 103.804 151.173 103.515 151.189C103.179 151.205 102.827 151.237 102.474 151.285L100.921 151.461C100.344 151.525 99.7838 151.573 99.2073 151.605L98.6467 151.653C98.2143 151.685 97.798 151.733 97.3656 151.717C96.6769 151.717 95.8762 151.717 95.0594 151.765L94.2426 151.845L93.3458 151.925C92.7532 151.958 92.1607 151.925 91.5361 151.893C90.5592 151.845 89.5342 151.781 88.5093 151.925L88.0288 152.006C87.7406 152.054 87.4683 152.102 87.2121 152.102C86.9879 152.102 86.7156 152.054 86.2832 151.99C84.7778 151.765 83.3364 151.749 82.1033 151.749H80.2456C79.5089 151.717 78.7562 151.701 78.0195 151.669L76.3539 151.589L74.8325 151.477C74.4161 151.445 74.0157 151.413 73.5833 151.349L73.0869 151.253C72.7505 151.189 72.4142 151.109 72.0779 151.061C71.6615 150.997 71.2451 150.949 70.8127 150.901C70.2522 150.82 69.7077 150.756 69.2112 150.612C68.955 150.548 68.7148 150.468 68.4746 150.372C68.0422 150.212 67.6097 150.052 67.1133 149.94C66.761 149.876 66.3606 149.812 65.9762 149.779L65.6239 149.731C65.0634 149.651 64.5028 149.507 63.9744 149.347L63.7181 149.251L63.0775 149.043L61.7803 148.658C60.7393 148.37 59.7144 147.954 58.6254 147.698C57.3281 147.313 56.095 146.721 54.8779 146C53.7728 145.327 52.6358 144.639 51.4667 143.95C50.746 143.566 50.0413 143.021 49.4168 142.429C49.0324 142.076 48.648 141.724 48.2316 141.388C47.9274 141.147 47.6551 140.875 47.3989 140.603C47.1426 140.331 46.8864 140.042 46.6462 139.738C46.3259 139.322 45.9895 138.905 45.6372 138.505C45.1888 137.976 44.6923 137.512 44.324 137.16C44.1318 136.968 43.9717 136.775 43.7955 136.583L43.4752 136.215C43.0268 135.734 42.6264 135.142 42.162 134.405L41.6815 133.524L40.7366 131.763C40.1281 130.658 39.4875 129.569 38.7988 128.528C38.5266 128.143 38.2383 127.246 38.0301 126.606C37.934 126.302 37.8379 126.029 37.7739 125.805C37.3415 124.396 37.0532 123.451 36.6849 122.25L36.4446 121.289C36.2364 120.584 36.0603 119.271 35.2435 118.951C35.1154 118.903 34.9873 118.887 34.8431 118.887C34.5228 118.887 34.2506 119.015 34.0424 119.239C33.5299 119.799 33.5619 120.905 33.626 121.417C33.7061 122.042 33.8022 122.714 34.0264 123.499C34.2666 124.252 34.4908 124.988 34.8111 125.693C34.9873 126.125 35.1634 126.542 35.3876 127.054L35.9962 128.319C36.0923 128.512 36.1564 128.704 36.2204 128.896C36.3005 129.072 36.3646 129.248 36.4446 129.424C36.6688 129.873 36.877 130.321 37.1173 130.77L37.886 132.131C38.3824 133.012 38.8309 133.909 39.3273 134.773C39.4715 135.03 39.6156 135.286 39.7437 135.542L39.8558 135.814C39.9039 135.943 39.9519 136.055 40.016 136.167C40.3203 136.775 40.7206 137.288 41.105 137.72L41.4573 138.121C41.9698 138.745 42.5143 139.338 43.0748 139.898L43.219 140.058C44.1959 141.051 46.0056 142.909 46.8383 143.758C47.3508 144.334 47.8953 144.815 48.4559 145.247C48.648 145.391 48.8402 145.552 49.0484 145.664L49.5289 145.936C49.8492 146.112 50.1534 146.288 50.3937 146.48C50.8741 146.881 51.5147 147.153 52.0912 147.425C52.3315 147.537 52.5717 147.633 52.8119 147.714L53.4205 147.938C54.0931 148.178 54.7337 148.578 55.4224 148.995C56.095 149.363 56.7996 149.731 57.5844 150.004C57.9047 150.116 58.225 150.18 58.5453 150.244L59.1538 150.388C59.6183 150.5 60.0987 150.692 60.6753 150.885L61.3799 151.173C61.7002 151.317 62.0365 151.445 62.3729 151.557C63.4779 151.893 64.631 152.15 65.752 152.454C68.8269 153.303 71.6775 153.751 74.4321 154.023L74.9126 154.072C75.425 154.12 75.9215 154.184 76.434 154.184C76.6902 154.184 76.9144 154.152 77.0906 154.12L77.3148 154.088C77.5711 154.072 77.8433 154.055 78.1156 154.088C78.7401 154.136 79.3807 154.248 80.0534 154.376C80.678 154.488 81.3346 154.616 82.0232 154.648C82.6158 154.68 83.1763 154.648 83.7528 154.632H83.9931L86.3152 154.552C86.7957 154.552 87.2761 154.536 87.7566 154.504C88.0769 154.488 88.4292 154.536 88.8296 154.584C89.0218 154.6 89.2139 154.632 89.3901 154.648C89.9987 154.712 90.7354 154.744 91.5041 154.68C92.1447 154.616 92.545 154.616 92.8974 154.6C93.4739 154.568 93.9704 154.552 95.0754 154.344C95.8601 154.184 96.4207 154.071 97.0613 154.232C97.6378 154.376 98.3425 154.424 99.2073 154.36C99.7198 154.328 100.216 154.264 100.729 154.2C101.481 154.088 102.186 153.975 102.859 153.975C106.142 153.959 108.8 153.671 111.17 153.143C111.555 153.063 111.923 152.918 112.275 152.79C112.628 152.646 112.964 152.518 113.3 152.454C113.653 152.39 114.005 152.374 114.357 152.326C114.982 152.246 115.639 152.166 116.311 151.942C116.664 151.829 116.984 151.653 117.304 151.477C117.496 151.365 117.689 151.269 117.897 151.173C118.505 150.885 119.21 150.772 119.947 150.564C120.523 150.42 121.116 150.26 121.724 150.036C122.109 149.876 122.477 149.667 122.845 149.475L123.63 149.075C123.934 148.931 124.191 148.819 124.399 148.755C124.751 148.642 125.039 148.498 125.408 148.306C125.984 148.034 126.625 147.682 127.298 147.297C127.986 146.929 128.707 146.512 129.428 146.048L129.972 145.712C131.173 144.975 132.358 144.046 133.671 142.813L133.896 142.605C134.953 141.612 135.962 140.507 136.858 139.354C137.003 139.178 137.083 139.017 137.179 138.809C137.243 138.697 137.339 138.569 137.419 138.473L137.803 138.057C137.996 137.848 138.188 137.656 138.364 137.432C138.588 137.128 138.78 136.775 138.972 136.439L139.133 136.167C139.341 135.798 139.581 135.414 139.869 135.014C140.526 134.069 141.118 133.108 141.711 132.131L142.191 131.33C142.64 130.626 143.024 129.841 143.345 129.024C143.441 128.736 143.521 128.448 143.601 128.143C143.633 128.031 143.649 127.903 143.681 127.759C143.729 127.535 143.777 127.407 143.793 127.294C143.905 126.814 144.081 126.254 144.305 125.709L144.418 125.405C144.53 125.132 144.626 124.844 144.722 124.572C144.882 124.108 145.042 123.659 145.17 123.163C145.298 122.57 145.378 121.961 145.426 121.369V121.177C145.474 120.632 145.491 119.896 145.202 119.447C144.978 119.079 144.69 118.903 144.369 118.903C144.161 118.903 143.969 118.983 143.777 119.127L143.841 119.015Z" fill="#231F20"/>
</g>
</g>
<defs>
<clipPath id="clip0_1_30">
<rect width="180" height="180" rx="90" fill="white"/>
</clipPath>
<clipPath id="clip1_1_30">
<rect width="113.258" height="169.566" fill="white" transform="translate(33.3711 26)"/>
</clipPath>
</defs>
</svg>
